<svg width="124" height="31" fill="none" xmlns="http://www.w3.org/2000/svg"><path d="M15.719 5.856h8.291c.07 0 .312.24.312.31v8.157h5.516c.157 0 .364.345.316.513l-.057 11.79c-.047.131-.137.226-.222.33-.456.568-2.212 2.339-2.776 2.754-.1.074-.18.161-.318.167l-12.085-.049c-.052-.021-.226-.162-.226-.188v-5.748H6.524c-.195 0-.451-.352-.451-.517v-7.813H.28c-.026 0-.168-.174-.19-.224L.07 3.236c.066-.21.28-.266.422-.408C1.226 2.09 2.38.748 3.158.175c.1-.074.18-.161.318-.167L15.51.04c.117.094.272.256.273.411 0 .063-.063.117-.063.139v5.266zM14.123.899H3.68L1.634 2.964h10.442L14.122.9zm-1.388 8.605l2.082-2.03V1.587l-2.082 2.03v5.886zm-8.95-5.645H.94V6.68l2.844-2.822zm4.232 0H5.068L.94 7.955v2.925l7.077-7.022zm3.816 0H9.3L.94 12.154v2.513l.38-.001L11.768 4.38l.066-.52-.001-.001zM6.074 14.736v-3.132l1.453-1.45 2.709-.066 1.597-1.582V5.581l-9.158 9.156h3.4l-.001-.001zM22.657 6.75h-6.869c-.01.424.073.862-.177 1.236l-3.085 2.997-4.478.032-.31.21H18.25l4.406-4.475zM18.84 22.24c.153-.054.193-.163.212-.307.17-1.234-.127-2.856-.007-4.137.01-.1.004-.2.054-.291l3.075-3.076c.358-.262.912.053 1.245-.21V7.37l-4.579 4.51v10.36zM9.89 12.12H7.046v2.754L9.89 12.12zm4.232 0h-2.948l-4.198 4.164v2.857l7.147-7.022zm3.817 0h-2.533l-8.43 8.363v2.41c0 .172.535.111.626-.068l10.27-10.185.067-.52zM8.71 22.996h2.879l.279-.204 6.07-6.026v-2.925L8.71 22.997zm19.843-7.779H22.69l-2.047 2.065h5.863l2.047-2.065zm-1.387 13.149l2.08-2.031v-10.43l-2.08 2.031v10.43zM17.938 18.04l-4.996 4.956 2.865-.013 2.13-2.086V18.04zm4.44.138H19.95l.07 2.34 2.358-2.34zm1.283 0c-1.207 1.252-2.556 2.405-3.641 3.753.209.48-.978 1.659-1.326 1.852-.286.159-.565.043-.796.173l-2.528 2.517v2.512h.38L26.2 18.697l.066-.52h-2.603zm-6.556 10.807h2.949l6.21-6.16v-2.926l-9.159 9.087zm.833-5.988l-.035-.757c-.067.097-.76.668-.66.756h.695zm-1.25.894h-1.317v1.308l1.318-1.308zm4.65 5.094h2.948l1.977-1.961v-2.926l-4.926 4.888zm4.926 0l-.002-.688-.692.654.694.034z" fill="#fff"/><path d="M3.993 26.094h7.32c.228 0 .543.552.274.754-1.022.847-1.985 2.214-3.013 3-.11.082-.216.159-.346.206l-7.916.001-.312-.31v-7.924l3.233-3.263c.272-.286.76.031.76.341v7.195zM.87 28.504l2.22-2.17v-6.298L.87 22.205v6.298zm9.228-1.515H3.75l-2.185 2.203h6.348L10.1 26.99zm8.847-22.992c-.296 0-.513-.6-.204-.822L21.96.035 29.772 0c.34-.015.536.186.52.516-.157 2.363.2 4.97 0 7.303a2.01 2.01 0 01-.09.462l-3.204 3.223c-.184.19-.732-.014-.732-.245V3.997h-7.321zM28.693.899h-6.349L20.16 3.102h6.348L28.693.899zm-1.527 9.156l2.22-2.169V1.588l-2.22 2.168v6.299zM56.36 29.966c-.407.043-1.33.048-1.731 0-6.466-.766-6.927-10.675-.28-11.861 8.56-1.528 9.784 11.038 2.012 11.861zm-1.408-9.042c-3.305.51-3.016 6.31.667 6.223 4.032-.095 3.825-6.917-.667-6.223zM36.946 4.97c.077-.627.492-1.672.822-2.225 2.48-4.17 9.993-3.557 10.61 1.626h-2.944c-.636-2.175-3.918-2.19-4.955-.316-.79 1.428-.515 3.672.943 4.577 1.458.905 3.703.397 4.098-1.438h2.945c-.568 5.72-9.11 6.112-11.088 1.071-.149-.379-.389-1.115-.431-1.498-.046-.42-.05-1.38 0-1.796V4.97zM62.148.096V11.64H59.03V6.595l-2.376 2.398c-.56.328-1.005-.56-1.345-.904a25.45 25.45 0 00-1.475-1.408v4.958h-3.118V.096l1.174.08 4.499 4.877L60.974.177l1.174-.08zm13.006 18.071V29.71h-3.031v-5.044c-.57.5-1.114 1.04-1.648 1.58-.325.329-.71 1.147-1.258.818l-2.377-2.398v5.044h-3.03V18.167l1.125.043 4.535 4.91 4.51-4.873 1.175-.08zm33.344 5.558v-5.43l.13-.128h2.857l.13.128v11.372c-.265.226-.913.18-1.208-.003l-5.72-5.51v5.557h-3.118V18.168l1.174.08 5.494 5.35.261.127z" fill="#fff"/><path d="M47.96 25.264c-.432 5.575-8.672 6.114-10.9 1.399-.709-1.5-.742-3.603-.114-5.134 2.004-4.885 10.234-4.596 11.014.913h-2.901c-.493-1.103-1.278-1.666-2.527-1.677-4.122-.035-3.834 6.79.351 6.37 1.16-.117 1.848-.853 2.263-1.871h2.815-.001zm33.17 1.539v2.907h-3.031V18.295l.13-.128h5.196l.758.107c3.85.721 4.41 6.472 1.05 8.091-.264.127-1.209.438-1.462.438H81.13zm0-2.651h2.295c.03 0 .414-.176.473-.218.783-.546.812-2.355 0-2.9a3.437 3.437 0 00-.472-.217H81.13v3.335h-.001zm7.102 5.558l.02-.45 5.167-11.126h1.404l5.167 11.125.02.45h-2.944c-.16-.294-.418-1.124-.6-1.33-.126-.142-.23-.112-.391-.128-1.295-.127-2.825.091-4.146.022-.213.063-.636 1.165-.752 1.437h-2.945zm4.59-3.934h2.598l-1.257-2.992c-.145-.046-.267.346-.317.456-.375.82-.726 1.699-1.024 2.536zm24.336-.811l-3.916-6.223-.03-.495 3.167-.038 2.294 3.806 2.166-3.848H124l-.067.66-3.83 6.052v4.83h-2.945v-4.744zM68.038.182v8.806h4.243v2.65h-7.187V.183h2.944z" fill="#fff"/></svg>