<svg width="22" height="26" fill="none" xmlns="http://www.w3.org/2000/svg"><path fill-rule="evenodd" clip-rule="evenodd" d="M20 0a2 2 0 012 2v22a2 2 0 01-2 2H2a2 2 0 01-2-2V2a2 2 0 012-2h18zm0 24V2H2v22h18zM4 5a1 1 0 011-1h12a1 1 0 011 1v6a1 1 0 01-1 1H5a1 1 0 01-1-1V5zm2 1v4h10V6H6zm1.5 9.5a1.5 1.5 0 11-3 0 1.5 1.5 0 013 0zm5 0a1.5 1.5 0 01-2.91.51l-.018-.05-.022-.075-.019-.08A1.366 1.366 0 019.5 15.5a1.5 1.5 0 013 0zM16 17a1.5 1.5 0 100-3 1.5 1.5 0 000 3zm0 5a1.5 1.5 0 100-3 1.5 1.5 0 000 3zm-3.805-.594a1.494 1.494 0 00.001-1.81A1.498 1.498 0 009.5 20.5a1.5 1.5 0 002.695.906zM6 22a1.5 1.5 0 100-3 1.5 1.5 0 000 3z" fill="#2A2626"/></svg>