<svg width="24" height="24" fill="none" xmlns="http://www.w3.org/2000/svg"><path d="M16.532 6.167c.365 0 .669 0 .916.02.253.02.491.066.716.18l.127.07c.287.177.521.43.675.731l.073.17c.062.174.091.356.106.546.02.247.02.552.02.917v6.4c0 .364 0 .669-.02.916a2.09 2.09 0 01-.106.544l-.073.172a1.836 1.836 0 01-.675.73l-.127.07a1.875 1.875 0 01-.716.18c-.247.02-.55.021-.916.021H7.466c-.365 0-.67 0-.917-.02a2.12 2.12 0 01-.545-.107l-.171-.073a1.835 1.835 0 01-.73-.675l-.07-.126a1.875 1.875 0 01-.181-.716c-.02-.247-.02-.552-.02-.917V8.8c0-.364 0-.669.02-.916.02-.253.066-.491.18-.716l.07-.126c.177-.287.43-.521.731-.675l.17-.074c.175-.062.356-.091.546-.106.247-.02.552-.02.917-.02h9.066zm-3.408 5.592a1.834 1.834 0 01-2.124.09l-.127-.09-5.014-3.9a2.174 2.174 0 00-.01.106c-.016.197-.017.454-.017.836v6.4c0 .38 0 .637.017.834.015.191.043.284.074.344l.068.111a.836.836 0 00.296.253l.052.023c.06.021.148.04.29.051.198.017.455.017.837.017h9.066c.382 0 .638 0 .835-.017.19-.015.283-.043.343-.074l.112-.07a.833.833 0 00.252-.294l.023-.053c.021-.06.04-.148.051-.29.017-.198.017-.455.017-.836V8.8c0-.38 0-.638-.017-.835a2.026 2.026 0 00-.011-.106l-5.013 3.9zM7.466 7.167c-.382 0-.639 0-.836.017h-.01l4.867 3.785.118.077a.835.835 0 00.906-.077l4.865-3.784-.009-.001a11.443 11.443 0 00-.835-.017H7.466z" fill="#fff"/></svg>