<svg width="410" height="220" fill="none" xmlns="http://www.w3.org/2000/svg"><path d="M142.649 110.006c0 15.9-12.938 28.789-28.9 28.789-15.96 0-28.905-12.889-28.905-28.789 0-15.9 12.939-28.795 28.9-28.795 15.961 0 28.9 12.89 28.9 28.789l.005.006zm-38.757-17.684c-.21-.258-.92.867-1.409.97-.694.144-2.7-.82-3.748-.933-4.582-.477-9.567 3.31-5.846 7.441 1.667 1.848 8.884 3.032 8.884 5.641 0 2.416-4.291 2.861-6.12 2.315-1.828-.547-2.818-3.643-4.125-4.725.189 1.007-.274 5.566 0 5.892.194.231 1.022-1.039 1.845-1.055.608-.011 1.393.504 2.178.53 3.356.113 9.427.161 9.379-4.58-.049-4.741-7.41-4.784-9.653-6.943-2.673-2.577 2.13-5.828 6.2-2.432 1.017.847 1.291 2.121 2.409 2.69-.172-.895.253-4.511 0-4.822l.006.01zm3.232 1.875c.522 1.751 0 9.75 0 12.321 0 .273-1.608 1.216-1.613 1.87h6.453c.156-.852-.92-.472-1.35-1.061-1.038-1.425-.737-4.848 0-6.434 1.011 1.634 4.286 4.811 4.076 6.67-.069.61-1.349-.107-1.113.825h6.454c-1.173-2.068-6.502-7.613-6.906-9.461-.242-1.12 2.765-4.018 3.7-4.714.753-.557 2.076-.498 2.13-1.356h-5.372c-.049 1.174 2.387-.305 1.554 1.811-.441 1.114-3.593 3.98-4.512 5.148-1.178-.6-.484-6.182-.237-6.401.35-.317 1.759.492 1.581-.558h-6.448c-.145.868 1.404.643 1.614 1.334l-.011.006zm24.469-1.34c-2.969-.621-7.814.456-11.025 0 .027 1.12 1.716.129 2.092 1.399.307 1.034.221 12.573-.166 13.103-.544.756-2.033 0-1.926 1.029h8.067l-2.06-1.966c-.075-.729-.344-5.55.183-5.54.995.022.99.616 1.458 1.227.903 1.189 3.323 5.582 4.173 6.022.645.332 4.641.423 4.85.251.339-.267-4.947-5.78-5.307-6.766-.613-1.687.72-1.162 1.753-1.853 1.446-.97 2.011-3.702.909-5.079-.248-.305-2.7-1.773-2.996-1.837l-.005.01zm-45.442 18.215v3.75h55.418v-3.75H86.151zm53.777 8.571H87.764c.22 1.313 1.043 3.557 2.415 3.755l48.071-.075c-.026-.76 1.834-3.551 1.684-3.68h-.006zm-5.377 8.036H92.604c1.06 1.484 2.71 3.45 4.593 3.728 10.475-.589 21.914.863 32.266.049 1.28-.102 1.802-.108 2.91-.852.51-.343 2.737-2.406 2.172-2.925h.006zm-11.025 7.5c-6.297.3-13.009 0-19.36 0-.124 0-.721-1.018-.807-.263.07.295-.075.724 0 .793.237.22 5.47 1.484 6.228 1.57 4.861.552 10.212-.064 14.751-1.822 1.355-2.212-.559-.284-.812-.273v-.005zm73.944-45c.167-.166 4.05-.177 4.609.498l5.609 8.073v-8.57c0-.215 4.302-.215 4.302 0v15.535l-4.313-.257-5.904-8.314v7.768c0 1.05-3.421.836-4.303.803.42-2.041-.554-14.989 0-15.535zm121.808-.001c3.076.52 4.77 4.602 2.678 6.954-.817.916-2.538.884-2.947 2.148.5-.027.974.22 1.355.525.71.568 3.942 5.486 3.485 5.909-.193.177-5.092.086-5.308-.07-.591-.423-2.156-6.364-4.092-6.375-2.544-.016-.791 5.888-1.35 6.445-.15.15-4.302.214-4.302 0V90.178c3.194.375 7.448-.514 10.487 0h-.006zm-1.387 3.258c-.382-.333-3.614-.788-4.292-.343-.715.471-.72 2.351-.269 3.01.64.938 4.184.429 4.545-.096.188-.273.129-2.475.016-2.577v.005zM253.4 90.179c.151-.15 4.152-.156 4.302 0 .796.793-1.764 8.228 2.162 4.034 3.34-3.568 2.931-4.827 9.132-4.029-1.243 1.505-2.544 2.909-3.776 4.436-.435.54-1.14.14-1.113 1.173.065 2.191 5.373 7.907 5.426 9.654.011.412-4.7.482-5.399.021-.936-.616-2.651-6.182-3.479-6.171-.21 0-2.743 2.619-2.861 3.032-.258.873.048 3.252-.092 3.391-.15.15-4.302.214-4.302 0 0-2.1-.548-14.984 0-15.536v-.005zm-23.818.112c5.577-1.168 10.702.488 11.423 6.627.914 7.816-8.029 11.598-13.687 7.195-4.168-3.247-3.393-12.638 2.264-13.822zm2.151 3.215c-4.85 1.07-2.323 11.892 3.06 8.399 2.517-1.633 2.42-9.61-3.06-8.4zm62.926 9.916c-2.361 2.641-8.519 3.176-11.423 1.232-5.286-3.547-4.184-13.773 2.684-14.497 3.646-.385 8.196-.064 9.545 3.916.764 2.25.839 7.506-.806 9.343v.006zm-8.094-9.938c-2.909.873-3.436 10.152 2.479 8.92 4.012-.836 3.711-10.779-2.479-8.92zm-121.51-2.089c.317.353 1.463 2.839 1.221 3.064-.146.134-3.362.08-3.937-.091-1.049-.31-1.517-2.02-2.764-2.041-1.667-.032-2.162.868-1.92 2.384.129.83 9.223.578 9.201 5.914-.021 6.386-12.035 6.873-13.783 1.907-.172-.493-.425-2.003-.242-2.169.156-.145 4.076-.07 4.249.053.252.182.247 1.5.709 1.972 1.893 1.933 7.303-.402 2.953-2.674-2.861-1.494-7.594-.9-7.411-5.512.092-2.373 1.802-3.804 4.055-4.04 2.017-.208 6.292-.305 7.663 1.233h.006zm15.207 20.217c.113.086-1.151 2.427-1.242 2.534-.086.097-2.001.418-.909 1.211.414.3 2.038-.734 1.619 1.071l-1.614 1.072 1.614-.263c-.011.557-.35 1.35-.726 1.731-.285.289-1.103-.177-.893.675.678-.536 2.07.08 2.146.005.226-.236-.215-3.536 0-3.755.193-.193 2.447.203 2.689 0 1.554-1.307-2.049-.981-2.152-1.066-.156-.129-.123-3.509-.026-3.991.102-.525.973-.129 1.489-.456.334-.209-.145-1.243 1.501-.927.279.054.123.975.629 1.093.543.129 1.597-.155 1.791-.01.172.128.08 4.071-.06 4.232-.209.241-2.011-.049-2.092 1.125.592.112 2.539-.15 2.689 0 .151.15.103 3.712-.258 4.301-1.027 1.683-1.973-.723-1.785-.985.091-.123.898-.027.979-.418.123-.611.36-2.143-.818-1.822-1.215.868-.769 2.267-.812 3.488-.032.895-.489 1.479-1.075.793-.13-.15.032-2.764 0-3.488-.043-.878-.474-1.5-1.076-.793-.264.311.527 2.797-.522 3.509-1.989-.498-5.528 1.281-7.012.515-1.823-.938.962-.729 1.086-.815.253-.166-.898-2.276-.543-2.673 1.049-1.173.898 1.377 1.608 1.066l-1.614-2.143c-.225-1.58.296-.894 1.237-1.066 1.388-.251-.242-1.264-.64-1.526-.113-.07-.026-.44-.145-.52-.188-.129-.839.466-.952.402-.07-.038-.613-1.484-.543-1.532.339-.242 1.006-.183 1.608-.82 1.06-1.109.796-3.611 2.372-1.88.392.428.548 1.119 1.086 1.612.495.455 1.237.423 1.361.509l.005.005zm-1.613 1.602c.435-.434-1.076-2.127-1.345-2.132-.29-.005-1.441 2.046-1.344 2.132.097.086 2.592.097 2.689 0zm6.453-1.602c-.167-.075-2.517-.075-2.683 0-1.415.643 4.097.643 2.683 0zm0 1.607c-.167-.075-2.517-.075-2.683 0-1.415.643 4.097.643 2.683 0zm-8.873 5.888c-.35 0-.35.536 0 .536.349 0 .349-.536 0-.536zm20.167-5.893c.113-.086 2.689.155 2.683-.803-.01-1.12-4.877-.477-3.216-1.875.328-.274 4.588.273 4.819-.038.204-.279-.393-2.77 1.549-1.484.193.129.172 1.2.946 1.457.952.311 3.7-.171 3.974.065 1.646 1.392-2.565.964-2.689 1.071-.059.054-.059 1.554 0 1.602.237.203 2.501-.193 2.695 0 .22.219.096 5.303.021 6.187-.29 3.525-2.167 1.023-3.528.782-.935-.166-4.377.188-4.565 0-.135-.134.408-4.944-1.071-3.214-.263.305.259 3.986 0 4.286-.053.059-1.613.08-1.613 0 0-1.206-.323-7.795 0-8.036h-.005zm6.453-1.607c-.102-.086-2.592-.096-2.689 0-.909.911 2.028 2.255 2.684 1.602.059-.059.064-1.554 0-1.602h.005zm-3.764 2.679c-.866-.858-1.549 1.007-1.071 1.607.242.305 1.517-1.163 1.071-1.607zm3.226-.006c-.043-.064-1.414-.059-1.565.043-.118.08-1.231 2.545-1.118 2.641.317.268 4.592-.246 4.84 0 .113.113-.334 4.329 1.07 2.679.102-.124.118-3.102 0-3.215-.194-.192-3.081.188-3.232.006-.188-.231.199-1.875 0-2.154h.005zm3.227.006c-.059-.059-1.554-.059-1.608 0-1.42 1.425 3.028 1.425 1.608 0zm-4.84 3.75v1.071h2.151v-1.071h-2.151zm48.4-8.572c.22.215-.624 1.468-.516 1.565.435.38 1.946.187 1.591 1.644l-1.613.268c.312 2.202 4.405 2.577 4.835 1.072.866-3.049-2.469.45-3.222-.268-.446-.429.764-1.484.958-2.009.215-.589.016-1.57.118-1.741.043-.07 1.565-.07 1.613 0 .242.38-.521 1.768.538 1.612l1.613-2.143c.108.509-.145 2.004 0 2.154.135.139 1.646-.102 2.157 0 .554 1.87-1.683.718-2.157 1.071-.086.065-.08 2.068 0 2.138.194.171 2.082-.113 2.689 0 .468 1.945-1.807.723-2.145 1.071-.683.697 2.054 2.62 2.425 3.204.516.814-.274 1.618-.543 1.607-.301-.016-2.028-1.945-1.888-2.668-1.204.022-.193 2.818-.532 3.215-.054.058-1.56.058-1.608 0-.231-.268.231-2.925 0-3.215-.323-.396-1.925 2.277-2.947 2.143-1.371-.182-.495-.932.097-1.457.946-.841 1.387-1.741 2.317-2.561-.924-1.06-2.328.504-2.963.573-.414.043-1.14-.471-1.339-.3-.15.134.038 3.236 0 4.029-.043.879-.473 1.5-1.075.793-.264-.311.263-3.97 0-4.286-.28-.332-1.302 1.945-2.151.257.317-.643 2.377-4.414 2.156-4.543-.457-.267-1.936.627-1.619-.803 1.329-.9 1.377-.525 1.63-2.014.124-.718 1.522-.466 1.592-.397l-.011-.011zm-65.07-19.285h-4.84v15.535h4.84V90.179zM161.978 110c.704.595.086 1.028-.801 1.071-1.7.086-3.421-.064-5.115 0-.129.927 1.232.52 1.877.531.721.016 1.441-.016 2.157 0 .715.016 2.237-.44 1.882.798-.221.761-5.48-.097-5.916.273-.704.6-.08 1.029.796 1.072 1.7.085 3.42-.065 5.114 0-.596 1.596-2.694 1.028-4.038 1.066-.651.016-2.001-.397-1.877.535h7.529c.43 1.779-1.087.75-1.597 1.099-.124.08.672 1.676-1.087 2.383.344.702 2.501.649 2.689.804.307.257-.36 1.5-.833 1.602-.834.177-2.458-1.586-3.647-1.489-.946.075-5.791 1.987-6.275 1.489-.054-.059-.076-1.564 0-1.602.279-.15 1.29.193 1.581-.021.129-.097.161-3.091.037-3.199-.419-.348-2.683.836-2.156-1.066.527-.107 1.973.156 2.156 0 .205-.171-.156-4.5 0-5.357 1.173.214 7.19-.289 7.529 0l-.005.011zm-3.765 9.102l-2.145-2.674c-.049 2.47-.619 3.022 2.145 2.674zm2.689-2.668c-.736.064-2.888-.231-2.689.262.662 1.618 2.098 1.404 2.689-.262zm59.597-6.852c.962 1.629 2.301 1.725 1.715 4.162 1.404-.117.887-3.535 1.07-3.75.14-.16 4.152-.155 4.303 0 .182.183-.135 3.027 0 3.75.903.242.295-.985.801-1.082 2.506-.476.828 2.122.473 2.181-.941.155-2.495.112-2.823-.9-.387-1.19.753-3.295-1.14-2.882.102.637-.958 3.6-1.135 3.733-.35.263-1.124-.508-1.296-.508-.36 0 .145 6.214-.866 6.889-.237.155-2.006.134-2.086.059-.49-.45.822-1.49.968-1.977.274-.911.069-1.913.102-2.839l-1.608 2.143c-.113-.552.296-2.149-.269-2.149-.35 0-.156 4.682-1.613 4.816-1.184.113-.334-1.441-.237-1.832.258-1.028.753-2.094.532-3.198-.123-.627-1.387.155-1.108-1.12.113-.514.985-.016 1.098-.6.209-1.087-.253-2.619-.054-3.664.102-.525.973-.128 1.489-.45.312-.193.017-1.516 1.673-.793l.011.011zm.096 2.025c-.177-.182-1.532-.086-1.893.52-1.086 1.8-.29 3.375 1.893 2.689.14-.884-1.403-.611-1.613-1.339-.167-.579.5-1.249 1.07-1.334l.538 1.607c-.075-.52.135-2.004 0-2.138l.005-.005zm54.855-2.137c.145.123-.716 1.119-.527 1.826.188.707 1.747 1.174 2.14.847.269-.225-2.189-1.613-.269-2.668 1.452 1.087 1.081 1.12.893 2.421-.065.461.78.14.984.252 2.28 1.27-3.076.927-3.221 1.066-.517.493.36 5.507 1.946 5.786.269.048 2.48-.766 2.35.375-.01.118-1.274 1.891-1.392 1.907-2.797.471-3.915-3.6-4.394-5.786-.14-.643-.048-2.196-.124-2.282-.226-.257-5.582.279-5.915 0-.705-.6-.086-1.028.796-1.071 1.172-.059 3.855.3 4.614-.231.833-.584.312-2.142.505-2.453.043-.07 1.549-.043 1.614.005v.006zm46.28 4.258c.291.209 1.302-.128 1.581.022.07.037.07 1.569 0 1.607-.279.15-1.29-.193-1.581.021-.172.129-.204 4.131-.038 4.27.103.086 3.706-.241 2.152 1.066-.248.209-6.206.209-6.448 0-1.657-1.404 2.576-.954 2.689-1.066.15-.15.166-4.146 0-4.291-.264-.23-2.173.38-2.157-.268.032-1.575 1.673-1.061 2.097-1.387.361-.279-.209-3.933.06-4.233 1.769-1.96 1.435 4.115 1.645 4.265v-.006zm-74.294 11.32c.516.664.624 4.329 2.194 4.773.043-.991 1.673-6.423 3.227-4.821.242.252.226 6.696 0 6.959-.602.702-1.033.086-1.076-.793-.064-1.334.049-2.695 0-4.023l-1.882 3.766c-.29.584-.043 1.35-1.065 1.055-.468-.134-1.038-4.553-2.42-4.821.027 1.103.275 6.455-.817 4.291-.35-.691-.473-6.198-.258-6.439.07-.081 2.027-.043 2.103.048l-.006.005zm-51.095 0c.392.257 1.495 4.779 1.936 4.779.253 0 1.516-3.766 1.85-4.5.253-.557 1.592-.391 1.645-.327.28.327-.199 5.861 0 6.964-1.919-.3-.57-4.816-1.339-4.826-.333 0-1.156 4.307-2.151 4.816l-2.414-4.811c-.21 1.532.747 4.028-1.076 4.821.194-1.103-.28-6.653 0-6.964.054-.059 1.371-.07 1.554.048h-.005zm95.241-7.548h8.067v3.75h-8.067v-3.75zm1.613.536v.535h4.835v-.535h-4.835zm0 1.607v.536h4.835v-.536h-4.835z" fill="#2A2626"/><path d="M223.285 115.893h4.846v5.363h-4.846v-5.363zm3.227 1.607h-1.614v2.143h1.614V117.5zm64.801-4.821c-.167.005-.613.6-1.065.541-2.629-.359 1.409-1.875 1.711-2.041.795-.45 3.054-2.325 3.586-2.213.382.081 1.329 1.265 2.109 1.682 1.231.659 3.985.82 4.146.959.301.268-.28 1.447-.871 1.565-.506.101-.877-.493-1.006-.493-2.856 0-5.754-.123-8.604 0h-.006zm5.109-.536c.678-.675-1.404-2.641-2.146-.798-.494 1.221 2.044.9 2.146.798zm17.208 1.607c-.086-.075-2.156-.005-2.146-.803.017-1.066 5.679-1.002 5.911-.804.059.054.07 1.559 0 1.602-.216.15-2.157-.107-2.157 0v7.5c0 .08-1.613.08-1.613 0 0-1.104.29-7.259 0-7.5l.005.005zm-13.443 0v2.679h-9.142v-2.679h9.142zm-6.991 2.143c.446-.445-.828-1.907-1.07-1.607-.479.594.204 2.464 1.07 1.607zm1.608 0c.371-.82-.264-2.186-.532-1.602-.371.82.263 2.186.532 1.602zm2.151 0c.371-.82-.263-2.186-.532-1.602-.371.82.263 2.186.532 1.602zm1.613 0c.371-.82-.263-2.186-.532-1.602-.371.82.264 2.186.532 1.602zm-25.27-1.071c.059.053.07 1.569 0 1.607-.275.144-1.248-.188-1.576.037-.086.059-.129 2.041-.048 2.106.446.359 2.608-.874 2.156 1.071l-5.916 1.071c-.43-1.735 2.098-1.366 2.184-1.912.064-.418.038-2.207-.092-2.314-.22-.182-2.092-.145-2.086-.863.011-1.055 5.163-.98 5.372-.803h.006zm-116.284 10.301c.06.054.721 1.425.662 1.479-.549.487-1.818-1.511-3.431-1.018-.619.187-1.183 1.28-.866 1.553.898.793 5.738.434 4.044 3.761-1.339 2.625-6.459.011-5.114-1.618.226-.273 1.382 1.356 1.963 1.527.774.23 2.167.059 2.334-.728.344-1.64-3.415-1.495-4.071-2.379-1.608-2.154 2.689-4.12 4.49-2.582l-.011.005zm132.417 2.02c-.607.611-1.952-1.393-2.517-1.548-3.522-.938-3.759 6.343.011 5.223.699-.209 2.426-2.909 2.506-.734-3.952 5.143-9.153-1.602-4.824-4.8 2.781-2.052 5.437 1.243 4.824 1.854v.005zM322.235 125c.209.246.091 5.914-.248 6.466-.279.455-3.942.504-4.474-.155-.231-.284-.489-1.731-.473-2.207.102-3.879 3.931-1.752 4.125-1.967.091-.096-.242-3.68 1.075-2.142l-.005.005zm-3.738 5.866c1.624 1.173 3.969-1.795 2.151-2.946-2.694-1.699-3.011 2.319-2.151 2.946zm-87.684 1.098c-.194.198-1.049-.364-1.436-.353-.973.026-2.017.712-2.893.123-.565-.381-.748-2.004-.473-2.406.441-.642 3.441.07 3.189-1.371-.974-1.489-1.517 0-2.442.241-1.119.295-.936-.927-.78-1.045.565-.428 3.087-.787 3.797-.305.215.145 1.221 4.934 1.038 5.122v-.006zm-1.613-2.678c-.667-.665-2.867.889-2.146 1.601.075.075 2.07.075 2.151 0 .059-.059.054-1.548 0-1.601h-.005zM175.96 125c.247.295-.247 3.439 0 3.75.296.364 2.468-2.834 3.221-2.137.307.283-1.463 1.414-1.575 1.939-.162.766 2.194 2.689 1.57 3.412-.215.247-2.42-1.864-2.151-2.678l-2.146 2.678c.07-2.041-.102-4.119 0-6.166.043-.878.473-1.5 1.076-.793l.005-.005zm-2.457 4.222a2.65 2.65 0 01-2.657 2.646 2.65 2.65 0 01-2.657-2.646 2.65 2.65 0 012.657-2.647 2.65 2.65 0 012.657 2.647zm-3.964-1.511c-.166.182-.091 1.859.043 2.303.581 1.881 3.646.74 2.35-1.805-.467-.921-1.823-1.125-2.393-.498zm89.777 4.253c-1.237-.653-3.894.279-4.84-.535-.355-.306.177-1.742.769-2.181.941-.702 2.35-.407 2.457-.498.312-.273-.446-1.586-.801-1.596-.204 0-1.699 1.269-1.882 1.06-.984-1.114 2.586-2.544 3.522-1.103.533.819.097 3.6.775 4.853zm-1.614-2.678c-.667-.665-2.866.889-2.145 1.601.075.075 2.07.075 2.151 0 .059-.058.053-1.548 0-1.601h-.006zm20.307-2.014c.269.251.882 1.8.662 2.014-.242.23-3.491-.236-3.765 0-.059.053-.054 1.548 0 1.602.355.353 1.958-.311 2.533-.429 1.113-.23.882.82.694.959-2.463 1.875-5.577-.67-4.033-3.75.688-1.377 2.909-1.329 3.909-.402v.006zm-.409 1.473c-.516-2.384-3.689-1.007-2.688 0 .15.15 2.092-.091 2.688 0zm-91.832.535a2.64 2.64 0 01-2.646 2.636 2.639 2.639 0 01-2.645-2.636 2.638 2.638 0 012.645-2.635 2.638 2.638 0 012.646 2.635zm-3.866 1.586c.451.332 2.366.064 2.624-.82.753-2.598-2.522-3.776-2.963-1.312-.092.519.113 1.971.333 2.137l.006-.005zm26.325-1.58c-.145.144-3.7-.408-3.759.803-.065 1.318 3.044.482 3.759.273-1.958 3.9-6.507-.192-3.786-2.967 2.312-2.363 4.571 1.114 3.781 1.891h.005zm-1.076-1.608c-.312-.31-2.699.022-2.689 1.067 1.006.182 3.862.107 2.689-1.067zm88.895 1.592a2.638 2.638 0 01-2.646 2.635 2.638 2.638 0 01-2.646-2.635 2.639 2.639 0 012.646-2.636 2.639 2.639 0 012.646 2.636zm-3.899 1.596c.451.332 2.366.064 2.624-.82.753-2.598-2.522-3.776-2.963-1.312-.091.519.113 1.971.333 2.137l.006-.005zm16.645-5.86c.242.203-1.861 5.121.339 5.823.414.134 4.447-.177 2.888 1.135-.205.172-4.147.183-4.604-.503-.317-.477-.446-6.22-.236-6.466.053-.059 1.548-.048 1.613.005v.006zm-90.347 3.203c-1.124.246-2.893-1.565-3.732-.499-.097.124-.14 3.065-.033 3.183.78.846 3.356-1.441 3.765-1.072.376.343-1.156 2.336-2.84 2.057-4.657-.771-.699-8.903 2.84-3.669zm2.15-1.066c.226.236 1.559-.675 2.318-.477 1.774.461 2.081 4.104.64 5.298-.952-2.137 1.129-4.955-2.098-4.307l-1.393 4.307v-6.958c1.13-.124.264 1.853.538 2.142l-.005-.005zm51.567.059c.14.193.21 4.575.054 4.757-.602.702-1.033.086-1.076-.793-.118-2.421.968-3.889-1.828-3.514-1.468.198.22 3.975-1.393 4.312.156-.91-.226-5.121 0-5.357.043-.048.726.343 1.237.343.678 0 2.468-.482 3.006.257v-.005zm-106.415 4.762c-.301-2.255 1.167-4.955-1.833-4.312l-1.393 4.307c.156-.911-.226-5.121 0-5.357.053-.054.72.359 1.231.348.511-.011 1.033-.407 1.619-.273 1.737.386 2.269 4.495.371 5.287h.005zM314.83 126.5c.06.08 2.168.391.941 1.173-.145.091-.978-.225-1.086.332-.107.558-.075 1.543-.016 2.122.102 1.002 2.065.927 1.108 1.832-.183.171-2.114-.423-2.178-.873.398-2.298-1.318-4.404.833-6.086.587.102.033 1.034.393 1.5h.005z" fill="#2A2626"/><path d="M212.529 126.607c1.011.857-1.344 1.27-1.549 1.929-.14.444.253 5.051-1.135 3.428-.252-.294.178-4.419 0-5.357.64.488 2.582-.086 2.684 0zm27.013-.102c.059.08 2.178.386.941 1.168-.134.086-.763-.134-.946.086-1.097 1.318 1.344 3.766.952 4.205-1.646 1.843-1.565-4.012-1.727-4.2-.064-.075-2.258-.359-.946-1.141.473-.284 1.436.439 1.065-1.618 1.011-.166.242.975.656 1.505l.005-.005zm77.853-7.398c-.054.059-1.559.059-1.608 0-.161-.187-.242-4.816.807-4.816 1.048 0 .968 4.629.806 4.816h-.005zm-4.301-4.821c.193.23.269 5.866-.807 5.882-.995.021-.607-1.58-.548-2.143.107-1.018.242-1.848.285-2.941.037-.884.457-1.516 1.07-.798zm-123.153 12.321c1.017.873-1.355 1.254-1.548 1.929-.312 1.103.494 2.925-1.135 3.428v-5.357c.737.777 2.538-.123 2.683 0zm73.676 0c1.016.873-1.355 1.254-1.549 1.929-.312 1.103.495 2.925-1.134 3.428v-5.357c.736.777 2.538-.123 2.683 0zm-27.958 5.357c.247-1.055-.016-4.816-1.35-4.816-1.78 0-1.183 4.613-1.35 4.816-.893 1.082-1.533-4.869-1.07-5.357.177-.182 1.016.364 1.436.354.935-.016 2.016-.788 2.624.155.204.316 1.113 4.752-.29 4.843v.005zm-75.295-5.357c.172.204.091 4.591-.264 5.352-.946-.643-.753-1.441-.833-2.384-.054-.632-.146-4.42 1.097-2.968zm105.404 0c.172.204.091 4.591-.264 5.352-.946-.643-.752-1.441-.833-2.384-.054-.632-.145-4.42 1.097-2.968zm46.787-16.608v1.072l4.307.001.001-1.071-4.308-.002zM301.8 130.357c.225.225.258 3.836-1.076 2.673-.113-.101.376-.717.371-1.226 0-.322-.769-2.899.705-1.447zm-3.227 0c.059.059.059 1.548 0 1.602-1.431 1.414-1.431-3.016 0-1.602zm25.275 0c.318-.316 1.603.461 1.603.804 0 1.478-2.42.011-1.603-.804zm-163.484-5.351c.365.187-.312.916-1.071.53-.365-.188.312-.916 1.071-.53zm105.404 0c.366.187-.312.916-1.07.53-.366-.188.312-.916 1.07-.53z" fill="#2A2626"/><path d="M141.568 111.071H86.15v3.75h55.418v-3.75zm-1.638 8.572c.156.129-1.711 2.92-1.684 3.68l-48.072.075c-1.37-.203-2.188-2.448-2.414-3.755h52.17zm-5.379 8.036c.559.514-1.662 2.582-2.173 2.925-1.108.744-1.635.75-2.909.851-10.353.815-21.796-.637-32.267-.048-1.882-.278-3.533-2.244-4.593-3.728h41.947-.005zm-2.957-34.822c.296.064 2.753 1.532 2.995 1.837 1.108 1.377.538 4.11-.908 5.079-1.033.691-2.367.166-1.754 1.854.361.985 5.647 6.498 5.308 6.766-.209.166-4.205.08-4.851-.252-.849-.439-3.269-4.832-4.173-6.022-.468-.616-.462-1.205-1.457-1.226-.527-.011-.258 4.81-.183 5.539l2.06 1.966h-8.067c-.107-1.029 1.382-.279 1.925-1.029.388-.53.468-12.07.167-13.103-.376-1.27-2.065-.284-2.092-1.398 3.211.455 8.056-.622 11.025 0l.005-.011zm-5.109 7.5c.161.166 2.646.037 3.237-.263 2.888-1.457 1.684-7.842-2.366-6.648-1.22.36-1.118 6.648-.871 6.911zm-19.361-6.161c-.204-.69-1.753-.466-1.613-1.334h6.448c.177 1.056-1.237.247-1.581.557-.248.22-.941 5.802.236 6.402.92-1.168 4.071-4.034 4.512-5.148.839-2.121-1.602-.638-1.554-1.81h5.372c-.053.856-1.382.797-2.129 1.355-.936.696-3.942 3.6-3.7 4.714.403 1.843 5.733 7.393 6.905 9.461h-6.453c-.242-.938 1.043-.215 1.113-.825.21-1.854-3.065-5.036-4.076-6.67-.743 1.586-1.044 5.014 0 6.434.43.589 1.505.209 1.349 1.061H105.5c.005-.659 1.613-1.597 1.613-1.87 0-2.571.522-10.57 0-12.321l.011-.006zm-3.231-1.875c.253.31-.172 3.927 0 4.822-1.119-.568-1.393-1.838-2.409-2.69-4.071-3.401-8.874-.144-6.201 2.432 2.237 2.16 9.61 2.283 9.653 6.943.043 4.661-6.028 4.693-9.379 4.581-.785-.027-1.57-.541-2.178-.531-.828.016-1.656 1.286-1.844 1.056-.275-.327.188-4.886 0-5.893 1.306 1.082 2.328 4.194 4.124 4.725 1.797.53 6.115.102 6.12-2.314 0-2.609-7.222-3.793-8.884-5.641-3.721-4.13 1.27-7.924 5.846-7.442 1.049.108 3.054 1.077 3.748.933.49-.102 1.199-1.233 1.409-.97l-.005-.01zm19.633 42.858c.253-.011 2.167-1.94.812.273-4.539 1.762-9.885 2.373-14.751 1.821-.764-.085-5.997-1.35-6.228-1.569-.081-.075.065-.499 0-.793.086-.756.683.262.807.262 6.351 0 13.062.3 19.36 0v.006zm55.122-21.965c-.096.097-2.586.086-2.689 0-.102-.086 1.055-2.137 1.345-2.132.269.005 1.775 1.698 1.344 2.132zm6.453.006c1.415.643-4.098.643-2.683 0 .167-.075 2.517-.075 2.683 0zm0-1.608c1.415.643-4.098.643-2.683 0 .167-.075 2.517-.075 2.683 0zm-8.872 7.495c.35 0 .35.536 0 .536s-.35-.536 0-.536zm26.081-4.827c.199.279-.193 1.918 0 2.154.151.182 3.039-.198 3.233-.006.112.113.102 3.091 0 3.215-1.409 1.65-.958-2.566-1.071-2.679-.252-.252-4.522.268-4.84 0-.107-.091 1.001-2.561 1.119-2.641.156-.102 1.522-.102 1.565-.043h-.006zm.539-2.673c.059.054.053 1.548 0 1.602-.656.653-3.593-.697-2.684-1.602.097-.096 2.587-.086 2.689 0h-.005z" fill="#fff"/><path d="M200.707 118.036l-.002 1.071 2.157.004.001-1.072-2.156-.003zm4.831-3.75c1.42 1.425-3.028 1.425-1.608 0 .059-.059 1.554-.059 1.608 0zm-6.455 0c.447.444-.828 1.907-1.07 1.607-.478-.595.205-2.465 1.07-1.607zm-40.87 4.816c-2.765.348-2.195-.204-2.146-2.673l2.146 2.673zm2.689-2.668c-.586 1.666-2.028 1.88-2.689.263-.205-.499 1.952-.199 2.689-.263zm59.693-4.827c.135.134-.08 1.623 0 2.137l-.537-1.607c-.57.086-1.237.761-1.07 1.334.209.734 1.753.456 1.613 1.34-2.184.685-2.985-.89-1.893-2.69.366-.605 1.715-.702 1.893-.519l-.006.005zm72.616 8.038v.536l4.835.002v-.536l-4.835-.002zm0-1.607v.535l4.835.002v-.536l-4.835-.001zm-66.699-.538h-1.614v2.143h1.614V117.5zm69.911-5.357c-.103.102-2.641.428-2.146-.798.742-1.843 2.823.123 2.146.798zm-3.228 3.75c-.866.857-1.549-1.007-1.07-1.607.242-.306 1.516 1.162 1.07 1.607zm5.372 0c-.263.584-.903-.782-.532-1.602.263-.584.903.782.532 1.602zm-1.613 0c-.264.584-.904-.782-.532-1.602.263-.584.903.782.532 1.602zm-2.15 0c-.264.584-.904-.782-.533-1.602.264-.584.904.782.533 1.602zm23.694 14.973c-.866-.627-.543-4.639 2.151-2.946 1.823 1.146-.527 4.119-2.151 2.946zm-89.297-1.581c.059.059.059 1.549 0 1.602-.075.075-2.071.075-2.151 0-.715-.712 1.479-2.271 2.145-1.602h.006zm-59.662-1.574c.575-.622 1.925-.423 2.393.498 1.296 2.545-1.77 3.686-2.35 1.805-.14-.444-.21-2.121-.043-2.303zm88.164 1.574c.059.059.059 1.549 0 1.602-.075.075-2.071.075-2.151 0-.716-.712 1.479-2.271 2.145-1.602h.006zm19.896-.54c-.591-.091-2.538.15-2.688 0-1.001-1.013 2.172-2.384 2.688 0zm-95.696 2.121c-.221-.161-.431-1.613-.334-2.138.441-2.459 3.716-1.28 2.963 1.313-.258.884-2.172 1.152-2.624.82l-.005.005zm25.249-3.187c1.172 1.173-1.683 1.248-2.689 1.066-.016-1.045 2.377-1.377 2.689-1.066zm84.995 3.187c-.221-.161-.43-1.613-.334-2.138.441-2.459 3.716-1.28 2.963 1.313-.258.884-2.172 1.152-2.624.82l-.005.005z" fill="#fff"/><path d="M126.484 100.357c-.253-.262-.355-6.546.871-6.91 4.055-1.195 5.254 5.19 2.366 6.648-.591.294-3.076.428-3.237.262z" fill="#2A2626"/></svg>