<svg width="410" height="220" fill="none" xmlns="http://www.w3.org/2000/svg"><g clip-path="url(#clip0_281_33423)" fill="#2A2626"><path d="M317.519 78c.176.302.428.768.045 1.031-6.379 2.765-12.309 6.359-18.248 9.929-1.481.89-2.887 1.945-4.382 2.806-3.789 2.183-8.953 4.523-12.254 7.342-.308.264-.796.708-.07.743 9.193-6.089 19.484-10.382 29.976-13.742 2.072-.663 4.314-1.415 6.415-1.935.345-.084 1.145-.374 1.419-.21.387.61.383.767-.21 1.067-3.145 1.596-7.534 2.864-10.924 4.27a200.776 200.776 0 00-15.778 7.354l6.263.58c.032.022-.061.15-.114.175-.318.15-1.8.248-2.265.286-1.061.088-2.182.068-3.246.118-.617.029-1.715.271-2.304.115-.098-.027-.064-.253-.131-.233-1.065.685-2.198 1.267-3.253 1.968-.674.448-1.857.956-1.796 1.857l9.459.342 6.434.586c.287.231-.657.315-.769.332-1.616.247-3.296.154-4.915.362l.058-.463c-1 1.014-2.642 1.726-4.063 1.852-.965.086-1.991-.159-2.926.146-.573.475 1.295 2.031 1.646 2.358.965-.218 1.964.01 2.901.052 2.548.113 5.119.103 7.659.344.41.038 1.757.156 2.033.287.052.025.146.15.113.175-3.416.507-6.893.445-10.322.754 3.29 1.963 7.141 2.689 10.904 3.187v2.433l-9.917.465c-1.949.292-3.972.19-5.859.811-.137.175.904.407 1.017.431.978.194 2.209.286 3.217.378 3.752.343 7.545.411 11.308.581l-.656 2.785c-.968-.095-1.934.062-2.883.11-3.487.179-7.206.196-10.654.713-.453.068-2.342.348-.986.719 2.48.681 7.182.743 9.897.89 1.29.071 2.599.076 3.89.112.105.092-.924 2.443-1.054 2.595-.404.469-1.863.264-2.481.302-2.11.132-4.282.229-6.38.464-.985.11-2.198.204-3.073.636.002.31 2.572.593 2.957.636 2.513.284 5.074.313 7.597.466-.684 1.116-1.394 2.248-2.323 3.183-.976.21-5.56.292-6.091.867-.072.078-.118.21.007.237l4.461.751c-1.651 1.503-3.388 2.995-5.397 3.995-.426-.01-1.696-1.926-2.311-1.974-8.267.26-16.551.485-24.824.591-.935.012-3.235.012-3.951-.582-1.21-1.005 1.331-1.465 1.97-1.514 4.254-.318 9.368.151 13.688.241 3.909.081 7.818.042 11.729.219.236.011.407.112.63.123-.43-.541-.954-1.031-1.389-1.566-.435-.536-1.206-1.836-1.624-2.202-.476-.418-1.873-.062-2.493-.05-1.239.027-2.482-.025-3.721-.009-6.779-.13-14.258.853-20.996.357-1.049-.078-4.529-.955-2.22-2.111 1.473-.738 3.22-.445 4.772-.438 5.469.024 10.909.117 16.356.232 2.301.048 4.607.018 6.907.11l-2.378-3.475c-.18.426-1.114.2-1.622.233-7.436.461-15.381.43-22.858.34-.987-.011-1.826.092-2.86-.144-1.288-.295-3.019-1.305-1.02-2.225 2.279-1.049 6.31-.295 8.877-.518 1.145-.099 2.551-1.077 2.49-2.321-.57.251-.989.763-1.547 1.062-.995.535-2.205.361-1.933-.946-2.56-.3-7.49.662-9.668-.715-2.216-1.402 1.419-2.324 2.535-2.412 2.949-.233 6.161.19 9.138-.025l1.591-2.062h-11.426c-.261 0-1.46-.326-1.762-.441-1.847-.698-1.583-1.744.133-2.344 1.716-.6 3.459-.346 5.22-.338 3.404.015 6.807-.019 10.21-.007.433-.083 1.715-1.76 2.033-2.198l-14.891.099c-.852-.073-4.015-.572-3.377-1.953.297-.643 2.332-1.111 3.01-1.165 4.138-.324 9.038.072 13.223.126 1.586.019 3.173-.022 4.758-.007 1.019-.721 1.907-1.613 2.729-2.546l-18.733.23c-1.219-.228-3.043-.187-3.537-1.567.589-1.118 2.369-1.376 3.531-1.451 4.818-.307 10.325.175 15.196.241 2.088.028 4.184-.097 6.262.106l4.009-3.066-7.244.18c-1.975.014-3.951-.033-5.926-.01-2.795.033-9.487.632-11.831-.222-2.715-.99.198-2.111 1.623-2.21 5.678-.396 12.245.112 17.98.241 2.478.056 4.96.028 7.438.101l.222.242 5.626-3.997c-.89-.214-1.864.04-2.72.064-7.43.193-14.84.316-22.282.338-1.15.004-2.621.282-3.69-.36-1.606-.965 1.117-1.561 1.834-1.61 4.482-.313 9.731.145 14.268.241 3.802.08 7.576.131 11.372.229.869.022 1.848.244 2.757.087 8.231-5.402 16.855-10.366 26.186-13.645h.58l-.001-.002zm-39.208 32.384c.06-.843 0-1.805 0-2.665 0-.738-.768-2.555-1.243-3.155-.074-.092.004-.213-.264-.147l-.598 3.112c-1.303.369-2.471 1.566-2.882 2.859-.047.146-.181.222-.005.348.61.348 1.673-.48 1.744-.409-1.13 4.148-2.695 8.243-5.104 11.816l10.324.232c-.307-.467-1.011-1.408-1.573-1.498-.871-.14-4.692 1.292-5.155.803-.041-.195.052-.237.189-.33.323-.223 1.082-.45 1.511-.692 4.716-2.655 6.249-6.306 5.457-11.631-.098-.652-.283-1.303-.432-1.944l-.95 2.351-1.078 1.356c-.192-.097.053-.329.058-.406h.001zM89 106.85c.56-9.049 6.324-15.041 15.371-15.988 12.585-1.317 22.017 6.266 20.225 19.39-.816 5.969-4.705 11.344-10.539 13.168l10.671 6.721-5.28 3.01-10.757-8.37c-2.72-.126-5.348-.098-7.999-.815-6.618-1.79-11.206-7.637-11.692-14.451v-2.665zm16.797-13.637c-13.37 1.247-13.895 27.07-.599 28.915 6.564.911 11.233-3.411 12.535-9.576 1.848-8.743-.77-20.38-11.937-19.34h.001zM207.9 143c-1.278-1.26-.196-.753.643-.804.746-.046 1.299-.561 1.535-1.251l.144-5.709-.45-.011c-.062-.191-.129-.228-.026-.395.329-.529 1.684-1.256 2.213-1.68l.117 5.562h2.32v-6.547c0-.069-.518-.263-.291-.751.209-.448 1.697-1.265 2.147-1.624v5.098c.427-.326.91-.524 1.452-.578 1.903-.191 6.578-.212 8.454.012.879.105 1.777.722 2.234 1.476.075.124.39.818.39.885v2.027h6.148v-1.274h-2.552v-1.912c0-.192.573-.824.751-.987.935-.859 2.475-1.417 3.657-1.852v6.025h2.552v-6.72c0-.038-.584.003-.238-.527.148-.228.964-.768 1.244-.958.256-.173.547-.43.85-.484v10.427h-29.232c-.064 1.113-.511 2.022-1.508 2.549h-2.552l-.002.003zm27.027-7.879c-.113-.127-1.36.621-1.159 1.042h1.16l-.001-1.042zm-8.003 3.592v-2.028c0-.368-.788-.602-1.102-.637-1.919-.213-6.282-.176-8.24-.005-.276.025-.687.092-.91.251-.105.075-.42.559-.42.623v1.796h10.672zm5.8-31.05l11.83 16.334c-2.046-.221-4.144-.336-6.21-.235-.407.02-1.669.334-1.911.182-3.257-5.345-6.802-10.554-10.517-15.565l-1.082-.022.116 15.642c-2.15-.334-4.345-.316-6.494 0-.022-.297.11-.568.12-.863.304-8.788.487-17.613.229-26.423-.055-1.873-.045-3.75-.232-5.618.677.065 1.471.209 2.14.236 4.195.17 8.974-.6 12.995-.119 4.833.578 7.974 4.126 7.238 9.08-.621 4.182-4.239 6.753-8.221 7.373l-.001-.002zm-7.888-1.508c3.217.223 6.803.545 8.773-2.534 2.791-4.362.625-10.52-5.125-10.216l-3.648.237v12.513zm-64.96 17.842c-2.426-.327-4.865-.286-7.294-.014l-3.973-10.398c-3.958-.179-7.946-.202-11.913.004l-3.858 10.399c-1.479-.266-2.921-.341-4.397.009 3.783-8.898 8.111-17.583 11.77-26.537.916-2.24 1.85-4.495 2.498-6.832a5.227 5.227 0 003.08.032l.107.08c4.027 11.343 9.107 22.267 13.979 33.257h.001zm-17.053-25.026l-.26.149c-1.552 3.857-3.271 7.676-4.726 11.554h9.396l-4.409-11.703h-.001zm56.49-8.341c4.026 11.387 9.091 22.368 14.04 33.367-2.427-.327-4.864-.284-7.292-.015l-4.075-10.355c-3.133-.155-6.317-.3-9.461-.178-.299.012-.544.103-.807.12-.435.029-1.434-.146-1.671.186l-3.726 10.241c-1.473-.264-2.934-.37-4.403.002 4.668-11.155 10.308-21.926 14.269-33.369 1.006.35 2.124.318 3.127 0h-.001zm1.28 20.043l-4.522-11.817-4.757 11.817h9.279zm-17.053-19.58c-.223 1.255-.3 2.334 0 3.59l-4.461-.352-5.051.004-.121 25.554.353 4.108c-2.237-.276-4.494-.345-6.728 0 .08-1.795.148-3.591.233-5.387.053-1.139.205-2.333.235-3.472.188-6.933-.189-13.878-.12-20.804-3.293-.011-6.6-.01-9.86.348.182-1.197.136-2.396 0-3.59l3.3.236c7.411.093 14.834.227 22.218-.237l.002.002zm-28.302 46.462c.142.112.755-1.634.813-1.794a85.52 85.52 0 001.976-6.193l1.445.107 2.61 7.995c.164-.014.182-.17.235-.285 1.081-2.345 1.651-5.254 2.487-7.71l1.335-.114-3.83 10.891c-.426-.138-.778-.164-1.208-.015l-.123-.097-2.842-7.997-2.731 8.113c-.418-.191-.79-.13-1.211-.003l-3.831-10.89 2.382.113 2.493 7.881v-.002zm44.774 1.158h5.8v-2.143c0-.078-.394-.195-.452-.367-.222-.652 1.737-1.644 2.192-2.009v6.257h-13.224l.239-3.063c.223-.82.864-1.363 1.512-1.851.324-.244 1.956-1.127 2.018-1.228.038-.064.202-.774.176-.806-.04-.052-.65-.047-.524-.47l2.264-2.083v7.763h-.001zm-1.856-2.433c-1.185.422-2.242.976-1.972 2.433h1.972v-2.433zm-50.867-6.72c1.273.179 2.221 1.454 2.148 2.718-.091 1.568-1.411 2.412-2.785 2.784l3.943 5.332c-.094.193-.34-.058-.406-.058h-1.856c-.036 0-.129.111-.238.116l-.223-.115c-.935-1.443-1.821-2.955-2.866-4.324-.231-.301-.426-.761-.846-.778-.246-.011-.152.003-.177.175-.231 1.516.179 3.491.116 5.043-.689-.138-1.406-.2-2.087 0v-10.891c1.632.166 3.698-.222 5.277 0v-.002zm-3.306 4.982h1.798c.765 0 1.497-1.199 1.564-1.913.205-2.206-1.508-2.678-3.362-2.258v4.171zm-12.892-5.082l4.539 10.991c-.768-.193-1.536-.119-2.309-.008l-1.302-3.452c-1.359-.085-2.693-.183-4.048.037l-1.274 3.423c-.453-.123-.943-.22-1.388 0l4.65-10.995 1.132.004zm.364 6.588l-1.393-3.939-1.739 3.939h3.132zm39.313-6.593l4.534 10.995-2.323-.048-1.286-3.414c-1.359-.079-2.694-.186-4.048.041l-1.275 3.421c-.457-.122-.942-.222-1.39 0l4.627-10.939 1.161-.057v.001zm.359 6.593l-1.393-3.939c-.074-.057-.212.188-.254.266-.585 1.087-.971 2.529-1.485 3.673h3.132zm19.023-4.518c-.205.202-.199-.093-.243-.166-.604-1.015-1.212-1.385-2.473-1.213-1.398.19-2.017 1.998-.99 2.937 1.348 1.23 4.284.953 4.624 3.492.534 3.996-3.987 4.927-6.841 3.35l.24-1.795c.168-.205.668.797.763.916 1.609 2.001 4.987.398 3.863-2.004-.803-1.716-4.414-1.257-4.731-3.849-.457-3.747 3.461-4.528 6.204-3.178l-.419 1.51h.003zm-8.217-1.951c.423-.031.795.029 1.226.015.159-.005.306-.146.262.138-.836 1.257-1.662 2.539-2.412 3.849-.301.527-1.243 2.006-1.36 2.465-.188.737.222 4.232.06 4.405a4.542 4.542 0 00-2.087 0l.063-4.408-3.892-6.481c.45-.107.935.108 1.334.115.343.005.857-.278 1.219-.059.362.218 2.458 5.269 2.841 5.27l2.745-5.308.001-.001zm-42.707-.019c.021.297-.11.569-.12.863-.061 1.731.005 3.514.01 5.214.005 1.605-.086 3.222.11 4.812-.75-.124-1.453-.189-2.203 0v-10.891h2.204l-.001.002z"/><path d="M287.359 87.85c.021.169-.303.207-.415.22-4.277.484-8.906.391-13.22.469-1.261.022-4.672.432-5.663-.127-1.068-.604.116-1.089.791-1.148 3.363-.296 7.61.11 11.026.236 2.494.092 4.994.082 7.48.35h.001zm0 50.169c.021.169-.303.208-.415.22-4.313.489-8.984.392-13.336.47-1.248.022-4.558.431-5.547-.128-1.068-.604.116-1.088.791-1.147 3.369-.297 7.605.108 11.026.235 2.494.093 4.994.082 7.48.35h.001zm-42.804-7.996v10.428h-1.856v-8.458c0-.039-.584.002-.238-.528.149-.228.964-.768 1.245-.958.255-.172.546-.43.849-.484zm-41.791 11.385c.15.159.186.623.146.835-.134.734-2.294.965-1.946-.55.166-.722 1.425-.685 1.8-.285zm-4.991-11.707c.576-.136 1.317-.066 1.42.621.137.91-.671 1.122-1.42.951-.747-.17-.752-1.395 0-1.571v-.001zm37.234-.119c1.739-.524 2.308 1.544.554 1.605-1.294.044-1.103-1.441-.554-1.605zm-39.672.119c.627-.143 1.38-.013 1.432.73.058.833-.748.997-1.432.842-.749-.17-.749-1.402 0-1.572zm37.12-.119c1.795-.537 2.325 1.553.554 1.606-1.16.033-1.12-1.437-.554-1.606zm-28.417 11.59c1.469-.347 1.947 1.28.853 1.547-1.785.434-1.707-1.346-.853-1.547z"/></g><defs><clipPath id="clip0_281_33423"><path fill="#fff" transform="translate(89 78)" d="M0 0h232v65H0z"/></clipPath></defs></svg>