<svg width="410" height="220" fill="none" xmlns="http://www.w3.org/2000/svg"><g clip-path="url(#clip0_281_34052)"><mask id="a" style="mask-type:luminance" maskUnits="userSpaceOnUse" x="128" y="85" width="135" height="49"><path d="M262.63 85.015H128v48.379h134.63v-48.38z" fill="#fff"/></mask><g mask="url(#a)" fill-rule="evenodd" clip-rule="evenodd" fill="#2A2A2C"><path d="M137.165 85.015l-2.293 6.329h31.772l2.292-6.33h-31.771zm-3.44 9.492l-2.292 6.328h31.771l2.293-6.328h-31.772zm-3.432 9.492L128 110.327h31.771l2.292-6.328h-31.77zm65.252 8.74v.134c1.451.537 2.838 1.476 3.565 2.079 2.245 1.878 3.236 4.36 3.236 7.58 0 5.3-2.773 9.123-7.33 10.331-1.387.402-2.839.537-5.548.537h-13.8V94.629h12.217c2.509 0 4.226.133 5.744.535 4.425 1.208 7.331 4.294 7.331 9.19 0 2.616-.925 4.831-2.443 6.306-.661.67-1.585 1.476-2.972 2.079zm-12.217 4.091v10.196h5.283c1.584 0 3.037-.133 4.095-1.14 1.056-1.006 1.518-2.28 1.518-3.958 0-1.273-.331-2.481-.991-3.353-1.122-1.409-2.509-1.745-4.886-1.745h-5.019zm-.066-6.707h4.292c1.32 0 1.981 0 2.641-.202 1.784-.537 2.907-2.145 2.907-4.359 0-2.615-1.189-3.757-2.907-4.293-.727-.201-1.452-.268-2.906-.268h-4.027v9.122zm30.574 23.277v-32.266h-11.027v-6.505h30.641l-2.178 6.505h-9.775V133.4h-7.661zm21.99 0V94.629h24.831l-2.178 6.505h-15.057v8.586h6.141c4.953 0 7.529 1.208 9.312 2.75 1.386 1.208 3.763 3.891 3.763 9.191 0 5.232-2.443 8.115-4.49 9.592-2.377 1.676-4.886 2.147-9.972 2.147h-12.35zm7.596-6.507h5.745c2.179 0 3.499-.537 4.424-1.745.462-.603 1.123-1.677 1.123-3.689s-.661-3.421-1.981-4.428c-.792-.603-1.849-.937-3.632-.937h-5.679v10.799z"/></g></g><defs><clipPath id="clip0_281_34052"><path fill="#fff" transform="translate(128 85)" d="M0 0h135v49H0z"/></clipPath></defs></svg>