<svg width="410" height="220" fill="none" xmlns="http://www.w3.org/2000/svg"><g clip-path="url(#clip0_281_34022)" fill-rule="evenodd" clip-rule="evenodd" fill="#2A2A2C"><path d="M269.401 154.305h-6.82a.09.09 0 01-.049-.014.084.084 0 01-.034-.038.093.093 0 01-.011-.051.097.097 0 01.02-.049 3.61 3.61 0 00.152-.216.812.812 0 01.276-.3c.444-.239.789-.629.971-1.1a7.84 7.84 0 00.491-3.249c.025-8.406.025-16.132 0-23.62a23.642 23.642 0 00-.345-3.4 1.958 1.958 0 00-1.173-1.579.57.57 0 01-.229-.29 1.928 1.928 0 00-.108-.2.1.1 0 010-.094.082.082 0 01.034-.035.085.085 0 01.047-.013h6.648a.092.092 0 01.085.056.456.456 0 01.032.368.453.453 0 01-.3.227 1.584 1.584 0 00-.935.924 6.436 6.436 0 00-.493 2.574c-.027 1.278-.031 2.578-.036 3.834v1.3a.688.688 0 00.015.128.043.043 0 010 .016h8.08v-.39c-.008-.506-.015-1.012-.02-1.518a96.193 96.193 0 00-.089-3.744 9.53 9.53 0 00-.4-1.993l-.044-.16a1.506 1.506 0 00-.953-1 .596.596 0 01-.247-.269 2.83 2.83 0 00-.132-.2.092.092 0 01-.019-.047.106.106 0 01.009-.05.092.092 0 01.084-.051h6.834c.017 0 .034.005.049.014a.097.097 0 01.044.089.097.097 0 01-.02.049c-.057.074-.1.146-.143.208a.627.627 0 01-.253.274 1.707 1.707 0 00-1.132 1.432l-.053.463a36.512 36.512 0 00-.307 3.964c-.026 6.737-.021 14.054.018 22.369a18.5 18.5 0 00.348 3.121 1.956 1.956 0 001.213 1.649.448.448 0 01.2.3c.021.062.045.122.073.181.007.014.01.03.009.045a.095.095 0 01-.014.044.103.103 0 01-.034.032.103.103 0 01-.045.011h-6.793a.096.096 0 01-.084-.051.106.106 0 01-.009-.05.092.092 0 01.019-.047c.053-.07.1-.139.135-.2a.59.59 0 01.267-.284 1.597 1.597 0 001.121-1.37l.013-.1c.177-1.048.283-2.106.317-3.168.029-4.071.03-8.21.031-12.213v-4.44a1.526 1.526 0 00-.013-.166c0-.013 0-.026-.005-.04h-8.082v4.906c0 3.976.006 7.951.018 11.926-.05 1.137.088 2.274.411 3.366a1.89 1.89 0 001.116 1.316.476.476 0 01.222.288c.028.059.058.125.095.188.008.014.012.03.012.046a.094.094 0 01-.012.047.09.09 0 01-.073.044zm19.9 0h-6.737a.09.09 0 01-.045-.012.09.09 0 01-.033-.031.09.09 0 010-.089c.027-.059.05-.12.071-.182a.507.507 0 01.209-.325 2.086 2.086 0 001.2-1.577 13.98 13.98 0 00.334-2.625c.029-8.523.029-16.366 0-23.976a21.15 21.15 0 00-.337-3.175l-.014-.086a1.96 1.96 0 00-1.169-1.536.582.582 0 01-.23-.288 2.335 2.335 0 00-.109-.193.088.088 0 01-.013-.047c0-.017.004-.033.013-.047a.082.082 0 01.034-.035.085.085 0 01.047-.013h6.786c.016 0 .033.004.047.013a.098.098 0 01.048.082.098.098 0 01-.013.048 1.29 1.29 0 00-.1.183.525.525 0 01-.235.281 1.72 1.72 0 00-1.155 1.414 23.475 23.475 0 00-.338 3.129 213.245 213.245 0 00-.028 5.174v2.1c0 .037 0 .074.007.117l.016-.018.289-.43a85.534 85.534 0 004.96-8.012 4.87 4.87 0 00.665-2.423 1.105 1.105 0 00-.529-1.055.531.531 0 01-.188-.293 2.097 2.097 0 00-.075-.179.09.09 0 01.078-.134h6.775c.017 0 .034.005.048.013a.096.096 0 01.046.088.095.095 0 01-.019.049 2.445 2.445 0 00-.115.182.492.492 0 01-.252.267 4.585 4.585 0 00-2.757 1.984c-1.114 1.574-2.191 3.217-3.232 4.807l-.838 1.277a.427.427 0 00.012.343c3.182 5.827 4.823 12.108 6.124 18.027.38 1.726.817 3.469 1.24 5.154l.011.043a1.835 1.835 0 001.027 1.39.481.481 0 01.2.292c.024.059.05.124.083.188.007.014.011.03.01.046a.087.087 0 01-.047.077.09.09 0 01-.045.012h-6.16a.092.092 0 01-.088-.119c.014-.051.026-.103.034-.156a.425.425 0 01.151-.325 1.646 1.646 0 00.792-1.755 33.438 33.438 0 00-.447-4.017 60.031 60.031 0 00-5.066-15.245c-.049-.1-.1-.2-.17-.336-.19.283-.374.564-.557.841a56.133 56.133 0 01-1.469 2.161 2.786 2.786 0 00-.534 1.759c.014 1.814.015 3.659.016 5.443 0 2.094 0 4.259.025 6.389.032 1.064.148 2.124.349 3.169a1.829 1.829 0 001.2 1.589.441.441 0 01.2.284c.024.063.051.126.082.186.007.014.011.03.011.045a.104.104 0 01-.011.046.09.09 0 01-.036.029.107.107 0 01-.046.008l-.003.005zm-47.761-15.852a10.12 10.12 0 00-8.571-6.542c-.325-.036-.645-.059-.984-.084l-.369-.027v-.44l-.008-1.91-.015-4.655a8.1 8.1 0 01.035-.881.87.87 0 01.541-.873.864.864 0 01.359-.062 18.12 18.12 0 012.353-.082 5.127 5.127 0 014.151 2.193 11.608 11.608 0 011.749 4.224l.083.311.048.171c.006.021.019.04.037.052a.094.094 0 00.063.015l.191-.035a.095.095 0 00.056-.036.091.091 0 00.018-.064 504.792 504.792 0 00-.869-6.7c-.148-1.105-.3-2.2-.437-3.289a.103.103 0 00-.014-.038.11.11 0 00-.029-.028.11.11 0 00-.038-.014.09.09 0 00-.04.005c-.117.039-.228.079-.337.119a4.137 4.137 0 01-.662.2 5.347 5.347 0 01-.92.052h-11.143a.09.09 0 00-.037.008.077.077 0 00-.031.022l-.114.123a.09.09 0 00-.024.056.088.088 0 00.016.059c.025.037.048.075.069.115a.57.57 0 00.234.27 1.868 1.868 0 011.151 1.486l.021.146c.181 1.03.286 2.071.316 3.116.029 8.471.019 16.783 0 23.8.003.737-.057 1.473-.179 2.2a2.588 2.588 0 01-1.39 2.242.447.447 0 00-.192.321 1.96 1.96 0 01-.068.2.084.084 0 00-.007.044c.001.016.006.03.015.043.008.013.02.023.033.03a.099.099 0 00.044.011h2.837c.6 0 1.2 0 1.793-.007h1.28c1.213 0 2.464 0 3.691-.1a6.093 6.093 0 005.132-3.331 10.37 10.37 0 001.11-3.541 16.215 16.215 0 00-.948-8.895zm-2.826 9.588a8.459 8.459 0 01-1.17 2.054 4.4 4.4 0 01-3.939 1.7l-.29-.015c-.285-.014-.579-.028-.864-.064a.785.785 0 01-.737-.775c-.055-.47-.086-.941-.092-1.414a6531.27 6531.27 0 01-.005-12.52v-2.389c0-.078.005-.155.01-.249v-.063h.06a6.655 6.655 0 015.893 3.169 10.798 10.798 0 011.625 4.679 11.385 11.385 0 01-.491 5.887zm-83.382 6.359h-5.733a.191.191 0 01-.088-.022.19.19 0 01-.067-.062.18.18 0 01-.012-.176c.022-.054.042-.11.059-.166a.504.504 0 01.253-.37 1.593 1.593 0 00.977-1.5l.013-.107c.133-.99.212-1.986.236-2.984.022-4.345.023-8.762.025-13.034v-3.53c0-.048 0-.095-.007-.146h-6.738v4.501c0 4.006 0 8.149.027 12.223a22.89 22.89 0 00.367 3.374 1.457 1.457 0 00.877 1.21.535.535 0 01.249.346c.021.061.046.121.074.179.014.028.02.059.019.091a.19.19 0 01-.028.089.205.205 0 01-.067.064.191.191 0 01-.09.023h-5.763a.19.19 0 01-.085-.02.191.191 0 01-.099-.138.18.18 0 01.009-.086c.017-.055.031-.11.043-.166a.494.494 0 01.061-.213.51.51 0 01.144-.169c.365-.238.663-.567.863-.955.201-.387.298-.82.281-1.256.121-1.222.18-2.45.177-3.678a2737.9 2737.9 0 00-.008-20.718c-.009-1.472-.159-2.976-.305-4.429l-.039-.394a1.703 1.703 0 00-.9-1.368.65.65 0 01-.251-.351c-.026-.059-.053-.124-.09-.19a.184.184 0 01-.022-.092c0-.032.009-.063.025-.09a.19.19 0 01.068-.067.18.18 0 01.091-.024h5.773c.029 0 .059.007.085.021a.181.181 0 01.098.139.184.184 0 01-.009.087 1.516 1.516 0 00-.043.15.502.502 0 01-.221.378 2.071 2.071 0 00-1.093 1.871 23.82 23.82 0 00-.192 2.824c-.021.941-.016 1.863-.011 2.84v1.1h6.718l-.033-1.452c-.038-1.675-.076-3.408-.152-5.111a3.85 3.85 0 00-.4-1.375 1.505 1.505 0 00-.378-.432 3.562 3.562 0 01-.264-.256 3.324 3.324 0 01-.231-.3l-.144-.2a.18.18 0 01-.039-.095.18.18 0 01.018-.102.18.18 0 01.169-.103h5.813a.184.184 0 01.167.264 1.774 1.774 0 00-.066.171.565.565 0 01-.244.366 1.786 1.786 0 00-.987 1.629l-.032.356c-.112 1.25-.228 2.542-.234 3.809-.028 7.1-.028 14.114 0 20.852.015 1.479.109 2.957.281 4.426a1.967 1.967 0 001.005 1.75.523.523 0 01.219.375c.014.057.031.113.051.168a.2.2 0 01.011.087.19.19 0 01-.096.142.192.192 0 01-.085.022zm106.45-.23c-.023-.062-.04-.125-.056-.183a.545.545 0 00-.165-.326 2.887 2.887 0 01-1.1-1.947c-.6-3.047-1.383-7.059-2.136-11.068a2086.057 2086.057 0 01-2.739-14.813c-.194-1.066-.342-2.22-.48-3.74a1.58 1.58 0 01.592-1.387.68.68 0 00.178-.33c.021-.063.044-.132.075-.2a.097.097 0 00.007-.045.09.09 0 00-.049-.072.092.092 0 00-.043-.011h-1.2c-1.613 0-3.169 0-4.725.007a.347.347 0 00-.313.224.437.437 0 00.141.394c.264.172.469.419.588.711.12.291.148.611.081.919a24.822 24.822 0 01-.375 2.769l-.014.071c-1.5 7.482-3.053 15.218-4.624 22.816-.244 1.184-.6 2.368-.944 3.513-.099.327-.197.655-.293.982a1.937 1.937 0 01-.994 1.178.696.696 0 00-.251.323c-.035.066-.072.138-.119.212a.096.096 0 00-.015.046.09.09 0 00.011.048c.008.014.02.026.034.035.014.008.03.013.047.013h5.771a.103.103 0 00.081-.048.098.098 0 00.013-.047.095.095 0 00-.013-.047 1.989 1.989 0 01-.108-.2.582.582 0 00-.224-.288 2.035 2.035 0 01-1.054-1.336 5.454 5.454 0 01-.108-2.7c.434-2.534.906-5.12 1.362-7.621.176-.961.352-1.928.528-2.9l.212.015c.16.007.319.023.478.047a5.525 5.525 0 013.044 1.656 13.302 13.302 0 013.723 10.481 2.795 2.795 0 01-1.14 2.365.431.431 0 00-.138.333 1.691 1.691 0 01-.026.156.095.095 0 00-.002.041.09.09 0 00.018.038.1.1 0 00.032.026.117.117 0 00.041.01h6.306c.015 0 .03-.004.043-.011a.091.091 0 00.033-.029.107.107 0 00.014-.039.095.095 0 00-.005-.041zm-12.14-17.807l2.429-12.01.743 4.018c.712 3.859 1.426 7.718 2.14 11.576-1.13-1.705-2.668-3.362-5.312-3.584zm-63.492 17.783c-.025-.062-.042-.125-.06-.185a.778.778 0 00-.208-.4 2.28 2.28 0 01-.756-1.346 202.347 202.347 0 01-.931-5.17 896.856 896.856 0 01-1.124-7.008c-.182-1.144-.361-2.286-.539-3.427l-.471-2.947c-.4-2.495-.795-4.991-1.183-7.486a58.86 58.86 0 01-.477-3.835 1.821 1.821 0 01.523-1.57.67.67 0 00.16-.385c.01-.054.02-.11.036-.166a.188.188 0 00-.03-.162.195.195 0 00-.066-.055.193.193 0 00-.082-.019h-5.345a.191.191 0 00-.088.022.189.189 0 00-.097.147.195.195 0 00.015.089c.026.06.046.12.065.176a.75.75 0 00.212.376 1.22 1.22 0 01.473.986 9.153 9.153 0 01-.055 1.613 424.726 424.726 0 01-1.128 6.858l-.362 2.134c-.9 5.174-1.819 10.525-2.764 15.781a43.475 43.475 0 01-1.092 4.385 1.88 1.88 0 01-.466.662c-.108.118-.217.236-.309.358-.077.1-.146.211-.229.343l-.12.189a.182.182 0 00-.029.093.177.177 0 00.022.096.189.189 0 00.163.096h5a.182.182 0 00.158-.089.185.185 0 00.027-.091.194.194 0 00-.022-.091 1.669 1.669 0 01-.08-.178.574.574 0 00-.243-.337 1.823 1.823 0 01-.9-1.347 9.32 9.32 0 01.052-3.694c.278-1.861.591-3.749.894-5.575l.315-1.9c.075-.45.156-.9.237-1.351l.088-.5a4.062 4.062 0 012.459 1.144 10.801 10.801 0 012.819 4.592 14.39 14.39 0 01.861 6.492 2.868 2.868 0 01-.909 2.141.566.566 0 00-.169.393 1.503 1.503 0 01-.032.165.183.183 0 00.03.162c.018.022.04.041.065.054a.198.198 0 00.083.019h5.433a.185.185 0 00.176-.252zm-6.24-14.712a21.824 21.824 0 00-1.355-1.749 4.218 4.218 0 00-2.817-1.385l1.965-11.29 2.315 14.573-.108-.149zm-40.666 14.723a1.672 1.672 0 01-.046-.182.673.673 0 00-.185-.4 2.599 2.599 0 01-.849-1.63 158.769 158.769 0 01-.762-4.2c-.427-2.635-.847-5.272-1.261-7.91l-.476-3.005c-.18-1.133-.361-2.267-.543-3.4-.4-2.507-.818-5.1-1.208-7.652-.2-1.3-.317-2.612-.4-3.613a1.683 1.683 0 01.479-1.367.724.724 0 00.164-.409c.01-.055.02-.113.036-.171a.198.198 0 00.003-.084.2.2 0 00-.035-.077.183.183 0 00-.147-.072h-5.324a.182.182 0 00-.091.024.184.184 0 00-.068.065.188.188 0 00-.005.182l.1.2c.067.129.121.233.181.337.049.086.11.17.17.255.108.126.187.274.233.434.089.523.103 1.057.043 1.584-.327 2.205-.7 4.506-1.135 7.034l-.366 2.123c-.889 5.163-1.809 10.5-2.753 15.744-.273 1.5-.666 2.933-1.153 4.645a1.685 1.685 0 01-.425.6c-.106.11-.207.226-.3.347a3.922 3.922 0 00-.228.357l-.118.2a.183.183 0 00-.003.187.193.193 0 00.067.069.194.194 0 00.094.025h4.941a.184.184 0 00.167-.264c-.029-.061-.051-.122-.072-.178a.563.563 0 00-.23-.346 1.876 1.876 0 01-.88-1.316 9.273 9.273 0 01.043-3.758l.029-.2c.23-1.582.5-3.186.759-4.737l.266-1.594c.116-.7.238-1.4.36-2.1l.112-.649a.422.422 0 01.087 0c.096.007.191.02.285.04a4.9 4.9 0 013.112 2.237 14.801 14.801 0 012.658 10 2.692 2.692 0 01-.909 2.087.514.514 0 00-.149.411 1.659 1.659 0 01-.017.158.185.185 0 00.039.153.172.172 0 00.064.049.18.18 0 00.079.018h5.382a.189.189 0 00.15-.076.184.184 0 00.035-.175zm-10.4-17.865c.658-3.771 1.312-7.535 1.962-11.292l2.3 14.455a5.973 5.973 0 00-1.759-2.082 5.976 5.976 0 00-2.503-1.081zM112.386 154.4h-4.191a.185.185 0 01-.185-.185c0-.338 0-.673-.009-1.007-.009-.7-.019-1.42.016-2.127l.032-.628c.1-1.9.2-3.867.392-5.794.329-3.21.71-6.338 1.131-9.3a71.272 71.272 0 012.5-10.969 5.567 5.567 0 00.118-2.906 1.437 1.437 0 00-.249-.456 3.455 3.455 0 01-.183-.281c-.054-.096-.1-.2-.156-.315l-.085-.181a.18.18 0 01.011-.178.184.184 0 01.156-.086h10.528a.18.18 0 01.088.023.174.174 0 01.067.062.185.185 0 01.013.177c-.029.062-.05.126-.07.185a.628.628 0 01-.231.371 2.123 2.123 0 00-1.014 1.8 29.116 29.116 0 00-.249 3.312 3728.81 3728.81 0 000 22.951c.03 1.118.141 2.233.331 3.336a1.797 1.797 0 00.915 1.373c.124.089.211.22.245.369.021.058.044.121.074.182a.2.2 0 01.018.091.188.188 0 01-.185.174h-5.72a.189.189 0 01-.146-.07.191.191 0 01-.035-.075.179.179 0 01.001-.083c.008-.04.015-.08.019-.121a.426.426 0 01.179-.373 2.322 2.322 0 001.137-2.071c.122-.774.182-1.557.181-2.341.016-8.585.016-16.164 0-23.172a11.251 11.251 0 00-.251-2.218 1.496 1.496 0 00-.874-1.113 1.626 1.626 0 00-1.521.189 2.884 2.884 0 00-1.177 1.5c-.493 1.432-1.052 3.056-1.455 4.657a65.359 65.359 0 00-1.8 11.268c-.22 3.053-.32 5.598-.32 8.002.041 1.056.196 2.105.464 3.128l.123.558a2.12 2.12 0 001.161 1.523.621.621 0 01.262.34c.03.068.063.135.1.2a.175.175 0 01.026.092.18.18 0 01-.09.161.178.178 0 01-.092.026zm53.886 0H160.5a.194.194 0 01-.094-.025.193.193 0 01-.067-.069.183.183 0 01.003-.187 1.91 1.91 0 00.093-.18.52.52 0 01.274-.325 1.238 1.238 0 00.879-1.1l.038-.3a26.83 26.83 0 00.279-3.227c.022-6.608.022-13.323.023-19.818v-5.945c0-.069-.005-.138-.012-.218a4.063 4.063 0 00-2.264.672 5.785 5.785 0 00-2.207 3.178c-.2.586-.356 1.2-.507 1.8-.069.27-.137.541-.21.81-.02.077-.043.155-.067.234l-.034.114a.185.185 0 01-.218.129c-.049-.011-.1-.02-.146-.029a.18.18 0 01-.114-.071.181.181 0 01-.036-.129l1.119-9.906a.18.18 0 01.082-.133.18.18 0 01.155-.023 6 6 0 01.379.13c.203.091.419.147.641.166 3.456.023 6.665.023 9.808 0 .225-.021.446-.08.651-.176.121-.047.243-.094.367-.132a.18.18 0 01.08-.006.18.18 0 01.131.086.174.174 0 01.027.076l1.118 9.926a.191.191 0 01-.039.132.188.188 0 01-.119.068l-.167.026a.183.183 0 01-.206-.142l-.1-.457c-.067-.3-.135-.606-.211-.907a9.945 9.945 0 00-1.615-3.752 4.194 4.194 0 00-3.331-1.69 4.3 4.3 0 00-.013.3v5.959c0 6.535 0 13.293.021 19.939a20.69 20.69 0 00.283 3.073 1.47 1.47 0 00.958 1.369.48.48 0 01.25.353c.017.051.035.105.058.156.01.028.014.057.011.087a.203.203 0 01-.03.082.192.192 0 01-.149.082zm47.759-.205c.016.05.034.1.051.147.48-.059.968-.093 1.441-.189a.75.75 0 00.645-.775 7.288 7.288 0 00-.15-1.816 25.406 25.406 0 00-1.084-3.077 5.1 5.1 0 01-.135-3.78c.851-2.507 1.637-5.035 2.466-7.549.774-2.349 1.58-4.69 2.354-7.037a5.115 5.115 0 00-.241-4.393c-.763-1.306-1.514-2.616-2.272-3.928a2.527 2.527 0 01-.1-.24.767.767 0 00-.239.386c-.153.861-.3 1.721-.445 2.583-.452 2.686-.838 5.385-1.368 8.053a533.071 533.071 0 01-2.82 13.237 3.6 3.6 0 001.029 3.758 7.37 7.37 0 011.3 1.841 2.216 2.216 0 01-.31 2.6c-.044.056-.08.116-.121.175m-16.015.04a9.556 9.556 0 01-.582-1.179 2.713 2.713 0 01.623-2.488c.447-.626.975-1.194 1.478-1.778a2.371 2.371 0 00.543-2.16c-.5-2.3-1-4.607-1.475-6.918-.648-3.165-1.3-6.331-1.892-9.509-.506-2.719-.925-5.456-1.385-8.183-.026-.147-.08-.286-.142-.514-.095.108-.184.22-.267.338-.725 1.245-1.463 2.483-2.158 3.744-.26.473-.459.977-.592 1.5a5.488 5.488 0 00.307 3.049c1.56 4.756 3.1 9.518 4.713 14.257a5.345 5.345 0 01-.145 4.271c-.148.3-.262.617-.4.921a9.504 9.504 0 00-.784 3.21 1.154 1.154 0 001.216 1.441c.311.027.629 0 .943 0M213.57 69.2c-.434.6-.809 1.173-1.235 1.7a8.872 8.872 0 00-1.777 2.878c-.1.318-.281.352-.566.23-.48-.208-.973-.38-1.458-.577a6.417 6.417 0 00-4.961-.015c-.486.195-.978.367-1.456.58a.385.385 0 01-.548-.085.389.389 0 01-.071-.19c-.138-.43-.33-.84-.573-1.22-.771-1.1-1.594-2.167-2.405-3.267-.46.7-.96 1.415-1.406 2.16a2.123 2.123 0 00-.265 1.766c.643 2.04 1.592 2.581 3.2 2.708.362.028.725.045 1.084.1a.823.823 0 01.275.227 1.17 1.17 0 01-.256.2.89.89 0 01-.382.06c-.791-.07-1.589-.113-2.373-.243-.75-.123-.96-.045-1.083.705a7.352 7.352 0 00.478 3.81c.237.638.43 1.3.6 1.953a.946.946 0 01-.383 1.043c-.322.248-.645.5-.943.776-.298.276-.262.444.079.648a5.974 5.974 0 012.257 2.488c.304.596.602 1.196.892 1.8 1.211 2.491 3.053 3.973 5.953 3.89a5.585 5.585 0 004.934-2.844c.554-.922 1.007-1.9 1.507-2.857a6.038 6.038 0 012.229-2.458c.369-.223.4-.386.087-.674-.287-.266-.6-.51-.909-.747a.966.966 0 01-.4-1.077c.176-.658.372-1.314.608-1.952a7.316 7.316 0 00.481-3.724c-.131-.845-.3-.888-1.151-.754-.846.112-1.697.18-2.551.2a.979.979 0 01-.4-.253 1.49 1.49 0 01.425-.223c.343-.056.694-.062 1.04-.09a3.234 3.234 0 003.047-2.5 2.092 2.092 0 00-.091-1.659c-.485-.856-1.024-1.678-1.53-2.5m-13.794 20.931c-.3.452-.579.82-.807 1.217a34.19 34.19 0 00-3.007 7.622 25.907 25.907 0 00-1.189 6.7c-.118 3.763.084 7.53.606 11.258.529 3.56.949 7.142 1.618 10.675 1.176 6.192 2.493 12.361 3.775 18.535a3.418 3.418 0 01-.793 3.323c-.472.494-.9 1.037-1.353 1.544a2.006 2.006 0 00-.44 1.8c.077.396.287.754.594 1.015.308.26.695.408 1.098.419 1.524.01 3.053 0 4.577 0 1 0 1.137-.152 1.174-1.171v-.263c0-1.182-.009-2.364-.009-3.546l-.023-27.5c0-.523.108-.612.564-.536.339.057.3.3.3.53a321782.5 321782.5 0 00-.034 31.087c.004.306.035.61.093.91a.568.568 0 00.199.379.556.556 0 00.408.126c1.8 0 3.6.017 5.4.018a.773.773 0 00.454-.119 2.095 2.095 0 00.876-2.265 2.1 2.1 0 00-.376-.771 62.014 62.014 0 00-1.641-1.929 2.972 2.972 0 01-.6-2.709c.185-.944.414-1.876.6-2.818 1.367-6.722 2.927-13.4 3.9-20.2a105.942 105.942 0 001.5-12.892 49.525 49.525 0 00-.1-6.469 37.021 37.021 0 00-3.459-11.587c-.373-.8-.873-1.532-1.376-2.408-1.416 2.6-3.389 4.044-6.287 4.034-2.898-.01-4.87-1.447-6.257-4m14.039-25.16c.01.026.026.049.047.066 1.3.353 1.161 1.724.553 2.56a1.033 1.033 0 00-.109 1.22c.411.687.827 1.37 1.212 2.073a3.4 3.4 0 01.522 1.425 3.394 3.394 0 01-.148 1.51c-.043.17-.117.332-.217.476a1.872 1.872 0 00-.264 1.918 6.799 6.799 0 01-.379 4.778c-.175.365-.306.754-.448 1.137a1.195 1.195 0 00.154 1.082.902.902 0 00.479.49.889.889 0 00.685.004c.907-.223 1.146.02.966.945a4.08 4.08 0 00-.008.654.509.509 0 01-.594.58 1.713 1.713 0 00-1.993.8 19.932 19.932 0 00-1.475 2.46.432.432 0 00.034.393c2.365 3.152 3.354 6.881 4.375 10.588a30.38 30.38 0 01.913 9.058 79.265 79.265 0 01-.984 10.487c-.049.362.039.73.247 1.03a560.596 560.596 0 012.582 4.359 5.917 5.917 0 01.486 5.053c-1.62 4.922-3.236 9.844-4.848 14.768-.061.181-.1.369-.164.545a3.17 3.17 0 00.111 2.369c.512 1.36.952 2.745 1.318 4.151a4.037 4.037 0 01-.013 1.642 1.456 1.456 0 01-.517 1.036 1.45 1.45 0 01-1.109.335c-1.743.019-3.486.011-5.23.01-.871 0-1.746-.028-2.616-.013a1.368 1.368 0 01-1.347-.779 1.213 1.213 0 01-1.055.714c-2.689.008-5.377.02-8.066.009a1.61 1.61 0 01-1.276-.458 1.619 1.619 0 01-.481-1.268 8.691 8.691 0 01.648-3.5c.262-.772.561-1.531.873-2.285a2.145 2.145 0 00.1-1.532 2015.733 2015.733 0 00-5.123-15.736 5.972 5.972 0 01-.335-2.623 5.977 5.977 0 01.827-2.512 475.454 475.454 0 012.584-4.359c.205-.318.279-.703.207-1.075a68.272 68.272 0 01-.9-14.511 28.2 28.2 0 011.4-6.97 34.092 34.092 0 012.6-6.7c.352-.618.787-1.188 1.171-1.789a.525.525 0 00.111-.387 6.931 6.931 0 00-2.024-3.005 1.349 1.349 0 00-1.368-.316.527.527 0 01-.69-.562c-.02-.316-.049-.63-.091-.946a.597.597 0 01.147-.567.6.6 0 01.56-.172c.087.01.172.025.256.046a1.13 1.13 0 001.432-1.416 6.366 6.366 0 00-.452-1.225 6.915 6.915 0 01-.376-4.9 1.996 1.996 0 00-.245-1.8 2.828 2.828 0 01-.12-2.92c.382-.77.803-1.52 1.262-2.246a1.411 1.411 0 00-.034-1.749c-.506-.769-.651-1.935.623-2.355a.316.316 0 00.091-.095h.871a1.447 1.447 0 01.864 1.677 1.6 1.6 0 01-.233.693 1.912 1.912 0 00.266 2.637c.197.215.381.441.551.677.336.473.673.948.99 1.433.12.36.326.684.6.945.4-.016.788-.14 1.123-.36a6.9 6.9 0 014.889-.19c.48.156.944.365 1.418.547.185.071.366.13.466-.125a10.749 10.749 0 012.009-3 1.957 1.957 0 00.237-2.527 1.593 1.593 0 01-.28-1.348 1.594 1.594 0 01.88-1.059h.872zm-4.18 17.45a1.87 1.87 0 001.392-.667.455.455 0 00.091-.382.459.459 0 00-.387-.184c-.42.09-.829.228-1.219.41a1.455 1.455 0 00-.354.541l.477.282m-7.2 0c.1-.062.293-.172.478-.284a1.285 1.285 0 00-.324-.517 7.195 7.195 0 00-1.3-.434.429.429 0 00-.349.188.404.404 0 00.074.35 1.862 1.862 0 001.422.7m-1.136-2.529c.554 0 1.108-.018 1.657.011a.592.592 0 01.435.252 12.21 12.21 0 011.253 4.158c.02.39-.027.782-.139 1.157-.256 1-.053 1.435.955 1.584a4.34 4.34 0 001.619-.129.747.747 0 00.556-.42.747.747 0 00-.026-.696c-.557-1.742.145-3.27.693-4.823.39-1.108.43-1.092 1.6-1.1.811 0 1.626-.008 2.44-.008.483 0 .608.137.6.632a2.698 2.698 0 01-1.9 2.647c-.475.177-.97.3-1.456.452a1.431 1.431 0 00-1.182 1.856c.04.3.1.6.151.907a1.007 1.007 0 01-.54 1.138c-.345.183-.722.311-1.055.516a.782.782 0 00-.392.49.802.802 0 00.386.543c.303.174.638.285.984.325.279.006.553-.069.79-.215a.628.628 0 01.784-.113.677.677 0 01-.1.872 1.383 1.383 0 01-1.884.334 2.318 2.318 0 00-2.987.008 1.375 1.375 0 01-1.85-.322.636.636 0 01-.126-.869c.253-.3.531-.058.8.107.224.142.487.212.752.2.36-.05.707-.163 1.026-.335a.75.75 0 00.375-.51.763.763 0 00-.376-.5c-.343-.213-.733-.348-1.093-.537a.91.91 0 01-.522-.97c.042-.364.1-.723.159-1.083a1.406 1.406 0 00-.129-1.125 1.407 1.407 0 00-.92-.662c-.631-.217-1.276-.39-1.894-.638a2.702 2.702 0 01-1.628-2.62.474.474 0 01.129-.399.465.465 0 01.398-.132c.551.012 1.1 0 1.654 0v.012l.003.005z"/></g><defs><clipPath id="clip0_281_34022"><path fill="#fff" transform="translate(108 65)" d="M0 0h193.125v90H0z"/></clipPath></defs></svg>