<svg width="410" height="220" fill="none" xmlns="http://www.w3.org/2000/svg"><g clip-path="url(#clip0_281_33356)"><path d="M206.781 93.405h5.343v4.774h-5.343v-4.774zm0 7.551h5.343v20.077h-5.343v-20.077zm13.475 3.21h.118c1.217-2.271 2.592-3.445 4.949-3.445.589 0 .943.04 1.257.157v4.657h-.118c-3.496-.352-6.01 1.487-6.01 5.714v9.784h-5.343v-20.077h5.147v3.21zm16.732-10.761h5.343v4.774h-5.343v-4.774zm.001 7.551h5.342v20.077h-5.342v-20.077zm13.552 2.74h.117c1.375-2.153 3.221-3.288 5.971-3.288 4.165 0 6.953 3.131 6.953 7.514v13.111h-5.342v-12.328c0-2.153-1.257-3.679-3.496-3.679-2.357 0-4.086 1.879-4.086 4.618v11.389h-5.342v-20.077h5.225v2.74zm15.24 7.279c0-5.948 4.046-10.566 9.939-10.566 6.482 0 9.938 4.931 9.938 12.092h-14.613c.393 3.092 2.121 5.01 5.146 5.01 2.082 0 3.3-.939 3.889-2.466h5.264c-.746 3.562-3.928 6.575-9.113 6.575-6.679 0-10.45-4.657-10.45-10.645zm5.342-2.152h8.957c-.157-2.544-1.846-4.306-4.282-4.306-2.828 0-4.203 1.684-4.675 4.306zm15.768 5.713h4.949c.354 2.309 2.004 3.327 4.4 3.327 2.358 0 3.693-.9 3.693-2.309 0-1.918-2.553-2.114-5.303-2.661-3.614-.704-7.15-1.683-7.15-6.066 0-4.344 3.615-6.418 8.21-6.418 5.304 0 8.25 2.622 8.643 6.653h-4.832c-.236-2.153-1.611-2.935-3.889-2.935-2.082 0-3.457.782-3.457 2.23 0 1.722 2.671 1.879 5.539 2.466 3.378.704 7.11 1.644 7.11 6.34 0 4.031-3.457 6.458-8.485 6.458-5.854-.001-9.114-2.818-9.428-7.085zm-92.716-21.131h-6.218l-11.242 27.628h6.364l2.082-5.675h11.471l2.121 5.675h6.403l-10.981-27.628zm-7.482 17.296l4.124-11.741 4.243 11.741h-8.367zm47.31-17.296h-5.343v27.628h5.343V93.405zm-64.22 16.582c0 17.553-14.268 31.765-31.882 31.765-17.616 0-31.901-14.212-31.901-31.765 0-17.552 14.285-31.778 31.901-31.778 17.614 0 31.882 14.226 31.882 31.778z" fill="#2A2626"/><path d="M135.577 93.403c-5.024 0-8.282.277-10.641 1.15-3.965 1.538-6.702 4.762-6.702 9 0 3.529 1.649 6.085 6.423 9.025 5.094 3.076 6.11 4.093 6.11 5.946 0 2.029-1.995 4.338-7.129 4.338-1.792 0-4.491-.247-6.215-.667l-.823-.207c-.459 1.226-1.501 4.126-1.819 5.178l.815.239c1.551.493 5.233.878 7.87.878 8.775 0 14.01-5.281 14.01-10.811 0-3.399-1.549-5.981-6.783-9.235-2.625-1.609-3.963-2.652-4.775-3.46-.659-.843-.732-1.47-.732-2.133 0-.633.141-1.362.56-1.896.453-.661 1.284-1.081 2.408-1.429 1.156-.382 3.297-.392 6.632-.392h3.105l2.217-5.524h-4.531zm23.467 0H143.44l-2.218 5.524h5.172c3.481 0 4.15-.075 5.024-.075-1.262 2.876-8.866 22.18-8.866 22.18h6.436s9.627-24.03 10.647-26.55c.283-.562.142-1.079-.591-1.079z" fill="#fff"/></g><defs><clipPath id="clip0_281_33356"><path fill="#fff" transform="translate(106 78)" d="M0 0h199v64H0z"/></clipPath></defs></svg>