<svg width="410" height="220" fill="none" xmlns="http://www.w3.org/2000/svg"><path d="M250.382 75.754c-.633 4.823-3.758 9.065-8.469 10.42-.572.164-2.128.564-2.636.564h-21.812v10.177c1.153-.536 2.211-1.392 3.352-2.022 17.204-9.515 38.808.565 42.595 19.947 3.525 18.04-9.888 35.037-28.05 35.222v-11.47c14.534-.462 22.431-17.533 13.259-29.154-7.465-9.457-22.198-8.584-28.664 1.544-1.112 1.742-1.719 3.548-2.409 5.48h-10.786V75.754h43.623-.003zm-48.099 0v43.858c-2.608 3.25-6.759 4.868-10.866 4.927v-4.2h-27.165v-11.066l27.245-33.52h10.786zm-10.866 33.6V93.362l-13.103 15.992h13.103zm-31.639-33.6v41.596c0 .152-1.444 2.233-1.675 2.507-2.138 2.52-5.909 4.388-9.191 4.52V81.489c2.563-3.432 6.552-5.719 10.866-5.735z" fill="#2A2A2C"/><path d="M250.155 120.83c0 8.412-6.746 15.236-15.072 15.236-8.325 0-15.071-6.82-15.071-15.236 0-8.417 6.746-15.237 15.071-15.237 8.326 0 15.072 6.82 15.072 15.237zm-2.515-.004c0-7.007-5.618-12.687-12.55-12.687s-12.55 5.68-12.55 12.687c0 7.008 5.618 12.688 12.55 12.688s12.55-5.68 12.55-12.688zm-49.991 17.928l-1.869 3.395c-1.86.159-4.069-.222-5.884-.006-.332.039-.748.123-.876.488h6.392c-1.029 2.772-2.937 4.694-5.599 5.89-.729.329-3.234 1.218-3.909 1.218h-8.549l1.918-3.312c1.723-.284 3.656.103 5.359-.074.272-.029.924-.188 1.036-.488h-6.072c1.265-2.947 3.857-5.202 6.826-6.265.559-.2 2.704-.843 3.161-.843h8.069l-.003-.003zm6.072 7.266c.179-.317.284-.604.629-.73 1.49-.55 4.395-.582 5.983-.378 2.202.284 4.353 1.218 6.651.949.028-.403.038-.277-.24-.319-.7-.104-1.556-.075-2.218-.185-2.617-.433-4.385-1.166-7.207-.949-.827.064-1.818.442-2.56.484-.482.029-.147-.562.042-.646.917-.407 3.861-.552 4.918-.494 2.65.145 5.235 1.418 7.904.975.239-.226-.016-.294-.237-.323-.591-.077-1.272.052-1.898-.019-2.02-.236-4.036-1.04-6.095-1.108-1.419-.045-2.841.3-4.231.481-.016-.21.086-.552.281-.643.397-.181 3.1-.501 3.634-.501 2.343-.006 4.57.986 6.874 1.144.218.016 2.797.039 2.314-.32-2.285-.038-4.58-.416-6.794-.969-.211-.052-.406.01-.553-.245 2.806-2.798 8.258-4.498 11.978-2.905 1.592.682 2.499 2.052 2.202 3.838-.905 5.431-13.384 9.453-15.912 4.368-.416-.833-.179-1.518-.611-2.129-1.639 0-3.26.272-4.851.62l-.003.004zm-20.933-7.266l-1.998 3.392h-6.072c-.076 0-.492.197-.399.323h6.232c-.32 1.17-1.135 2.381-1.838 3.393h-6.791c0 .171.495.484.559.484h5.992l-1.863 3.399c-3.097-.307-8.763 1.027-10.827-1.955-2.26-3.263 2.435-6.833 5.075-7.934.763-.32 3.138-1.102 3.863-1.102h8.07-.003z" fill="#2A2A2C"/><path d="M212.031 138.754l-1.918 3.311c-2.595.288-5.446-.481-7.657 1.306-.665.536-1.461 1.628-.885 2.484.06.091.744.491.792.491h5.513c-.275.853-.93 2.22-1.464 2.963-.15.21-.239.404-.537.426-3.032-.093-10.958 1.066-10.955-3.793.003-3.728 6.114-7.188 9.361-7.188h7.75zm-44.103 0l-1.917 3.311c-1.061.521-3.871-.565-4.794.566h4.474l-1.758 3.15-5.752.161-2.157 3.797h-5.993l2.937-5.351c1.573-2.597 6.101-5.634 9.128-5.634h5.832zm77.18-17.924c0 5.599-4.491 10.135-10.026 10.135s-10.025-4.54-10.025-10.135c0-5.596 4.49-10.135 10.025-10.135s10.026 4.539 10.026 10.135zm-5.05-.003c0-2.779-2.227-5.031-4.976-5.031-2.748 0-4.976 2.252-4.976 5.031 0 2.778 2.228 5.03 4.976 5.03 2.749 0 4.976-2.252 4.976-5.03z" fill="#2A2A2C"/><path d="M235.092 125.333c2.46 0 4.455-2.016 4.455-4.504 0-2.487-1.995-4.503-4.455-4.503-2.461 0-4.455 2.016-4.455 4.503 0 2.488 1.994 4.504 4.455 4.504z" fill="#2A2A2C"/></svg>