<svg width="410" height="220" fill="none" xmlns="http://www.w3.org/2000/svg"><g clip-path="url(#clip0_281_33548)"><path d="M235.329 82.772v2.407h20.535a6.653 6.653 0 014.8 1.337 6.702 6.702 0 011.334 4.813v20.297a6.704 6.704 0 01-1.334 4.814 6.972 6.972 0 01-4.8 1.337h-9.868c-1.6 0-4 0-4.8-1.872a4.638 4.638 0 011.333-4.814l13.335-17.65h-20.535l-8.321 10.992a10.143 10.143 0 00-2.667 5.348 8.027 8.027 0 002.667 5.348l2.133 2.674a22.678 22.678 0 006.668 6.686 23.41 23.41 0 0010.401 1.337h8.8c5.068 0 12.802 0 17.869-5.081s5.067-12.569 5.067-15.243v-8.29c0-2.674 0-10.162-5.067-15.242-5.067-5.081-12.748-5.108-17.815-5.108h-14.135a6.338 6.338 0 00-4.534 1.337 7.585 7.585 0 00-1.066 4.573zm-24.536 10.43h20.535l-24.535 32.624h-20.535l24.535-32.625zm-78.407 1.604a5.362 5.362 0 00-1.387 4.278v2.407h8.268v40.647h16.268v-40.647h16.001c1.6 0 4.001 0 4.801 1.872a4.627 4.627 0 01-1.334 4.813l-13.334 17.65h20.535l8.267-10.964a10.143 10.143 0 002.667-5.348 8.031 8.031 0 00-2.667-5.349l-2.133-2.674a22.672 22.672 0 00-6.668-6.685 23.406 23.406 0 00-10.4-1.337h-34.35a4.468 4.468 0 00-4.534 1.337z" fill="#2A2A2C"/></g><defs><clipPath id="clip0_281_33548"><path fill="#fff" transform="translate(131 76)" d="M0 0h147v67H0z"/></clipPath></defs></svg>