<svg width="410" height="220" fill="none" xmlns="http://www.w3.org/2000/svg"><path d="M246.211 108.221c3.724.144 7.289-1.115 10.664-2.537l1.957 3.555c-4.75 2.174-9.525 3.402-14.821 3.085-8.644-.517-12.956-6.108-23.182-2.578-5.589 1.928-7.516 2.977-13.909 2.578-6.65-.415-10.117-4.133-17.757-3.586-5.188.368-9.005 3.243-14.161 3.586-5.173.348-10.412-.64-14.971-3.074l1.695-3.586c3.395 1.509 7.022 2.685 10.813 2.557V63.719h17.515v3.836c7.408-6.91 18.917-6.736 25.629 1.018 6.949-8.189 19.699-8.005 26.536.256 1.71 2.067 3.987 6.675 3.987 9.34v30.052h.005zm-45.849-1.79V81.239c0-.323-.865-1.821-1.153-2.18-2.587-3.17-8.171-1.452-8.387 2.681v22.752c3.183.619 6.48.747 9.54 1.939zm18.031-24.68v24.68l9.546-1.939-.134-23.903c-1.803-4.721-8.779-3.928-9.412 1.161z" fill="#2A2A2C"/><path d="M194.953 123.311c-.649-3.074-3.019-4.113-5.981-3.248-1.422.414-2.308 1.954-1.247 3.135.84.931 11.406 2.676 13.925 3.821 6.527 2.972 8.964 11.627 4.255 17.269-2.828 3.387-9.602 5.438-13.899 5.637-7.825.358-18.339-4.128-18.432-13.059l12.451-.266c.964 2.885 2.87 3.99 5.945 3.571 1.597-.22 3.596-1.586 2.334-3.3-.938-1.273-6.527-2.204-8.304-2.752-6.538-2.015-12.797-5.074-11.019-13.12 3.106-14.047 31.939-11.811 32.341 1.176.01.317-.041 1.136-.397 1.136h-11.977.005zm50.743 4.092h-12.879c.021-4.368-6.125-7.299-8.345-3.043-1.798 3.442-1.773 8.24-.356 11.806 2.097 5.268 8.232 2.716 8.701-2.118h12.879c-.15 7.529-4.915 13.473-12.256 15.325-10.813 2.731-20.461-2.471-23.166-13.279-2.375-9.499 2.025-21.571 12.281-24.129 11.493-2.869 22.729 3.059 23.141 15.433v.005z" fill="#2A2A2C"/></svg>