<svg width="50" height="50" viewBox="0 0 50 50" fill="none" xmlns="http://www.w3.org/2000/svg">
<path d="M37.1239 29.7526C28.0973 29.7969 26.6371 35.2345 26.1505 39.8322L25.9293 41.8657H24.115L23.8938 39.8322C23.4071 35.2345 21.9027 29.7968 13.1858 29.7526C11.7257 26.7463 11.1062 24.3148 11.1062 21.5739C11.1062 14.7217 16.7257 8.31123 25.0441 8.31123C33.3628 8.31123 38.8937 14.6772 38.8937 21.6183C38.8938 24.3148 38.6283 26.7463 37.1239 29.7526ZM24.9558 0C11.2391 0 0 11.2291 0 24.9778C0 38.7711 11.2391 50 24.9558 50C38.8052 50 50 38.7711 50 24.9778C50 11.2291 38.8052 0 24.9558 0Z" fill="#29B24A"/>
</svg>
