<svg width="50" height="50" viewBox="0 0 50 50" fill="none" xmlns="http://www.w3.org/2000/svg">
<path d="M50 25.0054C50 38.8168 38.815 50 25.0076 50C11.1984 50 0 38.8168 0 25.0054C0 11.194 11.1984 0 25.0076 0C38.8152 0 50 11.194 50 25.0054Z" fill="#F8F8F8"/>
<g clip-path="url(#clip0_891_18847)">
<path d="M24.9078 9.82715C17.6861 9.82715 11.832 15.7032 11.832 22.9521C11.832 26.5753 13.2946 29.8559 15.66 32.2309C18.026 34.6071 23.6003 38.0459 23.9272 41.6553C23.9762 42.1965 24.3665 42.6396 24.9078 42.6396C25.4492 42.6396 25.8395 42.1965 25.8885 41.6553C26.2154 38.0459 31.7896 34.6071 34.1557 32.2309C36.5211 29.8559 37.9836 26.5753 37.9836 22.9521C37.9836 15.7032 32.1296 9.82715 24.9078 9.82715Z" fill="#FF4433"/>
<path d="M24.9086 27.5459C27.4361 27.5459 29.4851 25.4892 29.4851 22.9521C29.4851 20.4151 27.4361 18.3584 24.9086 18.3584C22.381 18.3584 20.332 20.4151 20.332 22.9521C20.332 25.4892 22.381 27.5459 24.9086 27.5459Z" fill="white"/>
</g>
<defs>
<clipPath id="clip0_891_18847">
<rect width="34.8688" height="35" fill="white" transform="translate(7.47266 7.63965)"/>
</clipPath>
</defs>
</svg>
