<svg width="50" height="50" viewBox="0 0 50 50" fill="none" xmlns="http://www.w3.org/2000/svg">
<path d="M50 25.0054C50 38.8168 38.815 50 25.0076 50C11.1984 50 0 38.8168 0 25.0054C0 11.194 11.1984 0 25.0076 0C38.8152 0 50 11.194 50 25.0054Z" fill="#F8F8F8"/>
<g clip-path="url(#clip0_891_18895)">
<path d="M34.9593 21.7786H24.3762V25.9477H32.7144V30.7581H24.3762V37.8135H18.9244V21.4579H16.7821C15.8521 21.4579 14.8611 22.1282 14.8611 23.3051C14.8611 24.171 15.448 24.915 16.1632 25.2229L14.7713 29.9885C11.8305 29.1835 9.60169 26.8135 9.60169 23.3468C9.60169 19.0751 13.0684 16.6474 16.8783 16.6474H34.9625V21.7786H34.9593ZM0 50H50V0H0V50Z" fill="#4389C8"/>
</g>
<defs>
<clipPath id="clip0_891_18895">
<rect width="50" height="50" rx="25" fill="white"/>
</clipPath>
</defs>
</svg>
