<svg width="50" height="50" fill="none" xmlns="http://www.w3.org/2000/svg"><path d="M50 25.005C50 38.817 38.815 50 25.008 50 11.198 50 0 38.817 0 25.005 0 11.194 11.198 0 25.008 0 38.815 0 50 11.194 50 25.005z" fill="#F8F8F8"/><g clip-path="url(#clip0_891_18895)"><path d="M34.96 21.779H24.375v4.169h8.338v4.81h-8.338v7.055h-5.452V21.458h-2.142c-.93 0-1.92.67-1.92 1.847 0 .866.586 1.61 1.301 1.918l-1.392 4.765c-2.94-.805-5.17-3.174-5.17-6.641 0-4.272 3.467-6.7 7.277-6.7h18.084v5.132h-.003zM0 50h50V0H0v50z" fill="#4389C8"/></g><defs><clipPath id="clip0_891_18895"><rect width="50" height="50" rx="25" fill="#fff"/></clipPath></defs></svg>