<svg width="82" height="82" fill="none" xmlns="http://www.w3.org/2000/svg"><path fill="#C62826" d="M0 0h82v82H0z"/><path d="M42.437 22.711H59.02c.139 0 .625.481.625.62v16.316h11.032c.313 0 .727.69.63 1.026l-.113 23.58c-.094.261-.274.45-.444.66-.912 1.134-4.425 4.676-5.552 5.507-.2.147-.36.322-.635.333l-24.172-.096c-.102-.044-.452-.325-.452-.377V58.782H24.05c-.39 0-.902-.704-.902-1.033V42.124H11.561c-.053 0-.338-.348-.38-.448l-.044-24.204c.134-.42.563-.532.844-.815 1.47-1.478 3.783-4.162 5.336-5.307.2-.147.36-.322.636-.333l24.065.063c.233.188.544.513.546.823 0 .125-.127.234-.127.277v10.53zm-3.192-9.913H18.36l-4.094 4.13h20.885l4.093-4.13zm-2.775 17.21l4.163-4.062v-11.77l-4.163 4.06V30.01v-.002zm-17.9-11.291h-5.69v5.644l5.69-5.644zm8.466 0h-5.898l-8.256 8.191v5.85l14.154-14.043v.002zm7.63 0h-5.064L12.88 35.307v5.026l.761-.003 20.894-20.57.132-1.04-.001-.001zM23.149 40.472v-6.264l2.907-2.899 5.417-.132 3.194-3.165v-5.85L16.349 40.473h6.8l-.001-.001zM56.313 24.5H42.576c-.02.847.146 1.723-.354 2.471l-6.17 5.993-8.956.065-.618.42H47.5l8.811-8.949h.001zm-7.632 30.977c.305-.107.384-.324.423-.613.339-2.467-.254-5.711-.014-8.274.018-.2.007-.398.108-.581l6.15-6.153c.717-.523 1.823.106 2.49-.418v-13.7l-9.157 9.018v20.721zM30.78 35.24h-5.69v5.507l5.69-5.507zm8.464 0h-5.898l-8.395 8.329v5.713l14.293-14.044v.002zm7.633 0h-5.065l-16.86 16.727v4.819c0 .344 1.07.223 1.251-.135L46.746 36.28l.132-1.04zM28.42 56.992h5.759l.558-.409 12.138-12.05v-5.85L28.42 56.993zm39.687-15.557H56.38l-4.093 4.13h11.726l4.094-4.13zM65.332 67.73l4.163-4.061V42.81l-4.163 4.061V67.73zM46.878 47.08l-9.991 9.911 5.73-.026 4.26-4.171V47.08zm8.88.275h-4.857l.14 4.681 4.717-4.681zm2.567 0c-2.416 2.504-5.112 4.81-7.283 7.506.417.96-1.956 3.318-2.651 3.703-.572.319-1.13.087-1.593.348l-5.056 5.032v5.026l.76-.003 20.896-20.572.132-1.04h-5.205zM45.212 68.97h5.898l12.418-12.322V50.8L45.212 68.971v-.001zm1.666-11.977l-.07-1.514c-.134.194-1.518 1.336-1.318 1.512h1.388v.002zm-2.499 1.788h-2.636v2.616l2.636-2.616zm9.297 10.189h5.898l3.954-3.924v-5.85l-9.852 9.775v-.001zm9.854 0l-.003-1.378-1.385 1.309 1.388.069z" fill="#fff"/><path d="M18.985 63.188h14.64c.456 0 1.088 1.104.548 1.508-2.043 1.694-3.97 4.428-6.025 5.998-.218.167-.432.32-.693.413l-15.83.003-.625-.62V54.642l6.465-6.526c.546-.572 1.52.062 1.52.682v14.39zm-6.243 4.818l4.44-4.336V51.073l-4.44 4.336v12.597zm18.455-3.028H18.501l-4.371 4.406h12.696l4.371-4.406zm17.692-45.985c-.59 0-1.026-1.198-.407-1.643l6.437-6.28 15.624-.068c.68-.03 1.072.372 1.041 1.033-.315 4.725.399 9.938 0 14.605a4.01 4.01 0 01-.181.923l-6.407 6.446c-.368.38-1.465-.027-1.465-.489V18.993H48.89zm19.496-6.195H55.69l-4.371 4.406h12.696l4.371-4.406zm-3.052 18.311l4.44-4.336V14.176l-4.44 4.336V31.11z" fill="#fff"/></svg>