<svg width="32" height="32" fill="none" xmlns="http://www.w3.org/2000/svg"><path d="M22 8H10v6h12V8z" stroke="#2A2626" stroke-width="2" stroke-linecap="round" stroke-linejoin="round"/><path d="M26 27V5a1 1 0 00-1-1H7a1 1 0 00-1 1v22a1 1 0 001 1h18a1 1 0 001-1z" stroke="#2A2626" stroke-width="2" stroke-linecap="round" stroke-linejoin="round"/><path d="M11 20a1.5 1.5 0 100-3 1.5 1.5 0 000 3zm5 0a1.5 1.5 0 100-3 1.5 1.5 0 000 3zm5 0a1.5 1.5 0 100-3 1.5 1.5 0 000 3zm-10 5a1.5 1.5 0 100-3 1.5 1.5 0 000 3zm5 0a1.5 1.5 0 100-3 1.5 1.5 0 000 3zm5 0a1.5 1.5 0 100-3 1.5 1.5 0 000 3z" fill="#2A2626"/></svg>