<svg width="48" height="48" fill="none" xmlns="http://www.w3.org/2000/svg"><path fill-rule="evenodd" clip-rule="evenodd" d="M23.917 2C11.812 2 2 11.812 2 23.917c0 12.104 9.812 21.916 21.917 21.916 12.104 0 21.916-9.812 21.916-21.916C45.833 11.812 36.021 2 23.917 2zM0 23.917C0 10.707 10.708 0 23.917 0c13.209 0 23.916 10.708 23.916 23.917 0 13.209-10.707 23.916-23.916 23.916C10.707 47.833 0 37.126 0 23.917zm14.876-2.79a1 1 0 011.414 0l6.86 6.86a1.083 1.083 0 001.533 0l6.86-6.86a1 1 0 011.414 1.413l-6.86 6.86a3.083 3.083 0 01-4.36 0l-6.86-6.86a1 1 0 010-1.414z" fill="#C62826"/></svg>