<svg width="14" height="12" viewBox="0 0 14 12" fill="none" xmlns="http://www.w3.org/2000/svg">
<path d="M5.95996 0.5436C6.63814 0.123473 7.52541 0.153285 8.17383 0.633444L13.7148 4.73794L13.417 5.1393L13.1201 5.54165L11.7783 4.54751V9.89223C11.7781 10.9408 10.8926 11.7495 9.85254 11.7497H4.14844C3.10841 11.7495 2.22287 10.9407 2.22266 9.89223V4.54751L0.881836 5.54165L0.794922 5.5934C0.584108 5.69166 0.326505 5.63124 0.182617 5.43715C0.0184246 5.21533 0.0644722 4.90231 0.286133 4.73794L5.82715 0.633444L5.95996 0.5436ZM7.57812 1.43715C7.28242 1.2184 6.87836 1.19108 6.55566 1.35512L6.42285 1.43715L3.22266 3.80727V9.89223C3.22287 10.3429 3.61404 10.7495 4.14844 10.7497H9.85254C10.387 10.7495 10.7781 10.343 10.7783 9.89223V3.80727L7.57812 1.43715ZM13.7148 4.73794C13.9366 4.90218 13.9833 5.21528 13.8193 5.43715C13.6551 5.65894 13.342 5.70567 13.1201 5.54165L13.7148 4.73794Z" fill="white"/>
</svg>
