<svg width="24" height="24" fill="none" xmlns="http://www.w3.org/2000/svg"><path d="M4.469 12.587c1.403-.773 2.969-1.418 4.432-2.066 2.517-1.062 5.044-2.105 7.596-3.076.497-.166 1.39-.328 1.477.408-.048 1.042-.245 2.078-.38 3.114-.343 2.277-.74 4.547-1.127 6.817-.133.756-1.08 1.148-1.686.664-1.457-.984-2.925-1.958-4.363-2.965-.47-.479-.034-1.166.387-1.508 1.2-1.182 2.472-2.187 3.609-3.43.306-.74-.6-.117-.899.075-1.642 1.132-3.244 2.333-4.976 3.327-.884.487-1.915.071-2.8-.2-.792-.329-1.954-.66-1.27-1.16z" fill="#fff"/></svg>