<svg width="24" height="24" fill="none" xmlns="http://www.w3.org/2000/svg"><path fill-rule="evenodd" clip-rule="evenodd" d="M12.395 18.676h-.003a7.13 7.13 0 01-3.41-.868l-3.783.992 1.013-3.698a7.123 7.123 0 01-.953-3.567C5.261 7.601 8.462 4.4 12.395 4.4c1.909 0 3.7.744 5.047 2.093a7.092 7.092 0 012.088 5.048c-.001 3.933-3.201 7.134-7.135 7.135zm-3.238-2.16l.217.128c.91.54 1.954.827 3.018.827h.003a5.94 5.94 0 005.93-5.93 5.895 5.895 0 00-1.735-4.197 5.89 5.89 0 00-4.193-1.739 5.94 5.94 0 00-5.933 5.93c0 1.121.313 2.213.907 3.157l.14.224-.599 2.189 2.245-.59zm6.588-3.439c.125.06.209.1.245.16.044.075.044.432-.104.848-.149.417-.861.797-1.204.848a2.443 2.443 0 01-1.123-.07 10.254 10.254 0 01-1.016-.376c-1.672-.722-2.801-2.342-3.015-2.648a2.015 2.015 0 00-.031-.044l-.001-.002c-.095-.126-.727-.97-.727-1.843 0-.82.403-1.251.59-1.45a3.45 3.45 0 00.034-.037.655.655 0 01.475-.223c.12 0 .238 0 .342.006h.04c.104 0 .233 0 .361.306.05.118.121.293.197.478.154.374.323.786.353.846.045.09.074.193.015.312l-.025.051a1.01 1.01 0 01-.153.247l-.092.11c-.061.074-.122.149-.176.202-.09.09-.182.186-.078.364.104.179.462.762.992 1.235.57.508 1.065.723 1.316.832l.118.053c.178.09.282.075.386-.044.104-.12.446-.521.564-.7.12-.178.238-.148.402-.089.163.06 1.04.491 1.218.58l.097.048z" fill="#fff"/></svg>