<svg width="248" height="61" fill="none" xmlns="http://www.w3.org/2000/svg"><path d="M31.437 11.711H48.02c.139 0 .625.481.625.62v16.316h11.032c.313 0 .727.69.63 1.026l-.113 23.58c-.094.261-.274.45-.444.66-.912 1.134-4.425 4.676-5.552 5.507-.2.147-.36.322-.636.333l-24.17-.096c-.103-.044-.453-.325-.453-.377V47.782H13.05c-.39 0-.902-.704-.902-1.033V31.124H.561c-.053 0-.338-.348-.38-.448L.136 6.472c.134-.42.563-.531.844-.815C2.451 4.179 4.764 1.495 6.317.35c.2-.147.36-.322.636-.333L31.018.08c.233.187.544.513.546.823 0 .125-.127.234-.127.276v10.532zm-3.192-9.913H7.36l-4.094 4.13h20.885l4.093-4.13zm-2.775 17.21l4.163-4.062V3.176l-4.163 4.06V19.01v-.002zM7.57 7.717H1.88v5.644l5.69-5.644zm8.466 0h-5.898L1.88 15.909v5.85L16.035 7.717v.002zm7.63 0h-5.064L1.879 24.308v5.026l.761-.003L23.535 8.76l.132-1.04-.001-.001zM12.149 29.472v-6.264l2.907-2.899 5.417-.132 3.194-3.165v-5.85L5.349 29.473h6.8l-.001-.001zM45.313 13.5H31.576c-.02.847.146 1.723-.354 2.471l-6.17 5.993-8.956.065-.618.42H36.5l8.811-8.949h.001zm-7.632 30.977c.305-.107.384-.324.423-.613.339-2.467-.254-5.711-.014-8.274.018-.2.007-.398.108-.581l6.15-6.153c.717-.523 1.823.106 2.49-.418v-13.7l-9.157 9.018v20.721zM19.78 24.24h-5.69v5.507l5.69-5.507zm8.464 0h-5.898l-8.395 8.329v5.713l14.293-14.044v.002zm7.633 0h-5.065l-16.86 16.727v4.819c0 .344 1.07.223 1.251-.135L35.746 25.28l.132-1.04zM17.42 45.992h5.759l.558-.409 12.138-12.05v-5.85L17.42 45.993zm39.687-15.557H45.38l-4.093 4.13h11.726l4.093-4.13zM54.333 56.73l4.163-4.061V31.81l-4.163 4.061V56.73zM35.878 36.08l-9.991 9.911 5.73-.026 4.26-4.171V36.08zm8.88.275h-4.857l.14 4.681 4.717-4.681zm2.567 0c-2.416 2.504-5.112 4.81-7.283 7.506.417.96-1.956 3.318-2.651 3.703-.572.319-1.13.087-1.593.348l-5.056 5.032v5.026l.76-.003 20.896-20.572.132-1.04h-5.205zM34.212 57.97h5.898l12.418-12.322V39.8L34.212 57.971v-.001zm1.666-11.977l-.07-1.514c-.134.194-1.518 1.336-1.318 1.512h1.388v.002zm-2.499 1.788h-2.636v2.616l2.636-2.616zm9.297 10.189h5.898l3.954-3.924v-5.85l-9.852 9.775v-.001zm9.854 0l-.003-1.378-1.385 1.309 1.388.069z" fill="#C62826"/><path d="M7.985 52.188h14.64c.456 0 1.088 1.104.548 1.508-2.043 1.694-3.97 4.428-6.025 5.998-.218.167-.432.32-.693.413l-15.83.003L0 59.49V43.642l6.465-6.526c.546-.572 1.52.062 1.52.682v14.39zm-6.243 4.818l4.44-4.336V40.073l-4.44 4.336v12.597zm18.455-3.028H7.501L3.13 58.384h12.696l4.371-4.406zM37.889 7.993c-.59 0-1.026-1.198-.407-1.643L43.92.07 59.544.001c.678-.03 1.071.372 1.04 1.033-.315 4.725.399 9.938 0 14.605a4.01 4.01 0 01-.181.923l-6.407 6.446c-.368.38-1.465-.027-1.465-.489V7.993H37.89zm19.496-6.195H44.69l-4.371 4.406h12.696l4.371-4.406zm-3.052 18.311l4.44-4.336V3.176l-4.44 4.336V20.11z" fill="#C62826"/><path d="M112.721 59.932c-.814.085-2.66.096-3.464 0-12.932-1.532-13.854-21.35-.559-23.723 17.121-3.056 19.568 22.077 4.023 23.723zm-2.817-18.085c-6.61 1.02-6.032 12.621 1.334 12.447 8.063-.19 7.649-13.834-1.334-12.447zM73.893 9.939c.152-1.253.984-3.344 1.642-4.449 4.96-8.342 19.986-7.115 21.221 3.253h-5.889c-1.272-4.352-7.835-4.38-9.909-.633-1.58 2.856-1.03 7.344 1.886 9.154 2.916 1.81 7.406.794 8.197-2.876h5.889c-1.135 11.438-18.22 12.224-22.176 2.142-.298-.758-.778-2.23-.863-2.996-.092-.839-.1-2.762 0-3.592l.002-.003zM124.296.192V23.28h-6.235V13.19l-4.753 4.796c-1.121.656-2.01-1.119-2.691-1.808-.953-.964-1.921-1.932-2.949-2.817v9.918h-6.235V.192l2.347.161 8.998 9.754 9.171-9.754 2.347-.16zm26.012 36.142V59.42h-6.062V49.332c-1.142 1-2.228 2.079-3.296 3.158-.651.66-1.42 2.297-2.517 1.638l-4.753-4.796V59.42h-6.062V36.334l2.251.086 9.07 9.82 9.018-9.747 2.351-.159zm66.687 11.116V36.59l.26-.256h5.716l.26.257v22.744c-.531.451-1.827.36-2.417-.007l-11.441-11.021v11.115h-6.236V36.336l2.348.16 10.988 10.698.522.255z" fill="#fff"/><path d="M95.92 50.528c-.865 11.15-17.344 12.229-21.8 2.797-1.417-3-1.485-7.205-.229-10.266 4.01-9.77 20.47-9.192 22.029 1.826h-5.803c-.986-2.208-2.555-3.334-5.052-3.354-8.246-.072-7.669 13.577.702 12.737 2.32-.233 3.695-1.704 4.525-3.74h5.63-.002zm66.34 3.078v5.814h-6.063V36.59l.26-.256h10.393l1.516.214c7.701 1.442 8.819 12.944 2.099 16.182-.526.253-2.417.876-2.922.876h-5.283zm0-5.303h4.59c.06 0 .828-.35.946-.434 1.566-1.094 1.623-4.711 0-5.801-.129-.085-.877-.435-.945-.435h-4.589v6.67h-.002zm14.204 11.116l.041-.9 10.334-22.252h2.807l10.333 22.252.041.9h-5.889c-.319-.589-.835-2.249-1.2-2.661-.252-.284-.458-.224-.782-.255-2.59-.255-5.65.181-8.29.043-.427.126-1.272 2.33-1.506 2.874h-5.889v-.001zm9.179-7.866h5.196l-2.514-5.986c-.289-.092-.533.693-.634.912a64.153 64.153 0 00-2.048 5.074zm48.673-1.624l-7.832-12.445-.06-.99 6.334-.076 4.588 7.613 4.332-7.697H248l-.135 1.321-7.66 12.103v9.66h-5.889v-9.49zM136.076.364v17.612h8.487v5.3h-14.376V.365h5.889z" fill="#fff"/></svg>