<svg width="410" height="220" viewBox="0 0 410 220" fill="none" xmlns="http://www.w3.org/2000/svg">
<g clip-path="url(#clip0_281_34052)">
<mask id="mask0_281_34052" style="mask-type:luminance" maskUnits="userSpaceOnUse" x="128" y="85" width="135" height="49">
<path d="M262.63 85.0146H128V133.394H262.63V85.0146Z" fill="white"/>
</mask>
<g mask="url(#mask0_281_34052)">
<path fill-rule="evenodd" clip-rule="evenodd" d="M137.165 85.0146L134.872 91.3438H166.644L168.936 85.0146H137.165ZM133.725 94.5069L131.433 100.835H163.204L165.497 94.5069H133.725ZM130.293 103.999L128 110.327H159.771L162.063 103.999H130.293Z" fill="#2A2A2C"/>
<path fill-rule="evenodd" clip-rule="evenodd" d="M195.545 112.739V112.873C196.996 113.41 198.383 114.349 199.11 114.952C201.355 116.83 202.346 119.312 202.346 122.532C202.346 127.832 199.573 131.655 195.016 132.863C193.629 133.265 192.177 133.4 189.468 133.4H175.668V94.6289H187.885C190.394 94.6289 192.111 94.7624 193.629 95.1645C198.054 96.3723 200.96 99.4584 200.96 104.354C200.96 106.97 200.035 109.185 198.517 110.66C197.856 111.33 196.932 112.136 195.545 112.739ZM183.328 116.83V127.026H188.611C190.195 127.026 191.648 126.893 192.706 125.886C193.762 124.88 194.224 123.606 194.224 121.928C194.224 120.655 193.893 119.447 193.233 118.575C192.111 117.166 190.724 116.83 188.347 116.83H183.328ZM183.262 110.123H187.554C188.874 110.123 189.535 110.123 190.195 109.921C191.979 109.384 193.102 107.776 193.102 105.562C193.102 102.947 191.913 101.805 190.195 101.269C189.468 101.068 188.743 101.001 187.289 101.001H183.262V110.123ZM213.836 133.4V101.134H202.809V94.6289H233.45L231.272 101.134H221.497V133.4H213.836ZM235.826 133.4V94.6289H260.657L258.479 101.134H243.422V109.72H249.563C254.516 109.72 257.092 110.928 258.875 112.47C260.261 113.678 262.638 116.361 262.638 121.661C262.638 126.893 260.195 129.776 258.148 131.253C255.771 132.929 253.262 133.4 248.176 133.4H235.826ZM243.422 126.893H249.167C251.346 126.893 252.666 126.356 253.591 125.148C254.053 124.545 254.714 123.471 254.714 121.459C254.714 119.447 254.053 118.038 252.733 117.031C251.941 116.428 250.884 116.094 249.101 116.094H243.422V126.893Z" fill="#2A2A2C"/>
</g>
</g>
<defs>
<clipPath id="clip0_281_34052">
<rect width="135" height="49" fill="white" transform="translate(128 85)"/>
</clipPath>
</defs>
</svg>
