<svg width="410" height="220" viewBox="0 0 410 220" fill="none" xmlns="http://www.w3.org/2000/svg">
<g clip-path="url(#clip0_281_33663)">
<path fill-rule="evenodd" clip-rule="evenodd" d="M272.857 118.821L265.306 100.314H259.779L252.228 118.821H256.543L257.756 115.714H267.194L268.542 118.821H272.857ZM262.475 103.286L265.846 112.202H259.104L262.475 103.286ZM246.026 109.095L247.375 106.663V118.821H251.419V100.314H246.97L241.577 110.176L235.78 100.314H231.465V118.821H235.24V106.663L236.589 109.095L241.307 116.93H241.442L246.161 109.095H246.026ZM334.742 109.095L336.09 106.663V118.821H340V100.314H335.955L330.158 110.176L324.36 100.314H320.046V118.821H323.821V106.663L325.169 109.095L329.888 116.93H330.023L334.742 109.095ZM224.994 113.418V113.553C224.994 114.904 224.185 115.309 222.432 115.309H218.387C215.556 115.309 215.016 115.039 215.016 111.662V107.609C215.016 104.232 215.556 103.827 218.522 103.827H222.567C224.185 103.827 224.994 104.097 224.994 105.583H229.038C229.038 101.53 227.69 100.179 222.701 100.179H217.578C212.994 100.179 211.106 102.07 211.106 106.663V112.607C211.106 117.065 212.994 118.956 217.578 118.956H222.701C227.555 118.956 229.173 117.606 229.173 113.553H225.128L224.994 113.418ZM292.406 113.553C292.406 114.904 291.598 115.309 289.845 115.309H285.935C282.969 115.309 282.564 115.039 282.564 111.662V107.609C282.564 104.232 282.969 103.827 285.935 103.827H289.98C291.598 103.827 292.406 104.097 292.406 105.583H296.451C296.451 101.53 294.968 100.179 290.114 100.179H284.991C280.407 100.179 278.519 102.07 278.519 106.663V112.607C278.519 117.065 280.407 118.956 284.991 118.956H290.114C294.968 118.956 296.451 117.606 296.451 113.553H292.406ZM313.304 113.553C313.304 114.904 312.496 115.309 310.608 115.309H305.889C302.923 115.309 302.518 115.039 302.518 111.662V107.609C302.518 104.232 302.923 103.827 305.889 103.827H310.473C312.226 103.827 313.17 104.097 313.17 105.583H317.214C317.214 101.53 315.597 100.179 310.743 100.179H304.945C300.226 100.179 298.474 102.07 298.474 106.663V112.607C298.474 117.065 300.226 118.956 304.945 118.956H310.608C315.462 118.956 317.08 117.606 317.08 113.553V108.825H307.642V111.932H313.035V113.688L313.304 113.553ZM75.0672 105.042C77.0896 105.042 77.6289 106.258 77.6289 107.339C77.6463 107.759 77.5231 108.174 77.2789 108.516C77.0347 108.859 76.6834 109.11 76.2806 109.23C76.8289 109.298 77.3303 109.574 77.6815 110.001C78.0326 110.428 78.2069 110.974 78.1682 111.527C78.1682 112.607 77.494 114.228 75.0672 114.228H69V105.042H75.0672ZM74.393 108.825C74.9323 108.825 75.6065 108.69 75.6065 107.609C75.6065 106.798 75.0672 106.528 73.9886 106.528H70.8876V108.825H74.5279H74.393ZM74.393 112.877C75.202 112.877 76.0109 112.607 76.0109 111.527C76.0109 110.581 75.4716 110.176 74.6627 110.176H70.8876V112.877H74.393ZM89.7632 105.042V106.393H83.8308V108.825H89.4935V110.176H83.8308V112.877H89.898V114.228H81.8085V105.042H89.898H89.7632ZM92.7294 106.393V105.042H101.358V106.393H97.8527V114.228H95.9652V106.528H92.5945L92.7294 106.393ZM103.65 106.393V105.042H112.414V106.393H109.043V114.228H107.156V106.528H103.65V106.393ZM123.604 105.042V106.393H117.537V108.825H123.335V110.176H117.537V112.877H123.604V114.228H115.65V105.042H123.604ZM133.042 105.042C135.469 105.042 136.278 106.123 136.278 107.609C136.294 108.1 136.142 108.581 135.848 108.974C135.554 109.367 135.135 109.648 134.66 109.77C135.739 110.041 136.008 110.986 136.008 112.202C136.008 112.742 136.008 113.688 136.413 114.228H134.391C134.121 113.823 134.121 113.283 134.121 112.877C134.121 111.527 133.986 110.581 132.503 110.581H129.267V114.228H127.38V105.042H133.177H133.042ZM134.256 107.744C134.256 106.798 133.582 106.393 132.638 106.393H129.267V109.095H132.638C133.716 109.095 134.256 108.825 134.256 107.744ZM147.873 105.042L149.896 112.202L152.188 105.042H154.21L156.502 112.202L158.524 105.042H160.682L157.581 114.228H155.289L152.997 107.204L150.839 114.228H148.682L145.851 105.042H147.873ZM168.501 105.042L172.546 114.228H170.524L169.445 111.932H165.266L164.322 114.228H162.03L166.075 105.042H168.367H168.501ZM167.423 106.663L165.805 110.581H168.906L167.423 106.663ZM173.76 105.042H176.187L178.748 109.095L181.445 105.042H183.602L179.557 110.716V114.228H177.804V110.716L173.76 105.042ZM194.793 107.744H192.635C192.635 107.069 191.961 106.258 190.343 106.258C189.13 106.258 188.321 106.663 188.321 107.609C188.321 109.635 195.062 107.609 195.062 111.527C195.062 113.958 192.635 114.498 190.748 114.498C187.377 114.498 186.164 113.148 186.029 111.256H188.186C188.186 112.607 189.265 113.013 190.883 113.013C191.961 113.013 193.04 112.742 193.04 111.662C193.04 109.5 186.299 111.391 186.299 107.609C186.299 105.583 188.051 104.907 190.343 104.907C191.692 104.907 194.388 105.042 194.793 107.609V107.744Z" fill="#2A2A2C"/>
<path d="M290.114 72.4862C290.186 72.4503 290.24 72.3875 290.265 72.3115C290.291 72.2355 290.285 72.1526 290.249 72.0809C290.213 72.0092 290.151 71.9548 290.075 71.9294C289.999 71.9041 289.916 71.91 289.845 71.9458C279.598 68.9739 248.318 71.9458 233.622 94.5055C233.353 94.9107 233.353 94.9107 233.622 95.1809C238.746 86.6704 250.475 80.0511 264.632 78.5651C270.535 78.0857 276.476 78.4037 282.294 79.5107C282.834 79.5107 282.834 79.5107 283.238 79.2405C285.665 77.0791 287.957 74.9177 289.979 72.4862H290.114ZM260.992 146.649C260.92 146.667 260.859 146.713 260.821 146.776C260.783 146.84 260.772 146.915 260.79 146.987C260.807 147.059 260.853 147.12 260.916 147.158C260.979 147.196 261.055 147.208 261.127 147.19C271.508 150.162 302.653 147.19 317.484 124.63C317.619 124.225 317.484 124.225 317.349 124.09C312.226 132.465 300.496 139.084 286.339 140.57C280.481 141.038 274.586 140.72 268.812 139.625C268.138 139.625 268.138 139.625 267.733 139.895C265.316 141.97 263.063 144.228 260.992 146.649Z" fill="#2A2A2C"/>
</g>
<defs>
<clipPath id="clip0_281_33663">
<rect width="271" height="77" fill="white" transform="translate(69 71)"/>
</clipPath>
</defs>
</svg>
