<svg width="410" height="220" viewBox="0 0 410 220" fill="none" xmlns="http://www.w3.org/2000/svg">
<path d="M250.382 75.7539C249.749 80.5774 246.624 84.8194 241.913 86.1731C241.341 86.3379 239.785 86.7385 239.277 86.7385H217.465V96.9154C218.618 96.3791 219.676 95.523 220.817 94.893C238.021 85.3784 259.625 95.4584 263.412 114.84C266.937 132.88 253.524 149.877 235.362 150.062V138.592C249.896 138.13 257.793 121.059 248.621 109.438C241.156 99.9814 226.423 100.854 219.957 110.982C218.845 112.724 218.238 114.53 217.548 116.462H206.762V75.7539H250.385H250.382Z" fill="#2A2A2C"/>
<path d="M202.283 75.7539V119.612C199.675 122.862 195.524 124.48 191.417 124.539V120.339H164.252V109.273L191.497 75.7539H202.283ZM191.417 109.354V93.3616L178.314 109.354H191.417Z" fill="#2A2A2C"/>
<path d="M159.778 75.7539V117.35C159.778 117.502 158.334 119.583 158.103 119.857C155.965 122.377 152.194 124.245 148.912 124.377V81.4885C151.475 78.0574 155.464 75.7701 159.778 75.7539Z" fill="#2A2A2C"/>
<path d="M250.155 120.83C250.155 129.242 243.409 136.066 235.083 136.066C226.758 136.066 220.012 129.246 220.012 120.83C220.012 112.413 226.758 105.593 235.083 105.593C243.409 105.593 250.155 112.413 250.155 120.83ZM247.64 120.826C247.64 113.819 242.022 108.139 235.09 108.139C228.158 108.139 222.54 113.819 222.54 120.826C222.54 127.834 228.158 133.514 235.09 133.514C242.022 133.514 247.64 127.834 247.64 120.826Z" fill="#2A2A2C"/>
<path d="M197.649 138.754L195.78 142.149C193.92 142.308 191.711 141.927 189.896 142.143C189.564 142.182 189.148 142.266 189.02 142.631H195.412C194.383 145.403 192.475 147.325 189.813 148.521C189.084 148.85 186.579 149.739 185.904 149.739H177.355L179.273 146.427C180.996 146.143 182.929 146.53 184.632 146.353C184.904 146.324 185.556 146.165 185.668 145.865H179.596C180.861 142.918 183.453 140.663 186.422 139.6C186.981 139.4 189.126 138.757 189.583 138.757H197.652L197.649 138.754Z" fill="#2A2A2C"/>
<path d="M203.721 146.02C203.9 145.703 204.005 145.416 204.35 145.29C205.84 144.74 208.745 144.708 210.333 144.912C212.535 145.196 214.686 146.13 216.984 145.861C217.012 145.458 217.022 145.584 216.744 145.542C216.044 145.438 215.188 145.467 214.526 145.357C211.909 144.924 210.141 144.191 207.319 144.408C206.492 144.472 205.501 144.85 204.759 144.892C204.277 144.921 204.612 144.33 204.801 144.246C205.718 143.839 208.662 143.694 209.719 143.752C212.369 143.897 214.954 145.17 217.623 144.727C217.862 144.501 217.607 144.433 217.386 144.404C216.795 144.327 216.114 144.456 215.488 144.385C213.468 144.149 211.452 143.345 209.393 143.277C207.974 143.232 206.552 143.577 205.162 143.758C205.146 143.548 205.248 143.206 205.443 143.115C205.84 142.934 208.543 142.614 209.077 142.614C211.42 142.608 213.647 143.6 215.951 143.758C216.169 143.774 218.748 143.797 218.265 143.438C215.98 143.4 213.685 143.022 211.471 142.469C211.26 142.417 211.065 142.479 210.918 142.224C213.724 139.426 219.176 137.726 222.896 139.319C224.488 140.001 225.395 141.371 225.098 143.157C224.193 148.588 211.714 152.61 209.186 147.525C208.77 146.692 209.007 146.007 208.575 145.396C206.936 145.396 205.315 145.668 203.724 146.016L203.721 146.02Z" fill="#2A2A2C"/>
<path d="M182.788 138.754L180.79 142.146H174.718C174.642 142.146 174.226 142.343 174.319 142.469H180.551C180.231 143.639 179.416 144.85 178.713 145.862H171.922C171.922 146.033 172.417 146.346 172.481 146.346H178.473L176.61 149.745C173.513 149.438 167.847 150.772 165.783 147.79C163.523 144.527 168.218 140.957 170.858 139.856C171.621 139.536 173.996 138.754 174.721 138.754H182.791H182.788Z" fill="#2A2A2C"/>
<path d="M212.031 138.754L210.113 142.065C207.518 142.353 204.667 141.584 202.456 143.371C201.791 143.907 200.995 144.999 201.571 145.855C201.631 145.946 202.315 146.346 202.363 146.346H207.876C207.601 147.199 206.946 148.566 206.412 149.309C206.262 149.519 206.173 149.713 205.875 149.735C202.843 149.642 194.917 150.801 194.92 145.942C194.923 142.214 201.034 138.754 204.281 138.754H212.031Z" fill="#2A2A2C"/>
<path d="M167.928 138.754L166.011 142.065C164.95 142.586 162.14 141.5 161.217 142.631H165.691L163.933 145.781L158.181 145.942L156.024 149.739H150.031L152.968 144.388C154.541 141.791 159.069 138.754 162.096 138.754H167.928Z" fill="#2A2A2C"/>
<path d="M245.108 120.83C245.108 126.429 240.617 130.965 235.082 130.965C229.547 130.965 225.057 126.425 225.057 120.83C225.057 115.234 229.547 110.695 235.082 110.695C240.617 110.695 245.108 115.234 245.108 120.83ZM240.058 120.827C240.058 118.048 237.831 115.796 235.082 115.796C232.334 115.796 230.106 118.048 230.106 120.827C230.106 123.605 232.334 125.857 235.082 125.857C237.831 125.857 240.058 123.605 240.058 120.827Z" fill="#2A2A2C"/>
<path d="M235.092 125.333C237.552 125.333 239.547 123.317 239.547 120.829C239.547 118.342 237.552 116.326 235.092 116.326C232.631 116.326 230.637 118.342 230.637 120.829C230.637 123.317 232.631 125.333 235.092 125.333Z" fill="#2A2A2C"/>
</svg>
