<svg width="410" height="220" viewBox="0 0 410 220" fill="none" xmlns="http://www.w3.org/2000/svg">
<path d="M142.649 110.006C142.649 125.906 129.711 138.795 113.749 138.795C97.7881 138.795 84.8438 125.906 84.8438 110.006C84.8438 94.1056 97.7827 81.2109 113.744 81.2109C129.705 81.2109 142.644 94.1002 142.644 110L142.649 110.006ZM103.892 92.3217C103.682 92.0645 102.972 93.1895 102.483 93.2913C101.789 93.4359 99.7832 92.4717 98.7346 92.3592C94.1527 91.8824 89.1675 95.6699 92.8889 99.8002C94.556 101.648 101.773 102.832 101.773 105.441C101.773 107.857 97.4815 108.302 95.6531 107.756C93.8246 107.209 92.8351 104.113 91.5283 103.031C91.7166 104.038 91.2541 108.597 91.5283 108.923C91.7219 109.154 92.5501 107.884 93.3729 107.868C93.9806 107.857 94.7657 108.372 95.5509 108.398C98.9066 108.511 104.978 108.559 104.93 103.818C104.881 99.077 97.5192 99.0342 95.2766 96.8752C92.6039 94.2984 97.4062 91.0467 101.477 94.4431C102.494 95.2895 102.768 96.5645 103.886 97.1324C103.714 96.2377 104.139 92.6217 103.886 92.3109L103.892 92.3217ZM107.124 94.1967C107.646 95.9484 107.124 103.947 107.124 106.518C107.124 106.791 105.516 107.734 105.511 108.388H111.964C112.12 107.536 111.044 107.916 110.614 107.327C109.576 105.902 109.877 102.479 110.614 100.893C111.625 102.527 114.9 105.704 114.69 107.563C114.621 108.173 113.341 107.456 113.577 108.388H120.031C118.858 106.32 113.529 100.775 113.125 98.927C112.883 97.8074 115.89 94.9092 116.825 94.2127C117.578 93.6556 118.901 93.7145 118.955 92.8574H113.583C113.534 94.0306 115.97 92.552 115.137 94.6681C114.696 95.7824 111.544 98.6484 110.625 99.8163C109.447 99.2163 110.141 93.6342 110.388 93.4145C110.738 93.0984 112.147 93.9074 111.969 92.8574H105.521C105.376 93.7252 106.925 93.5002 107.135 94.1913L107.124 94.1967ZM131.593 92.8574C128.624 92.2359 123.779 93.3127 120.568 92.8574C120.595 93.977 122.284 92.9859 122.66 94.2556C122.967 95.2895 122.881 106.829 122.494 107.359C121.95 108.115 120.461 107.359 120.568 108.388H128.635L126.575 106.422C126.5 105.693 126.231 100.872 126.758 100.882C127.753 100.904 127.748 101.498 128.216 102.109C129.119 103.298 131.539 107.691 132.389 108.131C133.034 108.463 137.03 108.554 137.239 108.382C137.578 108.115 132.292 102.602 131.932 101.616C131.319 99.9288 132.652 100.454 133.685 99.7627C135.131 98.7931 135.696 96.0609 134.594 94.6842C134.346 94.3788 131.894 92.9109 131.598 92.8467L131.593 92.8574ZM86.1505 111.072V114.822H141.569V111.072H86.1505ZM139.928 119.643H87.7639C87.9844 120.956 88.8072 123.2 90.1785 123.398L138.25 123.323C138.224 122.563 140.084 119.772 139.934 119.643H139.928ZM134.551 127.679H92.6039C93.6633 129.163 95.3143 131.129 97.1965 131.407C107.672 130.818 119.111 132.27 129.463 131.456C130.743 131.354 131.265 131.348 132.373 130.604C132.883 130.261 135.11 128.198 134.545 127.679H134.551ZM123.526 135.179C117.229 135.479 110.517 135.179 104.166 135.179C104.042 135.179 103.445 134.161 103.359 134.916C103.429 135.211 103.284 135.64 103.359 135.709C103.596 135.929 108.829 137.193 109.587 137.279C114.448 137.831 119.799 137.215 124.338 135.457C125.693 133.245 123.779 135.173 123.526 135.184V135.179Z" fill="#2A2626"/>
<path d="M197.47 90.1788C197.637 90.0127 201.52 90.002 202.079 90.677L207.688 98.7502V90.1788C207.688 89.9645 211.99 89.9645 211.99 90.1788V105.714L207.677 105.457L201.773 97.1431V104.911C201.773 105.961 198.352 105.747 197.47 105.714C197.89 103.673 196.916 90.7252 197.47 90.1788Z" fill="#2A2626"/>
<path d="M319.278 90.1783C322.354 90.698 324.048 94.7801 321.956 97.1319C321.139 98.048 319.418 98.0158 319.009 99.2801C319.509 99.2533 319.983 99.4998 320.364 99.8051C321.074 100.373 324.306 105.291 323.849 105.714C323.656 105.891 318.757 105.8 318.541 105.644C317.95 105.221 316.385 99.2801 314.449 99.2694C311.905 99.2533 313.658 105.157 313.099 105.714C312.949 105.864 308.797 105.928 308.797 105.714V90.1783C311.991 90.5533 316.245 89.664 319.284 90.1783H319.278ZM317.891 93.4355C317.509 93.1033 314.277 92.648 313.599 93.0926C312.884 93.564 312.879 95.4444 313.33 96.1033C313.97 97.0408 317.514 96.5319 317.875 96.0069C318.063 95.7337 318.004 93.5319 317.891 93.4301V93.4355Z" fill="#2A2626"/>
<path d="M253.4 90.1787C253.551 90.0287 257.552 90.0234 257.702 90.1787C258.498 90.9716 255.938 98.4073 259.864 94.2127C263.204 90.6448 262.795 89.3859 268.996 90.1841C267.753 91.6895 266.452 93.093 265.22 94.6198C264.785 95.1609 264.08 94.7591 264.107 95.793C264.172 97.9841 269.48 103.7 269.533 105.447C269.544 105.859 264.833 105.929 264.134 105.468C263.198 104.852 261.483 99.2859 260.655 99.2966C260.445 99.2966 257.912 101.916 257.794 102.329C257.536 103.202 257.842 105.581 257.702 105.72C257.552 105.87 253.4 105.934 253.4 105.72C253.4 103.62 252.852 90.7359 253.4 90.1841V90.1787Z" fill="#2A2626"/>
<path d="M229.582 90.2912C235.159 89.1234 240.284 90.7787 241.005 96.918C241.919 104.734 232.976 108.516 227.318 104.113C223.15 100.866 223.925 91.4751 229.582 90.2912ZM231.733 93.5055C226.883 94.5769 229.41 105.398 234.793 101.905C237.31 100.272 237.213 92.2948 231.733 93.5055Z" fill="#2A2626"/>
<path d="M294.659 103.422C292.298 106.063 286.14 106.598 283.236 104.654C277.95 101.107 279.052 90.8805 285.92 90.1573C289.566 89.7716 294.116 90.093 295.465 94.0733C296.229 96.3233 296.304 101.579 294.659 103.416V103.422ZM286.565 93.4841C283.656 94.3573 283.129 103.636 289.044 102.404C293.056 101.568 292.755 91.6251 286.565 93.4841Z" fill="#2A2626"/>
<path d="M165.055 91.3947C165.372 91.7482 166.518 94.2339 166.276 94.4589C166.13 94.5929 162.914 94.5393 162.339 94.3679C161.29 94.0571 160.822 92.3482 159.575 92.3268C157.908 92.2947 157.413 93.1946 157.655 94.7107C157.784 95.5411 166.878 95.2893 166.856 100.625C166.835 107.011 154.821 107.498 153.073 102.532C152.901 102.039 152.648 100.529 152.831 100.363C152.987 100.218 156.907 100.293 157.08 100.416C157.332 100.598 157.327 101.916 157.789 102.388C159.682 104.321 165.092 101.986 160.742 99.7143C157.881 98.2196 153.148 98.8143 153.331 94.2018C153.423 91.8286 155.133 90.3982 157.386 90.1625C159.403 89.9536 163.678 89.8572 165.049 91.3947H165.055Z" fill="#2A2626"/>
<path d="M180.262 111.612C180.375 111.698 179.111 114.039 179.02 114.146C178.934 114.243 177.019 114.564 178.111 115.357C178.525 115.657 180.149 114.623 179.73 116.428L178.116 117.5L179.73 117.237C179.719 117.794 179.38 118.587 179.004 118.968C178.719 119.257 177.901 118.791 178.111 119.643C178.789 119.107 180.181 119.723 180.257 119.648C180.483 119.412 180.042 116.112 180.257 115.893C180.45 115.7 182.704 116.096 182.946 115.893C184.5 114.586 180.897 114.912 180.794 114.827C180.638 114.698 180.671 111.318 180.768 110.836C180.87 110.311 181.741 110.707 182.257 110.38C182.591 110.171 182.112 109.137 183.758 109.453C184.037 109.507 183.881 110.428 184.387 110.546C184.93 110.675 185.984 110.391 186.178 110.536C186.35 110.664 186.258 114.607 186.118 114.768C185.909 115.009 184.107 114.719 184.026 115.893C184.618 116.005 186.565 115.743 186.715 115.893C186.866 116.043 186.818 119.605 186.457 120.194C185.43 121.877 184.484 119.471 184.672 119.209C184.763 119.086 185.57 119.182 185.651 118.791C185.774 118.18 186.011 116.648 184.833 116.969C183.618 117.837 184.064 119.236 184.021 120.457C183.989 121.352 183.532 121.936 182.946 121.25C182.816 121.1 182.978 118.486 182.946 117.762C182.903 116.884 182.472 116.262 181.87 116.969C181.606 117.28 182.397 119.766 181.348 120.478C179.359 119.98 175.82 121.759 174.336 120.993C172.513 120.055 175.298 120.264 175.422 120.178C175.675 120.012 174.524 117.902 174.879 117.505C175.928 116.332 175.777 118.882 176.487 118.571L174.873 116.428C174.648 114.848 175.169 115.534 176.11 115.362C177.498 115.111 175.868 114.098 175.47 113.836C175.357 113.766 175.444 113.396 175.325 113.316C175.137 113.187 174.486 113.782 174.373 113.718C174.303 113.68 173.76 112.234 173.83 112.186C174.169 111.944 174.836 112.003 175.438 111.366C176.498 110.257 176.234 107.755 177.81 109.486C178.202 109.914 178.358 110.605 178.896 111.098C179.391 111.553 180.133 111.521 180.257 111.607L180.262 111.612ZM178.649 113.214C179.084 112.78 177.573 111.087 177.304 111.082C177.014 111.077 175.863 113.128 175.96 113.214C176.057 113.3 178.552 113.311 178.649 113.214ZM185.102 111.612C184.935 111.537 182.585 111.537 182.419 111.612C181.004 112.255 186.516 112.255 185.102 111.612ZM185.102 113.219C184.935 113.144 182.585 113.144 182.419 113.219C181.004 113.862 186.516 113.862 185.102 113.219ZM176.229 119.107C175.879 119.107 175.879 119.643 176.229 119.643C176.578 119.643 176.578 119.107 176.229 119.107Z" fill="#2A2626"/>
<path d="M196.396 113.214C196.509 113.128 199.085 113.369 199.079 112.411C199.069 111.291 194.202 111.934 195.863 110.536C196.191 110.262 200.451 110.809 200.682 110.498C200.886 110.219 200.289 107.728 202.231 109.014C202.424 109.143 202.403 110.214 203.177 110.471C204.129 110.782 206.877 110.3 207.151 110.536C208.797 111.928 204.586 111.5 204.462 111.607C204.403 111.661 204.403 113.161 204.462 113.209C204.699 113.412 206.963 113.016 207.157 113.209C207.377 113.428 207.253 118.512 207.178 119.396C206.888 122.921 205.011 120.419 203.65 120.178C202.715 120.012 199.273 120.366 199.085 120.178C198.95 120.044 199.493 115.234 198.014 116.964C197.751 117.269 198.273 120.95 198.014 121.25C197.961 121.309 196.401 121.33 196.401 121.25C196.401 120.044 196.078 113.455 196.401 113.214H196.396ZM202.849 111.607C202.747 111.521 200.257 111.511 200.16 111.607C199.251 112.518 202.188 113.862 202.844 113.209C202.903 113.15 202.908 111.655 202.844 111.607H202.849ZM199.085 114.286C198.219 113.428 197.536 115.293 198.014 115.893C198.256 116.198 199.531 114.73 199.085 114.286ZM202.311 114.28C202.268 114.216 200.897 114.221 200.746 114.323C200.628 114.403 199.515 116.868 199.628 116.964C199.945 117.232 204.22 116.718 204.468 116.964C204.581 117.077 204.134 121.293 205.538 119.643C205.64 119.519 205.656 116.541 205.538 116.428C205.344 116.236 202.457 116.616 202.306 116.434C202.118 116.203 202.505 114.559 202.306 114.28H202.311ZM205.538 114.286C205.479 114.227 203.984 114.227 203.93 114.286C202.51 115.711 206.958 115.711 205.538 114.286ZM200.698 118.036V119.107H202.849V118.036H200.698Z" fill="#2A2626"/>
<path d="M249.098 109.464C249.318 109.679 248.474 110.932 248.582 111.029C249.017 111.409 250.528 111.216 250.173 112.673L248.56 112.941C248.872 115.143 252.965 115.518 253.395 114.013C254.261 110.964 250.926 114.463 250.173 113.745C249.727 113.316 250.937 112.261 251.131 111.736C251.346 111.147 251.147 110.166 251.249 109.995C251.292 109.925 252.814 109.925 252.862 109.995C253.104 110.375 252.341 111.763 253.4 111.607L255.013 109.464C255.121 109.973 254.868 111.468 255.013 111.618C255.148 111.757 256.659 111.516 257.17 111.618C257.724 113.488 255.487 112.336 255.013 112.689C254.927 112.754 254.933 114.757 255.013 114.827C255.207 114.998 257.095 114.714 257.702 114.827C258.17 116.772 255.895 115.55 255.557 115.898C254.874 116.595 257.611 118.518 257.982 119.102C258.498 119.916 257.708 120.72 257.439 120.709C257.138 120.693 255.411 118.764 255.551 118.041C254.347 118.063 255.358 120.859 255.019 121.256C254.965 121.314 253.459 121.314 253.411 121.256C253.18 120.988 253.642 118.331 253.411 118.041C253.088 117.645 251.486 120.318 250.464 120.184C249.093 120.002 249.969 119.252 250.561 118.727C251.507 117.886 251.948 116.986 252.878 116.166C251.954 115.106 250.55 116.67 249.915 116.739C249.501 116.782 248.775 116.268 248.576 116.439C248.426 116.573 248.614 119.675 248.576 120.468C248.533 121.347 248.103 121.968 247.501 121.261C247.237 120.95 247.764 117.291 247.501 116.975C247.221 116.643 246.199 118.92 245.35 117.232C245.667 116.589 247.727 112.818 247.506 112.689C247.049 112.422 245.57 113.316 245.887 111.886C247.216 110.986 247.264 111.361 247.517 109.872C247.641 109.154 249.039 109.406 249.109 109.475L249.098 109.464Z" fill="#2A2626"/>
<path d="M184.028 90.1787H179.188V105.714H184.028V90.1787Z" fill="#2A2626"/>
<path d="M161.978 110C162.682 110.595 162.064 111.028 161.177 111.071C159.477 111.157 157.756 111.007 156.062 111.071C155.933 111.998 157.294 111.591 157.939 111.602C158.66 111.618 159.38 111.586 160.096 111.602C160.811 111.618 162.333 111.162 161.978 112.4C161.757 113.161 156.498 112.303 156.062 112.673C155.358 113.273 155.982 113.702 156.858 113.745C158.558 113.83 160.278 113.68 161.972 113.745C161.376 115.341 159.278 114.773 157.934 114.811C157.283 114.827 155.933 114.414 156.057 115.346H163.586C164.016 117.125 162.499 116.096 161.989 116.445C161.865 116.525 162.661 118.121 160.902 118.828C161.246 119.53 163.403 119.477 163.591 119.632C163.898 119.889 163.231 121.132 162.758 121.234C161.924 121.411 160.3 119.648 159.111 119.745C158.165 119.82 153.32 121.732 152.836 121.234C152.782 121.175 152.76 119.67 152.836 119.632C153.115 119.482 154.126 119.825 154.417 119.611C154.546 119.514 154.578 116.52 154.454 116.412C154.035 116.064 151.771 117.248 152.298 115.346C152.825 115.239 154.271 115.502 154.454 115.346C154.659 115.175 154.298 110.846 154.454 109.989C155.627 110.203 161.644 109.7 161.983 109.989L161.978 110ZM158.213 119.102L156.068 116.428C156.019 118.898 155.449 119.45 158.213 119.102ZM160.902 116.434C160.166 116.498 158.014 116.203 158.213 116.696C158.875 118.314 160.311 118.1 160.902 116.434Z" fill="#2A2626"/>
<path d="M220.499 109.582C221.461 111.211 222.8 111.307 222.214 113.744C223.618 113.627 223.101 110.209 223.284 109.994C223.424 109.834 227.436 109.839 227.587 109.994C227.769 110.177 227.452 113.021 227.587 113.744C228.49 113.986 227.882 112.759 228.388 112.662C230.894 112.186 229.216 114.784 228.861 114.843C227.92 114.998 226.366 114.955 226.038 113.943C225.651 112.753 226.791 110.648 224.898 111.061C225 111.698 223.94 114.661 223.763 114.794C223.413 115.057 222.639 114.286 222.467 114.286C222.107 114.286 222.612 120.5 221.601 121.175C221.364 121.33 219.595 121.309 219.515 121.234C219.025 120.784 220.337 119.744 220.483 119.257C220.757 118.346 220.552 117.344 220.585 116.418L218.977 118.561C218.864 118.009 219.273 116.412 218.708 116.412C218.358 116.412 218.552 121.094 217.095 121.228C215.911 121.341 216.761 119.787 216.858 119.396C217.116 118.368 217.611 117.302 217.39 116.198C217.267 115.571 216.003 116.353 216.282 115.078C216.395 114.564 217.267 115.062 217.38 114.478C217.589 113.391 217.127 111.859 217.326 110.814C217.428 110.289 218.299 110.686 218.815 110.364C219.127 110.171 218.832 108.848 220.488 109.571L220.499 109.582ZM220.595 111.607C220.418 111.425 219.063 111.521 218.702 112.127C217.616 113.927 218.412 115.502 220.595 114.816C220.735 113.932 219.192 114.205 218.982 113.477C218.815 112.898 219.482 112.228 220.052 112.143L220.59 113.75C220.515 113.23 220.725 111.746 220.59 111.612L220.595 111.607Z" fill="#2A2626"/>
<path d="M275.45 109.47C275.595 109.593 274.734 110.589 274.923 111.296C275.111 112.003 276.67 112.47 277.063 112.143C277.332 111.918 274.874 110.53 276.794 109.475C278.246 110.562 277.875 110.595 277.687 111.896C277.622 112.357 278.467 112.036 278.671 112.148C280.951 113.418 275.595 113.075 275.45 113.214C274.933 113.707 275.81 118.721 277.396 119C277.665 119.048 279.876 118.234 279.746 119.375C279.736 119.493 278.472 121.266 278.354 121.282C275.557 121.753 274.439 117.682 273.96 115.496C273.82 114.853 273.912 113.3 273.836 113.214C273.61 112.957 268.254 113.493 267.921 113.214C267.216 112.614 267.835 112.186 268.717 112.143C269.889 112.084 272.572 112.443 273.331 111.912C274.164 111.328 273.643 109.77 273.836 109.459C273.879 109.389 275.385 109.416 275.45 109.464V109.47Z" fill="#2A2626"/>
<path d="M321.73 113.728C322.021 113.937 323.032 113.6 323.311 113.75C323.381 113.787 323.381 115.319 323.311 115.357C323.032 115.507 322.021 115.164 321.73 115.378C321.558 115.507 321.526 119.509 321.692 119.648C321.795 119.734 325.398 119.407 323.844 120.714C323.596 120.923 317.638 120.923 317.396 120.714C315.739 119.31 319.972 119.76 320.085 119.648C320.235 119.498 320.251 115.502 320.085 115.357C319.821 115.127 317.912 115.737 317.928 115.089C317.96 113.514 319.601 114.028 320.025 113.702C320.386 113.423 319.816 109.769 320.085 109.469C321.854 107.509 321.52 113.584 321.73 113.734V113.728Z" fill="#2A2626"/>
<path d="M247.436 125.048C247.952 125.712 248.06 129.377 249.63 129.821C249.673 128.83 251.303 123.398 252.857 125C253.099 125.252 253.083 131.696 252.857 131.959C252.255 132.661 251.824 132.045 251.781 131.166C251.717 129.832 251.83 128.471 251.781 127.143L249.899 130.909C249.609 131.493 249.856 132.259 248.834 131.964C248.366 131.83 247.796 127.411 246.414 127.143C246.441 128.246 246.689 133.598 245.597 131.434C245.247 130.743 245.124 125.236 245.339 124.995C245.409 124.914 247.366 124.952 247.442 125.043L247.436 125.048Z" fill="#2A2626"/>
<path d="M196.341 125.048C196.733 125.305 197.836 129.827 198.277 129.827C198.53 129.827 199.793 126.061 200.127 125.327C200.38 124.77 201.719 124.936 201.772 125C202.052 125.327 201.573 130.861 201.772 131.964C199.853 131.664 201.202 127.148 200.433 127.138C200.1 127.138 199.277 131.445 198.282 131.954L195.868 127.143C195.658 128.675 196.615 131.171 194.792 131.964C194.986 130.861 194.512 125.311 194.792 125C194.846 124.941 196.163 124.93 196.346 125.048H196.341Z" fill="#2A2626"/>
<path d="M291.582 117.5H299.649V121.25H291.582V117.5ZM293.195 118.036V118.571H298.03V118.036H293.195ZM293.195 119.643V120.179H298.03V119.643H293.195Z" fill="#2A2626"/>
<path d="M223.285 115.893H228.131V121.256H223.285V115.893ZM226.512 117.5H224.898V119.643H226.512V117.5Z" fill="#2A2626"/>
<path d="M291.313 112.679C291.146 112.684 290.7 113.279 290.248 113.22C287.619 112.861 291.657 111.345 291.959 111.179C292.754 110.729 295.013 108.854 295.545 108.966C295.927 109.047 296.874 110.231 297.654 110.648C298.885 111.307 301.639 111.468 301.8 111.607C302.101 111.875 301.52 113.054 300.929 113.172C300.423 113.273 300.052 112.679 299.923 112.679C297.067 112.679 294.169 112.556 291.319 112.679H291.313ZM296.422 112.143C297.1 111.468 295.018 109.502 294.276 111.345C293.782 112.566 296.32 112.245 296.422 112.143Z" fill="#2A2626"/>
<path d="M313.63 113.75C313.544 113.675 311.474 113.745 311.484 112.947C311.501 111.881 317.163 111.945 317.395 112.143C317.454 112.197 317.465 113.702 317.395 113.745C317.179 113.895 315.238 113.638 315.238 113.745V121.245C315.238 121.325 313.625 121.325 313.625 121.245C313.625 120.141 313.915 113.986 313.625 113.745L313.63 113.75Z" fill="#2A2626"/>
<path d="M300.187 113.75V116.429H291.045V113.75H300.187ZM293.196 115.893C293.642 115.448 292.368 113.986 292.126 114.286C291.647 114.88 292.33 116.75 293.196 115.893ZM294.804 115.893C295.175 115.073 294.54 113.707 294.272 114.291C293.901 115.111 294.535 116.477 294.804 115.893ZM296.955 115.893C297.326 115.073 296.692 113.707 296.423 114.291C296.052 115.111 296.686 116.477 296.955 115.893ZM298.568 115.893C298.939 115.073 298.305 113.707 298.036 114.291C297.665 115.111 298.3 116.477 298.568 115.893Z" fill="#2A2626"/>
<path d="M273.298 114.822C273.357 114.875 273.368 116.391 273.298 116.429C273.023 116.573 272.05 116.241 271.722 116.466C271.636 116.525 271.593 118.507 271.674 118.572C272.12 118.931 274.282 117.698 273.83 119.643L267.914 120.714C267.484 118.979 270.012 119.348 270.098 118.802C270.162 118.384 270.136 116.595 270.006 116.488C269.786 116.306 267.914 116.343 267.92 115.625C267.931 114.57 273.083 114.645 273.292 114.822H273.298Z" fill="#2A2626"/>
<path d="M157.014 125.123C157.074 125.177 157.735 126.548 157.676 126.602C157.127 127.089 155.858 125.091 154.245 125.584C153.626 125.771 153.062 126.864 153.379 127.137C154.277 127.93 159.117 127.571 157.423 130.898C156.084 133.523 150.964 130.909 152.309 129.28C152.535 129.007 153.691 130.636 154.272 130.807C155.046 131.037 156.439 130.866 156.606 130.079C156.95 128.439 153.191 128.584 152.535 127.7C150.927 125.546 155.224 123.58 157.025 125.118L157.014 125.123Z" fill="#2A2626"/>
<path d="M289.431 127.143C288.824 127.754 287.479 125.75 286.914 125.595C283.392 124.657 283.155 131.938 286.925 130.818C287.624 130.609 289.351 127.909 289.431 130.084C285.479 135.227 280.278 128.482 284.607 125.284C287.388 123.232 290.044 126.527 289.431 127.138V127.143Z" fill="#2A2626"/>
<path d="M322.235 125C322.444 125.246 322.326 130.914 321.987 131.466C321.708 131.921 318.045 131.97 317.513 131.311C317.282 131.027 317.024 129.58 317.04 129.104C317.142 125.225 320.971 127.352 321.165 127.137C321.256 127.041 320.923 123.457 322.24 124.995L322.235 125ZM318.497 130.866C320.121 132.039 322.466 129.071 320.648 127.92C317.954 126.221 317.637 130.239 318.497 130.866Z" fill="#2A2626"/>
<path d="M230.813 131.964C230.619 132.162 229.764 131.6 229.377 131.611C228.404 131.637 227.36 132.323 226.484 131.734C225.919 131.353 225.736 129.73 226.011 129.328C226.452 128.686 229.452 129.398 229.2 127.957C228.226 126.468 227.683 127.957 226.758 128.198C225.639 128.493 225.822 127.271 225.978 127.153C226.543 126.725 229.065 126.366 229.775 126.848C229.99 126.993 230.996 131.782 230.813 131.97V131.964ZM229.2 129.286C228.533 128.621 226.333 130.175 227.054 130.887C227.129 130.962 229.124 130.962 229.205 130.887C229.264 130.828 229.259 129.339 229.205 129.286H229.2Z" fill="#2A2626"/>
<path d="M175.96 125C176.207 125.295 175.713 128.439 175.96 128.75C176.256 129.114 178.428 125.916 179.181 126.613C179.488 126.896 177.718 128.027 177.606 128.552C177.444 129.318 179.8 131.241 179.176 131.964C178.961 132.211 176.756 130.1 177.025 129.286L174.879 131.964C174.949 129.923 174.777 127.845 174.879 125.798C174.922 124.92 175.352 124.298 175.955 125.005L175.96 125Z" fill="#2A2626"/>
<path d="M173.503 129.222C173.503 130.684 172.314 131.868 170.846 131.868C169.378 131.868 168.189 130.684 168.189 129.222C168.189 127.759 169.378 126.575 170.846 126.575C172.314 126.575 173.503 127.759 173.503 129.222ZM169.539 127.711C169.373 127.893 169.448 129.57 169.582 130.014C170.163 131.895 173.228 130.754 171.932 128.209C171.465 127.288 170.109 127.084 169.539 127.711Z" fill="#2A2626"/>
<path d="M259.316 131.964C258.079 131.311 255.422 132.243 254.476 131.429C254.121 131.123 254.653 129.687 255.245 129.248C256.186 128.546 257.595 128.841 257.702 128.75C258.014 128.477 257.256 127.164 256.901 127.154C256.697 127.154 255.202 128.423 255.019 128.214C254.035 127.1 257.605 125.67 258.541 127.111C259.074 127.93 258.638 130.711 259.316 131.964ZM257.702 129.286C257.035 128.621 254.836 130.175 255.557 130.887C255.632 130.962 257.627 130.962 257.708 130.887C257.767 130.829 257.761 129.339 257.708 129.286H257.702Z" fill="#2A2626"/>
<path d="M278.009 127.272C278.278 127.523 278.891 129.072 278.671 129.286C278.429 129.516 275.18 129.05 274.906 129.286C274.847 129.339 274.852 130.834 274.906 130.888C275.261 131.241 276.864 130.577 277.439 130.459C278.552 130.229 278.321 131.279 278.133 131.418C275.67 133.293 272.556 130.748 274.1 127.668C274.788 126.291 277.009 126.339 278.009 127.266V127.272ZM277.6 128.745C277.084 126.361 273.911 127.738 274.912 128.745C275.062 128.895 277.004 128.654 277.6 128.745Z" fill="#2A2626"/>
<path d="M185.768 129.28C185.768 130.737 184.585 131.916 183.122 131.916C181.66 131.916 180.477 130.737 180.477 129.28C180.477 127.823 181.66 126.645 183.122 126.645C184.585 126.645 185.768 127.823 185.768 129.28ZM181.902 130.866C182.353 131.198 184.268 130.93 184.526 130.046C185.279 127.448 182.004 126.27 181.563 128.734C181.471 129.253 181.676 130.705 181.896 130.871L181.902 130.866Z" fill="#2A2626"/>
<path d="M208.227 129.286C208.082 129.43 204.527 128.878 204.468 130.089C204.403 131.407 207.512 130.571 208.227 130.362C206.269 134.262 201.72 130.17 204.441 127.395C206.753 125.032 209.012 128.509 208.222 129.286H208.227ZM207.151 127.678C206.839 127.368 204.452 127.7 204.462 128.745C205.468 128.927 208.324 128.852 207.151 127.678Z" fill="#2A2626"/>
<path d="M296.046 129.27C296.046 130.727 294.863 131.905 293.4 131.905C291.937 131.905 290.754 130.727 290.754 129.27C290.754 127.812 291.937 126.634 293.4 126.634C294.863 126.634 296.046 127.812 296.046 129.27ZM292.147 130.866C292.598 131.198 294.513 130.93 294.771 130.046C295.524 127.448 292.249 126.27 291.808 128.734C291.717 129.253 291.921 130.705 292.141 130.871L292.147 130.866Z" fill="#2A2626"/>
<path d="M308.792 125.006C309.034 125.209 306.931 130.127 309.131 130.829C309.545 130.963 313.578 130.652 312.019 131.964C311.814 132.136 307.872 132.147 307.415 131.461C307.098 130.984 306.969 125.241 307.179 124.995C307.232 124.936 308.727 124.947 308.792 125V125.006Z" fill="#2A2626"/>
<path d="M218.445 128.209C217.321 128.455 215.552 126.644 214.713 127.71C214.616 127.834 214.573 130.775 214.68 130.893C215.46 131.739 218.036 129.452 218.445 129.821C218.821 130.164 217.289 132.157 215.605 131.878C210.948 131.107 214.906 122.975 218.445 128.209Z" fill="#2A2626"/>
<path d="M220.595 127.143C220.821 127.379 222.154 126.468 222.913 126.666C224.687 127.127 224.994 130.77 223.553 131.964C222.601 129.827 224.682 127.009 221.455 127.657L220.062 131.964V125.006C221.192 124.882 220.326 126.859 220.6 127.148L220.595 127.143Z" fill="#2A2626"/>
<path d="M272.162 127.202C272.302 127.395 272.372 131.777 272.216 131.959C271.614 132.661 271.183 132.045 271.14 131.166C271.022 128.745 272.108 127.277 269.312 127.652C267.844 127.85 269.532 131.627 267.919 131.964C268.075 131.054 267.693 126.843 267.919 126.607C267.962 126.559 268.645 126.95 269.156 126.95C269.834 126.95 271.624 126.468 272.162 127.207V127.202Z" fill="#2A2626"/>
<path d="M165.747 131.964C165.446 129.709 166.914 127.009 163.914 127.652L162.521 131.959C162.677 131.048 162.295 126.838 162.521 126.602C162.574 126.548 163.241 126.961 163.752 126.95C164.263 126.939 164.785 126.543 165.371 126.677C167.108 127.063 167.64 131.172 165.742 131.964H165.747Z" fill="#2A2626"/>
<path d="M314.83 126.5C314.89 126.58 316.998 126.891 315.771 127.673C315.626 127.764 314.793 127.448 314.685 128.005C314.578 128.563 314.61 129.548 314.669 130.127C314.771 131.129 316.734 131.054 315.777 131.959C315.594 132.13 313.663 131.536 313.599 131.086C313.997 128.788 312.281 126.682 314.432 125C315.019 125.102 314.465 126.034 314.825 126.5H314.83Z" fill="#2A2626"/>
<path d="M212.529 126.607C213.54 127.464 211.185 127.877 210.98 128.536C210.84 128.98 211.233 133.587 209.845 131.964C209.593 131.67 210.023 127.545 209.845 126.607C210.485 127.095 212.427 126.521 212.529 126.607Z" fill="#2A2626"/>
<path d="M239.542 126.505C239.601 126.585 241.72 126.891 240.483 127.673C240.349 127.759 239.72 127.539 239.537 127.759C238.44 129.077 240.881 131.525 240.489 131.964C238.843 133.807 238.924 127.952 238.762 127.764C238.698 127.689 236.504 127.405 237.816 126.623C238.289 126.339 239.252 127.062 238.881 125.005C239.892 124.839 239.123 125.98 239.537 126.51L239.542 126.505Z" fill="#2A2626"/>
<path d="M317.395 119.107C317.341 119.166 315.836 119.166 315.787 119.107C315.626 118.92 315.545 114.291 316.594 114.291C317.642 114.291 317.562 118.92 317.4 119.107H317.395Z" fill="#2A2626"/>
<path d="M313.094 114.286C313.287 114.516 313.363 120.152 312.287 120.168C311.292 120.189 311.68 118.588 311.739 118.025C311.846 117.007 311.981 116.177 312.024 115.084C312.061 114.2 312.481 113.568 313.094 114.286Z" fill="#2A2626"/>
<path d="M189.941 126.607C190.958 127.48 188.586 127.861 188.393 128.536C188.081 129.639 188.887 131.461 187.258 131.964V126.607C187.995 127.384 189.796 126.484 189.941 126.607Z" fill="#2A2626"/>
<path d="M263.617 126.607C264.633 127.48 262.262 127.861 262.068 128.536C261.756 129.639 262.563 131.461 260.934 131.964V126.607C261.67 127.384 263.472 126.484 263.617 126.607Z" fill="#2A2626"/>
<path d="M235.659 131.964C235.906 130.909 235.643 127.148 234.309 127.148C232.529 127.148 233.126 131.761 232.959 131.964C232.066 133.046 231.426 127.095 231.889 126.607C232.066 126.425 232.905 126.971 233.325 126.961C234.26 126.945 235.341 126.173 235.949 127.116C236.153 127.432 237.062 131.868 235.659 131.959V131.964Z" fill="#2A2626"/>
<path d="M160.364 126.607C160.536 126.811 160.455 131.198 160.1 131.959C159.154 131.316 159.347 130.518 159.267 129.575C159.213 128.943 159.121 125.155 160.364 126.607Z" fill="#2A2626"/>
<path d="M265.768 126.607C265.94 126.811 265.859 131.198 265.504 131.959C264.558 131.316 264.752 130.518 264.671 129.575C264.617 128.943 264.526 125.155 265.768 126.607Z" fill="#2A2626"/>
<path d="M312.555 109.999L312.555 111.071L316.862 111.072L316.863 110.001L312.555 109.999Z" fill="#2A2626"/>
<path d="M301.8 130.357C302.025 130.582 302.058 134.193 300.724 133.03C300.611 132.929 301.1 132.313 301.095 131.804C301.095 131.482 300.326 128.905 301.8 130.357Z" fill="#2A2626"/>
<path d="M298.573 130.357C298.632 130.416 298.632 131.905 298.573 131.959C297.142 133.373 297.142 128.943 298.573 130.357Z" fill="#2A2626"/>
<path d="M323.848 130.357C324.166 130.041 325.451 130.818 325.451 131.161C325.451 132.639 323.031 131.172 323.848 130.357Z" fill="#2A2626"/>
<path d="M160.364 125.006C160.729 125.193 160.052 125.922 159.293 125.536C158.928 125.348 159.605 124.62 160.364 125.006Z" fill="#2A2626"/>
<path d="M265.768 125.006C266.134 125.193 265.456 125.922 264.698 125.536C264.332 125.348 265.01 124.62 265.768 125.006Z" fill="#2A2626"/>
<path d="M141.568 111.071H86.1504V114.821H141.568V111.071Z" fill="white"/>
<path d="M139.93 119.643C140.086 119.772 138.219 122.563 138.246 123.323L90.1744 123.398C88.8031 123.195 87.9856 120.95 87.7598 119.643H139.924H139.93Z" fill="white"/>
<path d="M134.551 127.679C135.11 128.193 132.889 130.261 132.378 130.604C131.27 131.348 130.743 131.354 129.469 131.455C119.116 132.27 107.673 130.818 97.202 131.407C95.3198 131.129 93.6688 129.163 92.6094 127.679H134.556H134.551Z" fill="white"/>
<path d="M131.594 92.8569C131.89 92.9212 134.347 94.3891 134.589 94.6944C135.697 96.0712 135.127 98.8033 133.681 99.773C132.648 100.464 131.314 99.9391 131.927 101.627C132.288 102.612 137.574 108.125 137.235 108.393C137.026 108.559 133.03 108.473 132.384 108.141C131.535 107.702 129.115 103.309 128.211 102.119C127.743 101.503 127.749 100.914 126.754 100.893C126.227 100.882 126.496 105.703 126.571 106.432L128.631 108.398H120.564C120.457 107.369 121.946 108.119 122.489 107.369C122.877 106.839 122.957 95.2998 122.656 94.2658C122.28 92.9962 120.591 93.9819 120.564 92.8676C123.775 93.323 128.62 92.2462 131.589 92.8676L131.594 92.8569ZM126.485 100.357C126.646 100.523 129.131 100.394 129.722 100.094C132.61 98.6373 131.406 92.2516 127.356 93.4462C126.136 93.8051 126.238 100.094 126.485 100.357Z" fill="white"/>
<path d="M107.124 94.1962C106.92 93.5052 105.371 93.7302 105.511 92.8623H111.959C112.136 93.9177 110.722 93.1087 110.378 93.4194C110.13 93.6391 109.437 99.2212 110.614 99.8212C111.534 98.6534 114.685 95.7873 115.126 94.673C115.965 92.5516 113.524 94.0355 113.572 92.8623H118.944C118.891 93.7194 117.562 93.6605 116.815 94.2177C115.879 94.9141 112.873 97.8177 113.115 98.9319C113.518 100.775 118.848 106.325 120.02 108.393H113.567C113.325 107.455 114.61 108.178 114.68 107.568C114.89 105.714 111.615 102.532 110.604 100.898C109.861 102.484 109.56 105.912 110.604 107.332C111.034 107.921 112.109 107.541 111.953 108.393H105.5C105.505 107.734 107.113 106.796 107.113 106.523C107.113 103.952 107.635 95.9534 107.113 94.2016L107.124 94.1962Z" fill="white"/>
<path d="M103.893 92.3212C104.146 92.6319 103.721 96.248 103.893 97.1426C102.774 96.5748 102.5 95.3051 101.484 94.4533C97.4126 91.0516 92.6102 94.3087 95.283 96.8855C97.5201 99.0444 104.893 99.1676 104.936 103.828C104.979 108.489 98.9076 108.521 95.5572 108.409C94.7721 108.382 93.9869 107.868 93.3792 107.878C92.5511 107.894 91.7229 109.164 91.5347 108.934C91.2604 108.607 91.7229 104.048 91.5347 103.041C92.8415 104.123 93.8632 107.235 95.6594 107.766C97.4556 108.296 101.774 107.868 101.779 105.452C101.779 102.843 94.557 101.659 92.8952 99.8105C89.1738 95.6801 94.1644 91.8873 98.7409 92.3694C99.7895 92.4766 101.795 93.4462 102.489 93.3016C102.979 93.1998 103.688 92.0694 103.898 92.3319L103.893 92.3212Z" fill="white"/>
<path d="M123.526 135.179C123.779 135.168 125.693 133.239 124.338 135.452C119.799 137.214 114.453 137.825 109.587 137.273C108.823 137.188 103.59 135.923 103.359 135.704C103.278 135.629 103.424 135.205 103.359 134.911C103.445 134.155 104.042 135.173 104.166 135.173C110.517 135.173 117.228 135.473 123.526 135.173V135.179Z" fill="white"/>
<path d="M178.648 113.214C178.552 113.311 176.062 113.3 175.959 113.214C175.857 113.128 177.014 111.077 177.304 111.082C177.573 111.087 179.079 112.78 178.648 113.214Z" fill="white"/>
<path d="M185.101 113.22C186.516 113.863 181.003 113.863 182.418 113.22C182.585 113.145 184.935 113.145 185.101 113.22Z" fill="white"/>
<path d="M185.101 111.612C186.516 112.255 181.003 112.255 182.418 111.612C182.585 111.537 184.935 111.537 185.101 111.612Z" fill="white"/>
<path d="M176.229 119.107C176.579 119.107 176.579 119.643 176.229 119.643C175.879 119.643 175.879 119.107 176.229 119.107Z" fill="white"/>
<path d="M202.31 114.28C202.509 114.559 202.117 116.198 202.31 116.434C202.461 116.616 205.349 116.236 205.543 116.428C205.655 116.541 205.645 119.519 205.543 119.643C204.134 121.293 204.585 117.077 204.472 116.964C204.22 116.712 199.95 117.232 199.632 116.964C199.525 116.873 200.633 114.403 200.751 114.323C200.907 114.221 202.273 114.221 202.316 114.28H202.31Z" fill="white"/>
<path d="M202.849 111.607C202.908 111.661 202.902 113.155 202.849 113.209C202.193 113.862 199.256 112.512 200.165 111.607C200.262 111.511 202.752 111.521 202.854 111.607H202.849Z" fill="white"/>
<path d="M200.707 118.036L200.705 119.107L202.862 119.111L202.863 118.039L200.707 118.036Z" fill="white"/>
<path d="M205.538 114.286C206.958 115.711 202.51 115.711 203.93 114.286C203.989 114.227 205.484 114.227 205.538 114.286Z" fill="white"/>
<path d="M199.083 114.286C199.53 114.73 198.255 116.193 198.013 115.893C197.535 115.298 198.218 113.428 199.083 114.286Z" fill="white"/>
<path d="M158.213 119.102C155.448 119.45 156.018 118.898 156.067 116.429L158.213 119.102Z" fill="white"/>
<path d="M160.902 116.434C160.316 118.1 158.874 118.314 158.213 116.697C158.008 116.198 160.165 116.498 160.902 116.434Z" fill="white"/>
<path d="M220.595 111.607C220.73 111.741 220.515 113.23 220.595 113.744L220.058 112.137C219.488 112.223 218.821 112.898 218.988 113.471C219.197 114.205 220.741 113.927 220.601 114.811C218.417 115.496 217.616 113.921 218.708 112.121C219.074 111.516 220.423 111.419 220.601 111.602L220.595 111.607Z" fill="white"/>
<path d="M293.211 119.645L293.211 120.181L298.046 120.183L298.046 119.647L293.211 119.645Z" fill="white"/>
<path d="M293.211 118.038L293.211 118.573L298.046 118.575L298.046 118.039L293.211 118.038Z" fill="white"/>
<path d="M226.512 117.5H224.898V119.643H226.512V117.5Z" fill="white"/>
<path d="M296.423 112.143C296.32 112.245 293.782 112.571 294.277 111.345C295.019 109.502 297.1 111.468 296.423 112.143Z" fill="white"/>
<path d="M293.195 115.893C292.329 116.75 291.646 114.886 292.125 114.286C292.367 113.98 293.641 115.448 293.195 115.893Z" fill="white"/>
<path d="M298.567 115.893C298.304 116.477 297.664 115.111 298.035 114.291C298.298 113.707 298.938 115.073 298.567 115.893Z" fill="white"/>
<path d="M296.954 115.893C296.69 116.477 296.05 115.111 296.422 114.291C296.685 113.707 297.325 115.073 296.954 115.893Z" fill="white"/>
<path d="M294.804 115.893C294.54 116.477 293.9 115.111 294.271 114.291C294.535 113.707 295.175 115.073 294.804 115.893Z" fill="white"/>
<path d="M318.498 130.866C317.632 130.239 317.955 126.227 320.649 127.92C322.472 129.066 320.122 132.039 318.498 130.866Z" fill="white"/>
<path d="M229.201 129.285C229.26 129.344 229.26 130.834 229.201 130.887C229.126 130.962 227.13 130.962 227.05 130.887C226.335 130.175 228.529 128.616 229.195 129.285H229.201Z" fill="white"/>
<path d="M169.539 127.711C170.114 127.089 171.464 127.288 171.932 128.209C173.228 130.754 170.162 131.895 169.582 130.014C169.442 129.57 169.372 127.893 169.539 127.711Z" fill="white"/>
<path d="M257.703 129.285C257.762 129.344 257.762 130.834 257.703 130.887C257.628 130.962 255.632 130.962 255.552 130.887C254.836 130.175 257.031 128.616 257.697 129.285H257.703Z" fill="white"/>
<path d="M277.599 128.745C277.008 128.654 275.061 128.895 274.911 128.745C273.91 127.732 277.083 126.361 277.599 128.745Z" fill="white"/>
<path d="M181.903 130.866C181.682 130.705 181.472 129.253 181.569 128.728C182.01 126.269 185.285 127.448 184.532 130.041C184.274 130.925 182.36 131.193 181.908 130.861L181.903 130.866Z" fill="white"/>
<path d="M207.152 127.679C208.324 128.852 205.469 128.927 204.463 128.745C204.447 127.7 206.84 127.368 207.152 127.679Z" fill="white"/>
<path d="M292.147 130.866C291.926 130.705 291.717 129.253 291.813 128.728C292.254 126.269 295.529 127.448 294.776 130.041C294.518 130.925 292.604 131.193 292.152 130.861L292.147 130.866Z" fill="white"/>
<path d="M126.484 100.357C126.231 100.095 126.129 93.8106 127.355 93.4464C131.41 92.2517 132.609 98.6374 129.721 100.095C129.13 100.389 126.645 100.523 126.484 100.357Z" fill="#2A2626"/>
</svg>
