<svg width="410" height="220" viewBox="0 0 410 220" fill="none" xmlns="http://www.w3.org/2000/svg">
<mask id="mask0_281_34063" style="mask-type:luminance" maskUnits="userSpaceOnUse" x="135" y="80" width="164" height="65">
<path d="M298.811 80H135.193V145H298.811V80Z" fill="white"/>
</mask>
<g mask="url(#mask0_281_34063)">
<path fill-rule="evenodd" clip-rule="evenodd" d="M161.769 142.137C160.626 142.624 159.395 142.874 158.152 142.871C156.907 142.877 155.674 142.629 154.529 142.143C153.442 141.678 152.472 140.981 151.687 140.102L150.066 141.495C151.06 142.614 152.291 143.501 153.672 144.09C155.086 144.696 156.611 145.008 158.152 145.006C159.69 145.011 161.214 144.701 162.626 144.096C164.007 143.507 165.238 142.62 166.231 141.501L164.611 140.107C163.827 140.988 162.857 141.685 161.769 142.148" fill="#2A2A2C"/>
<path fill-rule="evenodd" clip-rule="evenodd" d="M176.313 127.913C175.167 128.398 173.935 128.648 172.69 128.648C171.445 128.648 170.212 128.398 169.067 127.913C167.981 127.453 167.012 126.758 166.231 125.878L165.426 124.957L164.616 125.878C163.834 126.76 162.863 127.455 161.774 127.913C160.63 128.398 159.398 128.648 158.154 128.648C156.91 128.648 155.679 128.398 154.534 127.913C153.443 127.453 152.469 126.758 151.681 125.878L150.87 124.957L150.066 125.878C149.285 126.758 148.316 127.453 147.23 127.913C146.084 128.396 144.852 128.646 143.607 128.646C142.362 128.646 141.13 128.396 139.984 127.913C138.896 127.454 137.925 126.758 137.142 125.878L135.521 127.278C136.515 128.396 137.746 129.28 139.127 129.867C140.54 130.471 142.062 130.782 143.601 130.782C145.14 130.782 146.662 130.471 148.075 129.867C149.098 129.438 150.044 128.847 150.876 128.118C151.706 128.848 152.65 129.438 153.671 129.867C155.085 130.471 156.607 130.782 158.145 130.782C159.684 130.782 161.207 130.471 162.62 129.867C163.641 129.439 164.585 128.848 165.415 128.118C166.245 128.848 167.189 129.438 168.21 129.867C169.624 130.471 171.147 130.783 172.687 130.783C174.227 130.783 175.75 130.471 177.164 129.867C178.545 129.28 179.776 128.396 180.769 127.278L179.149 125.878C178.366 126.758 177.395 127.454 176.307 127.913" fill="#2A2A2C"/>
<path fill-rule="evenodd" clip-rule="evenodd" d="M169.044 135.022C167.898 135.507 166.666 135.756 165.421 135.756C164.176 135.756 162.943 135.507 161.798 135.022C160.71 134.561 159.74 133.866 158.956 132.987L158.146 132.06L157.335 132.987C156.555 133.867 155.586 134.563 154.499 135.022C153.355 135.507 152.124 135.757 150.879 135.757C149.635 135.757 148.404 135.507 147.259 135.022C146.171 134.563 145.2 133.867 144.417 132.987L142.797 134.375C143.789 135.497 145.02 136.386 146.402 136.975C147.816 137.579 149.34 137.891 150.879 137.891C152.419 137.891 153.942 137.579 155.357 136.975C156.375 136.545 157.317 135.955 158.146 135.226C158.977 135.953 159.921 136.544 160.941 136.975C162.355 137.579 163.878 137.891 165.418 137.891C166.957 137.891 168.481 137.579 169.895 136.975C171.279 136.389 172.511 135.5 173.5 134.375L171.88 132.987C171.1 133.867 170.131 134.563 169.044 135.022Z" fill="#2A2A2C"/>
<path fill-rule="evenodd" clip-rule="evenodd" d="M179.936 113.267L178.046 113.034V93.5752H138.258V113.034L136.368 113.267L135.193 113.401L135.446 114.567L136.837 120.818C137.591 121.542 138.463 122.133 139.415 122.568L137.795 115.238L158.152 112.789V123.431C159.52 123.451 160.876 123.18 162.131 122.638C163.385 122.097 164.509 121.295 165.427 120.288C166.342 121.295 167.464 122.097 168.717 122.639C169.969 123.181 171.324 123.451 172.691 123.431C174.138 123.432 175.57 123.126 176.889 122.533H176.942C177.388 122.329 177.818 122.091 178.228 121.821C178.67 121.526 179.083 121.191 179.461 120.818L180.852 114.55L181.105 113.384L179.936 113.267ZM150.789 111.529L140.402 112.777V108.66H150.789V111.529ZM150.789 100.054H140.402V95.7094H150.789V100.054ZM163.337 106.526H152.95V102.188H163.349L163.337 106.526ZM163.337 100.054H152.95V95.7094H163.349L163.337 100.054ZM175.896 112.777L165.498 111.529V108.66H175.896V112.777ZM175.896 106.526H165.498V102.188H175.896V106.526Z" fill="#2A2A2C"/>
<path fill-rule="evenodd" clip-rule="evenodd" d="M147.137 89.3516H148.435V80.0742H147.137L145.852 81.0305V82.4417L147.137 81.4795V89.3516Z" fill="#2A2A2C"/>
<path fill-rule="evenodd" clip-rule="evenodd" d="M150.789 86.6466C150.775 87.0203 150.842 87.3925 150.985 87.7385C151.127 88.0844 151.343 88.3961 151.617 88.6525C151.872 88.9039 152.174 89.1024 152.507 89.2366C152.839 89.3707 153.196 89.4378 153.555 89.4339C154.291 89.4405 155 89.1575 155.527 88.6467C155.794 88.3868 156.003 88.0749 156.141 87.7306C156.28 87.3863 156.345 87.0171 156.332 86.6466C156.34 86.2336 156.243 85.8253 156.05 85.4593C155.857 85.0934 155.575 84.7818 155.228 84.5532C155.5 84.3165 155.729 84.0343 155.903 83.7194C156.079 83.402 156.166 83.0436 156.156 82.6814C156.168 81.971 155.903 81.2833 155.416 80.763C155.175 80.5124 154.884 80.315 154.561 80.1834C154.238 80.0518 153.892 79.989 153.543 79.9991C153.201 79.9916 152.862 80.0557 152.548 80.1874C152.233 80.319 151.95 80.5152 151.717 80.763C151.467 81.0163 151.272 81.3165 151.141 81.6459C151.01 81.9753 150.946 82.3273 150.953 82.6814C150.944 83.0482 151.04 83.41 151.229 83.7252C151.389 84.0432 151.61 84.3266 151.881 84.5591C151.534 84.7853 151.252 85.0959 151.061 85.4614C150.87 85.8269 150.776 86.235 150.789 86.6466ZM152.662 81.6493C152.914 81.438 153.233 81.3221 153.563 81.3221C153.893 81.3221 154.213 81.438 154.465 81.6493C154.599 81.7782 154.704 81.9347 154.772 82.1078C154.84 82.281 154.87 82.4668 154.858 82.6523C154.868 82.835 154.838 83.0178 154.77 83.1879C154.702 83.358 154.598 83.5115 154.465 83.6377C154.219 83.8631 153.897 83.9884 153.563 83.9884C153.229 83.9884 152.907 83.8631 152.662 83.6377C152.526 83.5131 152.419 83.3601 152.349 83.1898C152.279 83.0195 152.248 82.836 152.257 82.6523C152.246 82.4658 152.276 82.2791 152.346 82.1057C152.416 81.9323 152.524 81.7764 152.662 81.6493ZM152.55 85.5737C152.827 85.3076 153.196 85.1588 153.581 85.1588C153.966 85.1588 154.335 85.3076 154.611 85.5737C154.755 85.7109 154.867 85.8761 154.943 86.0587C155.019 86.2413 155.056 86.4375 155.052 86.635C155.056 86.8298 155.019 87.0233 154.943 87.203C154.867 87.3828 154.754 87.5448 154.611 87.6787C154.478 87.8154 154.317 87.924 154.14 87.9982C153.963 88.0723 153.773 88.1105 153.581 88.1105C153.389 88.1105 153.199 88.0723 153.022 87.9982C152.845 87.924 152.685 87.8154 152.55 87.6787C152.406 87.5456 152.291 87.384 152.213 87.2043C152.136 87.0245 152.096 86.8306 152.098 86.635C152.096 86.4367 152.136 86.2402 152.213 86.0577C152.291 85.8751 152.406 85.7104 152.55 85.5737Z" fill="#2A2A2C"/>
<path fill-rule="evenodd" clip-rule="evenodd" d="M160.215 86.0978C160.814 86.1006 161.41 86.002 161.976 85.8063V86.6868C161.976 87.6256 161.524 88.0979 160.702 88.1096C160.447 88.1236 160.195 88.055 159.983 87.914C159.772 87.773 159.612 87.5674 159.528 87.3282H158.148C158.251 87.9378 158.577 88.4881 159.064 88.8734C159.518 89.239 160.082 89.4441 160.667 89.4566C161.336 89.4588 161.98 89.2039 162.464 88.7452C162.724 88.4883 162.927 88.1803 163.061 87.8409C163.194 87.5015 163.255 87.1382 163.239 86.7742V82.6924C163.255 82.3275 163.195 81.9632 163.061 81.6228C162.928 81.2824 162.724 80.9734 162.464 80.7156C162.227 80.4846 161.946 80.3022 161.637 80.1792C161.329 80.0561 160.999 79.9947 160.667 79.9984C160.011 79.9872 159.378 80.2347 158.905 80.6865C158.634 80.9375 158.421 81.2446 158.282 81.5862C158.143 81.9277 158.081 82.2954 158.101 82.6632V83.4971C158.064 83.846 158.096 84.1988 158.197 84.5352C158.298 84.8715 158.465 85.1846 158.688 85.4564C158.881 85.6595 159.114 85.82 159.373 85.9275C159.632 86.0351 159.911 86.0871 160.191 86.0803M159.369 82.7274C159.369 81.7944 159.816 81.3221 160.644 81.3046C161.471 81.2871 161.947 81.8119 161.947 82.7449V83.4971C161.947 84.4359 161.495 84.9141 160.667 84.9199C159.839 84.9257 159.41 84.4418 159.393 83.4971L159.369 82.7274Z" fill="#2A2A2C"/>
<path fill-rule="evenodd" clip-rule="evenodd" d="M166.597 81.3979H168.992L165.939 89.3516H167.383L170.448 81.3979V80.0742H165.305V82.7449H166.597V81.3979Z" fill="#2A2A2C"/>
<path fill-rule="evenodd" clip-rule="evenodd" d="M207.916 105.656C209.01 105.221 209.94 104.46 210.579 103.477C211.218 102.493 211.533 101.337 211.48 100.169C211.48 96.0517 208.374 93.6143 203.577 93.6143H191.375V120.286H204.575C207.376 120.286 209.566 119.604 211.175 118.233C211.975 117.571 212.612 116.735 213.035 115.79C213.459 114.844 213.658 113.815 213.617 112.781C213.617 108.857 211.163 106.268 207.904 105.661M195.573 97.4978H202.825C205.626 97.4978 207.276 98.6641 207.276 100.926C207.276 103.189 205.626 104.39 202.825 104.39H195.597L195.573 97.4978ZM203.794 116.467H195.573V108.058H203.794C207.135 108.058 209.078 109.545 209.078 112.175C209.078 114.805 207.082 116.438 203.794 116.438" fill="#2A2A2C"/>
<path fill-rule="evenodd" clip-rule="evenodd" d="M231.119 105.621L222.412 93.6201H218.113V120.292H222.335V100.017L229.822 110.076H232.276L239.757 100.017V120.292H243.973V93.6201H239.757L231.119 105.621Z" fill="#2A2A2C"/>
<path fill-rule="evenodd" clip-rule="evenodd" d="M249.496 97.4629H258.357V120.286H262.584V97.4629H271.48V93.6201H249.496V97.4629Z" fill="#2A2A2C"/>
<path fill-rule="evenodd" clip-rule="evenodd" d="M276.977 93.6201V120.286H281.198V97.4629H294.586V120.286H298.808V93.6201H276.977Z" fill="#2A2A2C"/>
</g>
</svg>
