<svg width="410" height="220" viewBox="0 0 410 220" fill="none" xmlns="http://www.w3.org/2000/svg">
<g clip-path="url(#clip0_281_33475)">
<path d="M133.313 83.1507C147.115 84.591 157.877 96.2811 157.877 110.483C157.877 125.674 145.595 137.983 130.438 138C115.299 138 103 125.707 103 110.517C103 95.3264 115.282 83 130.438 83C131.408 83 132.377 83.0502 133.313 83.1507ZM134.733 136.074C148.836 133.696 158.345 120.331 155.972 106.196C154 94.4388 144.442 85.8639 133.162 84.6915C130.89 84.4571 128.533 84.5241 126.161 84.9093C123.353 85.3782 120.73 86.2993 118.34 87.5722C130.773 91.7926 137.44 98.2238 137.908 104.789C138.142 108.859 136.254 111.79 133.78 114.185L151.343 112.962C151.844 112.928 151.995 113.515 151.393 113.682L109.484 125.724C113.745 131.619 120.379 135.538 127.731 136.308C130.004 136.543 132.36 136.493 134.733 136.091V136.074ZM123.203 111.103C125.509 102.444 122.885 93.3837 116.602 88.577C108.063 93.9866 103.134 104.186 104.905 114.804C105.49 118.321 106.76 121.537 108.548 124.367C115.232 122.508 121.097 118.974 123.186 111.103H123.203Z" fill="white"/>
<path d="M155.956 106.213C158.329 120.331 148.82 133.713 134.717 136.091C132.344 136.493 129.988 136.56 127.715 136.309C120.363 135.538 113.729 131.619 109.467 125.724L151.377 113.682C151.979 113.515 151.828 112.929 151.327 112.962L133.764 114.185C136.237 111.79 138.126 108.859 137.892 104.789C137.424 98.2072 130.756 91.7928 118.324 87.5723C120.714 86.2995 123.337 85.3951 126.144 84.9094C128.517 84.5075 130.873 84.4405 133.146 84.6917C144.426 85.8808 153.984 94.4389 155.956 106.196V106.213ZM104.906 114.804C105.49 118.321 106.76 121.537 108.548 124.367C115.233 122.508 121.098 118.975 123.187 111.103C125.493 102.444 122.869 93.3838 116.586 88.5772C108.064 93.9867 103.134 104.186 104.906 114.804Z" fill="#2A2626"/>
<path d="M299.881 107.234V98.1902H290.824V107.234H285.861V85.6963H290.824V94.2712H299.881V85.6963H304.878V107.234H299.881Z" fill="#2A2626"/>
<path d="M192.867 85.6963V99.1783C192.867 100.669 193.084 101.958 193.519 103.014C193.953 104.052 194.572 104.923 195.374 105.576C196.176 106.246 197.145 106.748 198.265 107.05C199.384 107.368 200.671 107.519 202.041 107.519C203.411 107.519 204.681 107.368 205.784 107.05C206.87 106.748 207.79 106.246 208.542 105.593C209.277 104.923 209.862 104.069 210.279 103.014C210.68 101.975 210.898 100.686 210.898 99.1783V85.6963H206.252V99.0443C206.252 100.401 205.918 101.506 205.25 102.31C204.564 103.131 203.495 103.55 202.041 103.55C200.587 103.55 199.551 103.131 198.866 102.31C198.181 101.506 197.847 100.401 197.847 99.0443V85.6963H192.884H192.867Z" fill="#2A2626"/>
<path d="M178.547 107.234V89.7158H172.715V85.6963H189.392V87.6223C189.392 88.7779 188.456 89.7158 187.303 89.7158H183.51V107.234H178.547Z" fill="#2A2626"/>
<path d="M263.318 85.6963H258.355V107.234H263.318V85.6963Z" fill="#2A2626"/>
<path d="M241.811 97.1855L241.979 97.4032L248.329 105.593C249.131 106.631 250.35 107.234 251.671 107.234H255.631L246.541 95.6447L246.407 95.4772L246.541 95.3097L254.01 85.6797H248.847L241.995 94.958L241.828 95.1757V94.7905V85.6797H236.865V107.217H241.828V97.1855H241.811Z" fill="#2A2626"/>
<path d="M230.365 107.234C228.894 107.234 227.507 106.447 226.738 105.191L222.878 98.7931H220.422V107.234H215.459V85.6963H224.315C226.588 85.6963 228.376 86.2992 229.613 87.4716C230.849 88.6439 231.467 90.2517 231.467 92.228C231.467 93.2328 231.2 94.2712 230.665 95.2761C230.147 96.2642 229.212 97.0848 227.908 97.6878L227.624 97.8217L233.657 107.234H230.365ZM220.439 95.544H223.33C224.366 95.544 225.168 95.2593 225.686 94.6899C226.204 94.1372 226.471 93.4003 226.471 92.5294C226.471 91.6585 226.22 90.9049 225.702 90.3354C225.184 89.766 224.382 89.4813 223.33 89.4813H220.439V95.5273V95.544Z" fill="#2A2626"/>
<path d="M267.396 106.313V102.176C268.984 102.896 271.006 103.633 273.128 103.633C275.551 103.633 276.788 102.796 276.788 101.205C276.788 99.3292 275.133 99.1282 271.841 97.7047C269.602 96.6998 267.447 95.1422 267.447 91.5247C267.447 87.321 270.638 85.3447 275.067 85.3447C277.423 85.3447 279.428 85.8974 280.548 86.3161V90.3356C279.428 89.8164 277.423 89.1967 275.417 89.1967C273.245 89.1967 272.226 90.0006 272.226 91.3907C272.226 92.8478 273.462 93.3 275.668 94.1374C278.509 95.5609 281.818 96.1806 281.818 101.037C281.818 105.241 278.475 107.519 274.014 107.519C271.273 107.519 269.101 107.033 267.413 106.296L267.396 106.313Z" fill="#2A2626"/>
<path d="M275.15 135.337V113.799H288.602V115.759C288.602 116.898 287.683 117.819 286.547 117.819H280.113V122.458H287.332V126.059H280.113V131.334H288.602V135.354H275.15V135.337Z" fill="#2A2626"/>
<path d="M226.054 135.337V113.799H228.46C229.864 113.799 231.017 114.955 231.017 116.362V131.468H238.938V135.354H226.037L226.054 135.337Z" fill="#2A2626"/>
<path d="M200.27 113.816H195.307V135.337H200.27V113.816Z" fill="#2A2626"/>
<path d="M219.722 135.337C218.252 135.337 216.865 134.55 216.096 133.294L212.236 126.896H209.779V135.337H204.816V113.799H213.673C215.946 113.799 217.734 114.402 218.97 115.575C220.207 116.747 220.825 118.355 220.825 120.331C220.825 121.336 220.558 122.357 220.023 123.379C219.505 124.367 218.569 125.188 217.266 125.791L216.982 125.925L223.014 135.337H219.722ZM209.796 123.664H212.687C213.723 123.664 214.525 123.379 215.043 122.81C215.561 122.257 215.829 121.52 215.829 120.649C215.829 119.778 215.578 119.025 215.06 118.455C214.542 117.886 213.74 117.601 212.687 117.601H209.796V123.647V123.664Z" fill="#2A2626"/>
<path d="M184.379 113.799H178.681L170.576 135.337H174.152C175.055 135.337 175.857 134.751 176.141 133.897L176.976 131.368H185.699L186.969 135.337H192.35L184.379 113.799ZM178.246 127.499L180.201 122.056C180.636 120.833 181.07 119.544 181.354 118.589H181.421C181.672 119.577 182.106 120.8 182.541 122.056L184.412 127.499H178.23H178.246Z" fill="#2A2626"/>
<path d="M292.596 134.433V130.296C294.183 131.016 296.205 131.753 298.327 131.753C300.75 131.753 301.987 130.916 301.987 129.325C301.987 127.449 300.333 127.248 297.041 125.824C294.801 124.819 292.646 123.262 292.646 119.644C292.646 115.441 295.838 113.464 300.266 113.464C302.622 113.464 304.627 114.017 305.747 114.436V118.455C304.627 117.936 302.622 117.316 300.617 117.316C298.444 117.316 297.425 118.12 297.425 119.51C297.425 120.967 298.662 121.42 300.867 122.257C303.708 123.681 307.017 124.3 307.017 129.157C307.017 133.361 303.675 135.639 299.213 135.639C296.473 135.639 294.3 135.153 292.612 134.416L292.596 134.433Z" fill="#2A2626"/>
<path d="M251.654 113.799H254.729C256.183 113.799 257.553 114.553 258.322 115.792L264.321 125.439C265.006 126.511 265.791 127.935 266.242 128.923H266.343C266.276 127.951 266.242 126.612 266.242 125.64V113.783H270.587V135.32H265.14L257.854 123.664C257.169 122.592 256.467 121.319 255.966 120.348H255.899C255.932 121.286 255.999 122.391 255.999 123.429V135.32H251.654V113.783V113.799Z" fill="#2A2626"/>
<path d="M247.109 113.816H242.146V135.337H247.109V113.816Z" fill="#2A2626"/>
</g>
<defs>
<clipPath id="clip0_281_33475">
<rect width="204" height="55" fill="white" transform="translate(103 83)"/>
</clipPath>
</defs>
</svg>
