<svg width="410" height="220" viewBox="0 0 410 220" fill="none" xmlns="http://www.w3.org/2000/svg">
<path d="M83.8939 91.0939C80.497 91.5568 75.7789 94.6047 73.4382 97.1027C71.6963 98.9589 71.6094 101.09 68.3086 100.375C71.6369 94.0135 79.5644 89.6135 86.6415 89.3797C88.8223 89.3064 91.0716 90.0993 93.1426 90.0993C95.0811 90.0993 97.3213 89.3385 99.3146 89.3522C107.023 89.4118 114.228 93.8256 118.32 100.21C114.932 101.218 115.192 99.5822 113.533 97.7947C111.306 95.3931 105.692 91.0985 102.391 91.0985H96.3978L100.965 93.9081C103.274 95.6406 105.294 97.7947 106.675 100.38C105.825 100.311 104.709 100.6 103.932 100.215C103.658 100.077 100.97 96.4335 99.9866 95.581C98.7797 94.5314 94.6971 91.8135 93.1975 91.8914C90.8064 92.0152 86.3809 95.6727 84.7442 97.4556C83.1075 99.2385 83.1258 101.035 79.9576 100.384C80.8171 97.9689 82.8424 96.296 84.5888 94.5543L89.8875 91.1077C87.9994 91.291 85.7226 90.8602 83.8939 91.1077V91.0939Z" fill="black"/>
<path d="M90.2306 129.594L85.668 126.78C83.981 125.57 82.326 124.241 81.3247 122.38C84.6256 121.756 84.301 123.053 86.116 124.612C87.4418 125.753 91.5016 128.517 93.1474 128.586C94.2081 128.631 96.5671 127.394 97.5318 126.78C100.215 125.079 101.56 121.697 104.956 122.375C105.368 122.742 102.428 125.469 102.035 125.799C100.229 127.325 98.1764 128.136 96.3934 129.589H101.358C104.339 129.589 109.341 126.697 111.627 124.768C113.51 123.177 113.437 121.518 116.601 122.54C111.618 129.319 104.339 131.258 96.2288 130.96C93.5589 130.859 92.7451 130.845 90.0523 130.96C81.8139 131.303 74.8556 129.012 69.6758 122.375C72.8486 121.825 72.5332 122.788 74.1653 124.227C76.5426 126.331 81.7316 129.589 84.9182 129.589H90.226L90.2306 129.594Z" fill="black"/>
<path d="M203.96 101.75L202.762 102.777L201.564 101.415C204.079 100.852 204.285 96.7267 207.046 97.2858L206.365 99H209.446L209.099 97.46C210.804 96.4471 210.662 98.7113 211.376 98.9588C212.162 99.2338 215.76 98.7938 215.961 99.0046V100.036H210.822V101.067C212.13 101.122 213.46 100.998 214.772 101.067C215.55 101.108 215.271 101.25 215.28 101.929L210.822 102.103V103.13C212.13 103.185 213.465 103.061 214.772 103.13C215.481 103.166 215.394 103.327 215.28 103.991C215.211 104.367 211.97 104.083 211.334 104.165C210.699 104.248 210.781 104.046 210.827 104.853H216.309V106.228H210.141V107.259H216.994V108.634H211.856C212.93 109.991 215.083 110.335 216.647 110.871L216.432 112.044C214.992 112.457 211.499 109.991 210.146 109.322V112.415H208.774L208.605 109.322L202.465 112.434L201.578 111.045C202.817 110.889 204.221 110.367 205.341 109.83C205.825 109.597 206.886 109.157 207.06 108.634H201.921V107.259H208.774V106.228L203.978 106.572V101.759L203.96 101.75ZM209.099 100.027H205.327V101.067H209.099V100.027ZM209.099 102.089H205.327V103.13H209.099V102.089Z" fill="black"/>
<path d="M291.308 99.3438C291.468 98.1109 291.884 96.7038 293.37 97.46L293.022 99.3438H301.242V100.719H292.506L291.651 102.438H299.528V111.201C299.528 112.778 294.883 113.19 295.418 111.031H297.818V109.313H291.308V112.406H289.594V105.188C288.249 106.031 287.628 107.988 286.174 106.049C287.98 104.624 289.347 102.818 290.618 100.893L286.508 100.723V99.3484H291.303L291.308 99.3438ZM297.818 103.813H291.308V105.188H297.818V103.813ZM297.818 106.563H291.308V107.938H297.818V106.563Z" fill="black"/>
<path d="M225.539 105.875L225.191 104.844L226.22 104.5L224.853 103.125H228.277V100.714H224.505V99.3439H228.277V97.2769H229.992V99.3439H233.759L233.608 100.394L229.992 100.714V103.125H233.42V104.5H226.91L227.253 105.875H233.763V107.25L232.054 107.255L233.078 108.277L230.339 109.831L234.106 111.036L233.196 112.434C230.056 111.811 227.701 109.922 226.055 107.259C224.748 108.776 223.266 108.126 223.829 110.692L227.591 110.005L227.573 111.357L221.991 112.384L221.474 111.609L222.11 109.661L219.257 110.376L218.686 109.322C219.618 109.074 220.619 108.909 221.52 108.552C222.169 108.295 223.449 107.837 223.824 107.255H218.686V105.88H225.539V105.875ZM231.706 107.255C230.741 107.296 229.754 107.181 228.789 107.255C228.282 107.291 227.797 106.989 227.939 107.764L229.416 108.928L231.706 107.255Z" fill="black"/>
<path d="M125.055 103.927C126.107 105.013 126.358 106.966 126.166 108.419C125.297 114.996 109.74 114.139 112.931 105.444C114.421 101.379 122.472 101.25 125.055 103.923V103.927ZM117.032 104.926C114.947 108.882 117.621 111.792 121.741 109.826C123.866 105.967 121.041 103.185 117.032 104.926Z" fill="black"/>
<path d="M85.3208 103.927C86.3723 105.013 86.6238 106.966 86.4317 108.419C85.5631 114.996 70.0052 114.139 73.1964 105.444C74.6868 101.379 82.7377 101.25 85.3208 103.923V103.927ZM78.1431 104.573C76.0446 105.188 76.0126 109.872 78.4219 110.335C80.1227 110.66 82.3583 110.477 82.6737 108.433C83.1538 105.353 81.1056 103.712 78.1431 104.573Z" fill="black"/>
<path d="M173.126 110L173.474 106.562H172.098V105.188H173.812L174.15 102.094L172.619 102.781L172.139 101.97L174.553 97.3408L175.865 97.2812L175.522 99H183.056V100.375H175.005C174.841 100.375 174.237 101.457 174.15 101.75H182.371L182.046 104.628L183.34 105.238L183.399 106.562H182.023C181.41 108.653 183.001 108.488 183.056 110L181.73 110.041C181.817 112.525 177.602 113.667 177.575 111.031L179.742 111.045L180.313 110H173.122H173.126ZM176.825 103.203C175.476 102.419 175.06 104.055 175.179 105.188H177.918C178.096 105.032 176.921 103.262 176.82 103.203H176.825ZM180.665 103.125L177.927 103.299C178.443 103.909 179.454 104.321 178.951 105.188H180.665V103.125ZM176.555 106.567H174.841V108.63H177.584C177.273 107.818 176.002 107.53 176.555 106.567ZM180.665 106.562L177.584 106.732C178.1 107.342 179.111 107.754 178.608 108.62L180.089 108.639L180.661 106.562H180.665Z" fill="black"/>
<path d="M140.928 100.031L141.125 97.2769H142.642V100.031H148.467V107.938C147.242 108.396 147.196 107.301 146.606 107.223C145.408 107.067 143.891 107.388 142.642 107.25V112.406H140.928V107.25L136.662 107.227L136.438 108.231L135.104 108.281V100.031H140.928ZM140.937 101.746H136.47V105.541H140.937V101.746ZM147.1 101.746H142.633V105.541H147.1V101.746Z" fill="black"/>
<path d="M317.34 97.9689V105.188C316.659 105.403 314.107 104.656 314.254 105.701C314.761 109.4 317.088 104.381 318.359 106.732L315.991 108.497C315.685 109.524 317.838 110.848 318.711 111.036L317.518 112.324C316.028 111.568 314.601 109.986 313.856 108.515C313.234 107.291 313.307 104.945 311.52 105.188V110.344L314.258 110L314.24 111.352L310.002 112.388C308.859 111.792 309.805 110.917 309.805 110.514V97.9644H317.34V97.9689ZM315.973 99.3439H311.515V101.063L315.406 101.012L315.927 100.504L315.968 99.3439H315.973ZM315.973 103.813L315.932 102.653L315.41 102.144L311.52 102.094V103.817H315.977L315.973 103.813Z" fill="black"/>
<path d="M240.269 112.406H238.555V107.938L236.333 110.679L235.505 109.776L238.212 105.692C238.532 104.647 236.072 105.449 235.816 105.183V103.813H238.559C238.468 102.635 238.413 102.034 239.583 101.581L238.898 100.031C238.075 99.4173 236.881 103.73 235.482 101.232L237.878 96.9331L239.245 97.2814L238.902 98.6519L242.825 98.6289L243.017 99.6831L244.617 97.2631L246.098 97.2769L245.755 98.6473H250.894V100.022L247.47 100.027L248.498 101.736C246.272 102.841 246.583 99.3898 244.699 100.233L243.506 102.076L241.988 101.388L243.017 100.022H240.278L240.982 101.553C239.853 101.869 240.333 102.786 240.278 103.804L242.678 103.978V105.179C242.454 105.417 239.876 104.684 240.283 105.692C241.311 106.989 244.169 107.768 241.654 109.308L240.278 107.589V112.402L240.269 112.406Z" fill="black"/>
<path d="M98.1125 102.438V104.5H92.4618C91.5429 104.5 91.2091 105.902 91.9269 106.411C92.8641 107.076 96.1009 105.843 97.7971 107.397C99.7675 109.202 98.0531 112.406 95.8861 112.406H88.178V110.344H93.8288C94.606 110.344 94.9488 109.367 94.638 108.671C94.0116 107.662 87.634 109.638 87.8123 105.366C87.8717 103.987 89.5038 102.438 90.7474 102.438H98.1125Z" fill="black"/>
<path d="M72.0771 103.125V105.188H66.4264C64.0765 105.188 64.1588 110.688 65.7406 110.688H72.0771V113.094H66.0835C65.4663 113.094 62.8878 112.191 62.3072 111.728C60.3596 110.156 60.2499 106.631 61.9551 104.83C62.5083 104.243 64.7028 103.13 65.3977 103.13H72.0771V103.125Z" fill="black"/>
<path d="M111.129 102.438V104.5H106.164C106.068 104.5 104.432 105.197 104.359 105.265C103.302 106.301 103.792 110.344 105.822 110.344H111.129V112.406H104.793C104.656 112.406 102.521 111.691 102.219 111.554C98.9593 110.018 99.2839 104.5 102.722 103.111C103.001 102.997 105.012 102.442 105.136 102.442H111.129V102.438Z" fill="black"/>
<path d="M250.203 102.438V112.406C248.877 112.952 248.502 111.755 248 111.691C247.424 111.618 245.467 111.604 244.959 111.728C244.831 111.76 244.292 112.975 243.012 112.406V102.438H250.203ZM248.493 103.808H244.722V105.192H248.493V103.808ZM248.493 106.558H244.722V107.942H248.493V106.558ZM248.493 108.964H244.717V110.697H248.493V108.964Z" fill="black"/>
<path d="M267.672 101.75V103.469H261.848L260.138 107.25L264.586 106.902L263.224 104.67L264.728 104.138C265.222 105.944 268.975 108.854 265.963 109.656C265.926 109.29 265.752 108.813 265.469 108.593C264.778 108.052 259.343 108.978 258.076 109.317C257.171 107.222 259.557 105.472 260.129 103.473H257.043V101.75H267.663H267.672Z" fill="black"/>
<path d="M200.192 101.75V103.469H194.542L192.315 107.245L196.434 107.085C197.44 106.457 195.621 105.265 195.74 104.679C196.261 102.025 199.973 108.547 199.708 108.978L198.647 109.643C198.364 109.62 198.099 108.634 197.792 108.433C197.175 108.029 190.797 109.395 190.299 108.932C189.481 106.915 192.512 105.692 192.315 103.469L189.568 103.304C188.864 102.818 189.408 101.75 189.746 101.75H200.192Z" fill="black"/>
<path d="M351.254 98.3127V111.201C351.254 112.613 348.301 112.466 347.355 112.425L346.801 110.688H349.54V99.6831H337.553V98.3081H351.254V98.3127Z" fill="black"/>
<path d="M328.645 102.786L324.535 109.652L331.041 109.308C331.297 108.364 329.555 107.337 329.674 106.737C329.77 106.256 330.684 106.091 331.164 106.256C331.512 106.375 334.145 110.202 334.493 110.834C335.124 111.98 334.122 112.2 333.098 112.402C332.906 111.284 332.742 110.811 331.571 110.665C330.058 110.477 322.185 111.664 321.824 111.334C320.745 110.344 322.894 108.827 323.443 108.043C324.741 106.187 325.893 104.253 326.917 102.231L328.641 102.777L328.645 102.786Z" fill="black"/>
<path d="M272.811 97.2858L272.473 99H274.868V100.375L272.171 100.421L271.101 104.156L272.135 103.955V101.75H273.328L273.497 104.161H274.873V105.531H273.497V107.255H274.873V108.625H273.497V112.411H272.13V109.312C271.376 109.056 269.762 110.096 269.391 109.138C268.843 107.717 271.243 108.171 271.801 107.782L272.13 105.531L269.734 105.88C268.857 105.165 271.01 101.571 270.763 100.38H269.387V99.0046H271.101V97.2812H272.816L272.811 97.2858Z" fill="black"/>
<path d="M165.767 101.75C166.238 101.883 166.375 102.667 166.279 103.125L163.006 103.45C162.832 103.698 162.873 104.028 162.841 104.317C162.717 105.325 162.521 109.629 164.597 108.139C165.177 107.722 164.679 106.654 165.081 106.228L166.252 107.135C166.928 110.257 161.488 110.197 161.488 108.46V103.134H159.773C159.878 105.669 158.937 108.85 156.226 109.61L155.32 108.295C157.684 107.96 157.995 105.618 158.31 103.634C158.169 102.845 156.28 103.189 155.659 103.134V101.759H165.767V101.75Z" fill="black"/>
<path d="M303.981 97.9688C304.964 98.1429 308.855 97.5013 309.097 98.5096C309.239 99.0963 307.78 101.319 307.753 102.305C307.712 103.634 309.623 105.169 308.768 107.397C308.091 109.175 306.052 109.248 306.034 107.25L307.378 107.223C308.265 105.605 306.422 103.712 306.409 102.612C306.4 102.007 307.543 99.4446 307.405 99.3438H305.348V112.402H303.977V97.9642L303.981 97.9688Z" fill="black"/>
<path d="M188.543 102.781V109.143C191.675 112.195 196.329 110.522 200.188 110.692L199.616 112.425C196.411 112.232 193.088 112.901 190.015 111.792C189.238 111.512 188.525 110.605 187.702 110.674L185.649 112.402L184.803 111.256C184.964 110.293 186.829 109.794 186.829 109.661V104.505H184.771V102.786H188.543V102.781Z" fill="black"/>
<path d="M256.027 102.781V109.143C256.027 109.267 257.728 110.412 258.07 110.527C261.307 111.636 264.713 110.458 268.014 110.692C267.763 111.077 267.722 111.783 267.502 112.062C267.086 112.59 260.768 112.521 259.652 112.374C258.299 112.195 256.045 110.674 255.506 110.687C254.189 110.72 253.311 114.249 252.406 111.027L254.591 109.074L254.66 104.495C253.704 104.509 252.068 104.839 252.264 103.299C252.543 102.405 255.222 102.891 256.031 102.781H256.027Z" fill="black"/>
<path d="M154.63 102.781V109.143C154.63 109.267 156.331 110.412 156.674 110.527C159.806 111.604 163.084 110.518 166.279 110.687V111.888C162.233 112.677 157.611 113.034 154.118 110.458L151.554 112.402L151.01 111.027L153.195 109.074L153.263 104.495C152.308 104.509 150.671 104.839 150.868 103.299C151.147 102.405 153.826 102.891 154.635 102.781H154.63Z" fill="black"/>
<path d="M280.003 103.469V111.893C279.075 112.8 277.863 112.75 277.603 111.384C279.102 111.485 279.08 110.591 278.979 109.317H276.922V112.411H275.555V103.473H280.008L280.003 103.469Z" fill="black"/>
<path d="M346.802 104.156V109.656H340.291L340.255 110.633L338.92 110.688V104.156H346.797H346.802ZM340.291 105.531V108.281H345.087V105.531H340.291Z" fill="black"/>
<path d="M107.705 114.813C110.535 114.249 110.658 115.885 112.153 117.563V114.813H114.211V120.313C111.408 120.945 111.408 119.048 109.762 117.563V120.313H107.705V114.813Z" fill="black"/>
<path d="M72.0762 114.812H74.1335L74.3301 116.88L76.5337 116.875L76.5291 114.812H78.5864V120.312H76.5291L76.3325 118.245L74.1335 118.25V120.312H72.0762V114.812Z" fill="black"/>
<path d="M284.459 102.094L283.243 101.782C282.603 102.781 278.351 102.639 277.071 102.465C276.257 102.355 277.012 101.196 275.22 102.433L274.529 101.063C275.956 101.301 279.343 97.2539 279.837 97.2539L280.363 97.4372C281.291 99.2431 282.978 100.096 284.656 101.049L284.464 102.085L284.459 102.094ZM281.716 101.058L279.769 99.3897L277.949 100.893L281.716 101.058Z" fill="black"/>
<path d="M99.9965 114.812C100.312 114.904 101.08 116.041 101.139 116.435C101.501 118.75 98.2455 118.768 96.7413 118.589V120.312H94.3457V114.812H99.9965ZM98.7986 115.844H96.7413V117.562L98.474 117.411L98.7986 115.844Z" fill="black"/>
<path d="M69.6812 114.812V115.844C69.3932 116.151 65.8455 115.285 65.2329 116.366C65.2511 117.297 67.2536 116.806 68.0628 116.958C71.1168 117.53 69.5303 120.312 68.8263 120.312H63.5184V119.281C63.7882 118.993 67.0479 119.818 67.6239 118.759L64.6019 118.021C62.2886 117.31 63.1252 114.812 64.3734 114.812H69.6812Z" fill="black"/>
<path d="M123.458 114.812V115.844C121.757 116.055 118.772 114.991 118.63 117.393C118.516 119.295 119.833 119.433 121.405 119.286V117.562H123.463V120.312H118.15C115.96 120.312 115.544 114.812 118.493 114.812H123.458Z" fill="black"/>
<path d="M91.0911 114.813C92.3117 115.078 92.9015 116.976 92.1152 117.893C91.3288 118.809 88.9606 118.566 87.8359 118.589V120.313H85.7832V114.813C87.3376 115.037 89.6647 114.506 91.0911 114.813ZM87.8359 117.563C91.1276 118.021 91.1185 115.381 87.8359 115.839V117.563Z" fill="black"/>
<path d="M223.829 97.2812V105.188H222.457L222.453 102.781L219.211 104.156L218.686 102.96L222.402 101.351L222.457 97.2812H223.829Z" fill="black"/>
<path d="M266.643 97.9688H258.08V99.6875H266.643V97.9688Z" fill="black"/>
<path d="M190.6 99.6875V97.9688H198.651C199.295 97.9688 199.295 99.6875 198.651 99.6875H190.6Z" fill="black"/>
<path d="M263.219 117.563C264.293 116.463 266.062 121.463 266.981 121.688V117.563H268.015V123.406C265.843 123.425 265.614 120.006 263.909 118.938C263.79 120.203 264.065 121.669 263.909 122.898C263.831 123.526 264.023 123.452 263.223 123.406V117.563H263.219Z" fill="black"/>
<path d="M333.79 104.844C332.958 103.166 331.381 101.906 330.347 100.215C329.62 99.0184 328.505 97.7947 330.48 97.6938L335.486 103.648L333.785 104.848L333.79 104.844Z" fill="black"/>
<path d="M347.829 101.062H337.895V102.438H347.829V101.062Z" fill="black"/>
<path d="M326.25 97.9731C326.693 98.4544 322.583 104.683 321.632 104.756C321.024 104.802 320.16 104.147 320.759 103.285C321.938 101.589 324.142 100.008 324.553 97.6294L326.25 97.9731Z" fill="black"/>
<path d="M145.988 117.283C150.057 116.783 149.911 122.627 147.542 123.333C142.737 124.772 142.042 117.764 145.988 117.283ZM145.979 117.956C143.537 118.433 143.656 123.278 146.907 122.723C149.453 122.288 148.653 117.439 145.979 117.956Z" fill="black"/>
<path d="M271.781 117.562H276.234C277.601 118.607 272.942 118.112 272.81 118.25V119.973C277.144 119.648 277.03 120.991 272.81 120.656V122.522L276.239 122.893C276.467 123.69 275.503 123.383 275.041 123.406C273.957 123.452 272.865 123.374 271.781 123.406V117.562Z" fill="black"/>
<path d="M170.484 118.003C173.314 115.175 177.607 120.262 174.484 122.879C171.362 125.501 167.887 120.597 170.484 118.003ZM174.077 122.293C174.365 122.004 174.48 121.248 174.507 120.826C174.809 115.922 169.122 118.026 170.653 121.596C171.202 122.875 173.204 123.168 174.077 122.293Z" fill="black"/>
<path d="M302.71 118.003C305.563 115.152 309.755 120.249 306.715 122.884C303.675 125.519 300.072 120.643 302.71 118.003ZM306.299 122.293C307.04 121.023 307.003 118.576 305.366 118.049C301.837 116.907 301.462 124.791 306.299 122.293Z" fill="black"/>
<path d="M241.64 119.276C240.676 119.405 240.424 118.158 239.679 117.956C237.325 117.31 236.387 121.101 237.69 122.384C238.627 123.305 241.361 122.737 240.95 121.004C240.685 120.748 238.87 121.591 239.24 120.317H241.636L241.631 123.411C240.575 122.329 240.58 123.278 239.734 123.401C233.132 124.378 237.366 112.498 241.636 119.281L241.64 119.276Z" fill="black"/>
<path d="M284.454 119.281C283.426 119.446 283.805 118.355 282.754 118.039C282.141 117.856 281.624 118.039 281.08 118.3V119.584C282.31 120.074 285.067 120.046 284.628 122.072C284.162 124.213 279.402 123.942 280.006 121.348C281.08 121.133 280.632 122.356 281.611 122.659C282.306 122.874 283.307 122.865 283.769 122.201C284.358 120.294 279.233 120.986 280.139 118.584C280.76 116.627 284.637 116.838 284.454 119.281Z" fill="black"/>
<path d="M192.311 117.562H193.335V119.969H196.224C196.882 119.872 195.698 117.164 197.106 117.562V123.406C195.666 123.791 196.91 120.752 196.224 120.652H193.335V123.411H192.311V117.567V117.562Z" fill="black"/>
<path d="M227.938 117.563C228.939 116.545 230.95 121.477 231.536 122.036C231.892 122.022 231.632 118.644 231.705 118.071C231.782 117.443 231.59 117.517 232.39 117.563V123.406C230.484 122.93 230.095 120.065 228.628 118.938C228.509 120.203 228.783 121.669 228.628 122.898C228.55 123.526 228.742 123.452 227.942 123.406V117.563H227.938Z" fill="black"/>
<path d="M188.544 119.281C188.141 119.753 187.433 118.126 186.578 117.961C185.206 117.695 183.885 118.942 185.805 119.799C187.218 120.432 188.946 119.781 188.544 122.192C188.196 124.268 183.428 123.832 184.095 121.348C185.247 121.064 184.475 122.384 185.334 122.677C186.852 123.2 188.992 122.192 187.314 121.037C186.198 120.271 183.821 120.963 184.155 118.846C184.662 115.633 189.591 118.053 188.544 119.281Z" fill="black"/>
<path d="M341.662 123.406V117.562L345.429 117.732C348.136 121.119 345.804 124.199 341.662 123.406ZM342.348 122.719C345.429 123.305 346.833 120.959 345.096 118.415L342.348 118.245V122.719Z" fill="black"/>
<path d="M157.373 119.281C156.888 119.804 155.864 116.898 154.104 118.231C152.083 119.762 156.961 120.129 157.313 120.716C157.483 120.995 157.441 121.834 157.364 122.187C156.902 124.24 152.294 123.984 152.924 121.348C153.569 121.499 153.565 122.453 154.173 122.668C155.713 123.209 157.803 122.182 156.138 121.041C155.023 120.276 152.646 120.968 152.979 118.85C153.35 116.508 157.341 116.852 157.368 119.286L157.373 119.281Z" fill="black"/>
<path d="M165.25 98.3125C165.388 98.7113 165.1 99.6875 164.738 99.6875H156.688V98.3125H165.25Z" fill="black"/>
<path d="M284.116 103.125V112.062L281.373 112.406V111.031H283.087V103.125H284.116Z" fill="black"/>
<path d="M83.3835 114.812H81.3262V120.312H83.3835V114.812Z" fill="black"/>
<path d="M105.309 114.812H103.252V120.312H105.309V114.812Z" fill="black"/>
<path d="M139.898 119.281C138.925 119.488 139.263 118.553 138.454 118.158C135.112 116.518 134.298 123.878 138.289 122.659C139.267 122.361 138.824 121.128 139.894 121.348C139.194 125.079 134.248 123.81 134.773 119.827C135.345 115.491 141.069 117.769 139.894 119.281H139.898Z" fill="black"/>
<path d="M298.499 119.277C297.169 119.699 297.461 118.218 296.547 117.948C294.179 117.256 293.21 121.078 294.727 122.549C296.913 123.846 297.027 120.895 298.499 121.514C297.023 124.745 293.027 123.851 293.141 120.194C293.242 116.958 297.448 116.041 298.504 119.277H298.499Z" fill="black"/>
<path d="M166.278 119.277C164.948 119.698 165.24 118.218 164.326 117.948C161.958 117.255 160.989 121.078 162.507 122.549C164.692 123.846 164.806 120.895 166.278 121.513C164.824 124.667 160.865 123.956 160.993 120.267C161.112 116.852 165.099 116.055 166.278 119.277Z" fill="black"/>
<path d="M214.58 117.562C220.149 116.407 220.889 121.339 215.261 121C214.96 121.293 215.929 123.796 214.58 123.406V117.562ZM217.968 118.282L215.266 118.25C214.53 121.325 219.015 120.977 217.968 118.282Z" fill="black"/>
<path d="M206.355 117.562C211.832 116.38 212.514 121.376 207.037 121C206.735 121.293 207.704 123.796 206.355 123.406V117.562ZM209.784 118.25H207.041V120.317L209.734 119.923L209.784 118.25Z" fill="black"/>
<path d="M171.761 106.563L170.042 112.063L168.428 111.206L170.901 106.237L171.761 106.563Z" fill="black"/>
<path d="M338.237 117.562L338.233 118.25H336.18V123.406H335.494V118.25H333.441V117.562H338.237Z" fill="black"/>
<path d="M251.574 117.562V122.719C252.361 122.971 254.907 122.054 254.656 123.406H250.889V117.562H251.574Z" fill="black"/>
<path d="M327.274 117.562V122.719C328.06 122.971 330.607 122.054 330.355 123.406H326.588V117.562H327.274Z" fill="black"/>
<path d="M202.245 117.562H201.217V123.406H202.245V117.562Z" fill="black"/>
<path d="M223.827 117.562H222.799V123.406H223.827V117.562Z" fill="black"/>
<path d="M259.109 117.562H258.08V123.406H259.109V117.562Z" fill="black"/>
<path d="M282.06 103.812H281.031V109.656H282.06V103.812Z" fill="black"/>
<path d="M186.321 98.0881C186.947 98.0927 190.294 100.32 188.538 100.911H187.875L185.123 98.826C185.402 98.5098 185.9 98.0789 186.321 98.0835V98.0881Z" fill="black"/>
<path d="M256.709 99.6921C256.97 100.073 256.074 101.122 255.562 101.03L252.951 98.8259L254.08 98.0146L256.709 99.6921Z" fill="black"/>
<path d="M151.553 99.339L152.403 98.0557L155.311 100.205L154.182 101.016L151.553 99.339Z" fill="black"/>
<path d="M172.431 98.6746L171.595 100.04C171.156 99.77 168.783 98.6746 169.021 98.1475C169.67 96.7038 171.494 98.5738 172.431 98.6746Z" fill="black"/>
<path d="M171.414 103.473L170.563 104.756C170.161 104.344 167.765 103.542 167.994 102.955C168.661 101.236 170.303 103.276 171.414 103.473Z" fill="black"/>
<path d="M219.883 98.0605L221.744 99.5639L220.916 100.714L219.037 98.8305L219.883 98.0605Z" fill="black"/>
<path d="M209.098 102.089H205.326V103.13H209.098V102.089Z" fill="white"/>
<path d="M209.098 100.027H205.326V101.067H209.098V100.027Z" fill="white"/>
<path d="M297.819 106.562H291.309V107.938H297.819V106.562Z" fill="white"/>
<path d="M297.819 103.812H291.309V105.188H297.819V103.812Z" fill="white"/>
<path d="M231.706 107.254L229.416 108.927L227.939 107.763C227.798 106.984 228.278 107.291 228.79 107.254C229.754 107.186 230.742 107.3 231.706 107.254Z" fill="white"/>
<path d="M117.032 104.926C121.041 103.185 123.871 105.962 121.741 109.826C117.617 111.797 114.942 108.882 117.032 104.926Z" fill="white"/>
<path d="M78.1439 104.573C81.1064 103.707 83.1546 105.352 82.6745 108.432C82.3545 110.477 80.1189 110.66 78.4227 110.334C76.0134 109.872 76.0408 105.187 78.1439 104.573Z" fill="white"/>
<path d="M180.667 106.562L180.095 108.639L178.614 108.62C179.112 107.754 178.106 107.342 177.59 106.732L180.671 106.562H180.667Z" fill="white"/>
<path d="M176.827 103.203C176.923 103.258 178.098 105.032 177.924 105.187H175.185C175.066 104.055 175.482 102.424 176.831 103.203H176.827Z" fill="white"/>
<path d="M176.556 106.567C175.998 107.525 177.274 107.818 177.585 108.625H174.842V106.562H176.556V106.567Z" fill="white"/>
<path d="M180.666 103.125V105.192L178.952 105.188C179.455 104.321 178.444 103.909 177.928 103.299L180.666 103.125Z" fill="white"/>
<path d="M140.937 101.746H136.471V105.541H140.937V101.746Z" fill="white"/>
<path d="M147.103 101.746H142.637V105.541H147.103V101.746Z" fill="white"/>
<path d="M315.973 103.812H311.516V102.094L315.411 102.144L315.932 102.648L315.973 103.812Z" fill="white"/>
<path d="M315.973 99.3438L315.932 100.508L315.411 101.012L311.516 101.062V99.3438H315.973Z" fill="white"/>
<path d="M248.493 108.975L244.717 108.979L244.719 110.707L248.495 110.703L248.493 108.975Z" fill="white"/>
<path d="M248.492 103.808H244.721V105.192H248.492V103.808Z" fill="white"/>
<path d="M248.492 106.558H244.721V107.942H248.492V106.558Z" fill="white"/>
<path d="M345.087 105.531H340.291V108.281H345.087V105.531Z" fill="white"/>
<path d="M281.716 101.058L277.949 100.893L279.769 99.3896L281.716 101.058Z" fill="white"/>
<path d="M98.7995 115.844L98.4749 117.411L96.7422 117.562V115.844H98.7995Z" fill="white"/>
<path d="M87.8359 117.562V115.839C91.1185 115.381 91.1276 118.016 87.8359 117.562Z" fill="white"/>
<path d="M145.98 117.957C148.654 117.434 149.454 122.288 146.908 122.723C143.657 123.278 143.538 118.433 145.98 117.957Z" fill="white"/>
<path d="M174.077 122.293C173.204 123.168 171.202 122.879 170.653 121.596C169.121 118.026 174.809 115.922 174.507 120.826C174.48 121.248 174.365 122.004 174.077 122.293Z" fill="white"/>
<path d="M306.299 122.292C301.462 124.79 301.841 116.907 305.366 118.048C306.998 118.575 307.039 121.027 306.299 122.292Z" fill="white"/>
<path d="M342.348 122.719V118.246L345.095 118.415C346.833 120.959 345.429 123.306 342.348 122.719Z" fill="white"/>
<path d="M217.968 118.282C219.015 120.977 214.53 121.321 215.266 118.25L217.968 118.282Z" fill="white"/>
<path d="M209.784 118.25L209.734 119.918L207.041 120.312V118.25H209.784Z" fill="white"/>
</svg>
