<svg width="410" height="220" viewBox="0 0 410 220" fill="none" xmlns="http://www.w3.org/2000/svg">
<path d="M189.748 103.933L185.934 107.747C188.534 110.347 189.401 111.56 189.574 112.773C189.748 112.6 193.214 109.653 193.214 108.613C193.214 107.053 192.174 106.533 189.748 103.933ZM151.268 127.333H138.268C138.268 127.333 140.521 129.24 140.521 133.227V148.827C140.521 152.813 142.081 152.813 142.081 152.813H154.734C157.681 152.813 158.548 150.733 158.548 149.693V148.133C158.548 148.133 157.681 150.04 153.868 150.04H147.801C145.894 150.04 146.068 148.48 145.894 147.093V138.427H150.228C151.614 138.427 153.001 138.6 154.388 139.293C154.388 139.293 153.001 135.827 148.668 135.827H145.894V133.053C145.894 133.053 145.894 130.627 145.374 129.933H149.361C152.828 129.933 155.428 129.933 158.201 131.667C158.374 132.013 157.854 127.333 151.268 127.333ZM171.374 132.36C167.214 132.36 166.174 136.347 166.174 136.347C166.174 136.347 166.001 132.533 162.708 132.533H159.414C159.414 132.533 161.321 133.227 161.321 136.52V148.653C161.321 152.64 162.881 152.813 162.881 152.813H168.254C168.081 152.813 166.174 151.253 166.174 148.653V137.907C166.174 137.387 167.041 135.827 169.294 135.827C170.681 135.827 172.068 137.213 172.068 138.773V148.827C172.068 152.987 173.628 152.987 173.628 152.987H179.001C179.001 152.987 176.921 151.6 176.921 148.827V138.08C177.094 137.56 177.788 136 179.868 136C181.428 136 182.814 137.387 182.814 138.947V149C182.814 152.987 184.374 152.987 184.374 152.987H189.748C189.748 152.987 187.668 151.6 187.668 148.827V137.907C187.668 133.573 184.201 132.533 181.601 132.533C178.134 132.533 177.094 135.48 176.748 136.347C176.228 133.573 173.628 132.36 171.374 132.36ZM193.908 132.533H190.614C190.614 132.533 192.521 133.4 192.521 136.52V148.653C192.521 152.64 194.081 152.64 194.081 152.64H199.454C199.454 152.64 197.374 151.253 197.374 148.48V136.867C197.374 132.533 194.948 132.533 193.908 132.533ZM203.441 132.533H200.148C200.148 132.533 202.054 133.227 202.054 136.52V148.653C202.054 152.64 203.614 152.813 203.614 152.813H208.988C208.814 152.813 206.908 151.253 206.908 148.653V138.6C207.081 137.733 207.601 137.04 208.294 136.52C208.988 136 209.854 135.827 210.721 135.827C211.934 135.827 213.148 136.347 214.014 137.387V133.92C214.014 133.92 213.494 132.533 211.241 132.533C207.948 132.533 207.081 136.52 207.081 136.52C206.734 133.4 205.868 132.533 203.441 132.533ZM237.588 127.853C237.588 127.853 236.374 129.933 233.948 131.84C232.388 133.053 229.268 134.613 229.268 134.613H232.734V148.827C232.734 152.813 234.294 152.813 234.294 152.813H239.668C239.668 152.813 237.588 151.427 237.588 148.827V134.787H238.974C240.708 134.787 242.094 135.653 242.094 135.653V132.533H237.588V127.853ZM250.934 132.533C245.388 132.533 242.441 137.733 242.441 143.28C242.441 148.827 246.081 152.987 251.281 152.987C255.614 152.987 257.001 151.427 257.001 151.427V148.133C255.788 150.213 254.228 150.733 252.841 150.733C252.06 150.731 251.29 150.554 250.588 150.213C248.161 149.173 247.814 146.053 247.814 146.053C249.721 143.8 252.148 144.32 255.094 141.027C259.254 136.867 256.308 132.533 250.934 132.533ZM247.641 143.8C247.641 143.8 246.948 134.44 250.414 134.093H250.588C253.361 134.093 252.668 138.08 251.801 139.64C250.588 142.24 248.854 142.413 247.641 143.8ZM194.948 125.947C193.561 125.947 192.521 126.987 192.521 128.373C192.521 129.76 193.561 130.8 194.948 130.8C196.334 130.8 197.374 129.76 197.374 128.373C197.374 126.987 196.334 125.947 194.948 125.947ZM221.294 132.533C218.174 132.533 216.268 134.093 216.268 134.093V137.56C216.268 137.56 217.308 134.787 220.254 134.787C223.028 134.787 223.201 136.173 223.201 136.867C223.201 136.867 223.548 137.733 222.854 138.947C221.641 141.2 211.934 141.547 213.321 149.173C213.841 152.12 215.921 152.987 218.348 152.987C220.774 152.987 222.161 151.773 222.854 150.56C223.201 152.813 224.414 152.987 224.414 152.987H229.788C229.788 152.987 227.708 151.6 227.708 149V137.56C227.534 134.613 224.588 132.533 221.294 132.533ZM219.561 150.56C218.348 150.56 217.481 149.347 217.481 147.96C217.481 142.933 221.641 142.24 222.681 140.853V149.347C222.161 149.867 221.641 150.56 219.561 150.56ZM265.321 132.36C262.028 132.36 259.254 134.44 259.254 137.213C259.254 139.64 260.294 141.2 262.201 142.587L264.974 144.32C266.534 145.187 267.054 146.227 267.054 147.267C267.054 148.653 265.841 150.56 263.068 150.56C260.294 150.56 259.081 147.613 259.081 147.613V151.253C259.081 151.253 261.161 152.64 264.108 152.64C267.748 152.64 271.561 149.867 271.388 146.053C271.388 144.667 270.868 143.453 270.174 142.587C268.961 140.853 266.708 139.813 264.974 138.6C263.934 137.907 263.414 136.867 263.414 136.52C263.414 135.827 263.761 134.44 266.534 134.44C269.134 134.44 270.348 137.213 270.348 137.213V133.747C270.348 134.093 268.441 132.36 265.321 132.36ZM181.081 97.1735H179.001C179.001 97.1735 181.081 98.3868 181.081 101.16V110.52C181.081 116.587 186.108 122.307 192.174 122.307H197.201C200.321 122.307 201.361 121.613 203.094 119.88L205.001 117.973C206.041 116.76 207.254 115.893 207.254 112.6V109.48C207.254 106.88 205.694 105.667 205.001 104.973L203.268 103.24V109.48C203.268 109.48 204.481 110.867 205.174 111.213C207.774 113.293 205.694 116.933 203.268 116.933H192.174H192.001C186.801 116.76 182.641 112.427 182.468 107.227V102.2C182.468 97.1735 181.081 97.1735 181.081 97.1735ZM197.374 103.933L193.561 107.747C196.161 110.347 197.028 111.56 197.201 112.773C197.374 112.6 200.841 109.653 200.841 108.613C200.841 107.053 199.801 106.36 197.374 103.933ZM205.174 61.1201L202.574 63.7201C201.534 64.7601 201.881 66.8401 203.961 68.9201V74.1201C203.961 74.6401 203.441 75.1601 203.441 75.1601C203.441 75.1601 200.321 72.3868 197.548 72.3868H193.388C190.788 72.3868 188.708 74.8135 188.361 74.9868C186.974 76.3735 186.974 78.9735 188.014 80.1868L190.961 83.1334C190.961 83.1334 190.268 78.4535 190.961 75.3335C191.134 74.6401 192.001 73.7735 192.868 73.7735L199.628 78.9735L191.828 87.1201C191.481 87.4668 190.441 88.1601 189.401 88.1601C188.188 88.1601 187.668 87.4668 187.148 86.7735V90.5868C187.148 91.8001 188.881 93.1868 190.441 93.1868H200.841C201.534 93.1868 202.401 93.0135 203.094 92.3201L206.561 88.8534C207.081 88.3334 207.254 87.6401 207.254 86.7735V82.7868C207.254 78.9734 204.308 76.0268 204.308 76.0268C204.308 76.0268 205.001 75.5068 205.001 73.9468V69.9601C205.001 69.9601 206.214 71.1735 206.388 71.6935L208.641 69.4401C209.681 68.4001 207.948 66.4935 207.254 65.6268C205.174 63.3735 205.174 61.1201 205.174 61.1201ZM192.174 88.5068C193.214 87.9868 193.388 87.6401 194.254 86.6001L200.841 79.6668C200.841 79.6668 204.481 83.4801 205.694 85.5601C206.214 86.6001 206.908 88.5068 203.788 88.5068H192.174ZM183.334 80.5335H181.428C182.641 81.2268 183.508 83.3068 183.508 84.5201V92.1468C183.508 94.2268 185.068 101.68 191.828 101.68H211.414V114.16C211.414 116.24 210.721 117.453 210.201 117.973L207.254 120.747H208.641L214.014 115.893C215.054 114.68 216.268 113.467 216.268 109.653V101.68L218.521 99.4268L222.334 95.7868C222.334 98.9068 223.894 100.293 225.281 100.293C226.051 100.244 226.783 99.9392 227.361 99.4268L230.828 96.1335C232.388 94.5735 233.254 89.7201 229.441 89.7201C227.014 89.7201 224.241 93.1868 224.068 93.5335C223.201 93.0135 222.508 91.8001 222.508 91.8001V94.7468C222.161 95.2668 220.601 96.4801 219.388 96.4801H216.268V93.5335C216.268 92.1468 216.788 90.5868 217.481 89.8935L220.428 87.1201H219.041L213.148 92.4935C212.108 93.7068 211.414 95.9601 211.414 96.4801H189.228C186.454 96.4801 184.721 93.7068 184.721 91.4535V85.7334C184.721 81.0534 183.508 80.5335 183.334 80.5335ZM228.228 97.1735C227.708 97.1735 227.188 97.0001 226.494 96.4801C225.801 95.9601 224.588 94.2268 224.588 94.2268C224.934 93.8801 225.974 93.5335 226.841 93.5335C227.534 93.5335 228.228 93.7068 228.401 94.0535C229.614 95.6134 229.441 97.1735 228.228 97.1735ZM219.041 61.1201L213.148 66.4935C212.801 66.8401 211.414 68.9201 211.414 71.3468V86.7735C211.414 87.8135 210.721 89.3735 210.201 89.8935L207.254 92.6668H208.641L214.188 87.6401C214.881 86.9468 216.268 85.2135 216.268 82.2668V67.5335C216.268 65.2801 217.308 64.0668 217.828 63.5468L220.428 61.1201H219.041ZM219.908 100.64V106.707L221.988 108.96C223.721 110.693 223.548 113.987 218.348 119.013C216.498 120.995 213.948 122.177 211.241 122.307H201.881L207.428 127.16H211.241C215.054 127.16 218.521 125.6 220.774 123.173C222.854 120.92 224.068 117.973 223.894 114.853V106.88C223.894 104.107 222.161 102.547 221.814 102.2C221.468 102.2 219.908 100.64 219.908 100.64Z" fill="#2A2626"/>
</svg>
