<svg width="410" height="220" viewBox="0 0 410 220" fill="none" xmlns="http://www.w3.org/2000/svg">
<path d="M144.455 126.68V120.675L144.491 120.182H144.414L141.814 126.68H140.395L137.795 120.182H137.718L137.754 120.677L137.754 126.68H135.777V117.928H138.505L141.105 124.555L143.704 117.928H146.432V126.68H144.455Z" fill="#2A2626"/>
<path d="M152.623 127.026C151.025 127.026 149.828 126.445 149.064 125.3C148.306 124.163 148.225 122.826 148.225 122.303C148.225 121.781 148.306 120.444 149.064 119.307C149.828 118.161 151.025 117.58 152.623 117.58C154.221 117.58 155.418 118.161 156.182 119.307C156.94 120.444 157.022 121.781 157.022 122.303C157.022 122.825 156.94 124.163 156.182 125.3C155.418 126.445 154.221 127.026 152.623 127.026ZM152.623 118.951C151.769 118.951 150.336 119.386 150.336 122.303C150.336 125.22 151.769 125.655 152.623 125.655C153.478 125.655 154.91 125.22 154.91 122.303C154.91 119.386 153.478 118.951 152.623 118.951Z" fill="#2A2626"/>
<path d="M158.814 129.885V117.927H160.622V118.793H160.681C161.535 117.737 162.781 117.58 163.449 117.58C165.347 117.58 167.561 118.803 167.561 122.251C167.561 123.371 167.269 127.026 163.517 127.026C163.045 127.026 161.457 126.937 160.837 125.792L160.791 125.707V129.885L158.814 129.885ZM163.028 118.951C162.31 118.951 160.639 119.279 160.639 122.321C160.639 124.377 161.522 125.655 162.943 125.655C163.697 125.655 165.449 125.336 165.449 122.373C165.449 120.23 164.544 118.951 163.028 118.951Z" fill="#2A2626"/>
<path d="M173.146 127.026C170.426 127.026 168.865 125.311 168.865 122.321C168.865 118.196 171.505 117.58 173.078 117.58C175.794 117.58 176.954 119.241 177.136 120.805H175.261C175.154 119.905 174.557 118.951 173.197 118.951C171.362 118.951 170.977 120.783 170.977 122.321C170.977 123.323 171.205 125.655 173.315 125.655C174.7 125.655 175.247 124.504 175.296 123.507H177.17C176.811 126.772 174.001 127.026 173.146 127.026Z" fill="#2A2626"/>
<path d="M184.295 126.68L180.826 122.372V126.68H178.85V117.927H180.826V121.641L184.127 117.919L186.382 117.927L182.59 122.008L186.571 126.68L184.295 126.68Z" fill="#2A2626"/>
<path d="M191.508 127.026C189.91 127.026 188.713 126.445 187.949 125.3C187.191 124.163 187.109 122.826 187.109 122.303C187.109 121.781 187.191 120.443 187.949 119.307C188.713 118.161 189.91 117.58 191.508 117.58C193.106 117.58 194.303 118.161 195.067 119.307C195.825 120.444 195.907 121.781 195.907 122.303C195.907 122.826 195.825 124.163 195.067 125.3C194.303 126.445 193.106 127.026 191.508 127.026ZM191.508 118.951C190.654 118.951 189.221 119.386 189.221 122.303C189.221 125.22 190.654 125.655 191.508 125.655C192.362 125.655 193.795 125.22 193.795 122.303C193.795 119.386 192.362 118.951 191.508 118.951Z" fill="#2A2626"/>
<path d="M201.813 117.028C199.529 117.028 198.759 115.715 198.518 114.601H200.186C200.236 115.474 201.036 115.865 201.813 115.865C202.59 115.865 203.39 115.474 203.44 114.601H205.108C204.867 115.715 204.097 117.028 201.813 117.028Z" fill="#2A2626"/>
<path d="M197.701 126.68V117.928H199.678V124.329L203.741 117.916L205.924 117.927V126.68H203.947V120.278L199.885 126.692L197.701 126.68Z" fill="#2A2626"/>
<path d="M212.494 129.885V117.927H214.302V118.793H214.36C215.214 117.737 216.461 117.58 217.129 117.58C219.026 117.58 221.24 118.803 221.24 122.251C221.24 123.371 220.949 127.026 217.197 127.026C216.724 127.026 215.137 126.937 214.517 125.792L214.471 125.707V129.885L212.494 129.885ZM216.707 118.951C215.989 118.951 214.319 119.279 214.319 122.321C214.319 124.377 215.202 125.655 216.622 125.655C217.376 125.655 219.129 125.336 219.129 122.373C219.129 120.23 218.224 118.951 216.707 118.951Z" fill="#2A2626"/>
<path d="M231.611 126.68V117.928H233.588V126.68H231.611Z" fill="#2A2626"/>
<path d="M223.035 126.68V117.928H225.012V121.324H227.012C228.248 121.324 230.55 121.324 230.55 124.019C230.55 125.785 229.518 126.68 227.485 126.68H223.035ZM225.012 125.31H226.995C227.449 125.31 228.505 125.179 228.505 123.967C228.505 123.387 228.248 122.694 227.021 122.694H225.012V125.31Z" fill="#2A2626"/>
<path d="M240.101 127.026C237.168 127.026 235.617 125.226 235.617 121.819C235.617 119.611 235.826 118.033 236.257 116.994C236.921 115.403 238.096 114.773 240.913 114.496C241.746 114.425 242.039 114.29 242.145 113.925H243.754C243.588 115.944 242.037 116.103 240.79 116.231C239.297 116.394 236.797 116.667 236.935 120.052L236.937 120.076H237.012L237.017 120.059C237.505 118.638 238.861 117.72 240.471 117.72C242.93 117.72 244.583 119.59 244.583 122.373C244.583 124.52 243.409 127.026 240.101 127.026ZM240.101 119.09C239.215 119.09 237.729 119.517 237.729 122.373C237.729 125.23 239.215 125.656 240.101 125.656C240.986 125.656 242.471 125.23 242.471 122.373C242.471 119.517 240.986 119.09 240.101 119.09Z" fill="#2A2626"/>
<path d="M252.117 126.68V122.764H248.354V126.68H246.377V117.928H248.354V121.393H252.117V117.928H254.094V126.68H252.117Z" fill="#2A2626"/>
<path d="M264.953 126.68V117.928H266.93V126.68H264.953Z" fill="#2A2626"/>
<path d="M256.377 126.68V117.928H258.354V121.324H260.354C261.589 121.324 263.891 121.324 263.891 124.019C263.891 125.785 262.86 126.68 260.826 126.68H256.377ZM258.354 125.31H260.337C260.79 125.31 261.847 125.179 261.847 123.967C261.847 123.387 261.589 122.694 260.363 122.694H258.354V125.31Z" fill="#2A2626"/>
<path d="M273.325 117.028C271.041 117.028 270.271 115.715 270.029 114.601H271.697C271.748 115.474 272.548 115.865 273.325 115.865C274.102 115.865 274.901 115.474 274.952 114.601H276.62C276.379 115.715 275.609 117.028 273.325 117.028Z" fill="#2A2626"/>
<path d="M269.213 126.68V117.928H271.189V124.329L275.252 117.916L277.436 117.927V126.68H275.459V120.278L271.396 126.692L269.213 126.68Z" fill="#2A2626"/>
<path d="M289.881 126.68V119.298H285.983V126.68H284.006V117.928H291.858V126.68H289.881Z" fill="#2A2626"/>
<path d="M298.051 127.026C296.453 127.026 295.255 126.445 294.492 125.3C293.734 124.163 293.652 122.826 293.652 122.303C293.652 121.781 293.734 120.443 294.492 119.307C295.255 118.161 296.453 117.58 298.051 117.58C299.648 117.58 300.846 118.161 301.61 119.307C302.368 120.444 302.45 121.781 302.45 122.303C302.45 122.826 302.368 124.163 301.61 125.3C300.846 126.445 299.648 127.026 298.051 127.026ZM298.051 118.951C297.197 118.951 295.764 119.386 295.764 122.303C295.764 125.22 297.197 125.655 298.051 125.655C298.905 125.655 300.337 125.22 300.337 122.303C300.337 119.386 298.905 118.951 298.051 118.951Z" fill="#2A2626"/>
<path d="M304.242 129.885V117.927H306.05V118.793H306.109C306.963 117.737 308.209 117.58 308.877 117.58C310.774 117.58 312.989 118.803 312.989 122.251C312.989 123.371 312.697 127.026 308.945 127.026C308.473 127.026 306.885 126.937 306.265 125.792L306.219 125.707V129.885L304.242 129.885ZM308.455 118.951C307.737 118.951 306.067 119.279 306.067 122.321C306.067 124.377 306.95 125.655 308.371 125.655C309.124 125.655 310.877 125.336 310.877 122.373C310.877 120.23 309.972 118.951 308.455 118.951Z" fill="#2A2626"/>
<path d="M316.725 126.68V119.298H313.787V117.928H321.639V119.298H318.701V126.68H316.725Z" fill="#2A2626"/>
<path d="M135.775 107.134V95.0547H141.322C144.274 95.0547 144.893 96.7086 144.893 98.0965C144.893 99.4057 144.097 100.464 142.955 100.671L142.935 100.675V100.752L142.955 100.756C143.685 100.885 145.383 101.437 145.383 103.763C145.383 106.785 142.931 107.135 141.086 107.135L135.775 107.134ZM137.887 105.348H140.866C142.022 105.348 143.204 105.131 143.204 103.52C143.204 101.762 141.601 101.762 140.917 101.762H137.887V105.348ZM137.887 99.9759H140.765C142.095 99.9759 142.714 99.5109 142.714 98.5125C142.714 97.7499 142.367 96.8411 140.714 96.8411H137.887V99.9759Z" fill="#2A2626"/>
<path d="M147.388 107.242C147.096 107.242 146.776 107.207 146.436 107.139V105.769C146.579 105.795 146.716 105.807 146.843 105.807C147.232 105.807 147.55 105.683 147.786 105.438C148.437 104.765 148.425 103.262 148.414 101.809C148.412 101.616 148.411 101.423 148.411 101.233V98.3818H154.928V107.134H152.952V99.7523H150.252V101.424C150.252 102.821 150.221 104.277 149.851 105.377C149.429 106.632 148.623 107.242 147.388 107.242Z" fill="#2A2626"/>
<path d="M174.419 109.422V107.134H167.347V109.422H165.539V105.764H166.696C168.088 103.578 168.088 101 168.088 99.8985V98.3818H174.742V105.764H176.227V109.422H174.419ZM169.93 100.852C169.93 102.962 169.602 104.018 168.818 105.728L168.801 105.764H172.764V99.7523H169.929L169.93 100.852Z" fill="#2A2626"/>
<path d="M177.363 107.134V98.3819H179.34V104.783L183.403 98.3701L185.587 98.3815V107.134H183.61V100.732L179.547 107.146L177.363 107.134Z" fill="#2A2626"/>
<path d="M187.869 107.134V98.3818H192.47C194.328 98.3818 195.231 99.0709 195.231 100.488C195.231 101.742 194.387 102.353 193.597 102.508L193.576 102.512V102.588L193.596 102.592C194.481 102.771 195.535 103.305 195.535 104.837C195.535 106.736 193.85 107.134 192.436 107.134L187.869 107.134ZM189.846 105.764H191.795C193.197 105.764 193.491 105.119 193.491 104.577C193.491 103.709 192.914 103.287 191.727 103.287H189.846V105.764ZM189.846 101.917H191.609C193.048 101.917 193.204 101.124 193.204 100.782C193.204 100.098 192.741 99.7523 191.829 99.7523H189.846V101.917Z" fill="#2A2626"/>
<path d="M201.271 107.481C199.674 107.481 198.477 106.9 197.712 105.755C196.954 104.618 196.873 103.281 196.873 102.758C196.873 102.236 196.954 100.898 197.712 99.7617C198.477 98.6162 199.674 98.0352 201.271 98.0352C202.869 98.0352 204.066 98.6162 204.83 99.7617C205.588 100.898 205.67 102.236 205.67 102.758C205.67 103.281 205.588 104.618 204.83 105.755C204.066 106.9 202.869 107.481 201.271 107.481ZM201.271 99.4061C200.417 99.4061 198.985 99.8414 198.985 102.758C198.985 105.675 200.417 106.11 201.271 106.11C202.126 106.11 203.558 105.675 203.558 102.758C203.558 99.8414 202.126 99.4061 201.271 99.4061Z" fill="#2A2626"/>
<path d="M211.255 107.481C208.535 107.481 206.975 105.766 206.975 102.776C206.975 98.6511 209.614 98.0352 211.188 98.0352C213.904 98.0352 215.063 99.6957 215.246 101.26H213.37C213.263 100.36 212.666 99.4061 211.306 99.4061C209.471 99.4061 209.087 101.238 209.087 102.776C209.087 105.677 210.551 106.11 211.424 106.11C212.81 106.11 213.356 104.959 213.406 103.962H215.279C214.92 107.227 212.11 107.481 211.255 107.481Z" fill="#2A2626"/>
<path d="M218.898 107.134V99.7523H215.961V98.3818H223.813V99.7523H220.875V107.134H218.898Z" fill="#2A2626"/>
<path d="M229.01 107.481C227.412 107.481 226.214 106.9 225.451 105.755C224.693 104.618 224.611 103.281 224.611 102.758C224.611 102.236 224.693 100.898 225.451 99.7617C226.214 98.6162 227.412 98.0352 229.01 98.0352C230.607 98.0352 231.805 98.6162 232.569 99.7617C233.327 100.898 233.409 102.236 233.409 102.758C233.409 103.281 233.327 104.618 232.569 105.755C231.805 106.9 230.607 107.481 229.01 107.481ZM229.01 99.4061C228.156 99.4061 226.723 99.8414 226.723 102.758C226.723 105.675 228.156 106.11 229.01 106.11C229.864 106.11 231.296 105.675 231.296 102.758C231.296 99.8414 229.864 99.4061 229.01 99.4061Z" fill="#2A2626"/>
<path d="M240.647 107.134L237.178 102.826V107.134H235.201V98.3815H237.178V102.095L240.479 98.373L242.734 98.381L238.942 102.462L242.922 107.134L240.647 107.134Z" fill="#2A2626"/>
<path d="M247.744 107.481C245.023 107.481 243.463 105.766 243.463 102.776C243.463 98.6511 246.102 98.0352 247.676 98.0352C250.392 98.0352 251.551 99.6957 251.734 101.26H249.859C249.752 100.36 249.154 99.4061 247.794 99.4061C245.96 99.4061 245.575 101.238 245.575 102.776C245.575 105.677 247.039 106.11 247.912 106.11C249.298 106.11 249.845 104.959 249.894 103.962H251.768C251.408 107.227 248.598 107.481 247.744 107.481Z" fill="#2A2626"/>
<path d="M258.891 107.134L255.422 102.826V107.134H253.445V98.3815H255.422V102.095L258.723 98.373L260.978 98.381L257.186 102.462L261.166 107.134L258.891 107.134Z" fill="#2A2626"/>
<path d="M262.197 107.134V98.3819H264.174V104.783L268.237 98.3701L270.42 98.3815V107.134H268.444V100.732L264.38 107.146L262.197 107.134Z" fill="#2A2626"/>
<path d="M276.815 97.482C274.531 97.482 273.761 96.1696 273.52 95.0547H275.188C275.238 95.9281 276.038 96.3195 276.815 96.3195C277.591 96.3195 278.392 95.9281 278.442 95.0547H280.11C279.869 96.1696 279.099 97.482 276.815 97.482Z" fill="#2A2626"/>
<path d="M272.703 107.134V98.3819H274.68V104.783L278.743 98.3701L280.927 98.3815V107.134H278.949V100.732L274.886 107.146L272.703 107.134Z" fill="#2A2626"/>
<path d="M159.753 107.343C157.704 107.343 156.621 106.47 156.621 104.821C156.621 103.046 158.119 102.507 158.578 102.384C159.051 102.247 159.506 102.191 159.989 102.131C160.177 102.108 160.369 102.084 160.567 102.056C160.701 102.038 160.841 102.016 160.98 101.995C161.119 101.973 161.259 101.951 161.394 101.934L161.527 101.915C162.146 101.828 162.428 101.788 162.428 100.956C162.428 99.4061 161.152 99.4061 160.733 99.4061C160.008 99.4061 159.439 99.6098 159.087 99.9961C158.828 100.279 158.696 100.653 158.714 101.052H156.84C156.83 100.289 157.081 99.6169 157.568 99.1057C158.236 98.4054 159.33 98.0352 160.733 98.0352C163.169 98.0352 164.405 99.0765 164.405 101.129V107.135H162.787V105.838L162.743 105.892C161.932 106.895 161.01 107.343 159.753 107.343ZM162.39 102.911C162.18 103.061 161.921 103.148 160.949 103.27C159.574 103.46 158.665 103.585 158.665 104.751C158.665 105.527 159.16 105.972 160.023 105.972C160.922 105.972 162.428 105.618 162.428 103.244V102.884L162.39 102.911Z" fill="#2A2626"/>
<path d="M119.548 106.993C119.85 106.993 120.094 106.743 120.094 106.433V87.4314C120.094 87.122 119.85 86.8711 119.548 86.8711H101.036C100.735 86.8711 100.49 87.122 100.49 87.4314V100.205H88.0458C87.7444 100.205 87.5 100.456 87.5 100.765V119.766C87.5 120.076 87.7444 120.327 88.0458 120.327H100.49V133.1C100.49 133.41 100.735 133.66 101.036 133.66H119.548C119.85 133.66 120.094 133.41 120.094 133.1V114.098C120.094 113.789 119.85 113.538 119.548 113.538H107.104V106.993H119.548ZM107.104 94.0796C107.104 93.848 107.287 93.6598 107.514 93.6598H113.071C113.297 93.6598 113.481 93.848 113.481 94.0796V99.7846C113.481 100.017 113.297 100.205 113.071 100.205H107.514C107.287 100.205 107.104 100.017 107.104 99.7846V94.0796ZM100.49 113.118C100.49 113.35 100.307 113.538 100.081 113.538H94.5228C94.2972 113.538 94.1139 113.35 94.1139 113.118V107.413C94.1139 107.181 94.2972 106.993 94.5228 106.993H100.081C100.307 106.993 100.49 107.181 100.49 107.413V113.118ZM107.514 120.327H113.071C113.297 120.327 113.481 120.515 113.481 120.747V126.451C113.481 126.684 113.297 126.872 113.071 126.872H107.514C107.287 126.872 107.104 126.684 107.104 126.451V120.747C107.104 120.515 107.287 120.327 107.514 120.327Z" fill="#2A2626"/>
</svg>
