<svg width="410" height="220" viewBox="0 0 410 220" fill="none" xmlns="http://www.w3.org/2000/svg">
<g clip-path="url(#clip0_281_33991)">
<path d="M200.063 91.8307L202.794 92.6674C202.438 94.2215 201.726 95.2972 200.776 96.0141C199.826 96.7314 198.638 97.0899 197.094 97.0899C195.313 97.0899 193.769 96.4924 192.582 95.1774C191.395 93.9824 190.801 92.1891 190.801 90.0376C190.801 87.7666 191.395 85.9735 192.582 84.6586C193.769 83.3437 195.313 82.7461 197.213 82.7461C198.876 82.7461 200.301 83.2243 201.251 84.3002C201.844 84.8977 202.319 85.7343 202.675 86.8102L199.945 87.5276C199.826 86.8102 199.47 86.2126 198.876 85.8541C198.282 85.4952 197.688 85.2562 196.976 85.2562C195.907 85.2562 195.195 85.6151 194.482 86.332C193.888 87.0493 193.532 88.2449 193.532 89.9182C193.532 91.711 193.888 92.9066 194.482 93.6233C195.076 94.3408 195.907 94.6997 196.857 94.6997C197.569 94.6997 198.282 94.4605 198.757 93.9824C199.47 93.5041 199.826 92.7868 200.063 91.8307Z" fill="#2A2626"/>
<path d="M208.969 96.8515V85.376H204.932V82.9854H215.856V85.376H211.819V96.8515H208.969Z" fill="#2A2626"/>
<path d="M218.705 96.8523V83.1055H223.099C224.761 83.1055 225.83 83.2253 226.424 83.3446C227.255 83.5837 227.849 83.9422 228.443 84.6595C229.036 85.3769 229.274 86.2136 229.274 87.2894C229.274 88.1261 229.155 88.8435 228.799 89.4409C228.443 90.0384 228.086 90.5167 227.611 90.7559C227.136 91.1144 226.661 91.3534 226.186 91.3534C225.474 91.4733 224.524 91.5925 223.337 91.5925H221.555V96.8523H218.705ZM221.555 85.3769V89.3217H223.099C224.168 89.3217 224.88 89.2019 225.236 89.0825C225.593 88.9627 225.949 88.7236 226.067 88.3652C226.305 88.0067 226.424 87.6478 226.424 87.2894C226.424 86.8111 226.305 86.3328 225.949 86.0938C225.711 85.7353 225.236 85.616 224.88 85.4961C224.524 85.3769 223.93 85.3769 222.861 85.3769H221.555Z" fill="#2A2626"/>
<path d="M243.405 96.8523H240.437L239.249 93.7442H233.668L232.48 96.8523H229.512L234.855 83.1055H237.824L243.405 96.8523ZM238.299 91.3534L236.399 86.2136L234.499 91.3534H238.299Z" fill="#2A2626"/>
<path d="M244.594 96.8523L249.225 89.6802L244.95 83.1055H248.156L250.888 87.5285L253.619 83.1055H256.824L252.551 89.7994L257.181 96.8523H253.856L250.768 92.0708L247.681 96.8523H244.594Z" fill="#2A2626"/>
<path d="M258.961 90.0376C258.961 88.6034 259.198 87.4077 259.555 86.4518C259.911 85.7343 260.268 85.1368 260.861 84.5393C261.455 83.9417 262.049 83.5828 262.643 83.3437C263.473 82.9852 264.423 82.7461 265.611 82.7461C267.63 82.7461 269.292 83.3437 270.481 84.6586C271.668 85.9735 272.262 87.6468 272.262 89.9182C272.262 92.1891 271.668 93.8625 270.481 95.1774C269.292 96.4924 267.63 97.0899 265.611 97.0899C263.592 97.0899 261.931 96.4924 260.742 95.1774C259.555 93.9824 258.961 92.309 258.961 90.0376ZM261.812 89.9182C261.812 91.4722 262.168 92.6674 262.88 93.5041C263.592 94.3408 264.543 94.6997 265.611 94.6997C266.68 94.6997 267.63 94.3408 268.342 93.5041C269.055 92.6674 269.411 91.4722 269.411 89.9182C269.411 88.3643 269.055 87.1691 268.342 86.332C267.63 85.4952 266.68 85.1368 265.611 85.1368C264.423 85.1368 263.592 85.4952 262.88 86.332C262.168 87.1691 261.812 88.3643 261.812 89.9182Z" fill="#2A2626"/>
<path d="M275.586 83.1055H281.048C282.116 83.1055 282.948 83.1055 283.423 83.2253C283.897 83.3446 284.492 83.4644 284.847 83.8228C285.204 84.1813 285.56 84.5402 285.916 85.0185C286.273 85.4963 286.391 86.0938 286.391 86.6917C286.391 87.2894 286.273 87.8869 285.916 88.4845C285.56 89.0825 285.086 89.4409 284.492 89.6802C285.323 89.9192 285.916 90.3975 286.391 90.8752C286.867 91.4733 287.104 92.1902 287.104 92.9075C287.104 93.505 286.986 94.1026 286.628 94.7006C286.273 95.2983 285.916 95.7764 285.441 96.1348C284.967 96.4933 284.373 96.7325 283.542 96.7325C283.066 96.7325 281.998 96.8523 280.217 96.8523H275.586V83.1055ZM278.317 85.3769V88.6042H280.098C281.166 88.6042 281.879 88.6042 282.116 88.6042C282.592 88.6042 282.948 88.3652 283.186 88.1261C283.423 87.8869 283.542 87.5285 283.542 87.0502C283.542 86.5721 283.423 86.3328 283.186 85.9744C282.948 85.7353 282.592 85.4961 282.116 85.4961C281.879 85.4961 281.048 85.4961 279.741 85.4961H278.317V85.3769ZM278.317 90.8752V94.5808H280.929C281.879 94.5808 282.592 94.5808 282.829 94.4616C283.186 94.3417 283.542 94.2225 283.779 93.8634C284.017 93.505 284.136 93.1466 284.136 92.6684C284.136 92.31 284.017 91.9509 283.779 91.5925C283.542 91.2341 283.305 91.1144 282.948 90.995C282.592 90.8752 281.761 90.7559 280.454 90.7559H278.317V90.8752Z" fill="#2A2626"/>
<path d="M302.068 96.8514H298.98L297.793 93.7432H292.331L291.142 96.8514H288.293L293.636 83.1045H296.606L302.068 96.8514ZM296.962 91.3525L295.062 86.2126L293.162 91.3525H296.962Z" fill="#2A2626"/>
<path d="M312.872 96.8511V91.1131H312.278C311.447 91.1131 310.734 91.233 310.378 91.4722C310.023 91.7108 309.429 92.548 308.597 93.8624L306.578 96.8511H303.254L304.917 94.1016C305.629 93.0256 306.103 92.3088 306.459 91.8306C306.816 91.3524 307.29 90.9939 307.885 90.635C306.578 90.3958 305.629 90.0374 305.154 89.3205C304.559 88.6032 304.322 87.7664 304.322 86.81C304.322 85.9733 304.559 85.256 304.917 84.5391C305.391 83.9416 305.866 83.4633 306.578 83.2242C307.29 82.9851 308.24 82.8652 309.666 82.8652H315.485V96.612H312.872V96.8511ZM312.872 85.3758H310.734C309.666 85.3758 308.953 85.3758 308.597 85.495C308.24 85.495 308.003 85.7343 307.647 85.9733C307.29 86.2125 307.29 86.6907 307.29 87.0491C307.29 87.5274 307.409 87.8858 307.647 88.2442C307.885 88.4833 308.24 88.7225 308.597 88.7225C308.953 88.7225 309.666 88.8424 310.854 88.8424H312.872V85.3758Z" fill="#2A2626"/>
<path d="M191.395 124.823H194.126V130.68C194.719 130.56 195.195 130.441 195.432 130.202C195.669 129.963 196.026 129.245 196.501 128.05C197.094 126.616 197.688 125.66 198.282 125.301C198.876 124.942 199.826 124.703 201.013 124.703C201.132 124.703 201.251 124.703 201.37 124.703V126.735H201.013C200.419 126.735 200.063 126.855 199.826 126.975C199.588 127.094 199.35 127.333 199.232 127.572C199.113 127.811 198.876 128.409 198.519 129.365C198.401 129.843 198.163 130.202 197.925 130.56C197.688 130.919 197.332 131.158 196.857 131.517C197.451 131.636 197.925 131.995 198.401 132.593C198.757 133.07 199.232 133.907 199.707 134.864L201.607 138.689H198.401L196.738 135.103C196.738 135.103 196.62 134.983 196.62 134.864C196.62 134.864 196.501 134.624 196.263 134.266C195.907 133.549 195.669 133.19 195.432 132.951C195.195 132.831 194.838 132.712 194.363 132.712V138.808H191.632V124.823H191.395Z" fill="#2A2626"/>
<path d="M204.812 131.875C204.812 130.44 205.05 129.245 205.406 128.288C205.762 127.571 206.119 126.974 206.712 126.376C207.306 125.778 207.9 125.42 208.494 125.181C209.325 124.822 210.275 124.583 211.462 124.583C213.481 124.583 215.144 125.181 216.331 126.496C217.519 127.81 218.113 129.484 218.113 131.755C218.113 134.026 217.519 135.699 216.331 137.014C215.144 138.329 213.481 138.927 211.462 138.927C209.444 138.927 207.781 138.329 206.593 137.014C205.406 135.699 204.812 134.026 204.812 131.875ZM207.662 131.755C207.662 133.309 208.019 134.504 208.731 135.341C209.444 136.178 210.394 136.536 211.462 136.536C212.531 136.536 213.481 136.178 214.194 135.341C214.906 134.504 215.263 133.309 215.263 131.755C215.263 130.201 214.906 129.005 214.194 128.169C213.481 127.332 212.531 126.974 211.462 126.974C210.394 126.974 209.444 127.332 208.731 128.169C208.019 129.005 207.662 130.201 207.662 131.755Z" fill="#2A2626"/>
<path d="M222.625 138.688V124.941H226.781L229.275 134.384L231.769 124.941H235.925V138.688H233.312V127.81L230.581 138.688H227.969L225.237 127.81V138.688H222.625Z" fill="#2A2626"/>
<path d="M241.031 124.822H251.957V138.568H249.106V127.093H243.763V138.568H241.031V124.822Z" fill="#2A2626"/>
<path d="M269.532 138.688H266.562L265.375 135.58H259.793L258.606 138.688H255.637L260.982 124.941H263.95L269.532 138.688ZM264.424 133.189L262.524 128.05L260.625 133.189H264.424Z" fill="#2A2626"/>
<path d="M273.33 138.688V124.941H276.063V130.32H281.525V124.941H284.256V138.688H281.525V132.711H276.063V138.688H273.33Z" fill="#2A2626"/>
<path d="M289.598 124.822H292.21V134.026L297.792 124.822H300.523V138.568H297.911V129.603L292.329 138.568H289.598V124.822Z" fill="#2A2626"/>
<path d="M313.824 138.689V132.951H313.229C312.398 132.951 311.687 133.07 311.33 133.309C310.974 133.549 310.38 134.385 309.548 135.7L307.53 138.689H304.205L305.868 135.939C306.58 134.864 307.055 134.146 307.412 133.669C307.767 133.19 308.241 132.831 308.836 132.473C307.53 132.234 306.58 131.875 306.105 131.158C305.511 130.441 305.273 129.604 305.273 128.648C305.273 127.811 305.511 127.094 305.868 126.377C306.342 125.779 306.818 125.301 307.53 125.062C308.241 124.823 309.193 124.703 310.617 124.703H316.436V138.449H313.824V138.689ZM313.824 127.213H311.687C310.617 127.213 309.904 127.214 309.548 127.333C309.193 127.333 308.954 127.572 308.599 127.811C308.241 128.05 308.241 128.528 308.241 128.887C308.241 129.365 308.362 129.724 308.599 130.082C308.836 130.321 309.193 130.56 309.548 130.56C309.904 130.56 310.617 130.68 311.805 130.68H313.824V127.213Z" fill="#2A2626"/>
<path d="M173.226 69.2393H168.238V151H173.226V69.2393Z" fill="url(#paint0_linear_281_33991)"/>
<path d="M160.4 69H155.412V150.761H160.4V69Z" fill="url(#paint1_linear_281_33991)"/>
<path d="M147.456 69H142.469V150.761H147.456V69Z" fill="url(#paint2_linear_281_33991)"/>
<path d="M135.462 69H130.475V150.761H135.462V69Z" fill="url(#paint3_linear_281_33991)"/>
<path d="M122.519 69H117.531V150.761H122.519V69Z" fill="url(#paint4_linear_281_33991)"/>
<path d="M109.931 69H104.943V150.761H109.931V69Z" fill="url(#paint5_linear_281_33991)"/>
<path d="M96.9875 69.2393H92V151H96.9875V69.2393Z" fill="url(#paint6_linear_281_33991)"/>
<path d="M104.469 104.621V117.531H100.313V108.207H96.2752V117.531H92.1191V104.621H104.469ZM119.075 117.651H114.919L119.55 104.621H123.825L128.457 117.531H124.3L123.825 115.857H119.55L119.075 117.651ZM122.994 113.227L121.688 108.447L120.382 113.227H122.994ZM142.706 117.651H138.55V104.621H144.725C146.506 104.621 147.931 104.98 148.881 105.697C149.832 106.534 150.188 107.49 150.188 108.924C150.188 110.359 149.832 111.435 149 112.152C148.05 113.108 146.744 113.347 144.844 113.347H142.706V117.651ZM142.706 110.478H144.487C145.082 110.478 145.438 110.359 145.675 110.12C146.031 109.881 146.15 109.522 146.15 109.044C146.15 108.447 145.913 108.088 145.319 107.968C144.962 107.729 144.487 107.729 143.894 107.729H142.706V110.478ZM164.794 111.554L169.187 104.741H173.106V117.651H169.069V110.837L164.675 117.651H160.637V104.621H164.675L164.794 111.554Z" fill="#2A2626"/>
</g>
<defs>
<linearGradient id="paint0_linear_281_33991" x1="170.732" y1="69.2393" x2="170.732" y2="151" gradientUnits="userSpaceOnUse">
<stop stop-color="#2A2626"/>
<stop offset="0.1839" stop-color="#2A2626"/>
<stop offset="0.3731" stop-color="white"/>
<stop offset="0.6699" stop-color="white"/>
<stop offset="0.8" stop-color="#2A2626"/>
<stop offset="1" stop-color="#2A2626"/>
</linearGradient>
<linearGradient id="paint1_linear_281_33991" x1="157.906" y1="69" x2="157.906" y2="150.761" gradientUnits="userSpaceOnUse">
<stop stop-color="#2A2626"/>
<stop offset="0.1839" stop-color="#2A2626"/>
<stop offset="0.3731" stop-color="white"/>
<stop offset="0.6699" stop-color="white"/>
<stop offset="0.8" stop-color="#2A2626"/>
<stop offset="1" stop-color="#2A2626"/>
</linearGradient>
<linearGradient id="paint2_linear_281_33991" x1="144.962" y1="69" x2="144.962" y2="150.761" gradientUnits="userSpaceOnUse">
<stop stop-color="#2A2626"/>
<stop offset="0.1839" stop-color="#2A2626"/>
<stop offset="0.3731" stop-color="white"/>
<stop offset="0.6699" stop-color="white"/>
<stop offset="0.8" stop-color="#2A2626"/>
<stop offset="1" stop-color="#2A2626"/>
</linearGradient>
<linearGradient id="paint3_linear_281_33991" x1="132.968" y1="69" x2="132.968" y2="150.761" gradientUnits="userSpaceOnUse">
<stop stop-color="#2A2626"/>
<stop offset="0.1839" stop-color="#2A2626"/>
<stop offset="0.3731" stop-color="white"/>
<stop offset="0.6699" stop-color="white"/>
<stop offset="0.8" stop-color="#2A2626"/>
<stop offset="1" stop-color="#2A2626"/>
</linearGradient>
<linearGradient id="paint4_linear_281_33991" x1="120.025" y1="69" x2="120.025" y2="150.761" gradientUnits="userSpaceOnUse">
<stop stop-color="#2A2626"/>
<stop offset="0.1839" stop-color="#2A2626"/>
<stop offset="0.3731" stop-color="white"/>
<stop offset="0.6699" stop-color="white"/>
<stop offset="0.8" stop-color="#2A2626"/>
<stop offset="1" stop-color="#2A2626"/>
</linearGradient>
<linearGradient id="paint5_linear_281_33991" x1="107.437" y1="69" x2="107.437" y2="150.761" gradientUnits="userSpaceOnUse">
<stop stop-color="#2A2626"/>
<stop offset="0.1839" stop-color="#2A2626"/>
<stop offset="0.3731" stop-color="white"/>
<stop offset="0.6699" stop-color="white"/>
<stop offset="0.8" stop-color="#2A2626"/>
<stop offset="1" stop-color="#2A2626"/>
</linearGradient>
<linearGradient id="paint6_linear_281_33991" x1="94.4938" y1="69.2393" x2="94.4938" y2="151" gradientUnits="userSpaceOnUse">
<stop stop-color="#2A2626"/>
<stop offset="0.1839" stop-color="#2A2626"/>
<stop offset="0.3731" stop-color="white"/>
<stop offset="0.6699" stop-color="white"/>
<stop offset="0.8" stop-color="#2A2626"/>
<stop offset="1" stop-color="#2A2626"/>
</linearGradient>
<clipPath id="clip0_281_33991">
<rect width="226" height="82" fill="white" transform="translate(92 69)"/>
</clipPath>
</defs>
</svg>
