<svg width="410" height="220" viewBox="0 0 410 220" fill="none" xmlns="http://www.w3.org/2000/svg">
<g clip-path="url(#clip0_281_33356)">
<path d="M206.781 93.4048H212.124V98.1793H206.781V93.4048ZM206.781 100.956H212.124V121.033H206.781V100.956Z" fill="#2A2626"/>
<path d="M220.256 104.166H220.374C221.591 101.895 222.966 100.721 225.323 100.721C225.912 100.721 226.266 100.761 226.58 100.878V105.535H226.462C222.966 105.183 220.452 107.022 220.452 111.249V121.033H215.109V100.956H220.256V104.166Z" fill="#2A2626"/>
<path d="M236.988 93.4048H242.331V98.1793H236.988V93.4048ZM236.989 100.956H242.331V121.033H236.989V100.956Z" fill="#2A2626"/>
<path d="M250.541 103.696H250.658C252.033 101.543 253.879 100.408 256.629 100.408C260.794 100.408 263.582 103.539 263.582 107.922V121.033H258.24V108.705C258.24 106.552 256.983 105.026 254.744 105.026C252.387 105.026 250.658 106.905 250.658 109.644V121.033H245.316V100.956H250.541V103.696H250.541Z" fill="#2A2626"/>
<path d="M265.781 110.975C265.781 105.027 269.827 100.409 275.72 100.409C282.202 100.409 285.658 105.34 285.658 112.501H271.045C271.438 115.593 273.166 117.511 276.191 117.511C278.273 117.511 279.491 116.572 280.08 115.045H285.344C284.598 118.607 281.416 121.62 276.231 121.62C269.552 121.62 265.781 116.963 265.781 110.975ZM271.123 108.823H280.08C279.923 106.279 278.234 104.517 275.798 104.517C272.97 104.517 271.595 106.201 271.123 108.823Z" fill="#2A2626"/>
<path d="M286.891 114.536H291.84C292.194 116.845 293.844 117.863 296.24 117.863C298.598 117.863 299.933 116.963 299.933 115.554C299.933 113.636 297.38 113.44 294.63 112.893C291.016 112.189 287.48 111.21 287.48 106.827C287.48 102.483 291.095 100.409 295.69 100.409C300.994 100.409 303.94 103.031 304.333 107.062H299.501C299.265 104.909 297.89 104.127 295.612 104.127C293.53 104.127 292.155 104.909 292.155 106.357C292.155 108.079 294.826 108.236 297.694 108.823C301.072 109.527 304.804 110.467 304.804 115.163C304.804 119.194 301.347 121.621 296.319 121.621C290.465 121.62 287.205 118.803 286.891 114.536Z" fill="#2A2626"/>
<path d="M194.175 93.4048H187.957L176.715 121.033H183.079L185.161 115.358H196.632L198.753 121.033H205.156L194.175 93.4048ZM186.693 110.701L190.817 98.9599L195.06 110.701H186.693V110.701Z" fill="#2A2626"/>
<path d="M234.003 93.4048H228.66V121.033H234.003V93.4048Z" fill="#2A2626"/>
<path d="M169.783 109.987C169.783 127.54 155.515 141.752 137.901 141.752C120.285 141.752 106 127.54 106 109.987C106 92.4347 120.285 78.2085 137.901 78.2085C155.515 78.2085 169.783 92.4347 169.783 109.987Z" fill="#2A2626"/>
<path d="M135.577 93.4033C130.553 93.4033 127.295 93.6799 124.936 94.5524C120.971 96.0909 118.234 99.3153 118.234 103.553C118.234 107.082 119.883 109.638 124.657 112.578C129.751 115.654 130.767 116.671 130.767 118.524C130.767 120.553 128.772 122.862 123.638 122.862C121.846 122.862 119.147 122.615 117.423 122.195L116.6 121.988C116.141 123.214 115.099 126.114 114.781 127.166L115.596 127.405C117.147 127.898 120.829 128.283 123.466 128.283C132.241 128.283 137.476 123.002 137.476 117.472C137.476 114.073 135.927 111.491 130.693 108.237C128.068 106.628 126.73 105.585 125.918 104.777C125.259 103.934 125.186 103.307 125.186 102.644C125.186 102.011 125.327 101.282 125.746 100.748C126.199 100.087 127.03 99.6666 128.154 99.3193C129.31 98.9374 131.451 98.9273 134.786 98.9273H137.891L140.108 93.4035L135.577 93.4033ZM159.044 93.4033H143.44L141.222 98.9268H146.394C149.875 98.9268 150.544 98.8522 151.418 98.8522C150.156 101.728 142.552 121.032 142.552 121.032H148.988C148.988 121.032 158.615 97.0014 159.635 94.482C159.918 93.9198 159.777 93.4033 159.044 93.4033Z" fill="white"/>
</g>
<defs>
<clipPath id="clip0_281_33356">
<rect width="199" height="64" fill="white" transform="translate(106 78)"/>
</clipPath>
</defs>
</svg>
