<svg width="410" height="220" viewBox="0 0 410 220" fill="none" xmlns="http://www.w3.org/2000/svg">
<g clip-path="url(#clip0_281_34022)">
<path fill-rule="evenodd" clip-rule="evenodd" d="M269.401 154.305H262.581C262.563 154.305 262.546 154.3 262.532 154.291C262.517 154.282 262.505 154.269 262.498 154.253C262.489 154.237 262.486 154.219 262.487 154.202C262.489 154.184 262.496 154.167 262.507 154.153C262.567 154.075 262.616 154.002 262.659 153.937C262.724 153.815 262.819 153.712 262.935 153.637C263.379 153.398 263.724 153.008 263.906 152.537C264.297 151.501 264.465 150.393 264.397 149.288C264.422 140.882 264.422 133.156 264.397 125.668C264.364 124.528 264.249 123.391 264.052 122.268C264.013 121.925 263.884 121.598 263.678 121.321C263.472 121.043 263.196 120.826 262.879 120.689C262.772 120.62 262.692 120.518 262.65 120.399C262.618 120.33 262.582 120.264 262.542 120.199C262.534 120.184 262.53 120.168 262.53 120.152C262.53 120.136 262.534 120.119 262.542 120.105C262.55 120.09 262.561 120.078 262.576 120.07C262.59 120.061 262.606 120.057 262.623 120.057H269.271C269.289 120.057 269.307 120.062 269.322 120.072C269.337 120.082 269.349 120.096 269.356 120.113C269.387 120.168 269.406 120.23 269.412 120.293C269.417 120.357 269.409 120.421 269.388 120.481C269.357 120.538 269.314 120.588 269.262 120.627C269.21 120.666 269.151 120.694 269.088 120.708C268.875 120.786 268.681 120.909 268.52 121.068C268.358 121.228 268.233 121.42 268.153 121.632C267.814 122.447 267.646 123.323 267.66 124.206C267.633 125.484 267.629 126.784 267.624 128.04C267.624 128.473 267.624 128.907 267.624 129.34C267.625 129.383 267.63 129.426 267.639 129.468C267.64 129.473 267.64 129.479 267.639 129.484H275.719V129.409C275.719 129.3 275.719 129.197 275.719 129.094C275.711 128.588 275.704 128.082 275.699 127.576C275.686 126.348 275.672 125.076 275.61 123.832C275.548 123.155 275.414 122.487 275.21 121.839L275.166 121.679C275.098 121.448 274.976 121.238 274.81 121.064C274.645 120.89 274.44 120.758 274.213 120.679C274.104 120.617 274.018 120.523 273.966 120.41C273.929 120.35 273.887 120.282 273.834 120.21C273.823 120.196 273.817 120.18 273.815 120.163C273.814 120.146 273.817 120.128 273.824 120.113C273.832 120.097 273.844 120.084 273.859 120.075C273.874 120.066 273.891 120.062 273.908 120.062H280.742C280.759 120.062 280.776 120.067 280.791 120.076C280.805 120.085 280.817 120.098 280.825 120.114C280.833 120.13 280.837 120.148 280.835 120.165C280.833 120.183 280.826 120.2 280.815 120.214C280.758 120.288 280.715 120.36 280.672 120.422C280.617 120.537 280.529 120.633 280.419 120.696C280.114 120.803 279.846 120.994 279.645 121.248C279.445 121.501 279.321 121.807 279.287 122.128L279.234 122.591C279.06 123.906 278.957 125.229 278.927 126.555C278.901 133.292 278.906 140.609 278.945 148.924C278.972 149.972 279.089 151.016 279.293 152.045C279.323 152.405 279.452 152.75 279.666 153.041C279.88 153.332 280.171 153.558 280.506 153.694C280.558 153.727 280.604 153.771 280.638 153.822C280.672 153.874 280.696 153.933 280.706 153.994C280.727 154.056 280.751 154.116 280.779 154.175C280.786 154.189 280.789 154.205 280.788 154.22C280.787 154.236 280.782 154.251 280.774 154.264C280.765 154.278 280.753 154.288 280.74 154.296C280.726 154.303 280.71 154.307 280.695 154.307H273.902C273.885 154.307 273.868 154.302 273.853 154.293C273.838 154.284 273.826 154.272 273.818 154.256C273.811 154.241 273.808 154.223 273.809 154.206C273.811 154.189 273.817 154.173 273.828 154.159C273.881 154.089 273.928 154.02 273.963 153.959C274.017 153.837 274.111 153.737 274.23 153.675C274.531 153.582 274.798 153.403 274.997 153.159C275.196 152.915 275.319 152.618 275.351 152.305L275.364 152.205C275.541 151.157 275.647 150.099 275.681 149.037C275.71 144.966 275.711 140.827 275.712 136.824C275.712 135.344 275.712 133.864 275.712 132.384C275.711 132.328 275.706 132.273 275.699 132.218C275.699 132.205 275.699 132.192 275.694 132.178H267.612V137.084C267.612 141.06 267.618 145.035 267.63 149.01C267.58 150.147 267.718 151.284 268.041 152.376C268.109 152.668 268.245 152.94 268.439 153.169C268.633 153.398 268.879 153.577 269.157 153.692C269.266 153.755 269.346 153.858 269.379 153.98C269.407 154.039 269.437 154.105 269.474 154.168C269.482 154.182 269.486 154.198 269.486 154.214C269.486 154.231 269.482 154.247 269.474 154.261C269.466 154.274 269.455 154.284 269.443 154.292C269.43 154.3 269.416 154.304 269.401 154.305ZM289.301 154.305H282.564C282.548 154.305 282.533 154.301 282.519 154.293C282.506 154.286 282.494 154.275 282.486 154.262C282.478 154.248 282.474 154.233 282.474 154.217C282.474 154.202 282.478 154.187 282.486 154.173C282.513 154.114 282.536 154.053 282.557 153.991C282.581 153.859 282.656 153.743 282.766 153.666C283.081 153.524 283.356 153.305 283.566 153.03C283.775 152.754 283.913 152.431 283.966 152.089C284.16 151.226 284.272 150.348 284.3 149.464C284.329 140.941 284.329 133.098 284.3 125.488C284.268 124.423 284.155 123.361 283.963 122.313L283.949 122.227C283.903 121.892 283.772 121.574 283.567 121.305C283.362 121.035 283.091 120.824 282.78 120.691C282.674 120.622 282.593 120.521 282.55 120.403C282.519 120.343 282.484 120.277 282.441 120.21C282.432 120.196 282.428 120.179 282.428 120.163C282.428 120.146 282.432 120.13 282.441 120.116C282.449 120.101 282.46 120.089 282.475 120.081C282.489 120.072 282.505 120.068 282.522 120.068H289.308C289.324 120.068 289.341 120.072 289.355 120.081C289.37 120.089 289.382 120.101 289.39 120.116C289.398 120.13 289.403 120.147 289.403 120.163C289.403 120.18 289.398 120.197 289.39 120.211C289.349 120.273 289.316 120.336 289.29 120.394C289.248 120.513 289.164 120.613 289.055 120.675C288.749 120.779 288.479 120.966 288.274 121.216C288.07 121.466 287.94 121.769 287.9 122.089C287.717 123.123 287.605 124.169 287.562 125.218C287.525 126.942 287.529 128.696 287.534 130.392C287.534 131.093 287.534 131.793 287.534 132.492C287.534 132.529 287.534 132.566 287.541 132.609C287.546 132.603 287.552 132.597 287.557 132.591L287.846 132.161C289.645 129.584 291.301 126.909 292.806 124.149C293.236 123.413 293.465 122.578 293.471 121.726C293.492 121.518 293.453 121.308 293.36 121.121C293.266 120.935 293.121 120.778 292.942 120.671C292.848 120.597 292.782 120.494 292.754 120.378C292.733 120.322 292.709 120.261 292.679 120.199C292.671 120.185 292.667 120.17 292.667 120.154C292.667 120.138 292.671 120.123 292.679 120.109C292.687 120.096 292.698 120.085 292.712 120.077C292.726 120.069 292.741 120.065 292.757 120.065H299.532C299.549 120.065 299.566 120.07 299.58 120.078C299.595 120.087 299.607 120.1 299.615 120.115C299.623 120.131 299.627 120.148 299.626 120.166C299.624 120.184 299.618 120.201 299.607 120.215C299.563 120.277 299.526 120.339 299.492 120.397C299.446 120.515 299.355 120.611 299.24 120.664C298.101 120.948 297.114 121.658 296.483 122.648C295.369 124.222 294.292 125.865 293.251 127.455C292.972 127.881 292.693 128.307 292.413 128.732C292.391 128.787 292.381 128.846 292.383 128.905C292.385 128.964 292.399 129.022 292.425 129.075C295.607 134.902 297.248 141.183 298.549 147.102C298.929 148.828 299.366 150.571 299.789 152.256L299.8 152.299C299.844 152.597 299.96 152.88 300.139 153.123C300.318 153.365 300.555 153.56 300.827 153.689C300.928 153.757 301 153.862 301.027 153.981C301.051 154.04 301.077 154.105 301.11 154.169C301.117 154.183 301.121 154.199 301.12 154.215C301.12 154.231 301.115 154.246 301.107 154.26C301.099 154.273 301.087 154.285 301.073 154.292C301.059 154.3 301.044 154.304 301.028 154.304H294.868C294.853 154.304 294.839 154.301 294.826 154.294C294.814 154.288 294.802 154.278 294.794 154.267C294.785 154.255 294.779 154.242 294.777 154.228C294.774 154.213 294.775 154.199 294.78 154.185C294.794 154.134 294.806 154.082 294.814 154.029C294.814 153.967 294.828 153.906 294.854 153.85C294.88 153.794 294.918 153.744 294.965 153.704C295.265 153.532 295.502 153.27 295.645 152.955C295.787 152.639 295.826 152.288 295.757 151.949C295.689 150.602 295.54 149.261 295.31 147.932C294.312 142.646 292.608 137.519 290.244 132.687C290.195 132.587 290.144 132.487 290.074 132.351C289.884 132.634 289.7 132.915 289.517 133.192C289.023 133.944 288.555 134.654 288.048 135.353C287.676 135.862 287.488 136.482 287.514 137.112C287.528 138.926 287.529 140.771 287.53 142.555C287.53 144.649 287.53 146.814 287.555 148.944C287.587 150.008 287.703 151.068 287.904 152.113C287.929 152.465 288.056 152.803 288.269 153.085C288.482 153.367 288.772 153.581 289.104 153.702C289.155 153.733 289.199 153.774 289.234 153.823C289.268 153.872 289.292 153.927 289.304 153.986C289.328 154.049 289.355 154.112 289.386 154.172C289.393 154.186 289.397 154.202 289.397 154.217C289.397 154.233 289.393 154.249 289.386 154.263C289.376 154.276 289.364 154.286 289.35 154.292C289.335 154.298 289.319 154.301 289.304 154.3L289.301 154.305ZM241.54 138.453C240.873 136.665 239.715 135.103 238.198 133.945C236.682 132.788 234.869 132.082 232.969 131.911C232.644 131.875 232.324 131.852 231.985 131.827L231.616 131.8V131.688C231.616 131.571 231.616 131.465 231.616 131.36L231.608 129.45C231.602 127.898 231.597 126.346 231.593 124.795C231.589 124.501 231.6 124.207 231.628 123.914C231.618 123.792 231.635 123.669 231.676 123.553C231.717 123.438 231.783 123.333 231.868 123.244C231.953 123.156 232.056 123.087 232.169 123.041C232.283 122.995 232.405 122.974 232.528 122.979C233.31 122.901 234.095 122.873 234.881 122.897C235.697 122.906 236.5 123.109 237.222 123.491C237.944 123.872 238.564 124.42 239.032 125.09C239.889 126.368 240.484 127.804 240.781 129.314C240.807 129.414 240.836 129.522 240.864 129.625L240.912 129.796C240.918 129.817 240.931 129.836 240.949 129.848C240.968 129.86 240.99 129.866 241.012 129.863C241.077 129.852 241.141 129.84 241.203 129.828C241.225 129.823 241.245 129.811 241.259 129.792C241.273 129.774 241.279 129.751 241.277 129.728C241.006 127.482 240.702 125.217 240.408 123.028C240.26 121.923 240.108 120.828 239.971 119.739C239.969 119.725 239.964 119.713 239.957 119.701C239.949 119.69 239.939 119.68 239.928 119.673C239.916 119.666 239.903 119.661 239.89 119.659C239.876 119.658 239.863 119.659 239.85 119.664C239.733 119.703 239.622 119.743 239.513 119.783C239.298 119.868 239.077 119.935 238.851 119.983C238.546 120.027 238.238 120.044 237.931 120.035H237.844C235.258 120.035 232.672 120.035 230.088 120.035H226.788C226.775 120.035 226.762 120.038 226.751 120.043C226.739 120.048 226.728 120.055 226.72 120.065L226.606 120.188C226.592 120.203 226.583 120.223 226.582 120.244C226.58 120.265 226.586 120.286 226.598 120.303C226.623 120.34 226.646 120.378 226.667 120.418C226.714 120.531 226.796 120.625 226.901 120.688C227.207 120.811 227.475 121.014 227.678 121.275C227.88 121.536 228.009 121.846 228.052 122.174L228.073 122.32C228.254 123.35 228.359 124.391 228.389 125.436C228.418 133.907 228.408 142.219 228.389 149.236C228.392 149.973 228.332 150.709 228.21 151.436C228.2 151.9 228.066 152.353 227.821 152.747C227.577 153.141 227.231 153.463 226.82 153.678C226.767 153.715 226.723 153.763 226.689 153.818C226.656 153.873 226.635 153.935 226.628 153.999C226.609 154.067 226.586 154.134 226.56 154.199C226.554 154.213 226.551 154.228 226.553 154.243C226.554 154.259 226.559 154.273 226.568 154.286C226.576 154.299 226.588 154.309 226.601 154.316C226.615 154.323 226.63 154.327 226.645 154.327H228.102H229.482C230.082 154.327 230.682 154.327 231.275 154.32C231.702 154.32 232.13 154.32 232.555 154.32C233.768 154.32 235.019 154.32 236.246 154.22C237.319 154.167 238.359 153.831 239.261 153.246C240.162 152.661 240.892 151.848 241.378 150.889C241.958 149.785 242.334 148.585 242.488 147.348C243.012 144.353 242.684 141.27 241.54 138.453ZM238.714 148.041C238.422 148.777 238.028 149.469 237.544 150.095C237.087 150.691 236.486 151.161 235.796 151.459C235.106 151.756 234.352 151.872 233.605 151.795L233.315 151.78C233.03 151.766 232.736 151.752 232.451 151.716C232.253 151.704 232.067 151.617 231.93 151.473C231.793 151.33 231.716 151.139 231.714 150.941C231.659 150.471 231.628 150 231.622 149.527C231.616 145.354 231.615 141.18 231.617 137.007V134.618C231.617 134.54 231.622 134.463 231.627 134.369V134.306H231.687C232.861 134.267 234.026 134.539 235.061 135.096C236.096 135.652 236.965 136.473 237.58 137.475C238.477 138.888 239.033 140.489 239.205 142.154C239.562 144.125 239.393 146.156 238.714 148.041ZM155.332 154.4H149.599C149.568 154.4 149.538 154.392 149.511 154.378C149.484 154.363 149.461 154.342 149.444 154.316C149.427 154.29 149.417 154.26 149.415 154.229C149.413 154.199 149.419 154.168 149.432 154.14C149.454 154.086 149.474 154.03 149.491 153.974C149.501 153.897 149.53 153.823 149.573 153.759C149.617 153.695 149.676 153.642 149.744 153.604C150.038 153.481 150.289 153.272 150.463 153.005C150.638 152.737 150.727 152.423 150.721 152.104L150.734 151.997C150.867 151.007 150.946 150.011 150.97 149.013C150.992 144.668 150.993 140.251 150.995 135.979V132.449C150.995 132.401 150.995 132.354 150.988 132.303H144.25V132.595C144.25 133.995 144.25 135.398 144.25 136.804C144.25 140.81 144.25 144.953 144.277 149.027C144.316 150.159 144.438 151.287 144.644 152.401C144.667 152.663 144.761 152.914 144.915 153.127C145.07 153.34 145.279 153.507 145.521 153.611C145.584 153.648 145.639 153.698 145.682 153.757C145.725 153.817 145.755 153.885 145.77 153.957C145.791 154.018 145.816 154.078 145.844 154.136C145.858 154.164 145.864 154.195 145.863 154.227C145.861 154.258 145.852 154.289 145.835 154.316C145.818 154.342 145.795 154.364 145.768 154.38C145.74 154.395 145.709 154.403 145.678 154.403H139.915C139.885 154.403 139.856 154.396 139.83 154.383C139.804 154.369 139.781 154.35 139.764 154.326C139.747 154.302 139.736 154.274 139.731 154.245C139.727 154.216 139.73 154.187 139.74 154.159C139.757 154.104 139.771 154.049 139.783 153.993C139.787 153.918 139.808 153.845 139.844 153.78C139.879 153.714 139.928 153.656 139.988 153.611C140.353 153.373 140.651 153.044 140.851 152.656C141.052 152.269 141.149 151.836 141.132 151.4C141.253 150.178 141.312 148.95 141.309 147.722C141.326 140.375 141.336 133.746 141.301 127.004C141.292 125.532 141.142 124.028 140.996 122.575L140.957 122.181C140.934 121.896 140.84 121.621 140.682 121.381C140.525 121.142 140.31 120.947 140.057 120.813C139.936 120.728 139.847 120.604 139.806 120.462C139.78 120.403 139.753 120.338 139.716 120.272C139.701 120.244 139.693 120.212 139.694 120.18C139.694 120.148 139.703 120.117 139.719 120.09C139.736 120.062 139.759 120.039 139.787 120.023C139.814 120.007 139.846 119.999 139.878 119.999H145.651C145.68 119.999 145.71 120.006 145.736 120.02C145.762 120.033 145.785 120.053 145.802 120.077C145.819 120.102 145.83 120.13 145.834 120.159C145.838 120.188 145.835 120.218 145.825 120.246C145.808 120.295 145.794 120.345 145.782 120.396C145.776 120.472 145.753 120.545 145.715 120.61C145.677 120.676 145.624 120.732 145.561 120.774C145.224 120.955 144.944 121.225 144.751 121.556C144.558 121.886 144.46 122.263 144.468 122.645C144.348 123.582 144.284 124.525 144.276 125.469C144.255 126.41 144.26 127.332 144.265 128.309C144.265 128.675 144.265 129.042 144.265 129.409H150.983L150.95 127.957C150.912 126.282 150.874 124.549 150.798 122.846C150.752 122.367 150.616 121.9 150.398 121.471C150.301 121.304 150.172 121.157 150.02 121.039C149.928 120.956 149.836 120.872 149.756 120.783C149.673 120.687 149.596 120.587 149.525 120.483C149.483 120.425 149.436 120.361 149.381 120.283C149.359 120.255 149.345 120.222 149.342 120.188C149.338 120.153 149.344 120.118 149.36 120.086C149.375 120.055 149.399 120.028 149.429 120.01C149.459 119.992 149.494 119.982 149.529 119.983H155.342C155.373 119.983 155.404 119.991 155.431 120.006C155.458 120.021 155.481 120.043 155.498 120.069C155.514 120.095 155.524 120.125 155.526 120.157C155.528 120.188 155.522 120.219 155.509 120.247C155.484 120.303 155.462 120.36 155.443 120.418C155.429 120.492 155.4 120.563 155.358 120.626C155.316 120.688 155.262 120.742 155.199 120.784C154.898 120.935 154.645 121.168 154.471 121.456C154.296 121.745 154.206 122.076 154.212 122.413L154.18 122.769C154.068 124.019 153.952 125.311 153.946 126.578C153.918 133.678 153.918 140.692 153.946 147.43C153.961 148.909 154.055 150.387 154.227 151.856C154.221 152.211 154.312 152.561 154.489 152.869C154.665 153.177 154.922 153.432 155.232 153.606C155.293 153.649 155.344 153.705 155.382 153.77C155.42 153.834 155.443 153.906 155.451 153.981C155.465 154.038 155.482 154.094 155.502 154.149C155.512 154.177 155.516 154.207 155.513 154.236C155.509 154.266 155.499 154.294 155.482 154.319C155.465 154.343 155.443 154.364 155.417 154.378C155.391 154.392 155.362 154.399 155.332 154.4ZM261.782 154.17C261.759 154.108 261.742 154.045 261.726 153.987C261.71 153.863 261.652 153.747 261.561 153.661C261.257 153.426 261.004 153.132 260.815 152.798C260.626 152.464 260.506 152.095 260.461 151.714C259.861 148.667 259.078 144.655 258.325 140.646C257.249 134.927 256.379 130.22 255.586 125.833C255.392 124.767 255.244 123.613 255.106 122.093C255.082 121.831 255.123 121.567 255.227 121.325C255.33 121.083 255.492 120.87 255.698 120.706C255.787 120.615 255.849 120.5 255.876 120.376C255.897 120.313 255.92 120.244 255.951 120.176C255.957 120.162 255.959 120.147 255.958 120.131C255.956 120.116 255.951 120.102 255.943 120.089C255.934 120.076 255.923 120.066 255.909 120.059C255.896 120.052 255.881 120.048 255.866 120.048H254.666C253.053 120.048 251.497 120.048 249.941 120.055C249.872 120.058 249.806 120.08 249.751 120.12C249.695 120.16 249.652 120.215 249.628 120.279C249.617 120.351 249.624 120.425 249.649 120.494C249.674 120.562 249.715 120.624 249.769 120.673C250.033 120.845 250.238 121.092 250.357 121.384C250.477 121.675 250.505 121.995 250.438 122.303C250.365 123.232 250.24 124.157 250.063 125.072L250.049 125.143C248.549 132.625 246.996 140.361 245.425 147.959C245.181 149.143 244.825 150.327 244.481 151.472C244.382 151.799 244.284 152.127 244.188 152.454C244.112 152.708 243.985 152.944 243.814 153.147C243.643 153.349 243.432 153.515 243.194 153.632C243.08 153.712 242.992 153.825 242.943 153.955C242.908 154.021 242.871 154.093 242.824 154.167C242.815 154.181 242.81 154.197 242.809 154.213C242.808 154.23 242.812 154.246 242.82 154.261C242.828 154.275 242.84 154.287 242.854 154.296C242.868 154.304 242.884 154.309 242.901 154.309H248.672C248.688 154.308 248.704 154.303 248.718 154.295C248.732 154.287 248.744 154.275 248.753 154.261C248.761 154.247 248.766 154.23 248.766 154.214C248.766 154.197 248.761 154.181 248.753 154.167C248.71 154.098 248.676 154.032 248.645 153.967C248.603 153.849 248.524 153.748 248.421 153.679C248.159 153.545 247.93 153.357 247.748 153.126C247.566 152.896 247.436 152.628 247.367 152.343C247.105 151.466 247.068 150.538 247.259 149.643C247.693 147.109 248.165 144.523 248.621 142.022C248.797 141.061 248.973 140.094 249.149 139.122L249.361 139.137C249.521 139.144 249.68 139.16 249.839 139.184C251.005 139.395 252.072 139.976 252.883 140.84C254.223 142.214 255.25 143.863 255.893 145.672C256.536 147.482 256.779 149.409 256.606 151.321C256.625 151.778 256.53 152.234 256.332 152.646C256.133 153.059 255.835 153.416 255.466 153.686C255.42 153.728 255.384 153.78 255.36 153.837C255.336 153.895 255.325 153.957 255.328 154.019C255.322 154.071 255.313 154.123 255.302 154.175C255.298 154.188 255.298 154.203 255.3 154.216C255.303 154.23 255.309 154.243 255.318 154.254C255.327 154.265 255.338 154.274 255.35 154.28C255.363 154.286 255.377 154.289 255.391 154.29H261.697C261.712 154.29 261.727 154.286 261.74 154.279C261.753 154.273 261.764 154.262 261.773 154.25C261.78 154.238 261.785 154.225 261.787 154.211C261.788 154.197 261.787 154.183 261.782 154.17ZM249.642 136.363L252.071 124.353L252.814 128.371C253.526 132.23 254.24 136.089 254.954 139.947C253.824 138.242 252.286 136.585 249.642 136.363ZM186.15 154.146C186.125 154.084 186.108 154.021 186.09 153.961C186.062 153.81 185.989 153.671 185.882 153.561C185.481 153.214 185.214 152.738 185.126 152.215C184.779 150.382 184.469 148.729 184.195 147.045C183.811 144.712 183.437 142.376 183.071 140.037C182.889 138.893 182.71 137.751 182.532 136.61L182.061 133.663C181.661 131.168 181.266 128.672 180.878 126.177C180.663 124.791 180.507 123.536 180.401 122.342C180.358 122.058 180.383 121.767 180.474 121.494C180.565 121.221 180.719 120.974 180.924 120.772C181.017 120.664 181.073 120.529 181.084 120.387C181.094 120.333 181.104 120.277 181.12 120.221C181.128 120.193 181.129 120.164 181.124 120.136C181.119 120.108 181.107 120.081 181.09 120.059C181.072 120.036 181.05 120.017 181.024 120.004C180.999 119.992 180.97 119.985 180.942 119.985H175.597C175.566 119.985 175.536 119.993 175.509 120.007C175.482 120.022 175.459 120.043 175.442 120.068C175.425 120.094 175.415 120.123 175.412 120.154C175.41 120.184 175.415 120.215 175.427 120.243C175.453 120.303 175.473 120.363 175.492 120.419C175.524 120.562 175.598 120.693 175.704 120.795C175.854 120.911 175.975 121.061 176.057 121.232C176.139 121.403 176.18 121.591 176.177 121.781C176.206 122.319 176.188 122.859 176.122 123.394C175.776 125.613 175.397 127.92 174.994 130.252L174.632 132.386C173.732 137.56 172.813 142.911 171.868 148.167C171.58 149.647 171.216 151.11 170.776 152.552C170.671 152.804 170.511 153.03 170.31 153.214C170.202 153.332 170.093 153.45 170.001 153.572C169.924 153.672 169.855 153.783 169.772 153.915L169.652 154.104C169.634 154.132 169.624 154.164 169.623 154.197C169.621 154.231 169.629 154.264 169.645 154.293C169.661 154.322 169.685 154.346 169.713 154.363C169.742 154.38 169.775 154.389 169.808 154.389H174.808C174.84 154.389 174.871 154.381 174.899 154.365C174.927 154.35 174.95 154.327 174.966 154.3C174.983 154.272 174.992 154.241 174.993 154.209C174.993 154.178 174.986 154.146 174.971 154.118C174.941 154.06 174.914 154.001 174.891 153.94C174.855 153.801 174.768 153.681 174.648 153.603C174.404 153.463 174.197 153.268 174.041 153.035C173.884 152.801 173.784 152.535 173.748 152.256C173.519 151.033 173.536 149.778 173.8 148.562C174.078 146.701 174.391 144.813 174.694 142.987C174.799 142.352 174.904 141.719 175.009 141.087C175.084 140.637 175.165 140.187 175.246 139.736L175.334 139.236C176.26 139.324 177.128 139.728 177.793 140.38C179.106 141.648 180.075 143.228 180.612 144.972C181.394 147.041 181.689 149.263 181.473 151.464C181.479 151.865 181.402 152.262 181.245 152.631C181.089 153 180.857 153.331 180.564 153.605C180.458 153.709 180.398 153.85 180.395 153.998C180.387 154.054 180.377 154.109 180.363 154.163C180.355 154.19 180.354 154.219 180.359 154.247C180.364 154.275 180.376 154.302 180.393 154.325C180.411 154.347 180.433 154.366 180.458 154.379C180.484 154.391 180.512 154.398 180.541 154.398H185.974C186.004 154.399 186.034 154.392 186.061 154.378C186.088 154.364 186.112 154.344 186.129 154.319C186.146 154.294 186.157 154.265 186.161 154.235C186.165 154.205 186.161 154.174 186.15 154.146ZM179.91 139.434C179.488 138.828 179.036 138.245 178.555 137.685C177.829 136.878 176.82 136.382 175.738 136.3L177.703 125.01L180.018 139.583L179.91 139.434ZM139.244 154.157C139.225 154.097 139.21 154.036 139.198 153.975C139.183 153.825 139.118 153.684 139.013 153.575C138.541 153.153 138.239 152.574 138.164 151.945C137.908 150.613 137.638 149.181 137.402 147.745C136.975 145.11 136.555 142.473 136.141 139.835L135.665 136.83C135.485 135.697 135.304 134.563 135.122 133.43C134.722 130.923 134.304 128.33 133.914 125.778C133.714 124.478 133.597 123.166 133.514 122.165C133.487 121.916 133.516 121.664 133.599 121.427C133.681 121.191 133.816 120.976 133.993 120.798C134.089 120.682 134.146 120.539 134.157 120.389C134.167 120.334 134.177 120.276 134.193 120.218C134.2 120.191 134.201 120.162 134.196 120.134C134.19 120.106 134.178 120.08 134.161 120.057C134.143 120.035 134.121 120.016 134.096 120.004C134.07 119.991 134.042 119.985 134.014 119.985H128.69C128.658 119.985 128.627 119.993 128.599 120.009C128.571 120.024 128.548 120.047 128.531 120.074C128.515 120.101 128.506 120.132 128.505 120.164C128.504 120.196 128.511 120.228 128.526 120.256L128.626 120.456C128.693 120.585 128.747 120.689 128.807 120.793C128.856 120.879 128.917 120.963 128.977 121.048C129.085 121.174 129.164 121.322 129.21 121.482C129.299 122.005 129.313 122.539 129.253 123.066C128.926 125.271 128.553 127.572 128.118 130.1L127.752 132.223C126.863 137.386 125.943 142.723 124.999 147.967C124.726 149.467 124.333 150.9 123.846 152.612C123.75 152.841 123.605 153.046 123.421 153.212C123.315 153.322 123.214 153.438 123.121 153.559C123.039 153.674 122.962 153.793 122.893 153.916L122.775 154.116C122.758 154.144 122.748 154.176 122.748 154.209C122.747 154.242 122.756 154.274 122.772 154.303C122.788 154.331 122.811 154.355 122.839 154.372C122.868 154.388 122.9 154.397 122.933 154.397H127.874C127.905 154.397 127.936 154.389 127.963 154.374C127.99 154.359 128.013 154.337 128.03 154.311C128.046 154.285 128.056 154.254 128.058 154.223C128.06 154.192 128.054 154.161 128.041 154.133C128.012 154.072 127.99 154.011 127.969 153.955C127.939 153.814 127.857 153.691 127.739 153.609C127.505 153.467 127.306 153.275 127.154 153.048C127.002 152.821 126.901 152.563 126.859 152.293C126.617 151.05 126.631 149.772 126.902 148.535L126.931 148.335C127.161 146.753 127.431 145.149 127.69 143.598C127.779 143.065 127.868 142.533 127.956 142.004C128.072 141.304 128.194 140.604 128.316 139.904L128.428 139.255C128.457 139.252 128.486 139.252 128.515 139.255C128.611 139.262 128.706 139.275 128.8 139.295C129.442 139.439 130.049 139.712 130.584 140.096C131.119 140.481 131.57 140.969 131.912 141.532C133.972 144.437 134.916 147.987 134.57 151.532C134.58 151.925 134.504 152.316 134.347 152.676C134.19 153.037 133.956 153.359 133.661 153.619C133.608 153.673 133.567 153.737 133.542 153.808C133.516 153.879 133.506 153.955 133.512 154.03C133.509 154.083 133.503 154.136 133.495 154.188C133.49 154.215 133.49 154.242 133.497 154.269C133.504 154.295 133.516 154.32 133.534 154.341C133.551 154.362 133.573 154.379 133.598 154.39C133.623 154.402 133.649 154.408 133.677 154.408H139.059C139.088 154.408 139.117 154.401 139.143 154.388C139.169 154.375 139.191 154.356 139.209 154.332C139.229 154.308 139.243 154.28 139.249 154.249C139.255 154.218 139.253 154.187 139.244 154.157ZM128.844 136.292C129.502 132.521 130.156 128.757 130.806 125L133.106 139.455C132.688 138.635 132.086 137.922 131.347 137.373C130.607 136.825 129.75 136.454 128.844 136.292ZM112.386 154.4H108.195C108.146 154.4 108.099 154.38 108.064 154.346C108.029 154.311 108.01 154.264 108.01 154.215C108.01 153.877 108.01 153.542 108.001 153.208C107.992 152.508 107.982 151.788 108.017 151.081L108.049 150.453C108.149 148.553 108.249 146.586 108.441 144.659C108.77 141.449 109.151 138.321 109.572 135.359C110.115 131.642 110.951 127.975 112.072 124.39C112.368 123.449 112.409 122.446 112.19 121.484C112.135 121.318 112.051 121.163 111.941 121.028C111.876 120.935 111.812 120.843 111.758 120.747C111.704 120.651 111.658 120.547 111.602 120.432L111.517 120.251C111.503 120.223 111.497 120.192 111.499 120.161C111.501 120.129 111.511 120.099 111.528 120.073C111.544 120.047 111.567 120.025 111.595 120.01C111.622 119.995 111.653 119.987 111.684 119.987H122.212C122.243 119.987 122.273 119.995 122.3 120.01C122.328 120.025 122.351 120.046 122.367 120.072C122.384 120.098 122.394 120.128 122.396 120.159C122.398 120.19 122.393 120.221 122.38 120.249C122.351 120.311 122.33 120.375 122.31 120.434C122.28 120.581 122.198 120.713 122.079 120.805C121.771 120.994 121.516 121.259 121.339 121.574C121.161 121.889 121.067 122.244 121.065 122.605C120.919 123.703 120.836 124.809 120.816 125.917C120.792 134.301 120.793 141.809 120.816 148.868C120.846 149.986 120.957 151.101 121.147 152.204C121.179 152.489 121.279 152.763 121.438 153.001C121.597 153.24 121.811 153.438 122.062 153.577C122.186 153.666 122.273 153.797 122.307 153.946C122.328 154.004 122.351 154.067 122.381 154.128C122.394 154.156 122.4 154.187 122.399 154.219C122.397 154.25 122.387 154.28 122.37 154.307C122.354 154.333 122.331 154.355 122.303 154.37C122.276 154.385 122.245 154.393 122.214 154.393H116.494C116.466 154.393 116.438 154.387 116.413 154.374C116.388 154.362 116.366 154.345 116.348 154.323C116.331 154.301 116.319 154.275 116.313 154.248C116.307 154.22 116.307 154.192 116.314 154.165C116.322 154.125 116.329 154.085 116.333 154.044C116.328 153.972 116.342 153.899 116.374 153.834C116.405 153.769 116.453 153.713 116.512 153.671C116.869 153.459 117.163 153.155 117.363 152.79C117.562 152.426 117.661 152.015 117.649 151.6C117.771 150.826 117.831 150.043 117.83 149.259C117.846 140.674 117.846 133.095 117.83 126.087C117.82 125.341 117.736 124.598 117.579 123.869C117.536 123.626 117.434 123.397 117.281 123.203C117.129 123.009 116.931 122.855 116.705 122.756C116.455 122.66 116.186 122.627 115.921 122.66C115.655 122.693 115.402 122.791 115.184 122.945C114.633 123.297 114.218 123.826 114.007 124.445C113.514 125.877 112.955 127.501 112.552 129.102C111.625 132.798 111.022 136.569 110.752 140.37C110.532 143.423 110.432 145.968 110.432 148.372C110.473 149.428 110.628 150.477 110.896 151.5C110.938 151.686 110.979 151.872 111.019 152.058C111.079 152.385 111.216 152.694 111.417 152.958C111.619 153.223 111.88 153.436 112.18 153.581C112.305 153.66 112.398 153.78 112.442 153.921C112.472 153.989 112.505 154.056 112.542 154.121C112.559 154.149 112.568 154.18 112.568 154.213C112.569 154.245 112.561 154.277 112.545 154.306C112.529 154.334 112.506 154.358 112.478 154.374C112.45 154.391 112.418 154.4 112.386 154.4ZM166.272 154.4H160.5C160.467 154.4 160.435 154.391 160.406 154.375C160.378 154.358 160.355 154.334 160.339 154.306C160.323 154.277 160.314 154.245 160.315 154.212C160.315 154.179 160.325 154.147 160.342 154.119C160.376 154.061 160.407 154.001 160.435 153.939C160.455 153.869 160.49 153.804 160.537 153.748C160.585 153.692 160.643 153.646 160.709 153.614C160.95 153.542 161.163 153.398 161.321 153.202C161.478 153.005 161.571 152.765 161.588 152.514L161.626 152.214C161.784 151.145 161.877 150.067 161.905 148.987C161.927 142.379 161.927 135.664 161.928 129.169V123.224C161.928 123.155 161.923 123.086 161.916 123.006C161.111 123.001 160.323 123.235 159.652 123.678C158.573 124.453 157.794 125.575 157.445 126.856C157.245 127.442 157.089 128.056 156.938 128.656C156.869 128.926 156.801 129.197 156.728 129.466C156.708 129.543 156.685 129.621 156.661 129.7L156.627 129.814C156.614 129.859 156.584 129.898 156.543 129.922C156.503 129.946 156.455 129.953 156.409 129.943C156.36 129.932 156.309 129.923 156.263 129.914C156.217 129.906 156.176 129.88 156.149 129.843C156.121 129.806 156.108 129.76 156.113 129.714C156.49 126.38 156.867 123.045 157.232 119.808C157.235 119.781 157.244 119.755 157.258 119.732C157.272 119.709 157.291 119.69 157.314 119.675C157.336 119.66 157.362 119.65 157.389 119.646C157.416 119.642 157.443 119.644 157.469 119.652C157.601 119.691 157.726 119.737 157.848 119.782C158.051 119.873 158.267 119.929 158.489 119.948C161.945 119.971 165.154 119.971 168.297 119.948C168.522 119.927 168.743 119.868 168.948 119.772C169.069 119.725 169.191 119.678 169.315 119.64C169.341 119.632 169.368 119.63 169.395 119.634C169.422 119.638 169.448 119.647 169.47 119.662C169.493 119.677 169.512 119.697 169.526 119.72C169.541 119.743 169.55 119.769 169.553 119.796L170.671 129.722C170.675 129.769 170.661 129.816 170.632 129.854C170.602 129.891 170.56 129.915 170.513 129.922L170.346 129.948C170.3 129.955 170.253 129.944 170.215 129.917C170.177 129.891 170.15 129.851 170.14 129.806L170.04 129.349C169.973 129.049 169.905 128.743 169.829 128.442C169.556 127.093 169.006 125.815 168.214 124.69C167.827 124.17 167.324 123.747 166.746 123.454C166.169 123.161 165.531 123.006 164.883 123C164.876 123.1 164.87 123.2 164.87 123.3V129.259C164.87 135.794 164.87 142.552 164.891 149.198C164.909 150.228 165.003 151.255 165.174 152.271C165.176 152.569 165.269 152.86 165.44 153.104C165.611 153.349 165.852 153.536 166.132 153.64C166.198 153.675 166.255 153.725 166.299 153.787C166.342 153.848 166.371 153.919 166.382 153.993C166.399 154.044 166.417 154.098 166.44 154.149C166.45 154.177 166.454 154.206 166.451 154.236C166.447 154.265 166.437 154.293 166.421 154.318C166.404 154.342 166.382 154.363 166.356 154.377C166.33 154.391 166.301 154.399 166.272 154.4Z" fill="#2A2A2C"/>
<path fill-rule="evenodd" clip-rule="evenodd" d="M214.031 154.195C214.047 154.245 214.065 154.295 214.082 154.342C214.562 154.283 215.05 154.249 215.523 154.153C215.708 154.127 215.876 154.033 215.995 153.89C216.114 153.747 216.176 153.564 216.168 153.378C216.194 152.769 216.144 152.159 216.018 151.562C215.723 150.514 215.361 149.487 214.934 148.485C214.406 147.289 214.358 145.936 214.799 144.705C215.65 142.198 216.436 139.67 217.265 137.156C218.039 134.807 218.845 132.466 219.619 130.119C219.909 129.415 220.037 128.655 219.996 127.895C219.954 127.135 219.743 126.394 219.378 125.726C218.615 124.42 217.864 123.11 217.106 121.798C217.069 121.72 217.035 121.64 217.006 121.558C216.889 121.66 216.806 121.794 216.767 121.944C216.614 122.805 216.467 123.665 216.322 124.527C215.87 127.213 215.484 129.912 214.954 132.58C214.07 137.004 213.13 141.417 212.134 145.817C211.926 146.476 211.913 147.181 212.095 147.848C212.278 148.514 212.649 149.114 213.163 149.575C213.688 150.119 214.127 150.739 214.463 151.416C214.694 151.826 214.789 152.299 214.733 152.767C214.678 153.234 214.474 153.672 214.153 154.016C214.109 154.072 214.073 154.132 214.032 154.191M198.017 154.231C197.796 153.852 197.602 153.458 197.435 153.052C197.326 152.618 197.325 152.164 197.434 151.73C197.543 151.296 197.757 150.895 198.058 150.564C198.505 149.938 199.033 149.37 199.536 148.786C199.797 148.498 199.982 148.15 200.077 147.774C200.172 147.397 200.172 147.003 200.079 146.626C199.579 144.326 199.079 142.019 198.604 139.708C197.956 136.543 197.304 133.377 196.712 130.199C196.206 127.48 195.787 124.743 195.327 122.016C195.301 121.869 195.247 121.73 195.185 121.502C195.09 121.61 195.001 121.722 194.918 121.84C194.193 123.085 193.455 124.323 192.76 125.584C192.5 126.057 192.301 126.561 192.168 127.084C191.979 128.109 192.085 129.167 192.475 130.133C194.035 134.889 195.575 139.651 197.188 144.39C197.459 145.074 197.586 145.806 197.561 146.541C197.536 147.276 197.36 147.998 197.043 148.661C196.895 148.961 196.781 149.278 196.643 149.582C196.196 150.598 195.931 151.685 195.859 152.792C195.812 152.971 195.808 153.159 195.848 153.339C195.889 153.52 195.972 153.688 196.092 153.83C196.211 153.971 196.363 154.082 196.534 154.152C196.705 154.222 196.891 154.25 197.075 154.233C197.386 154.26 197.704 154.233 198.018 154.233M213.57 69.2002C213.136 69.8002 212.761 70.3732 212.335 70.9002C211.564 71.7366 210.96 72.7137 210.558 73.7782C210.458 74.0962 210.277 74.1302 209.992 74.0072C209.512 73.8002 209.019 73.6282 208.534 73.4312C207.75 73.0997 206.907 72.9276 206.055 72.925C205.204 72.9224 204.36 73.0894 203.573 73.4162C203.087 73.6112 202.595 73.7832 202.117 73.9952C202.062 74.0369 201.997 74.0631 201.928 74.071C201.859 74.0789 201.79 74.0683 201.727 74.0402C201.663 74.0121 201.609 73.9676 201.569 73.9113C201.529 73.8551 201.504 73.789 201.498 73.7202C201.36 73.2907 201.168 72.8807 200.925 72.5002C200.154 71.4002 199.331 70.3342 198.52 69.2342C198.06 69.9342 197.56 70.6492 197.114 71.3942C196.944 71.6516 196.833 71.943 196.787 72.2479C196.741 72.5529 196.763 72.8642 196.849 73.1602C197.492 75.2002 198.441 75.7412 200.049 75.8682C200.411 75.8962 200.774 75.9132 201.133 75.9682C201.24 76.0228 201.334 76.1003 201.408 76.1952C201.333 76.2733 201.246 76.3406 201.152 76.3952C201.031 76.4426 200.9 76.4627 200.77 76.4542C199.979 76.3842 199.181 76.3422 198.397 76.2122C197.647 76.0892 197.437 76.1672 197.314 76.9172C197.133 78.2071 197.298 79.5221 197.792 80.7272C198.029 81.3652 198.222 82.0272 198.392 82.6802C198.446 82.8722 198.438 83.0763 198.369 83.2634C198.3 83.4506 198.174 83.6114 198.009 83.7232C197.687 83.9712 197.364 84.2232 197.066 84.4992C196.768 84.7752 196.804 84.9432 197.145 85.1472C198.12 85.7436 198.903 86.6071 199.402 87.6352C199.706 88.2312 200.004 88.8312 200.294 89.4352C201.505 91.9262 203.347 93.4082 206.247 93.3242C207.249 93.3365 208.236 93.0791 209.104 92.5789C209.972 92.0787 210.69 91.3541 211.181 90.4812C211.735 89.5592 212.188 88.5812 212.688 87.6242C213.187 86.6127 213.959 85.7613 214.917 85.1662C215.286 84.9432 215.317 84.7802 215.004 84.4922C214.717 84.2262 214.404 83.9822 214.095 83.7452C213.922 83.6321 213.79 83.4665 213.718 83.2726C213.646 83.0787 213.638 82.8669 213.695 82.6682C213.871 82.0102 214.067 81.3542 214.303 80.7162C214.785 79.5378 214.95 78.2542 214.784 76.9922C214.653 76.1472 214.484 76.1042 213.633 76.2382C212.787 76.3505 211.936 76.4173 211.082 76.4382C210.93 76.388 210.793 76.3011 210.682 76.1852C210.811 76.0883 210.954 76.013 211.107 75.9622C211.45 75.9062 211.801 75.9002 212.147 75.8712C212.86 75.8485 213.545 75.5911 214.096 75.139C214.647 74.6869 215.033 74.0654 215.194 73.3712C215.294 73.1032 215.337 72.8176 215.321 72.5322C215.305 72.2468 215.231 71.9677 215.103 71.7122C214.618 70.8572 214.079 70.0352 213.573 69.2122M199.779 90.1442C199.479 90.5962 199.2 90.9642 198.972 91.3612C197.668 93.772 196.658 96.3311 195.965 98.9832C195.276 101.154 194.876 103.407 194.776 105.683C194.658 109.446 194.86 113.213 195.382 116.941C195.911 120.501 196.331 124.083 197 127.616C198.176 133.808 199.493 139.977 200.775 146.151C200.945 146.726 200.962 147.335 200.823 147.919C200.684 148.502 200.394 149.038 199.982 149.474C199.51 149.968 199.082 150.511 198.629 151.018C198.416 151.26 198.265 151.551 198.188 151.864C198.112 152.178 198.112 152.505 198.189 152.818C198.266 153.214 198.476 153.572 198.783 153.833C199.091 154.093 199.478 154.241 199.881 154.252C201.405 154.262 202.934 154.252 204.458 154.252C205.458 154.252 205.595 154.1 205.632 153.081C205.632 152.993 205.632 152.906 205.632 152.818C205.632 151.636 205.623 150.454 205.623 149.272C205.615 140.108 205.608 130.941 205.6 121.772C205.6 121.249 205.708 121.16 206.164 121.236C206.503 121.293 206.464 121.536 206.464 121.766C206.452 132.128 206.441 142.49 206.43 152.853C206.434 153.159 206.465 153.463 206.523 153.763C206.53 153.836 206.551 153.907 206.585 153.972C206.619 154.037 206.665 154.095 206.722 154.142C206.778 154.189 206.843 154.224 206.913 154.246C206.984 154.267 207.057 154.275 207.13 154.268C208.93 154.268 210.73 154.285 212.53 154.286C212.69 154.294 212.849 154.253 212.984 154.167C213.225 154.008 213.43 153.8 213.587 153.558C213.744 153.315 213.849 153.043 213.896 152.758C213.943 152.473 213.931 152.182 213.86 151.902C213.789 151.622 213.661 151.359 213.484 151.131C212.95 150.477 212.401 149.831 211.843 149.202C211.53 148.834 211.312 148.394 211.207 147.922C211.103 147.45 211.115 146.959 211.243 146.493C211.428 145.549 211.657 144.617 211.843 143.675C213.21 136.953 214.77 130.275 215.743 123.475C216.506 119.212 217.007 114.907 217.243 110.583C217.351 108.427 217.317 106.266 217.143 104.114C216.633 100.088 215.464 96.1739 213.684 92.5272C213.311 91.7272 212.811 90.9952 212.308 90.1192C210.892 92.7192 208.919 94.1632 206.021 94.1532C203.123 94.1432 201.151 92.7062 199.764 90.1532M213.803 64.9932C213.813 65.0189 213.829 65.0417 213.85 65.0592C215.15 65.4122 215.011 66.7832 214.403 67.6192C214.257 67.7837 214.167 67.9911 214.147 68.2106C214.127 68.4302 214.179 68.6502 214.294 68.8382C214.705 69.5262 215.121 70.2092 215.506 70.9122C215.785 71.3418 215.964 71.8288 216.028 72.3369C216.093 72.8451 216.043 73.3613 215.88 73.8472C215.837 74.0174 215.763 74.1786 215.663 74.3232C215.448 74.5882 215.31 74.9072 215.263 75.2453C215.217 75.5834 215.264 75.9279 215.399 76.2412C215.857 77.827 215.722 79.5253 215.02 81.0192C214.845 81.3842 214.714 81.7732 214.572 82.1562C214.51 82.3357 214.491 82.5276 214.518 82.7159C214.545 82.9041 214.616 83.0832 214.726 83.2382C214.77 83.3475 214.834 83.4472 214.916 83.5314C214.999 83.6156 215.097 83.6826 215.205 83.7286C215.313 83.7746 215.43 83.7985 215.547 83.7992C215.665 83.7998 215.781 83.777 215.89 83.7322C216.797 83.5092 217.036 83.7512 216.856 84.6772C216.836 84.8946 216.833 85.1133 216.848 85.3312C216.86 85.4113 216.853 85.4931 216.827 85.5699C216.801 85.6467 216.758 85.7163 216.7 85.7728C216.642 85.8294 216.571 85.8713 216.493 85.8952C216.416 85.9191 216.334 85.9242 216.254 85.9102C215.881 85.7965 215.479 85.8138 215.117 85.9593C214.754 86.1048 214.453 86.3697 214.261 86.7102C213.711 87.4936 213.218 88.3157 212.786 89.1702C212.76 89.2339 212.75 89.3028 212.756 89.3712C212.762 89.4397 212.784 89.5058 212.82 89.5642C215.185 92.7162 216.174 96.4452 217.195 100.152C217.953 103.109 218.26 106.162 218.108 109.21C218.013 112.724 217.684 116.227 217.124 119.697C217.075 120.059 217.163 120.427 217.371 120.727C218.238 122.176 219.099 123.629 219.953 125.086C220.404 125.84 220.681 126.684 220.765 127.558C220.85 128.432 220.738 129.314 220.439 130.139C218.819 135.061 217.203 139.983 215.591 144.907C215.53 145.088 215.491 145.276 215.427 145.452C215.156 146.226 215.196 147.076 215.538 147.821C216.05 149.181 216.49 150.566 216.856 151.972C216.964 152.515 216.96 153.073 216.843 153.614C216.832 153.813 216.78 154.007 216.691 154.185C216.602 154.364 216.478 154.522 216.326 154.65C216.173 154.778 215.997 154.874 215.806 154.932C215.615 154.99 215.415 155.008 215.217 154.985C213.474 155.004 211.731 154.996 209.987 154.995C209.116 154.995 208.241 154.967 207.371 154.982C207.094 155.004 206.817 154.941 206.577 154.802C206.336 154.663 206.144 154.454 206.024 154.203C205.931 154.408 205.784 154.583 205.597 154.709C205.411 154.835 205.194 154.907 204.969 154.917C202.28 154.925 199.592 154.937 196.903 154.926C196.67 154.947 196.435 154.916 196.215 154.837C195.994 154.758 195.794 154.632 195.627 154.468C195.46 154.304 195.33 154.106 195.247 153.887C195.164 153.668 195.13 153.434 195.146 153.2C195.118 152.001 195.339 150.81 195.794 149.7C196.056 148.928 196.355 148.169 196.667 147.415C196.888 146.934 196.924 146.389 196.767 145.883C196.015 143.543 195.259 141.202 194.499 138.863C193.554 135.955 192.602 133.05 191.644 130.147C191.338 129.309 191.223 128.412 191.309 127.524C191.394 126.635 191.676 125.777 192.136 125.012C192.992 123.556 193.849 122.099 194.72 120.653C194.925 120.335 194.999 119.95 194.927 119.578C194.111 114.787 193.81 109.922 194.027 105.067C194.198 102.694 194.668 100.352 195.427 98.0972C196.055 95.7784 196.927 93.5325 198.027 91.3972C198.379 90.7792 198.814 90.2092 199.198 89.6082C199.285 89.4988 199.325 89.3598 199.309 89.2212C198.913 88.0579 198.214 87.0208 197.285 86.2162C197.108 86.0432 196.887 85.9222 196.646 85.8665C196.404 85.8108 196.152 85.8224 195.917 85.9002C195.833 85.928 195.743 85.9341 195.656 85.918C195.569 85.9019 195.487 85.8642 195.418 85.8082C195.35 85.7522 195.296 85.6798 195.263 85.5976C195.229 85.5155 195.217 85.4262 195.227 85.3382C195.207 85.0222 195.178 84.7072 195.136 84.3922C195.11 84.2929 195.11 84.1887 195.136 84.0894C195.161 83.9901 195.212 83.899 195.283 83.8249C195.354 83.7507 195.443 83.696 195.541 83.666C195.639 83.6359 195.743 83.6315 195.843 83.6532C195.93 83.6627 196.015 83.6781 196.099 83.6992C196.297 83.7647 196.509 83.7743 196.712 83.7268C196.915 83.6793 197.101 83.5766 197.249 83.43C197.397 83.2835 197.502 83.0988 197.552 82.8964C197.602 82.694 197.595 82.4817 197.531 82.2832C197.423 81.8605 197.271 81.45 197.079 81.0582C196.358 79.5261 196.224 77.7824 196.703 76.1582C196.807 75.86 196.839 75.5416 196.796 75.2288C196.754 74.916 196.638 74.6177 196.458 74.3582C196.174 73.9283 196.013 73.4291 195.992 72.9144C195.971 72.3996 196.09 71.8889 196.338 71.4372C196.72 70.6676 197.141 69.9183 197.6 69.1922C197.792 68.9391 197.892 68.629 197.886 68.3118C197.88 67.9945 197.767 67.6886 197.566 67.4432C197.06 66.6742 196.915 65.5082 198.189 65.0882C198.226 65.0629 198.257 65.0306 198.28 64.9932H199.151C199.472 65.1238 199.735 65.3646 199.893 65.6721C200.051 65.9796 200.095 66.3335 200.015 66.6702C199.992 66.9161 199.912 67.1532 199.782 67.3632C199.477 67.7517 199.334 68.2436 199.383 68.7353C199.433 69.2271 199.671 69.6804 200.048 70.0002C200.245 70.215 200.429 70.4411 200.599 70.6772C200.935 71.1502 201.272 71.6252 201.589 72.1102C201.709 72.4693 201.915 72.7936 202.189 73.0552C202.589 73.0389 202.977 72.9145 203.312 72.6952C204.864 72.0364 206.603 71.9685 208.201 72.5042C208.681 72.6612 209.145 72.8702 209.619 73.0522C209.804 73.1232 209.985 73.1822 210.085 72.9272C210.581 71.8209 211.26 70.8065 212.094 69.9272C212.427 69.6025 212.634 69.1701 212.677 68.7072C212.72 68.2443 212.598 67.781 212.331 67.4002C212.186 67.2109 212.086 66.9915 212.037 66.7581C211.989 66.5247 211.994 66.2834 212.051 66.0521C212.109 65.8208 212.218 65.6055 212.37 65.4222C212.523 65.2389 212.714 65.0922 212.931 64.9932H213.803ZM209.623 82.4422C209.889 82.4366 210.151 82.3743 210.391 82.2594C210.631 82.1446 210.844 81.9798 211.015 81.7762C211.058 81.7235 211.089 81.6618 211.105 81.5956C211.121 81.5295 211.121 81.4606 211.106 81.3942C211.061 81.3346 211.003 81.2867 210.935 81.2547C210.868 81.2227 210.794 81.2074 210.719 81.2102C210.299 81.3006 209.89 81.4381 209.5 81.6202C209.343 81.7716 209.222 81.9565 209.146 82.1612L209.623 82.4432M202.423 82.4432C202.523 82.3812 202.716 82.2712 202.901 82.1592C202.836 81.9633 202.725 81.786 202.577 81.6422C202.159 81.4566 201.723 81.3112 201.277 81.2082C201.208 81.2093 201.141 81.2269 201.08 81.2597C201.019 81.2924 200.967 81.3392 200.928 81.3962C200.913 81.4561 200.912 81.5187 200.925 81.5792C200.938 81.6396 200.964 81.6964 201.002 81.7452C201.173 81.9592 201.389 82.1328 201.635 82.2538C201.881 82.3748 202.15 82.4401 202.424 82.4452M201.288 79.9172C201.842 79.9172 202.396 79.8992 202.945 79.9282C203.032 79.9358 203.116 79.9623 203.191 80.0059C203.266 80.0494 203.331 80.1089 203.38 80.1802C204.043 81.4803 204.467 82.8885 204.633 84.3382C204.653 84.7289 204.606 85.1201 204.494 85.4952C204.238 86.4952 204.441 86.9302 205.449 87.0792C205.992 87.1384 206.542 87.0947 207.068 86.9502C207.188 86.93 207.301 86.8813 207.397 86.8081C207.494 86.735 207.572 86.6397 207.624 86.5301C207.676 86.4206 207.701 86.3002 207.696 86.179C207.692 86.0579 207.658 85.9396 207.598 85.8342C207.041 84.0922 207.743 82.5642 208.291 81.0112C208.681 79.9032 208.721 79.9192 209.891 79.9112C210.702 79.9112 211.517 79.9032 212.331 79.9032C212.814 79.9032 212.939 80.0402 212.931 80.5352C212.946 81.1231 212.769 81.6998 212.426 82.1776C212.083 82.6554 211.593 83.0081 211.031 83.1822C210.556 83.3592 210.061 83.4822 209.575 83.6342C209.367 83.661 209.167 83.7333 208.99 83.8459C208.813 83.9584 208.663 84.1086 208.55 84.2856C208.437 84.4627 208.365 84.6623 208.338 84.8705C208.311 85.0786 208.33 85.2902 208.393 85.4902C208.433 85.7902 208.493 86.0902 208.544 86.3972C208.597 86.62 208.572 86.8541 208.474 87.061C208.376 87.2679 208.21 87.4351 208.004 87.5352C207.659 87.7182 207.282 87.8462 206.949 88.0512C206.854 88.1013 206.769 88.1708 206.702 88.2551C206.634 88.3395 206.585 88.4368 206.557 88.5412C206.579 88.654 206.625 88.7608 206.692 88.8544C206.758 88.9481 206.844 89.0264 206.943 89.0842C207.246 89.2585 207.581 89.3691 207.927 89.4092C208.206 89.4149 208.48 89.3403 208.717 89.1942C208.815 89.0882 208.946 89.019 209.089 88.9985C209.232 88.9779 209.377 89.0071 209.501 89.0812C209.591 89.2147 209.63 89.3758 209.612 89.5356C209.593 89.6953 209.519 89.8434 209.401 89.9532C209.191 90.2405 208.877 90.4356 208.526 90.4978C208.175 90.56 207.814 90.4846 207.517 90.2872C207.098 89.9363 206.569 89.7447 206.022 89.7462C205.476 89.7477 204.947 89.9421 204.53 90.2952C204.238 90.4858 203.885 90.5586 203.542 90.4988C203.198 90.439 202.891 90.2512 202.68 89.9732C202.551 89.8727 202.466 89.7261 202.442 89.5641C202.419 89.402 202.459 89.2372 202.554 89.1042C202.807 88.8042 203.085 89.0462 203.354 89.2112C203.578 89.3535 203.841 89.4234 204.106 89.4112C204.466 89.3619 204.813 89.2484 205.132 89.0762C205.228 89.0238 205.312 88.9509 205.377 88.8625C205.442 88.7742 205.486 88.6727 205.507 88.5652C205.483 88.4603 205.437 88.3617 205.372 88.2756C205.307 88.1895 205.225 88.1178 205.131 88.0652C204.788 87.8532 204.398 87.7182 204.038 87.5292C203.857 87.4466 203.708 87.3069 203.614 87.1316C203.519 86.9562 203.485 86.7548 203.516 86.5582C203.558 86.1952 203.616 85.8362 203.675 85.4762C203.733 85.2899 203.752 85.0936 203.73 84.8997C203.707 84.7059 203.645 84.5188 203.546 84.3506C203.447 84.1823 203.314 84.0366 203.156 83.9227C202.998 83.8088 202.817 83.7292 202.626 83.6892C201.995 83.4722 201.35 83.2992 200.732 83.0512C200.226 82.833 199.798 82.4649 199.507 81.9965C199.216 81.5281 199.076 80.9819 199.104 80.4312C199.093 80.3592 199.099 80.2856 199.121 80.2163C199.144 80.147 199.182 80.0839 199.233 80.0322C199.285 79.9805 199.347 79.9416 199.417 79.9187C199.486 79.8957 199.559 79.8894 199.631 79.9002C200.182 79.9122 200.731 79.9002 201.285 79.9002V79.9122L201.288 79.9172Z" fill="#2A2A2C"/>
</g>
<defs>
<clipPath id="clip0_281_34022">
<rect width="193.125" height="90" fill="white" transform="translate(108 65)"/>
</clipPath>
</defs>
</svg>
