<svg width="410" height="220" viewBox="0 0 410 220" fill="none" xmlns="http://www.w3.org/2000/svg">
<path d="M246.211 108.221C249.935 108.365 253.5 107.106 256.875 105.684L258.832 109.239C254.082 111.413 249.307 112.641 244.011 112.324C235.367 111.807 231.055 106.216 220.829 109.746C215.24 111.674 213.313 112.723 206.92 112.324C200.27 111.909 196.803 108.191 189.163 108.738C183.975 109.106 180.158 111.981 175.002 112.324C169.829 112.672 164.59 111.684 160.031 109.25L161.726 105.664C165.121 107.173 168.748 108.349 172.539 108.221V63.7191H190.054V67.5555C197.462 60.6448 208.971 60.8188 215.683 68.5734C222.632 60.384 235.382 60.5681 242.219 68.8292C243.929 70.8957 246.206 75.5045 246.206 78.1695V108.221H246.211ZM200.362 106.431V81.2387C200.362 80.9164 199.497 79.4177 199.209 79.0596C196.622 75.8882 191.038 77.6069 190.822 81.74V104.492C194.005 105.111 197.302 105.239 200.362 106.431ZM218.393 81.7502V106.431L227.939 104.492L227.805 80.589C226.002 75.8677 219.026 76.6606 218.393 81.7502Z" fill="#2A2A2C"/>
<path d="M194.953 123.311C194.304 120.237 191.934 119.198 188.972 120.063C187.55 120.477 186.664 122.017 187.725 123.198C188.565 124.129 199.131 125.874 201.65 127.019C208.177 129.991 210.614 138.646 205.905 144.288C203.077 147.675 196.303 149.726 192.006 149.925C184.181 150.283 173.667 145.797 173.574 136.866L186.025 136.6C186.989 139.485 188.895 140.59 191.97 140.171C193.567 139.951 195.566 138.585 194.304 136.871C193.366 135.598 187.777 134.667 186 134.119C179.462 132.104 173.203 129.045 174.981 120.999C178.087 106.952 206.92 109.188 207.322 122.175C207.332 122.492 207.281 123.311 206.925 123.311H194.948H194.953Z" fill="#2A2A2C"/>
<path d="M245.696 127.403H232.817C232.838 123.035 226.692 120.104 224.472 124.36C222.674 127.802 222.699 132.6 224.116 136.166C226.213 141.434 232.348 138.882 232.817 134.048H245.696C245.546 141.577 240.781 147.521 233.44 149.373C222.627 152.104 212.979 146.902 210.274 136.094C207.899 126.595 212.299 114.523 222.555 111.965C234.048 109.096 245.284 115.024 245.696 127.398V127.403Z" fill="#2A2A2C"/>
</svg>
