<svg width="410" height="220" viewBox="0 0 410 220" fill="none" xmlns="http://www.w3.org/2000/svg">
<g clip-path="url(#clip0_281_33449)">
<path d="M239.864 94.3111L230.347 94.8333L238.341 96.3477V103.774L233.53 105.8C234.968 105.622 241.418 109.623 239.864 111.022L230.347 106.844C229.554 107.68 232.155 113.184 228.232 112.067L227.693 106.844L218.716 111.022C217.563 107.001 222.332 106.782 225.049 105.8L220.228 103.774V96.3477L228.222 95.3555C228.465 93.5382 225.8 94.3424 224.531 94.3111C222.596 94.2693 220.64 94.3424 218.716 94.3111C218.536 93.204 218.737 92.2848 219.741 91.6686C221.835 90.3944 234.164 90.7495 237.241 91.1568C238.954 91.3762 240.192 92.3893 239.853 94.3111H239.864ZM228.232 97.4444H222.945V98.4784H228.232V97.4444ZM235.634 97.4444H230.347V98.4784H235.634V97.4444ZM228.232 100.578H222.945V102.656C225.113 102.802 227.556 103.001 228.232 100.578ZM235.634 100.578H230.347V101.1C231.669 102.949 233.488 102.813 235.634 102.667V100.578Z" fill="#2A2626"/>
<path d="M194.398 111.022V91.1777H212.903L214.489 92.7444V109.456L212.903 111.022H194.398ZM204.973 93.2666C202.699 93.3397 200.373 93.1517 198.089 93.2666C196.355 93.3502 195.117 94.1753 196.513 95.3555C199.294 95.0735 203.64 96.6506 204.973 93.2771V93.2666ZM211.317 93.2666H206.03V95.3555C208.029 94.0917 209.223 94.896 211.307 95.3555V93.2666H211.317ZM196.513 108.933H211.317L210.799 106.855L197.581 106.834C197.338 105.434 200.531 104.776 201.356 104.735C202.519 104.672 203.513 105.1 204.497 105.633L206.051 104.202L204.973 97.4444L196.534 96.3895V108.923L196.513 108.933ZM209.202 97.4444H207.087V100.567H208.134L209.192 97.4444H209.202ZM211.285 103.68L210.27 97.4444L208.155 104.233L211.285 103.68Z" fill="#2A2626"/>
<path d="M254.661 90.1335L256.352 93.1624L264.177 93.2668C265.584 94.447 264.336 95.2722 262.602 95.3557C258.911 95.5333 255.168 95.2199 251.488 95.3557C250.145 96.4837 251.298 97.3819 253.053 97.4446C256.194 97.5595 258.964 97.1417 261.967 98.5726C261.809 102.583 263.86 110.093 258.362 111.022C255.813 111.451 249.289 111.179 253.053 107.899L256.204 108.996L259.419 106.855L259.937 100.567H250.42C250.96 104.265 249.722 106.886 247.502 109.696C246.254 111.273 246.91 111.357 244.086 111.012C244.478 107.544 247.417 105.508 248.084 101.915C248.485 99.7319 248.316 97.5386 248.316 95.3453C247.544 94.5828 241.876 97.1313 243.029 93.2564L252.514 93.2146C252.652 90.969 251.732 89.559 254.65 90.1126L254.661 90.1335Z" fill="#2A2626"/>
<path d="M179.582 90.1331L181.274 93.162L189.109 93.2664V105.81H179.582C178.821 106.562 181.39 112.181 177.478 111.032V105.81H169.008V93.2664L177.446 93.2351C177.583 90.9895 176.664 89.5795 179.582 90.1331ZM177.478 95.3553H171.123V103.721C172.941 103.627 175.934 104.296 176.991 102.729L177.467 95.3553H177.478ZM185.937 95.3553C179.603 94.196 177.848 97.9873 180.597 103.251L185.937 103.721V95.3553Z" fill="#2A2626"/>
<path d="M274.759 90.1229L274.844 93.1831L277.984 93.8202C277.086 96.3477 278.904 99.1155 278.904 101.09C278.904 103.68 276.969 107.732 277.942 111.012H272.655L275.88 108.275L275.827 102.656L272.666 106.834L271.608 102.656L268.965 112.046L267.664 101.936L268.51 93.3189L271.64 92.7549C273.036 91.8671 271.851 89.2246 274.78 90.1124L274.759 90.1229ZM275.817 95.3555L271.598 97.4444L275.817 99.5229V95.3451V95.3555ZM272.116 98.4889C271.428 98.4889 271.428 99.5333 272.116 99.5333C272.803 99.5333 272.803 98.4889 272.116 98.4889Z" fill="#2A2626"/>
<path d="M305.416 90.1436L306.04 92.2742L313.917 92.7129L314.932 95.8671C311.179 100.108 312.881 94.1856 308.598 95.3553V99.5331C309.666 100.598 315.303 96.2536 314.932 100.055C313.241 102.51 306.251 102.426 305.543 99.9509C304.908 97.7576 306.854 94.6138 303.322 95.3658C302.931 99.9509 299.367 102.113 294.852 101.632C294.122 98.3007 298.817 99.4182 300.129 96.9324L297.485 95.3553L295.37 98.4991C292.61 96.6609 294.249 94.7287 294.937 92.3369L302.677 92.2951L303.301 90.1644H305.405L305.416 90.1436Z" fill="#2A2626"/>
<path d="M313.885 102.667C314.731 106.249 310.375 104.4 308.049 104.735C304.263 105.278 304.411 108.589 309.085 108.985C311.379 109.173 315.81 107.523 314.943 111.033H293.795C293.71 108.818 293.308 109.048 295.37 108.944C298.003 108.818 300.678 109.038 303.311 108.944L302.814 105.779L294.852 104.766L296.438 102.677H313.885V102.667Z" fill="#2A2626"/>
<path d="M209.203 125.644V118.333C210.398 116.944 211.233 118.177 211.318 119.89C211.497 123.535 211.191 127.232 211.318 130.867C209.562 132.747 205.185 124.725 204.444 123.556C203.165 123.608 205.502 131.807 200.743 130.867C201.018 128.684 199.739 117.216 202.33 117.299L209.203 125.644Z" fill="#2A2626"/>
<path d="M312.828 125.644V118.333C314.023 116.944 314.858 118.177 314.943 119.89C315.122 123.535 314.816 127.232 314.943 130.867C313.187 132.747 308.81 124.725 308.069 123.556C306.79 123.608 309.127 131.807 304.368 130.867C304.643 128.673 303.364 117.216 305.955 117.299L312.828 125.644Z" fill="#2A2626"/>
<path d="M287.441 97.4653L287.452 108.933L290.624 106.844V111.022H285.337L284.808 99.5333L282.228 108.474L278.992 111.022L280.092 97.4967L287.441 97.4653Z" fill="#2A2626"/>
<path d="M301.111 118.407L302.232 129.311L300.127 130.355L298.086 126.094L293.783 125.645C292.99 126.491 295.591 131.984 291.668 130.867V118.333L301.1 118.407H301.111ZM299.08 120.422H293.793V121.979L295.496 123.441L299.08 123.556V120.422Z" fill="#2A2626"/>
<path d="M265.203 118.396L265.246 121.467L258.912 120.945L265.827 124.548C267.53 127.044 265.436 130.564 262.592 130.919L256.829 129.77L256.797 126.699C259.779 126.814 261.323 131.013 264.188 127.222L257.283 123.608L256.892 118.427C260.011 117.007 262.084 117.143 265.224 118.396H265.203Z" fill="#2A2626"/>
<path d="M184.902 122.501L190.179 122.522C190.39 120.381 188.952 117.623 192.283 118.344V130.877C188.233 132.057 191.035 125.457 190.179 124.611H184.881C185.759 126.334 184.056 133.029 182.227 129.843C181.423 128.433 181.339 120.621 181.783 118.95C182.766 115.242 186.076 119.817 184.892 122.511L184.902 122.501Z" fill="#2A2626"/>
<path d="M289.565 118.333L282.163 120.944L288.508 124.067L282.153 124.6V127.733L289.544 129.3C289.481 131.211 282.565 131.41 281.032 130.397L280.027 118.323H289.544L289.565 118.333Z" fill="#2A2626"/>
<path d="M179.594 122.511C175.322 119.284 169.284 119.378 171.293 126.01C172.985 131.587 178.579 125.749 179.594 126.689C179.784 131.629 171.378 132.444 169.538 128.788C168.565 126.856 168.459 120.38 170.067 118.835C173.175 115.837 180.493 117.393 179.604 122.511H179.594Z" fill="#2A2626"/>
<path d="M254.669 130.867L250.852 127.692L246.358 127.89L245.163 130.355L243.059 129.31C245.554 125.519 245.036 120.192 248.864 117.299C251.01 117.278 254.912 128.423 254.68 130.867H254.669ZM250.439 125.644L249.382 121.477H248.335L247.278 125.644H250.45H250.439Z" fill="#2A2626"/>
<path d="M240.924 118.333C242.066 122.355 235.648 119.535 234.58 120.422C233.681 124.6 239.962 120.631 240.924 124.59H234.58V127.723L241.971 129.29C239.666 132.12 235.574 130.47 232.465 130.856V118.312H240.924V118.333Z" fill="#2A2626"/>
<path d="M224.004 130.867C221.699 129.478 219.594 126.073 216.517 128.203C215.291 129.06 216.359 131.765 213.43 130.856L216.581 119.023L219.245 117.299C220.567 117.205 225.093 128.715 223.993 130.856L224.004 130.867ZM220.832 125.645L219.774 121.467C219.394 121.049 218.23 122.49 217.67 123.033V125.634H220.842L220.832 125.645Z" fill="#2A2626"/>
<path d="M277.933 118.333L273.788 120.495C273.513 123.409 273.851 126.376 273.714 129.311C273.629 131.013 272.794 132.245 271.599 130.867V120.422C269.442 120.224 266.65 121.634 267.369 118.344H277.943L277.933 118.333Z" fill="#2A2626"/>
<path d="M285.471 93.1204C286.919 94.0917 290.43 91.6686 289.563 95.3555H278.989C278.407 92.3475 279.993 93.5173 282.076 93.1935L282.161 90.1333C284.466 89.7155 284.836 91.4179 285.471 93.1204Z" fill="#2A2626"/>
<path d="M197.57 130.867C196.375 132.256 195.539 131.024 195.455 129.311C195.275 125.728 194.514 120.005 197.041 117.289L197.57 130.867Z" fill="#2A2626"/>
<path d="M148.928 87C146.02 89.1202 142.023 89.5484 138.682 90.9793C128.139 95.4704 118.147 102.218 112.987 112.599L120.092 109.174C130.646 105.445 142.023 104.077 153.158 103.722C152.809 105.664 151.011 105.518 149.584 105.936C143.736 107.617 137.878 108.087 132.01 110.51C128.911 111.795 123.603 114.208 123.519 117.842C123.444 121.174 133.257 123.274 135.996 124.318C136.969 124.694 139.782 125.018 138.883 126.678L125.358 124.37L112.976 119.89C116.476 127.389 123.307 129.843 129.884 133.99H117.195C115.408 132.339 112.966 133.102 110.459 131.765C102.92 127.733 98.5952 116.098 95 108.933V107.889L103.502 107.408C108.799 100.661 113.061 92.9324 119.321 87H148.928Z" fill="#2A2626"/>
<path d="M211.282 103.68L208.152 104.233L210.257 97.4443L211.282 103.68Z" fill="white"/>
<path d="M197.57 98.4888H203.925V103.721H197.57V98.4888ZM201.8 99.5332H200.224L198.628 101.612H201.8V99.5332Z" fill="#2A2626"/>
</g>
<defs>
<clipPath id="clip0_281_33449">
<rect width="221" height="47" fill="white" transform="translate(95 87)"/>
</clipPath>
</defs>
</svg>
