<svg width="410" height="220" viewBox="0 0 410 220" fill="none" xmlns="http://www.w3.org/2000/svg">
<g clip-path="url(#clip0_281_33423)">
<path d="M317.519 78C317.695 78.3024 317.947 78.7682 317.564 79.0312C311.185 81.7957 305.255 85.3898 299.316 88.9596C297.835 89.8495 296.429 90.905 294.934 91.7659C291.145 93.9488 285.981 96.2892 282.68 99.1082C282.372 99.3724 281.884 99.8161 282.61 99.8509C291.803 93.7622 302.094 89.4694 312.586 86.1094C314.658 85.4455 316.9 84.6935 319.001 84.1744C319.346 84.0898 320.146 83.8002 320.42 83.9647C320.807 84.5742 320.803 84.7306 320.21 85.0307C317.065 86.6273 312.676 87.8948 309.286 89.3003C303.921 91.526 298.656 93.9754 293.508 96.6553L299.771 97.2347C299.803 97.2567 299.71 97.3841 299.657 97.4096C299.339 97.5591 297.857 97.6576 297.392 97.6958C296.331 97.7839 295.21 97.7642 294.146 97.814C293.529 97.843 292.431 98.0851 291.842 97.9287C291.744 97.9021 291.778 97.6761 291.711 97.6958C290.646 98.3806 289.513 98.9634 288.458 99.6643C287.784 100.112 286.601 100.62 286.662 101.521L296.121 101.863L302.555 102.449C302.842 102.68 301.898 102.764 301.786 102.781C300.17 103.028 298.49 102.935 296.871 103.143L296.929 102.68C295.929 103.694 294.287 104.406 292.866 104.532C291.901 104.618 290.875 104.373 289.94 104.678C289.367 105.153 291.235 106.709 291.586 107.036C292.551 106.818 293.55 107.046 294.487 107.088C297.035 107.201 299.606 107.191 302.146 107.432C302.556 107.47 303.903 107.588 304.179 107.719C304.231 107.744 304.325 107.869 304.292 107.894C300.876 108.401 297.399 108.339 293.97 108.648C297.26 110.611 301.111 111.337 304.874 111.835V114.268L294.957 114.733C293.008 115.025 290.985 114.923 289.098 115.544C288.961 115.719 290.002 115.951 290.115 115.975C291.093 116.169 292.324 116.261 293.332 116.353C297.084 116.696 300.877 116.764 304.64 116.934L303.984 119.719C303.016 119.624 302.05 119.781 301.101 119.829C297.614 120.008 293.895 120.025 290.447 120.542C289.994 120.61 288.105 120.89 289.461 121.261C291.941 121.942 296.643 122.004 299.358 122.151C300.648 122.222 301.957 122.227 303.248 122.263C303.353 122.355 302.324 124.706 302.194 124.858C301.79 125.327 300.331 125.122 299.713 125.16C297.603 125.292 295.431 125.389 293.333 125.624C292.348 125.734 291.135 125.828 290.26 126.26C290.262 126.57 292.832 126.853 293.217 126.896C295.73 127.18 298.291 127.209 300.814 127.362C300.13 128.478 299.42 129.61 298.491 130.545C297.515 130.755 292.931 130.837 292.4 131.412C292.328 131.49 292.282 131.622 292.407 131.649L296.868 132.4C295.217 133.903 293.48 135.395 291.471 136.395C291.045 136.385 289.775 134.469 289.16 134.421C280.893 134.681 272.609 134.906 264.336 135.012C263.401 135.024 261.101 135.024 260.385 134.43C259.175 133.425 261.716 132.965 262.355 132.916C266.609 132.598 271.723 133.067 276.043 133.157C279.952 133.238 283.861 133.199 287.772 133.376C288.008 133.387 288.179 133.488 288.402 133.499C287.972 132.958 287.448 132.468 287.013 131.933C286.578 131.397 285.807 130.097 285.389 129.731C284.913 129.313 283.516 129.669 282.896 129.681C281.657 129.708 280.414 129.656 279.175 129.672C272.396 129.542 264.917 130.525 258.179 130.029C257.13 129.951 253.65 129.074 255.959 127.918C257.432 127.18 259.179 127.473 260.731 127.48C266.2 127.504 271.64 127.597 277.087 127.712C279.388 127.76 281.694 127.73 283.994 127.822L281.616 124.347C281.436 124.773 280.502 124.547 279.994 124.58C272.558 125.041 264.613 125.01 257.136 124.92C256.149 124.909 255.31 125.012 254.276 124.776C252.988 124.481 251.257 123.471 253.256 122.551C255.535 121.502 259.566 122.256 262.133 122.033C263.278 121.934 264.684 120.956 264.623 119.712C264.053 119.963 263.634 120.475 263.076 120.774C262.081 121.309 260.871 121.135 261.143 119.828C258.583 119.528 253.653 120.49 251.475 119.113C249.259 117.711 252.894 116.789 254.01 116.701C256.959 116.468 260.171 116.891 263.148 116.676L264.739 114.614H253.313C253.052 114.614 251.853 114.288 251.551 114.173C249.704 113.475 249.968 112.429 251.684 111.829C253.4 111.229 255.143 111.483 256.904 111.491C260.308 111.506 263.711 111.472 267.114 111.484C267.547 111.401 268.829 109.724 269.147 109.286L254.256 109.385C253.404 109.312 250.241 108.813 250.879 107.432C251.176 106.789 253.211 106.321 253.889 106.267C258.027 105.943 262.927 106.339 267.112 106.393C268.698 106.412 270.285 106.371 271.87 106.386C272.889 105.665 273.777 104.773 274.599 103.84L255.866 104.07C254.647 103.842 252.823 103.883 252.329 102.503C252.918 101.385 254.698 101.127 255.86 101.052C260.678 100.745 266.185 101.227 271.056 101.293C273.144 101.321 275.24 101.196 277.318 101.399L281.327 98.3331L274.083 98.5127C272.108 98.5266 270.132 98.4802 268.157 98.5034C265.362 98.5358 258.67 99.1348 256.326 98.2809C253.611 97.2903 256.524 96.1699 257.949 96.0702C263.627 95.6751 270.194 96.1826 275.929 96.3124C278.407 96.368 280.889 96.3402 283.367 96.4132L283.589 96.6553L289.215 92.658C288.325 92.4437 287.351 92.6986 286.495 92.7217C279.065 92.9152 271.655 93.0381 264.213 93.0601C263.063 93.0635 261.592 93.3416 260.523 92.6997C258.917 91.7346 261.64 91.139 262.357 91.0892C266.839 90.7775 272.088 91.2352 276.625 91.3314C280.427 91.4113 284.201 91.4623 287.997 91.5596C288.866 91.5816 289.845 91.8041 290.754 91.6465C298.985 86.2449 307.609 81.2813 316.94 78.0023H317.52L317.519 78ZM278.311 110.384C278.371 109.541 278.311 108.579 278.311 107.719C278.311 106.981 277.543 105.164 277.068 104.564C276.994 104.472 277.072 104.351 276.804 104.417L276.206 107.529C274.903 107.898 273.735 109.095 273.324 110.388C273.277 110.534 273.143 110.61 273.319 110.736C273.929 111.084 274.992 110.256 275.063 110.327C273.933 114.475 272.368 118.57 269.959 122.143L280.283 122.375C279.976 121.908 279.272 120.967 278.71 120.877C277.839 120.737 274.018 122.169 273.555 121.68C273.514 121.485 273.607 121.443 273.744 121.35C274.067 121.127 274.826 120.9 275.255 120.658C279.971 118.003 281.504 114.352 280.712 109.027C280.614 108.375 280.429 107.724 280.28 107.083L279.33 109.434L278.252 110.79C278.06 110.693 278.305 110.461 278.31 110.384H278.311Z" fill="#2A2626"/>
<path d="M89 106.85C89.5591 97.8011 95.3243 91.8086 104.371 90.862C116.956 89.5446 126.388 97.1279 124.596 110.252C123.78 116.221 119.891 121.596 114.057 123.42L124.728 130.141L119.448 133.151L108.691 124.781C105.971 124.655 103.343 124.683 100.692 123.966C94.0738 122.176 89.486 116.329 89 109.515V106.85ZM105.797 93.2129C92.4278 94.4596 91.9023 120.283 105.198 122.128C111.762 123.039 116.431 118.717 117.733 112.552C119.581 103.809 116.963 92.1724 105.796 93.2129H105.797Z" fill="#2A2626"/>
<path d="M207.9 143C206.622 141.74 207.704 142.247 208.543 142.196C209.289 142.15 209.842 141.635 210.078 140.945L210.222 135.236L209.772 135.225C209.71 135.034 209.643 134.997 209.746 134.83C210.075 134.301 211.43 133.574 211.959 133.15L212.076 138.712H214.396V132.165C214.396 132.096 213.878 131.902 214.105 131.414C214.314 130.966 215.802 130.149 216.252 129.79V134.888C216.679 134.562 217.162 134.364 217.704 134.31C219.607 134.119 224.282 134.098 226.158 134.322C227.037 134.427 227.935 135.044 228.392 135.798C228.467 135.922 228.782 136.616 228.782 136.683V138.71H234.93V137.436H232.378V135.524C232.378 135.332 232.951 134.7 233.129 134.537C234.064 133.678 235.604 133.12 236.786 132.685V138.71H239.338V131.99C239.338 131.952 238.754 131.993 239.1 131.463C239.248 131.235 240.064 130.695 240.344 130.505C240.6 130.332 240.891 130.075 241.194 130.021V140.448H211.962C211.898 141.561 211.451 142.47 210.454 142.997H207.902L207.9 143ZM234.927 135.121C234.814 134.994 233.567 135.742 233.768 136.163H234.928L234.927 135.121ZM226.924 138.713V136.685C226.924 136.317 226.136 136.083 225.822 136.048C223.903 135.835 219.54 135.872 217.582 136.043C217.306 136.068 216.895 136.135 216.672 136.294C216.567 136.369 216.252 136.853 216.252 136.917V138.713H226.924Z" fill="#2A2626"/>
<path d="M232.724 107.663L244.554 123.997C242.508 123.776 240.41 123.661 238.344 123.762C237.937 123.782 236.675 124.096 236.433 123.944C233.176 118.599 229.631 113.39 225.916 108.379L224.834 108.357L224.95 123.999C222.8 123.665 220.605 123.683 218.456 123.999C218.434 123.702 218.566 123.431 218.576 123.136C218.88 114.348 219.063 105.523 218.805 96.7133C218.75 94.8398 218.76 92.9628 218.573 91.0951C219.25 91.1599 220.044 91.3036 220.713 91.3314C224.908 91.5017 229.687 90.7312 233.708 91.2121C238.541 91.7902 241.682 95.338 240.946 100.292C240.325 104.474 236.707 107.045 232.725 107.665L232.724 107.663ZM224.836 106.155C228.053 106.378 231.639 106.7 233.609 103.621C236.4 99.2589 234.234 93.1007 228.484 93.4054L224.836 93.6418V106.155Z" fill="#2A2626"/>
<path d="M159.876 123.997C157.45 123.67 155.011 123.711 152.582 123.983L148.609 113.585C144.651 113.406 140.663 113.383 136.696 113.589L132.838 123.988C131.359 123.722 129.917 123.647 128.441 123.997C132.224 115.099 136.552 106.414 140.211 97.4605C141.127 95.2196 142.061 92.9649 142.709 90.6279C143.706 90.9512 144.786 90.9558 145.789 90.6604L145.896 90.7392C149.923 102.083 155.003 113.007 159.875 123.997H159.876ZM142.823 98.9713L142.563 99.1196C141.011 102.977 139.292 106.796 137.837 110.674H147.233L142.824 98.9713H142.823Z" fill="#2A2626"/>
<path d="M199.313 90.6294C203.339 102.017 208.404 112.998 213.353 123.997C210.926 123.67 208.489 123.713 206.061 123.982L201.986 113.627C198.853 113.472 195.669 113.327 192.525 113.449C192.226 113.461 191.981 113.552 191.718 113.569C191.283 113.598 190.284 113.423 190.047 113.755L186.321 123.996C184.848 123.732 183.387 123.626 181.918 123.998C186.586 112.843 192.226 102.072 196.187 90.6294C197.193 90.9793 198.311 90.9469 199.314 90.6294H199.313ZM200.593 110.673L196.071 98.8558L191.314 110.673H200.593Z" fill="#2A2626"/>
<path d="M183.54 91.0925C183.317 92.3484 183.24 93.4271 183.54 94.6831L179.079 94.3309L174.028 94.3355L173.907 119.889L174.26 123.997C172.023 123.721 169.766 123.652 167.532 123.997C167.612 122.202 167.68 120.406 167.765 118.61C167.818 117.471 167.97 116.277 168 115.138C168.188 108.205 167.811 101.26 167.88 94.3344C164.587 94.3228 161.28 94.3239 158.02 94.6819C158.202 93.4851 158.156 92.2859 158.02 91.0913L161.32 91.3277C168.731 91.4215 176.154 91.5548 183.538 91.0913L183.54 91.0925Z" fill="#2A2626"/>
<path d="M155.238 137.555C155.38 137.667 155.993 135.921 156.051 135.761C156.791 133.734 157.444 131.645 158.027 129.568L159.472 129.675L162.082 137.67C162.246 137.656 162.264 137.5 162.317 137.385C163.398 135.04 163.968 132.131 164.804 129.675L166.139 129.561L162.309 140.452C161.883 140.314 161.531 140.288 161.101 140.437L160.978 140.34L158.136 132.343L155.405 140.456C154.987 140.265 154.615 140.326 154.194 140.453L150.363 129.563L152.745 129.676L155.238 137.557V137.555Z" fill="#2A2626"/>
<path d="M200.012 138.713H205.812V136.57C205.812 136.492 205.418 136.375 205.36 136.203C205.138 135.551 207.097 134.559 207.552 134.194V140.451H194.328L194.567 137.388C194.79 136.568 195.431 136.025 196.079 135.537C196.403 135.293 198.035 134.41 198.097 134.309C198.135 134.245 198.299 133.535 198.273 133.503C198.233 133.451 197.623 133.456 197.749 133.033L200.013 130.95V138.713H200.012ZM198.156 136.28C196.971 136.702 195.914 137.256 196.184 138.713H198.156V136.28Z" fill="#2A2626"/>
<path d="M147.289 129.56C148.562 129.739 149.51 131.014 149.437 132.278C149.346 133.846 148.026 134.69 146.652 135.062L150.595 140.394C150.501 140.587 150.255 140.336 150.189 140.336H148.333C148.297 140.336 148.204 140.447 148.095 140.452L147.872 140.337C146.937 138.894 146.051 137.382 145.006 136.013C144.775 135.712 144.58 135.252 144.16 135.235C143.914 135.224 144.008 135.238 143.983 135.41C143.752 136.926 144.162 138.901 144.099 140.453C143.41 140.315 142.693 140.253 142.012 140.453V129.562C143.644 129.728 145.71 129.34 147.289 129.562V129.56ZM143.983 134.542H145.781C146.546 134.542 147.278 133.343 147.345 132.629C147.55 130.423 145.837 129.951 143.983 130.371V134.542Z" fill="#2A2626"/>
<path d="M131.091 129.46L135.63 140.451C134.862 140.258 134.094 140.332 133.321 140.443L132.019 136.991C130.66 136.906 129.326 136.808 127.971 137.028L126.697 140.451C126.244 140.328 125.754 140.231 125.309 140.451L129.959 129.456L131.091 129.46ZM131.455 136.048L130.062 132.109L128.323 136.048H131.455Z" fill="#2A2626"/>
<path d="M170.768 129.455L175.302 140.45L172.979 140.402L171.693 136.988C170.334 136.909 168.999 136.802 167.645 137.029L166.37 140.45C165.913 140.328 165.428 140.228 164.98 140.45L169.607 129.511L170.768 129.454V129.455ZM171.127 136.048L169.734 132.109C169.66 132.052 169.522 132.297 169.48 132.375C168.895 133.462 168.509 134.904 167.995 136.048H171.127Z" fill="#2A2626"/>
<path d="M190.15 131.53C189.945 131.732 189.951 131.437 189.907 131.364C189.303 130.349 188.695 129.979 187.434 130.151C186.036 130.341 185.417 132.149 186.444 133.088C187.792 134.318 190.728 134.041 191.068 136.58C191.602 140.576 187.081 141.507 184.227 139.93L184.467 138.135C184.635 137.93 185.135 138.932 185.23 139.051C186.839 141.052 190.217 139.449 189.093 137.047C188.29 135.331 184.679 135.79 184.362 133.198C183.905 129.451 187.823 128.67 190.566 130.02L190.147 131.53H190.15Z" fill="#2A2626"/>
<path d="M181.933 129.579C182.356 129.548 182.728 129.608 183.159 129.594C183.318 129.589 183.465 129.448 183.421 129.732C182.585 130.989 181.759 132.271 181.009 133.581C180.708 134.108 179.766 135.587 179.649 136.046C179.461 136.783 179.871 140.278 179.709 140.451C179.004 140.289 178.33 140.289 177.622 140.451L177.685 136.043L173.793 129.562C174.243 129.455 174.728 129.67 175.127 129.677C175.47 129.682 175.984 129.399 176.346 129.618C176.708 129.836 178.804 134.887 179.187 134.888L181.932 129.58L181.933 129.579Z" fill="#2A2626"/>
<path d="M139.226 129.56C139.247 129.857 139.116 130.129 139.106 130.423C139.045 132.154 139.111 133.937 139.116 135.637C139.121 137.242 139.03 138.859 139.226 140.449C138.476 140.325 137.773 140.26 137.023 140.449V129.558H139.227L139.226 129.56Z" fill="#2A2626"/>
<path d="M287.359 87.8495C287.38 88.0187 287.056 88.0569 286.944 88.0697C282.667 88.554 278.038 88.4613 273.724 88.5389C272.463 88.5609 269.052 88.9711 268.061 88.4115C266.993 87.8078 268.177 87.3235 268.852 87.2644C272.215 86.9678 276.462 87.3733 279.878 87.4996C282.372 87.5923 284.872 87.5819 287.358 87.8495H287.359Z" fill="#2A2626"/>
<path d="M287.359 138.019C287.38 138.188 287.056 138.227 286.944 138.239C282.631 138.728 277.96 138.631 273.608 138.709C272.36 138.731 269.05 139.14 268.061 138.581C266.993 137.977 268.177 137.493 268.852 137.434C272.221 137.137 276.457 137.542 279.878 137.669C282.372 137.762 284.872 137.751 287.358 138.019H287.359Z" fill="#2A2626"/>
<path d="M244.555 130.023V140.451H242.699V131.993C242.699 131.954 242.115 131.995 242.461 131.465C242.61 131.237 243.425 130.697 243.706 130.507C243.961 130.335 244.252 130.077 244.555 130.023Z" fill="#2A2626"/>
<path d="M202.764 141.408C202.914 141.567 202.95 142.031 202.91 142.243C202.776 142.977 200.616 143.208 200.964 141.693C201.13 140.971 202.389 141.008 202.764 141.408Z" fill="#2A2626"/>
<path d="M197.773 129.701C198.349 129.565 199.09 129.635 199.193 130.322C199.33 131.232 198.522 131.444 197.773 131.273C197.026 131.103 197.021 129.878 197.773 129.702V129.701Z" fill="#2A2626"/>
<path d="M235.007 129.582C236.746 129.058 237.315 131.126 235.561 131.187C234.267 131.231 234.458 129.746 235.007 129.582Z" fill="#2A2626"/>
<path d="M195.335 129.701C195.962 129.558 196.715 129.688 196.767 130.431C196.825 131.264 196.019 131.428 195.335 131.273C194.586 131.103 194.586 129.871 195.335 129.701Z" fill="#2A2626"/>
<path d="M232.455 129.582C234.25 129.045 234.78 131.135 233.009 131.188C231.849 131.221 231.889 129.751 232.455 129.582Z" fill="#2A2626"/>
<path d="M204.038 141.172C205.507 140.825 205.985 142.452 204.891 142.719C203.106 143.153 203.184 141.373 204.038 141.172Z" fill="#2A2626"/>
</g>
<defs>
<clipPath id="clip0_281_33423">
<rect width="232" height="65" fill="white" transform="translate(89 78)"/>
</clipPath>
</defs>
</svg>
