<svg width="410" height="220" viewBox="0 0 410 220" fill="none" xmlns="http://www.w3.org/2000/svg">
<g clip-path="url(#clip0_281_33548)">
<path d="M235.329 82.7719V85.1786H255.864C257.576 84.9856 259.297 85.4647 260.664 86.5157C261.712 87.8871 262.19 89.6122 261.998 91.3292V111.626C262.19 113.343 261.712 115.068 260.664 116.44C259.282 117.462 257.574 117.938 255.864 117.777H245.996C244.396 117.777 241.996 117.777 241.196 115.905C240.935 115.059 240.923 114.155 241.159 113.302C241.395 112.449 241.871 111.681 242.529 111.091L255.864 93.4418H235.329L227.008 104.433C225.603 105.906 224.673 107.77 224.341 109.781C224.509 111.842 225.465 113.758 227.008 115.129L229.141 117.803C230.871 120.476 233.143 122.754 235.809 124.489C239.131 125.715 242.686 126.173 246.21 125.826H255.01C260.078 125.826 267.812 125.826 272.879 120.745C277.946 115.664 277.946 108.176 277.946 105.502V97.2124C277.946 94.5382 277.946 87.0505 272.879 81.9696C267.812 76.8887 260.131 76.862 255.064 76.862H240.929C239.303 76.7059 237.679 77.1848 236.395 78.199C235.565 79.5713 235.192 81.1727 235.329 82.7719ZM210.793 93.2011H231.328L206.793 125.826H186.258L210.793 93.2011ZM132.386 94.8056C131.859 95.375 131.462 96.0527 131.222 96.7916C130.983 97.5305 130.907 98.3129 130.999 99.0843V101.491H139.267V142.138H155.535V101.491H171.536C173.136 101.491 175.537 101.491 176.337 103.363C176.597 104.209 176.61 105.112 176.374 105.966C176.137 106.819 175.662 107.586 175.003 108.176L161.669 125.826H182.204L190.471 114.862C191.876 113.389 192.806 111.525 193.138 109.514C192.97 107.453 192.014 105.537 190.471 104.165L188.338 101.491C186.608 98.8181 184.336 96.5402 181.67 94.8056C178.348 93.579 174.793 93.1219 171.27 93.4685H136.92C136.115 93.2456 135.264 93.2527 134.463 93.489C133.662 93.7252 132.942 94.1813 132.386 94.8056Z" fill="#2A2A2C"/>
</g>
<defs>
<clipPath id="clip0_281_33548">
<rect width="147" height="67" fill="white" transform="translate(131 76)"/>
</clipPath>
</defs>
</svg>
