<svg width="410" height="220" viewBox="0 0 410 220" fill="none" xmlns="http://www.w3.org/2000/svg">
<path d="M212.529 80.8396C222.747 81.7423 233.143 84.0515 242.184 89.0166C252.799 94.8473 262.467 105.3 257.799 118.379C252.951 131.961 235.323 139.004 222.227 141.22C219.033 141.761 215.753 141.634 212.778 142.921C210.107 144.074 207.511 145.943 206.125 148.546C203.715 145.163 200.573 142.805 196.416 142.07C187.205 140.44 180.192 139.56 171.605 135.281C151.908 125.478 145.408 106.382 165.298 92.0681C175.133 84.9915 187.788 81.9177 199.715 80.8396C190.997 72.2932 204.395 58.2445 212.904 68.2457C216.124 72.0321 216.336 77.3964 212.529 80.8396ZM210.323 74.0017C210.323 71.6553 208.428 69.7565 206.096 69.7565C203.763 69.7565 201.869 71.659 201.869 74.0017C201.869 76.3444 203.763 78.2469 206.096 78.2469C208.428 78.2469 210.323 76.3444 210.323 74.0017ZM219.586 84.3835C226.443 86.0622 232.924 89.994 237.905 94.989C238.395 95.0823 242.804 92.4262 242.797 92.1278C239.027 89.6657 234.562 87.8117 230.268 86.4352C227.275 85.4765 223.542 84.4357 220.418 84.2044C220.214 84.1895 219.556 84.0552 219.586 84.3872V84.3835ZM191.915 84.3909C184.077 85.1631 176.244 88.002 169.447 91.9413C169.447 92.2397 173.845 94.9629 174.335 94.8174C177.083 91.4302 180.883 89.095 184.731 87.1514L191.915 84.3872V84.3909ZM193.215 86.0659C188.037 87.3081 182.919 89.9418 178.829 93.3439C178.201 93.8662 176.924 94.8622 176.5 95.4814C176.393 95.6381 176.24 95.6642 176.318 95.9477L184.486 98.9358C185.782 95.6232 187.784 92.0942 190.243 89.509C190.845 88.8749 192.817 87.4573 193.047 87.1029C193.278 86.7485 193.244 86.4464 193.218 86.0659H193.215ZM235.929 96.1343C231.494 91.2623 225.354 87.8378 219.029 86.0659L219.203 87.2857C222.933 90.3036 225.923 94.3101 227.401 98.9134C227.917 99.3648 234.833 96.4886 235.925 96.1305L235.929 96.1343ZM203.615 88.8637H194.05C192.323 89.9977 190.953 91.6578 189.797 93.3588C189.318 94.0601 186.224 99.3275 186.529 99.6819C191.684 100.939 196.951 101.528 202.24 101.913L202.511 101.846L203.618 88.8674L203.615 88.8637ZM208.629 88.8637L209.546 101.842C214.297 101.659 219.237 101.099 223.861 99.9654C224.192 99.8833 225.473 99.6707 225.529 99.3946C223.828 95.4814 221.755 91.9226 218.472 89.1472L208.633 88.8637H208.629ZM167.4 110.5C167.367 105.277 169.506 100.234 172.968 96.4178L167.679 93.1611C161.569 96.899 156.016 103.002 155.515 110.5H167.4ZM256.357 110.5C256.161 103.088 250.53 97.1191 244.747 93.2022L239.454 96.608C242.481 100.637 244.624 105.374 244.839 110.5H256.354H256.357ZM182.257 110.5L183.669 100.794L174.762 97.2832C171.638 100.958 169.035 105.527 169.075 110.5H182.261H182.257ZM242.986 110.5C242.863 106.822 241.43 103.338 239.535 100.256C239.235 99.7677 237.819 97.4287 237.355 97.4735L228.14 101.077C229.217 104.076 229.763 107.311 229.8 110.5H242.986ZM202.129 110.5C202.244 108.855 202.259 107.21 202.315 105.561C202.329 105.121 202.768 104.181 202.326 103.867C196.699 103.711 191.168 102.633 185.708 101.349C184.75 104.289 184.337 107.4 184.3 110.5H202.129ZM226.454 101.361C220.931 102.838 215.274 103.662 209.557 103.972L210.118 110.496L227.761 110.314C227.739 107.284 227.468 104.218 226.454 101.361ZM166.843 112.738H155.515C156.194 119.916 161.157 125.705 166.932 129.525L166.843 112.738ZM182.443 112.738H169.072L183.739 122.064C183.153 118.968 182.139 115.95 182.443 112.738ZM202.129 112.738H184.3C184.233 113.917 184.947 121.255 185.897 121.475C191.075 120.102 196.401 119.487 201.731 119.054L202.129 112.738ZM227.572 112.738H210.3L210.779 118.916C216.043 119.281 221.224 120.121 226.35 121.329C227.371 118.606 227.49 115.629 227.572 112.738ZM242.8 112.925L229.8 112.735C229.644 115.816 229.239 118.931 228.315 121.874L242.8 112.925ZM256.357 112.738H245.029L244.936 129.525C250.634 125.825 255.849 119.841 256.357 112.738ZM201.2 120.759C196.323 121.176 191.473 121.826 186.722 123.004C186.328 123.459 188.653 127.977 189.125 128.693C189.56 129.35 190.852 131.2 191.61 131.2C192.654 131.2 195.662 130.223 196.621 129.682C199.759 127.914 200.669 124.075 201.2 120.762V120.759ZM225.715 123.187C223.226 122.605 220.697 122.079 218.163 121.725C215.797 121.393 213.413 121.259 211.047 120.949C211.292 122.822 211.452 124.746 212.38 126.414C214.048 129.402 217.354 131.2 220.752 131.178C223.304 129.189 224.184 125.91 225.715 123.191V123.187ZM233.329 125.978C233.477 125.757 231.36 124.989 231.145 124.907C229.979 124.467 228.764 124.116 227.579 123.743C226.509 126.227 225.481 128.775 223.672 130.827C227.315 130.368 230.302 127.861 233.329 125.978ZM184.653 123.944C184.341 123.717 179.631 125.28 179 125.601C178.825 125.69 178.558 125.72 178.543 125.978C181.533 128.04 184.549 130.115 188.2 130.827C186.614 128.757 185.467 126.429 184.653 123.944ZM186.9 138.105L179.49 133.517C177.351 131.946 175.263 130.338 173.596 128.246L169.072 130.924C174.576 134.255 180.657 136.576 186.897 138.105H186.9ZM225.157 137.915C231.342 136.557 237.641 134.308 242.982 130.92C242.975 130.685 239.42 128.436 239.075 128.313C238.848 128.234 238.744 128.167 238.477 128.238C238.209 128.309 234.907 131.681 234.261 132.226C232.56 133.662 230.714 134.93 228.812 136.079L225.161 137.911L225.157 137.915Z" fill="black"/>
<path d="M160.294 135.916L162.203 145.193C162.638 145.283 162.5 145.137 162.619 144.951C163.741 143.201 164.614 141.25 165.728 139.493C166.307 139.12 168.317 140.989 169.074 141.094L162.638 151.707C162.311 151.804 159.937 150.408 159.74 149.998L157.649 140.721L154.217 146.611C153.909 146.812 151.108 144.97 151.09 144.735L157.374 134.006L160.294 135.923V135.916Z" fill="black"/>
<path d="M193.214 74.1287L189.685 74.8748L188.292 67.9735L185.774 72.629L185.228 72.5432L181.514 69.4657L182.628 76.5534L179.471 77.113L177.053 64.9892C178.078 65.1421 179.266 64.3998 180.258 64.6609C181.25 64.922 183.59 67.6266 184.764 68.1488C185.302 68.1003 187.011 63.3851 187.646 62.8517C188.229 62.363 190.179 62.4861 190.989 62.2734L193.214 74.1287Z" fill="black"/>
<path d="M168.143 81.5851L164.99 83.4541L162.572 79.4327L162.327 79.373L157.743 82.1522L160.339 86.3451L157.19 88.3036L150.883 77.7913L154.025 75.8067L156.347 79.7125L160.9 76.9221L158.657 72.7478L161.55 70.9609L168.143 81.5851Z" fill="black"/>
<path d="M247.273 69.6631L258.754 75.8966L252.554 86.6141C252.112 86.1701 249.847 85.1741 249.85 84.6742L254.107 76.7994L253.947 76.4636L249.208 73.7591L244.662 82.0704L241.516 80.3582L247.273 69.6631Z" fill="black"/>
<path d="M256.172 148.174C255.485 148.267 253.341 150.117 252.859 149.83L246.344 139.314C248.524 138.128 251.707 134.964 254.196 135.005C256.859 135.05 258.456 137.482 257.992 140.019C257.605 142.13 253.858 143.637 253.776 143.996L256.179 148.17L256.172 148.174ZM250.786 139.228L252.376 141.836C253.431 141.291 255.228 140.265 254.218 138.855C253.208 137.445 251.848 138.859 250.786 139.228Z" fill="black"/>
<path d="M197.857 157.13L197.735 159.887L197.549 160.129C193.415 161.402 187.157 160.297 186.551 155.153C185.871 149.356 190.191 146.707 195.484 147.86C195.974 147.968 198.374 148.748 198.604 149.017C198.897 149.352 198.812 149.901 198.786 150.322C198.764 150.695 198.563 152.467 198.325 152.464C195.77 149.378 189.601 150.199 190.262 154.97C190.711 158.22 195.543 158.063 197.857 157.134V157.13Z" fill="black"/>
<path d="M227.728 147.088L227.944 149.666C226.974 149.326 222.852 148.513 223.145 150.464C223.353 151.844 227.717 151.811 228.95 153.224C229.89 154.303 229.916 156.347 229.214 157.567C227.851 159.935 223.416 159.962 221.095 159.342L220.883 156.571C221.956 156.981 226.376 157.921 226.053 155.772C225.879 154.608 222.387 154.317 221.243 153.687C219.553 152.754 219.338 151.419 219.598 149.591C220.014 146.655 225.504 146.181 227.725 147.088H227.728Z" fill="black"/>
<path d="M233.317 64.6311L232.957 67.414L228.503 66.4814L226.627 75.7925L222.928 75.2478L224.785 65.7353L220.514 64.9892L220.885 62.3779L233.317 64.6311Z" fill="black"/>
<path d="M250.785 139.228C251.847 138.859 253.24 137.498 254.217 138.855C255.194 140.213 253.43 141.291 252.375 141.836L250.785 139.228Z" fill="white"/>
</svg>
