<svg width="24" height="24" fill="none" xmlns="http://www.w3.org/2000/svg"><path d="M4.452 19.65l-.428.905.428-.904zm0-8.3l.427.904-.427-.904zm.71-.14l.16-.987-.16.987zm.661.419l.823-.568-.823.568zm-.662 8.161l.162.987-.162-.987zm.662-.419L5 18.804l.823.567zm13.725.28l.428.904-.428-.904zm0-8.301l-.427.904.427-.904zm-.71-.14l-.16-.987.16.987zm-.661.419l-.823-.568.823.568zm.662 8.161l-.162.987.162-.987zm-.662-.419l.823-.567-.823.567zm-13.298-.625C3.82 18.246 3 17.017 3 15.5H1c0 2.218 1.203 4.194 3.024 5.055l.855-1.809zM3 15.5c0-1.518.82-2.746 1.88-3.246l-.856-1.809C2.203 11.306 1 13.282 1 15.5h2zm4 2.9v-5.8H5v5.8h2zm-2.12-6.146a8.814 8.814 0 01.138-.064c.025-.01.024-.008.008-.005a.256.256 0 01-.053.007c-.012 0-.006 0 .027.004l.323-1.973a1.886 1.886 0 00-.765.018c-.225.054-.424.153-.534.204l.855 1.809zM7 12.6c0-.406.03-.982-.354-1.539L5 12.196a.079.079 0 01-.01-.021c-.005-.014-.004-.017-.002.001.004.023.007.063.01.137.002.075.002.164.002.287h2zm-2-.404a.492.492 0 01-.06-.013l-.005-.002a.303.303 0 01.055.03.566.566 0 01.051.037l-.003-.003A.337.337 0 015 12.196l1.646-1.135a2.054 2.054 0 00-.585-.539 2.053 2.053 0 00-.738-.3L5 12.197zm-.976 8.359c.11.051.309.15.534.204.263.064.512.06.765.018L5 18.804c-.033.005-.039.004-.027.004.015 0 .035.002.053.007.016.003.017.005-.008-.005a1.89 1.89 0 01-.139-.064l-.855 1.809zM5 18.4c0 .123 0 .212-.002.287a1.251 1.251 0 01-.01.137c-.002.018-.003.015.002.001a.079.079 0 01.01-.021l1.646 1.135C7.031 19.38 7 18.806 7 18.4H5zm.323 2.377c.295-.048.563-.188.738-.299.175-.11.416-.293.585-.54L5 18.805a.48.48 0 01.038-.049l.003-.003a.339.339 0 01-.05.037.56.56 0 01-.056.03c-.005.002-.003 0 .005-.002a.315.315 0 01.06-.013l.323 1.973zm14.652-.222C21.797 19.694 23 17.718 23 15.5h-2c0 1.517-.82 2.746-1.88 3.246l.855 1.809zM23 15.5c0-2.218-1.203-4.194-3.024-5.055l-.855 1.809C20.18 12.754 21 13.983 21 15.5h2zm-4 2.9v-5.8h-2v5.8h2zm.976-7.955c-.11-.051-.308-.15-.534-.204a1.886 1.886 0 00-.765-.018L19 12.196c.033-.005.039-.004.027-.004a.256.256 0 01-.053-.007c-.015-.003-.017-.005.008.005a1.905 1.905 0 01.139.064l.855-1.809zM19 12.6c0-.123 0-.212.002-.287.003-.075.006-.115.01-.137.002-.018.003-.015-.002-.001-.006.015-.012.024-.01.021l-1.646-1.135c-.385.557-.354 1.133-.354 1.539h2zm-.323-2.377a2.052 2.052 0 00-.738.299c-.175.11-.416.293-.585.54L19 12.195a.5.5 0 01-.038.049.323.323 0 01.048-.033.541.541 0 01.055-.03c.005-.003.003-.002-.005 0a.31.31 0 01-.06.014l-.323-1.973zm.444 8.523a8.94 8.94 0 01-.139.064c-.025.01-.023.008-.008.005a.256.256 0 01.053-.007c.012 0 .006 0-.027-.004l-.323 1.973c.253.042.502.046.765-.018.226-.054.424-.153.534-.204l-.855-1.809zM17 18.4c0 .406-.03.982.354 1.539L19 18.804c-.002-.003.004.006.01.021.005.014.004.017.002-.001a1.232 1.232 0 01-.01-.137A10.485 10.485 0 0119 18.4h-2zm2 .404a.494.494 0 01.06.013l.005.002a.298.298 0 01-.055-.03.548.548 0 01-.052-.038l.004.004a.294.294 0 01.038.049l-1.646 1.135c.17.246.41.428.585.539.175.111.443.251.738.3L19 18.803zM5 12a7 7 0 017-7V3a9 9 0 00-9 9h2zm7-7a7 7 0 017 7h2a9 9 0 00-9-9v2z" fill="#fff"/></svg>