<svg width="24" height="24" fill="none" xmlns="http://www.w3.org/2000/svg"><path fill-rule="evenodd" clip-rule="evenodd" d="M7.445 6.167h9.107c.356 0 .654 0 .896.02.254.02.491.065.716.18.345.175.626.456.801.8.115.226.16.463.18.717.02.242.02.54.02.896v6.44c0 .356 0 .654-.02.896-.02.254-.065.492-.18.716a1.833 1.833 0 01-.8.802 1.895 1.895 0 01-.716.18c-.243.02-.54.02-.897.02H7.445c-.356 0-.653 0-.896-.02a1.872 1.872 0 01-.716-.18 1.833 1.833 0 01-.801-.802 1.872 1.872 0 01-.18-.716c-.02-.242-.02-.54-.02-.896V8.78c0-.356 0-.654.02-.896a1.85 1.85 0 01.18-.716c.176-.345.456-.626.801-.802a1.89 1.89 0 01.716-.18c.243-.02.54-.02.896-.02zm-.824 1.017l4.866 3.785a.833.833 0 001.023 0l4.866-3.785h-.009a11.453 11.453 0 00-.835-.017H7.465a11.455 11.455 0 00-.844.017zm11.517.675l-5.014 3.899a1.834 1.834 0 01-2.25 0l-5.014-3.9a2.122 2.122 0 00-.011.107c-.017.197-.017.453-.017.835v6.4c0 .382 0 .638.017.835.015.191.043.283.074.343.08.157.207.285.364.364.06.031.152.06.343.075.198.016.454.016.835.016h9.067c.382 0 .638 0 .835-.016.191-.016.283-.044.343-.075a.833.833 0 00.364-.364c.031-.06.06-.152.075-.343.016-.197.016-.453.016-.835V8.8c0-.382 0-.638-.016-.835a2.204 2.204 0 00-.011-.106z" fill="#fff"/></svg>