<svg width="24" height="24" viewBox="0 0 24 24" fill="none" xmlns="http://www.w3.org/2000/svg">
<path d="M6.74984 7.91667L11.2836 11.4429C11.7049 11.7706 12.2948 11.7706 12.7161 11.4429L17.2498 7.91667M8.03317 16.6667H15.9665C16.6199 16.6667 16.9466 16.6667 17.1962 16.5395C17.4157 16.4277 17.5942 16.2492 17.706 16.0297C17.8332 15.7801 17.8332 15.4534 17.8332 14.8V9.2C17.8332 8.54661 17.8332 8.21991 17.706 7.97034C17.5942 7.75082 17.4157 7.57234 17.1962 7.46049C16.9466 7.33333 16.6199 7.33333 15.9665 7.33333H8.03317C7.37978 7.33333 7.05308 7.33333 6.80351 7.46049C6.58399 7.57234 6.40552 7.75082 6.29366 7.97034C6.1665 8.21991 6.1665 8.54661 6.1665 9.2V14.8C6.1665 15.4534 6.1665 15.7801 6.29366 16.0297C6.40552 16.2492 6.58399 16.4277 6.80351 16.5395C7.05308 16.6667 7.37978 16.6667 8.03317 16.6667Z" stroke="white"/>
</svg>
