<svg width="22" height="26" viewBox="0 0 22 26" fill="none" xmlns="http://www.w3.org/2000/svg">
<path fill-rule="evenodd" clip-rule="evenodd" d="M20 0C21.1045 0 22 0.895508 22 2V24C22 25.1045 21.1045 26 20 26H2C0.895508 26 0 25.1045 0 24V2C0 0.895508 0.895508 0 2 0H20ZM20 24V2H2V24H20ZM4 5C4 4.44727 4.44727 4 5 4H17C17.5527 4 18 4.44727 18 5V11C18 11.5527 17.5527 12 17 12H5C4.44727 12 4 11.5527 4 11V5ZM6 6V10H16V6H6ZM7.5 15.5C7.5 16.3281 6.82812 17 6 17C5.17188 17 4.5 16.3281 4.5 15.5C4.5 14.6719 5.17188 14 6 14C6.82812 14 7.5 14.6719 7.5 15.5ZM12.5 15.5C12.5 16.3281 11.8281 17 11 17C10.6416 17 10.3125 16.874 10.0547 16.6641C9.86816 16.5127 9.71875 16.3174 9.62207 16.0938C9.61035 16.0664 9.59961 16.0381 9.58984 16.0098L9.57227 15.96L9.5498 15.8848L9.53125 15.8057C9.51855 15.7471 9.50977 15.6865 9.50488 15.625C9.50195 15.584 9.5 15.542 9.5 15.5C9.5 14.6719 10.1719 14 11 14C11.8281 14 12.5 14.6719 12.5 15.5ZM16 17C16.8281 17 17.5 16.3281 17.5 15.5C17.5 15.0625 17.3125 14.668 17.0127 14.3936C16.7461 14.1494 16.3906 14 16 14C15.1719 14 14.5 14.6719 14.5 15.5C14.5 16.3281 15.1719 17 16 17ZM16 22C16.8281 22 17.5 21.3281 17.5 20.5C17.5 19.6719 16.8281 19 16 19C15.7598 19 15.5322 19.0566 15.3311 19.1572C15.1416 19.252 14.9746 19.3857 14.8408 19.5479C14.749 19.6602 14.6729 19.7861 14.6162 19.9219C14.541 20.0996 14.5 20.2949 14.5 20.5C14.5 20.8066 14.5918 21.0918 14.75 21.3291C15.0195 21.7334 15.4785 22 16 22ZM12.1953 21.4062C12.3867 21.1543 12.5 20.8398 12.5 20.5C12.5 20.1602 12.3867 19.8467 12.1963 19.5957C11.9229 19.2344 11.4883 19 11 19C10.1719 19 9.5 19.6719 9.5 20.5C9.5 21.3281 10.1719 22 11 22C11.126 22 11.248 21.9844 11.3652 21.9551C11.4678 21.9297 11.5664 21.8936 11.6592 21.8477C11.7588 21.7988 11.8525 21.7393 11.9385 21.6699C12.0352 21.5928 12.1211 21.5039 12.1953 21.4062ZM6 22C6.82812 22 7.5 21.3281 7.5 20.5C7.5 19.6719 6.82812 19 6 19C5.48145 19 5.02441 19.2637 4.75488 19.6641C4.59375 19.9033 4.5 20.1904 4.5 20.5C4.5 21.1143 4.86914 21.6426 5.39844 21.874C5.58301 21.9551 5.78613 22 6 22Z" fill="#2A2626"/>
</svg>
