<svg width="48" height="48" viewBox="0 0 48 48" fill="none" xmlns="http://www.w3.org/2000/svg">
<path fill-rule="evenodd" clip-rule="evenodd" d="M23.9167 2C11.8124 2 2 11.8124 2 23.9167C2 36.0209 11.8124 45.8333 23.9167 45.8333C36.0209 45.8333 45.8333 36.0209 45.8333 23.9167C45.8333 11.8124 36.0209 2 23.9167 2ZM0 23.9167C1.13249e-06 10.7079 10.7079 -1.19209e-06 23.9167 0C37.1255 1.13249e-06 47.8333 10.7079 47.8333 23.9167C47.8333 37.1255 37.1255 47.8333 23.9167 47.8333C10.7079 47.8333 -1.19209e-06 37.1255 0 23.9167ZM14.8762 21.1262C15.2667 20.7357 15.8999 20.7357 16.2904 21.1262L23.1506 27.9864C23.5737 28.4095 24.2596 28.4095 24.6827 27.9864L31.5429 21.1262C31.9334 20.7357 32.5666 20.7357 32.9571 21.1262C33.3476 21.5168 33.3476 22.1499 32.9571 22.5404L26.0969 29.4006C24.8928 30.6048 22.9405 30.6048 21.7364 29.4006L14.8762 22.5404C14.4857 22.1499 14.4857 21.5168 14.8762 21.1262Z" fill="#C62826"/>
</svg>
