<svg width="24" height="24" viewBox="0 0 24 24" fill="none" xmlns="http://www.w3.org/2000/svg">
<path fill-rule="evenodd" clip-rule="evenodd" d="M7.44508 6.16666L7.46536 6.16666H16.532L16.5523 6.16666C16.9084 6.16665 17.2057 6.16664 17.4485 6.18648C17.7017 6.20717 17.9395 6.25192 18.1643 6.36648C18.5093 6.54225 18.7898 6.82271 18.9655 7.16767C19.0801 7.39252 19.1248 7.63029 19.1455 7.88354C19.1654 8.12637 19.1654 8.42362 19.1654 8.77974V8.79999V15.2V15.2202C19.1654 15.5764 19.1654 15.8736 19.1455 16.1164C19.1248 16.3697 19.0801 16.6075 18.9655 16.8323C18.7898 17.1773 18.5093 17.4577 18.1643 17.6335C17.9395 17.7481 17.7017 17.7928 17.4485 17.8135C17.2057 17.8333 16.9084 17.8333 16.5523 17.8333H16.532H7.46537H7.44506C7.08897 17.8333 6.79174 17.8333 6.54892 17.8135C6.29566 17.7928 6.05789 17.7481 5.83305 17.6335C5.48809 17.4577 5.20762 17.1773 5.03185 16.8323C4.91729 16.6075 4.87255 16.3697 4.85186 16.1164C4.83202 15.8736 4.83202 15.5764 4.83203 15.2203L4.83203 15.2V8.79999L4.83203 8.7797C4.83202 8.4236 4.83202 8.12637 4.85186 7.88354C4.87255 7.63029 4.91729 7.39252 5.03185 7.16767C5.20762 6.82271 5.48809 6.54225 5.83305 6.36648C6.05789 6.25192 6.29566 6.20717 6.54892 6.18648C6.79174 6.16664 7.08897 6.16665 7.44508 6.16666ZM6.62104 7.18394L11.4871 10.9686C11.788 11.2027 12.2094 11.2027 12.5103 10.9686L17.3764 7.18394C17.3733 7.18368 17.3702 7.18342 17.367 7.18316C17.1698 7.16705 16.9137 7.16666 16.532 7.16666H7.46536C7.08375 7.16666 6.8276 7.16705 6.63035 7.18316C6.62722 7.18342 6.62412 7.18368 6.62104 7.18394ZM18.1377 7.85865L13.1243 11.758C12.4622 12.2729 11.5352 12.2729 10.8731 11.758L5.8597 7.85865C5.85551 7.89024 5.85176 7.92548 5.84854 7.96498C5.83242 8.16223 5.83203 8.41837 5.83203 8.79999V15.2C5.83203 15.5816 5.83242 15.8378 5.84854 16.035C5.86418 16.2264 5.8921 16.3179 5.92286 16.3783C6.00275 16.5351 6.13024 16.6626 6.28704 16.7425C6.34741 16.7733 6.43893 16.8012 6.63035 16.8168C6.8276 16.8329 7.08375 16.8333 7.46537 16.8333H16.532C16.9137 16.8333 17.1698 16.8329 17.367 16.8168C17.5585 16.8012 17.65 16.7733 17.7104 16.7425C17.8672 16.6626 17.9946 16.5351 18.0745 16.3783C18.1053 16.3179 18.1332 16.2264 18.1489 16.035C18.165 15.8378 18.1654 15.5816 18.1654 15.2V8.79999C18.1654 8.41837 18.165 8.16223 18.1489 7.96498C18.1456 7.92548 18.1419 7.89024 18.1377 7.85865Z" fill="white"/>
</svg>
