<svg width="24" height="24" viewBox="0 0 24 24" fill="none" xmlns="http://www.w3.org/2000/svg">
<path fill-rule="evenodd" clip-rule="evenodd" d="M12.3948 18.6762H12.3918C11.1976 18.6758 10.0241 18.3762 8.98187 17.8077L5.19922 18.8L6.21152 15.1024C5.58707 14.0202 5.25852 12.7927 5.25902 11.5351C5.26062 7.60085 8.46162 4.39999 12.3947 4.39999C14.3035 4.40082 16.0951 5.14395 17.4423 6.4927C18.7895 7.8414 19.531 9.63415 19.5303 11.5407C19.5287 15.4741 16.329 18.6746 12.3948 18.6762ZM9.15717 16.5159L9.37372 16.6444C10.2843 17.1848 11.3281 17.4707 12.3924 17.4711H12.3948C15.6636 17.4711 18.3242 14.8105 18.3255 11.5403C18.3261 9.9556 17.7098 8.46555 16.5901 7.3445C15.4703 6.22345 13.9812 5.60575 12.3971 5.6052C9.12567 5.6052 6.46512 8.26555 6.46382 11.5355C6.46337 12.6562 6.77692 13.7475 7.37057 14.6918L7.51162 14.9162L6.91247 17.1047L9.15717 16.5159ZM15.7454 13.077C15.8698 13.1371 15.9538 13.1777 15.9896 13.2375C16.0342 13.3119 16.0342 13.6689 15.8857 14.0854C15.737 14.5019 15.0247 14.882 14.6822 14.9331C14.375 14.9791 13.9863 14.9982 13.5592 14.8625C13.3002 14.7803 12.9682 14.6706 12.5428 14.4869C10.8713 13.7652 9.74172 12.1452 9.52822 11.839C9.51327 11.8175 9.50282 11.8025 9.49697 11.7947L9.49557 11.7928C9.40122 11.6669 8.76897 10.8234 8.76897 9.9504C8.76897 9.1291 9.17237 8.69865 9.35807 8.5005C9.37082 8.48695 9.38252 8.47445 9.39297 8.463C9.55642 8.2845 9.74957 8.23985 9.86842 8.23985C9.98727 8.23985 10.1063 8.24095 10.2102 8.2462C10.223 8.24685 10.2363 8.24675 10.2501 8.24665C10.354 8.24605 10.4835 8.2453 10.6113 8.55225C10.6605 8.67035 10.7324 8.8455 10.8083 9.0302C10.9617 9.4037 11.1312 9.8164 11.161 9.8761C11.2056 9.96535 11.2353 10.0694 11.1759 10.1884C11.167 10.2063 11.1587 10.2231 11.1508 10.2392C11.1062 10.3304 11.0734 10.3974 10.9976 10.4859C10.9678 10.5206 10.937 10.5581 10.9062 10.5956C10.8449 10.6703 10.7836 10.745 10.7302 10.7982C10.6409 10.8871 10.548 10.9836 10.652 11.1621C10.756 11.3406 11.1138 11.9244 11.6438 12.3972C12.2136 12.9054 12.7088 13.1202 12.9598 13.2291C13.0088 13.2504 13.0485 13.2676 13.0777 13.2822C13.2559 13.3714 13.3599 13.3565 13.4639 13.2375C13.5679 13.1185 13.9096 12.7169 14.0284 12.5384C14.1473 12.36 14.2662 12.3897 14.4296 12.4492C14.5931 12.5088 15.4696 12.94 15.6479 13.0293C15.6827 13.0467 15.7153 13.0624 15.7454 13.077Z" fill="white"/>
</svg>
