<svg width="50" height="50" fill="none" xmlns="http://www.w3.org/2000/svg"><path d="M50 25.005C50 38.817 38.815 50 25.008 50 11.198 50 0 38.817 0 25.005 0 11.194 11.198 0 25.008 0 38.815 0 50 11.194 50 25.005z" fill="#F8F8F8"/><g clip-path="url(#clip0_891_18847)"><path d="M24.908 9.827c-7.222 0-13.076 5.876-13.076 13.125a13.11 13.11 0 003.828 9.279c2.366 2.376 7.94 5.815 8.267 9.424.05.541.44.985.98.985.542 0 .933-.444.982-.985.326-3.61 5.9-7.048 8.267-9.424a13.108 13.108 0 003.828-9.279c0-7.249-5.854-13.125-13.076-13.125z" fill="#F43"/><path d="M24.909 27.546c2.527 0 4.576-2.057 4.576-4.594 0-2.537-2.049-4.594-4.576-4.594-2.528 0-4.577 2.057-4.577 4.594 0 2.537 2.049 4.594 4.577 4.594z" fill="#fff"/></g><defs><clipPath id="clip0_891_18847"><path fill="#fff" transform="translate(7.473 7.64)" d="M0 0h34.869v35H0z"/></clipPath></defs></svg>