<svg width="410" height="220" fill="none" xmlns="http://www.w3.org/2000/svg"><g clip-path="url(#clip0_281_33449)"><path d="M239.864 94.311l-9.517.522 7.994 1.515v7.426l-4.811 2.026c1.438-.178 7.888 3.823 6.334 5.222l-9.517-4.178c-.793.836 1.808 6.34-2.115 5.223l-.539-5.223-8.977 4.178c-1.153-4.021 3.616-4.24 6.333-5.222l-4.821-2.026v-7.426l7.994-.992c.243-1.818-2.422-1.014-3.691-1.045-1.935-.042-3.891.031-5.815 0-.18-1.107.021-2.026 1.025-2.642 2.094-1.275 14.423-.92 17.5-.512 1.713.22 2.951 1.232 2.612 3.154h.011zm-11.632 3.133h-5.287v1.034h5.287v-1.034zm7.402 0h-5.287v1.034h5.287v-1.034zm-7.402 3.134h-5.287v2.078c2.168.146 4.611.345 5.287-2.078zm7.402 0h-5.287v.522c1.322 1.849 3.141 1.713 5.287 1.567v-2.089zm-41.236 10.444V91.178h18.505l1.586 1.566v16.712l-1.586 1.566h-18.505zm10.575-17.755c-2.274.073-4.6-.115-6.884 0-1.734.083-2.972.908-1.576 2.089 2.781-.282 7.127 1.295 8.46-2.079v-.01zm6.344 0h-5.287v2.089c1.999-1.264 3.193-.46 5.277 0v-2.09h.01zm-14.804 15.666h14.804l-.518-2.078-13.218-.021c-.243-1.4 2.95-2.058 3.775-2.099 1.163-.063 2.157.365 3.141.898l1.554-1.431-1.078-6.758-8.439-1.055v12.534l-.021.01zm12.689-11.489h-2.115v3.123h1.047l1.058-3.123h.01zm2.083 6.236l-1.015-6.236-2.115 6.789 3.13-.553zm43.376-13.547l1.691 3.03 7.825.104c1.407 1.18.159 2.005-1.575 2.089-3.691.177-7.434-.136-11.114 0-1.343 1.128-.19 2.026 1.565 2.089 3.141.115 5.911-.303 8.914 1.128-.158 4.01 1.893 11.52-3.605 12.449-2.549.429-9.073.157-5.309-3.123l3.151 1.097 3.215-2.141.518-6.288h-9.517c.54 3.698-.698 6.319-2.918 9.129-1.248 1.577-.592 1.661-3.416 1.316.392-3.468 3.331-5.504 3.998-9.097.401-2.183.232-4.376.232-6.57-.772-.762-6.44 1.786-5.287-2.089l9.485-.041c.138-2.246-.782-3.656 2.136-3.102l.011.02zm-75.079 0l1.692 3.029 7.835.104v12.544h-9.527c-.761.752 1.808 6.371-2.104 5.222v-5.222h-8.47V93.266l8.438-.03c.137-2.246-.782-3.657 2.136-3.103zm-2.104 5.222h-6.355v8.366c1.818-.094 4.811.575 5.868-.992l.476-7.374h.011zm8.459 0c-6.334-1.159-8.089 2.632-5.34 7.896l5.34.47v-8.366zm88.822-5.232l.085 3.06 3.14.637c-.898 2.528.92 5.296.92 7.27 0 2.59-1.935 6.642-.962 9.922h-5.287l3.225-2.737-.053-5.619-3.161 4.178-1.058-4.178-2.643 9.39-1.301-10.11.846-8.617 3.13-.564c1.396-.888.211-3.53 3.14-2.643l-.021.01zm1.058 5.233l-4.219 2.088 4.219 2.079v-4.178.01zm-3.701 3.133c-.688 0-.688 1.044 0 1.044.687 0 .687-1.044 0-1.044zm33.3-8.345l.624 2.13 7.877.439 1.015 3.154c-3.753 4.241-2.051-1.681-6.334-.512v4.178c1.068 1.065 6.705-3.28 6.334.522-1.691 2.455-8.681 2.371-9.389-.104-.635-2.193 1.311-5.337-2.221-4.585-.391 4.585-3.955 6.747-8.47 6.266-.73-3.331 3.965-2.214 5.277-4.7l-2.644-1.577-2.115 3.144c-2.76-1.838-1.121-3.77-.433-6.162l7.74-.042.624-2.13h2.104l.011-.021zm8.469 12.523c.846 3.582-3.51 1.733-5.836 2.068-3.786.543-3.638 3.854 1.036 4.25 2.294.188 6.725-1.462 5.858 2.048h-21.148c-.085-2.215-.487-1.985 1.575-2.089 2.633-.126 5.308.094 7.941 0l-.497-3.165-7.962-1.013 1.586-2.089h17.447v-.01zm-104.682 22.977v-7.311c1.195-1.389 2.03-.156 2.115 1.557.179 3.645-.127 7.342 0 10.977-1.756 1.88-6.133-6.142-6.874-7.311-1.279.052 1.058 8.251-3.701 7.311.275-2.183-1.004-13.651 1.587-13.568l6.873 8.345zm103.625 0v-7.311c1.195-1.389 2.03-.156 2.115 1.557.179 3.645-.127 7.342 0 10.977-1.756 1.88-6.133-6.142-6.874-7.311-1.279.052 1.058 8.251-3.701 7.311.275-2.194-1.004-13.651 1.587-13.568l6.873 8.345zm-25.387-28.179l.011 11.468 3.172-2.089v4.178h-5.287l-.529-11.489-2.58 8.941-3.236 2.548 1.1-13.525 7.349-.032zm13.67 20.942l1.121 10.904-2.105 1.044-2.041-4.261-4.303-.449c-.793.846 1.808 6.339-2.115 5.222v-12.534l9.432.074h.011zm-2.031 2.015h-5.287v1.557l1.703 1.462 3.584.115v-3.134zm-33.877-2.026l.043 3.071-6.334-.522 6.915 3.603c1.703 2.496-.391 6.016-3.235 6.371l-5.763-1.149-.032-3.071c2.982.115 4.526 4.314 7.391.523l-6.905-3.614-.391-5.181c3.119-1.42 5.192-1.284 8.332-.031h-.021zm-80.301 4.105l5.277.021c.211-2.141-1.227-4.899 2.104-4.178v12.533c-4.05 1.18-1.248-5.42-2.104-6.266h-5.298c.878 1.723-.825 8.418-2.654 5.232-.804-1.41-.888-9.222-.444-10.893.983-3.708 4.293.867 3.109 3.561l.01-.01zm104.663-4.168l-7.402 2.611 6.345 3.123-6.355.533v3.133l7.391 1.567c-.063 1.911-6.979 2.11-8.512 1.097l-1.005-12.074h9.517l.021.01zm-109.971 4.178c-4.272-3.227-10.31-3.133-8.301 3.499 1.692 5.577 7.286-.261 8.301.679.19 4.94-8.216 5.755-10.056 2.099-.973-1.932-1.079-8.408.529-9.953 3.108-2.998 10.426-1.442 9.537 3.676h-.01zm75.075 8.356l-3.817-3.175-4.494.198-1.195 2.465-2.104-1.045c2.495-3.791 1.977-9.118 5.805-12.011 2.146-.021 6.048 11.124 5.816 13.568h-.011zm-4.23-5.223l-1.057-4.167h-1.047l-1.057 4.167h3.172-.011zm-9.515-7.311c1.142 4.022-5.276 1.202-6.344 2.089-.899 4.178 5.382.209 6.344 4.168h-6.344v3.133l7.391 1.567c-2.305 2.83-6.397 1.18-9.506 1.566v-12.544h8.459v.021zm-16.92 12.534c-2.305-1.389-4.41-4.794-7.487-2.664-1.226.857-.158 3.562-3.087 2.653l3.151-11.833 2.664-1.724c1.322-.094 5.848 11.416 4.748 13.557l.011.011zm-3.172-5.222l-1.058-4.178c-.38-.418-1.544 1.023-2.104 1.566v2.601h3.172l-.01.011zm57.101-7.312l-4.145 2.162c-.275 2.914.063 5.881-.074 8.816-.085 1.702-.92 2.934-2.115 1.556v-10.445c-2.157-.198-4.949 1.212-4.23-2.078h10.574l-.01-.011zm7.538-25.213c1.448.972 4.959-1.451 4.092 2.236h-10.574c-.582-3.008 1.004-1.839 3.087-2.162l.085-3.06c2.305-.418 2.675 1.284 3.31 2.986zm-87.901 37.747c-1.195 1.389-2.031.157-2.115-1.556-.18-3.583-.941-9.306 1.586-12.022l.529 13.578zM148.928 87c-2.908 2.12-6.905 2.548-10.246 3.98-10.543 4.49-20.535 11.238-25.695 21.619l7.105-3.425c10.554-3.729 21.931-5.097 33.066-5.452-.349 1.942-2.147 1.796-3.574 2.214-5.848 1.681-11.706 2.151-17.574 4.574-3.099 1.285-8.407 3.698-8.491 7.332-.075 3.332 9.738 5.432 12.477 6.476.973.376 3.786.7 2.887 2.36l-13.525-2.308-12.382-4.48c3.5 7.499 10.331 9.953 16.908 14.1h-12.689c-1.787-1.651-4.229-.888-6.736-2.225-7.539-4.032-11.864-15.667-15.459-22.832v-1.044l8.502-.481c5.297-6.747 9.559-14.476 15.819-20.408h29.607z" fill="#2A2626"/><path d="M211.282 103.68l-3.13.553 2.105-6.789 1.025 6.236z" fill="#fff"/><path d="M197.57 98.489h6.355v5.232h-6.355v-5.232zm4.23 1.044h-1.576l-1.596 2.079h3.172v-2.079z" fill="#2A2626"/></g><defs><clipPath id="clip0_281_33449"><path fill="#fff" transform="translate(95 87)" d="M0 0h221v47H0z"/></clipPath></defs></svg>