<svg width="410" height="220" fill="none" xmlns="http://www.w3.org/2000/svg"><path d="M144.455 126.68v-6.005l.036-.493h-.077l-2.6 6.498h-1.419l-2.6-6.498h-.077l.036.495v6.003h-1.977v-8.752h2.728l2.6 6.627 2.599-6.627h2.728v8.752h-1.977zm8.168.346c-1.598 0-2.795-.581-3.559-1.726-.758-1.137-.839-2.474-.839-2.997 0-.522.081-1.859.839-2.996.764-1.146 1.961-1.727 3.559-1.727s2.795.581 3.559 1.727c.758 1.137.84 2.474.84 2.996 0 .522-.082 1.86-.84 2.997-.764 1.145-1.961 1.726-3.559 1.726zm0-8.075c-.854 0-2.287.435-2.287 3.352s1.433 3.352 2.287 3.352c.855 0 2.287-.435 2.287-3.352s-1.432-3.352-2.287-3.352zm6.191 10.934v-11.958h1.808v.866h.059c.854-1.056 2.1-1.213 2.768-1.213 1.898 0 4.112 1.223 4.112 4.671 0 1.12-.292 4.775-4.044 4.775-.472 0-2.06-.089-2.68-1.234l-.046-.085v4.178h-1.977zm4.214-10.934c-.718 0-2.389.328-2.389 3.37 0 2.056.883 3.334 2.304 3.334.754 0 2.506-.319 2.506-3.282 0-2.143-.905-3.422-2.421-3.422zm10.118 8.075c-2.72 0-4.281-1.715-4.281-4.705 0-4.125 2.64-4.741 4.213-4.741 2.716 0 3.876 1.661 4.058 3.225h-1.875c-.107-.9-.704-1.854-2.064-1.854-1.835 0-2.22 1.832-2.22 3.37 0 1.002.228 3.334 2.338 3.334 1.385 0 1.932-1.151 1.981-2.148h1.874c-.359 3.265-3.169 3.519-4.024 3.519zm11.149-.346l-3.469-4.308v4.308h-1.976v-8.753h1.976v3.714l3.301-3.722 2.255.008-3.792 4.081 3.981 4.672h-2.276zm7.213.346c-1.598 0-2.795-.581-3.559-1.726-.758-1.137-.84-2.474-.84-2.997 0-.522.082-1.86.84-2.996.764-1.146 1.961-1.727 3.559-1.727s2.795.581 3.559 1.727c.758 1.137.84 2.474.84 2.996 0 .523-.082 1.86-.84 2.997-.764 1.145-1.961 1.726-3.559 1.726zm0-8.075c-.854 0-2.287.435-2.287 3.352s1.433 3.352 2.287 3.352c.854 0 2.287-.435 2.287-3.352s-1.433-3.352-2.287-3.352zm10.305-1.923c-2.284 0-3.054-1.313-3.295-2.427h1.668c.05.873.85 1.264 1.627 1.264s1.577-.391 1.627-1.264h1.668c-.241 1.114-1.011 2.427-3.295 2.427zm-4.112 9.652v-8.752h1.977v6.401l4.063-6.413 2.183.011v8.753h-1.977v-6.402l-4.062 6.414-2.184-.012zm14.793 3.205v-11.958h1.808v.866h.058c.854-1.056 2.101-1.213 2.769-1.213 1.897 0 4.111 1.223 4.111 4.671 0 1.12-.291 4.775-4.043 4.775-.473 0-2.06-.089-2.68-1.234l-.046-.085v4.178h-1.977zm4.213-10.934c-.718 0-2.388.328-2.388 3.37 0 2.056.883 3.334 2.303 3.334.754 0 2.507-.319 2.507-3.282 0-2.143-.905-3.422-2.422-3.422zm14.904 7.729v-8.752h1.977v8.752h-1.977zm-8.576 0v-8.752h1.977v3.396h2c1.236 0 3.538 0 3.538 2.695 0 1.766-1.032 2.661-3.065 2.661h-4.45zm1.977-1.37h1.983c.454 0 1.51-.131 1.51-1.343 0-.58-.257-1.273-1.484-1.273h-2.009v2.616zm15.089 1.716c-2.933 0-4.484-1.8-4.484-5.207 0-2.208.209-3.786.64-4.825.664-1.591 1.839-2.221 4.656-2.498.833-.071 1.126-.206 1.232-.571h1.609c-.166 2.019-1.717 2.178-2.964 2.306-1.493.163-3.993.436-3.855 3.821l.002.024h.075l.005-.017c.488-1.421 1.844-2.339 3.454-2.339 2.459 0 4.112 1.87 4.112 4.653 0 2.147-1.174 4.653-4.482 4.653zm0-7.936c-.886 0-2.372.427-2.372 3.283 0 2.857 1.486 3.283 2.372 3.283.885 0 2.37-.426 2.37-3.283 0-2.856-1.485-3.283-2.37-3.283zm12.016 7.59v-3.916h-3.763v3.916h-1.977v-8.752h1.977v3.465h3.763v-3.465h1.977v8.752h-1.977zm12.836 0v-8.752h1.977v8.752h-1.977zm-8.576 0v-8.752h1.977v3.396h2c1.235 0 3.537 0 3.537 2.695 0 1.766-1.031 2.661-3.065 2.661h-4.449zm1.977-1.37h1.983c.453 0 1.51-.131 1.51-1.343 0-.58-.258-1.273-1.484-1.273h-2.009v2.616zm14.971-8.282c-2.284 0-3.054-1.313-3.296-2.427h1.668c.051.873.851 1.264 1.628 1.264.777 0 1.576-.391 1.627-1.264h1.668c-.241 1.114-1.011 2.427-3.295 2.427zm-4.112 9.652v-8.752h1.976v6.401l4.063-6.413 2.184.011v8.753h-1.977v-6.402l-4.063 6.414-2.183-.012zm20.668 0v-7.382h-3.898v7.382h-1.977v-8.752h7.852v8.752h-1.977zm8.17.346c-1.598 0-2.796-.581-3.559-1.726-.758-1.137-.84-2.474-.84-2.997 0-.522.082-1.86.84-2.996.763-1.146 1.961-1.727 3.559-1.727 1.597 0 2.795.581 3.559 1.727.758 1.137.84 2.474.84 2.996 0 .523-.082 1.86-.84 2.997-.764 1.145-1.962 1.726-3.559 1.726zm0-8.075c-.854 0-2.287.435-2.287 3.352s1.433 3.352 2.287 3.352c.854 0 2.286-.435 2.286-3.352s-1.432-3.352-2.286-3.352zm6.191 10.934v-11.958h1.808v.866h.059c.854-1.056 2.1-1.213 2.768-1.213 1.897 0 4.112 1.223 4.112 4.671 0 1.12-.292 4.775-4.044 4.775-.472 0-2.06-.089-2.68-1.234l-.046-.085v4.178h-1.977zm4.213-10.934c-.718 0-2.388.328-2.388 3.37 0 2.056.883 3.334 2.304 3.334.753 0 2.506-.319 2.506-3.282 0-2.143-.905-3.422-2.422-3.422zm8.27 7.729v-7.382h-2.938v-1.37h7.852v1.37h-2.938v7.382h-1.976zm-180.95-19.546v-12.08h5.547c2.952 0 3.571 1.655 3.571 3.043 0 1.309-.796 2.367-1.938 2.574l-.02.004v.077l.02.004c.73.129 2.428.681 2.428 3.007 0 3.022-2.452 3.372-4.297 3.372l-5.311-.001zm2.112-1.786h2.979c1.156 0 2.338-.217 2.338-1.828 0-1.758-1.603-1.758-2.287-1.758h-3.03v3.586zm0-5.372h2.878c1.33 0 1.949-.465 1.949-1.463 0-.763-.347-1.672-2-1.672h-2.827v3.135zm9.501 7.266c-.292 0-.612-.035-.952-.103v-1.37c.143.026.28.038.407.038.389 0 .707-.124.943-.369.651-.673.639-2.176.628-3.629a55.733 55.733 0 01-.003-.576v-2.851h6.517v8.752h-1.976v-7.382h-2.7v1.672c0 1.397-.031 2.853-.401 3.953-.422 1.255-1.228 1.865-2.463 1.865zm27.031 2.18v-2.288h-7.072v2.288h-1.808v-3.658h1.157c1.392-2.186 1.392-4.764 1.392-5.865v-1.517h6.654v7.382h1.485v3.658h-1.808zm-4.489-8.57c0 2.11-.328 3.166-1.112 4.876l-.017.036h3.963v-6.012h-2.835l.001 1.1zm7.433 6.282v-8.752h1.977v6.401l4.063-6.413 2.184.011v8.753h-1.977v-6.402l-4.063 6.414-2.184-.012zm10.506 0v-8.752h4.601c1.858 0 2.761.689 2.761 2.106 0 1.254-.844 1.865-1.634 2.02l-.021.004v.076l.02.004c.885.179 1.939.713 1.939 2.245 0 1.899-1.685 2.297-3.099 2.297h-4.567zm1.977-1.37h1.949c1.402 0 1.696-.645 1.696-1.187 0-.868-.577-1.29-1.764-1.29h-1.881v2.477zm0-3.847h1.763c1.439 0 1.595-.793 1.595-1.135 0-.684-.463-1.03-1.375-1.03h-1.983v2.165zm11.425 5.564c-1.597 0-2.794-.581-3.559-1.726-.758-1.137-.839-2.474-.839-2.997 0-.522.081-1.86.839-2.996.765-1.146 1.962-1.727 3.559-1.727 1.598 0 2.795.581 3.559 1.727.758 1.136.84 2.474.84 2.996 0 .523-.082 1.86-.84 2.997-.764 1.145-1.961 1.726-3.559 1.726zm0-8.075c-.854 0-2.286.435-2.286 3.352s1.432 3.352 2.286 3.352c.855 0 2.287-.435 2.287-3.352s-1.432-3.352-2.287-3.352zm9.984 8.075c-2.72 0-4.28-1.715-4.28-4.705 0-4.125 2.639-4.74 4.213-4.74 2.716 0 3.875 1.66 4.058 3.224h-1.876c-.107-.9-.704-1.854-2.064-1.854-1.835 0-2.219 1.832-2.219 3.37 0 2.901 1.464 3.334 2.337 3.334 1.386 0 1.932-1.151 1.982-2.148h1.873c-.359 3.265-3.169 3.519-4.024 3.519zm7.643-.347v-7.382h-2.937v-1.37h7.852v1.37h-2.938v7.382h-1.977zm10.112.347c-1.598 0-2.796-.581-3.559-1.726-.758-1.137-.84-2.474-.84-2.997 0-.522.082-1.86.84-2.996.763-1.146 1.961-1.727 3.559-1.727 1.597 0 2.795.581 3.559 1.727.758 1.136.84 2.474.84 2.996 0 .523-.082 1.86-.84 2.997-.764 1.145-1.962 1.726-3.559 1.726zm0-8.075c-.854 0-2.287.435-2.287 3.352s1.433 3.352 2.287 3.352c.854 0 2.286-.435 2.286-3.352s-1.432-3.352-2.286-3.352zm11.637 7.728l-3.469-4.308v4.308h-1.977v-8.752h1.977v3.713l3.301-3.722 2.255.008-3.792 4.081 3.98 4.672h-2.275zm7.097.347c-2.721 0-4.281-1.715-4.281-4.705 0-4.125 2.639-4.74 4.213-4.74 2.716 0 3.875 1.66 4.058 3.224h-1.875c-.107-.9-.705-1.854-2.065-1.854-1.834 0-2.219 1.832-2.219 3.37 0 2.901 1.464 3.334 2.337 3.334 1.386 0 1.933-1.151 1.982-2.148h1.874c-.36 3.265-3.17 3.519-4.024 3.519zm11.147-.347l-3.469-4.308v4.308h-1.977v-8.752h1.977v3.713l3.301-3.722 2.255.008-3.792 4.081 3.98 4.672h-2.275zm3.306 0v-8.752h1.977v6.401l4.063-6.413 2.183.011v8.753h-1.976v-6.402l-4.064 6.414-2.183-.012zm14.618-9.652c-2.284 0-3.054-1.312-3.295-2.427h1.668c.05.873.85 1.264 1.627 1.264.776 0 1.577-.39 1.627-1.264h1.668c-.241 1.115-1.011 2.427-3.295 2.427zm-4.112 9.652v-8.752h1.977v6.401l4.063-6.413 2.184.011v8.753h-1.978v-6.402l-4.063 6.414-2.183-.012zm-112.95.209c-2.049 0-3.132-.873-3.132-2.522 0-1.775 1.498-2.314 1.957-2.437.473-.137.928-.193 1.411-.253.188-.023.38-.047.578-.075.134-.018.274-.04.413-.061.139-.022.279-.044.414-.061l.133-.019c.619-.087.901-.127.901-.959 0-1.55-1.276-1.55-1.695-1.55-.725 0-1.294.204-1.646.59a1.45 1.45 0 00-.373 1.056h-1.874c-.01-.763.241-1.435.728-1.946.668-.7 1.762-1.07 3.165-1.07 2.436 0 3.672 1.04 3.672 3.093v6.006h-1.618v-1.297l-.044.054c-.811 1.003-1.733 1.451-2.99 1.451zm2.637-4.432c-.21.15-.469.237-1.441.359-1.375.19-2.284.315-2.284 1.481 0 .776.495 1.221 1.358 1.221.899 0 2.405-.354 2.405-2.728v-.36l-.038.027zm-42.842 4.082c.302 0 .546-.25.546-.56V87.431a.553.553 0 00-.546-.56h-18.512a.554.554 0 00-.546.56v12.774H88.046a.553.553 0 00-.546.56v19.001c0 .31.244.561.546.561h12.444V133.1c0 .31.245.56.546.56h18.512c.302 0 .546-.25.546-.56v-19.002a.553.553 0 00-.546-.56h-12.444v-6.545h12.444zM107.104 94.08c0-.232.183-.42.41-.42h5.557c.226 0 .41.188.41.42v5.705c0 .232-.184.42-.41.42h-5.557a.415.415 0 01-.41-.42V94.08zm-6.614 19.038c0 .232-.183.42-.409.42h-5.558a.415.415 0 01-.41-.42v-5.705c0-.232.184-.42.41-.42h5.558c.226 0 .409.188.409.42v5.705zm7.024 7.209h5.557c.226 0 .41.188.41.42v5.704a.416.416 0 01-.41.421h-5.557a.415.415 0 01-.41-.421v-5.704c0-.232.183-.42.41-.42z" fill="#2A2626"/></svg>