<svg xmlns="http://www.w3.org/2000/svg" width="0" height="0" class="hidden">
  <symbol id="calc" width="32" height="32" viewBox="0 0 32 32">
    <path class="calc-stroke" d="M22 8H10V14H22V8Z" stroke-width="2" stroke-linecap="round"
      stroke-linejoin="round" />
    <path class="calc-stroke"
      d="M26 27V5C26 4.44772 25.5523 4 25 4L7 4C6.44772 4 6 4.44772 6 5V27C6 27.5523 6.44772 28 7 28H25C25.5523 28 26 27.5523 26 27Z"
      stroke-width="2" stroke-linecap="round" stroke-linejoin="round" />
    <path
      class="calc-fill"
      d="M11 20C11.8284 20 12.5 19.3284 12.5 18.5C12.5 17.6716 11.8284 17 11 17C10.1716 17 9.5 17.6716 9.5 18.5C9.5 19.3284 10.1716 20 11 20Z"
    />
    <path
      class="calc-fill"
      d="M16 20C16.8284 20 17.5 19.3284 17.5 18.5C17.5 17.6716 16.8284 17 16 17C15.1716 17 14.5 17.6716 14.5 18.5C14.5 19.3284 15.1716 20 16 20Z"
    />
    <path
      class="calc-fill"
      d="M21 20C21.8284 20 22.5 19.3284 22.5 18.5C22.5 17.6716 21.8284 17 21 17C20.1716 17 19.5 17.6716 19.5 18.5C19.5 19.3284 20.1716 20 21 20Z"
    />
    <path
      class="calc-fill"
      d="M11 25C11.8284 25 12.5 24.3284 12.5 23.5C12.5 22.6716 11.8284 22 11 22C10.1716 22 9.5 22.6716 9.5 23.5C9.5 24.3284 10.1716 25 11 25Z"
    />
    <path
      class="calc-fill"
      d="M16 25C16.8284 25 17.5 24.3284 17.5 23.5C17.5 22.6716 16.8284 22 16 22C15.1716 22 14.5 22.6716 14.5 23.5C14.5 24.3284 15.1716 25 16 25Z"
    />
    <path
      class="calc-fill"
      d="M21 25C21.8284 25 22.5 24.3284 22.5 23.5C22.5 22.6716 21.8284 22 21 22C20.1716 22 19.5 22.6716 19.5 23.5C19.5 24.3284 20.1716 25 21 25Z"
    />
  </symbol>

  <symbol width="42" height="40" viewBox="0 0 42 40" fill="none">
    <style>
      
    </style>
    <path
      d="M14.5772 9.06008C13.8877 9.06008 13.3783 7.70158 14.1019 7.19721L21.625 0.0783273L39.8885 0.00181372C40.6818 -0.0325393 41.141 0.423419 41.1053 1.17294C40.737 6.52889 41.5709 12.4376 41.1036 17.728C41.0712 18.0871 41.0095 18.4322 40.8927 18.7742L33.4037 26.0805C32.9737 26.5099 31.692 26.0492 31.692 25.5261V9.06008H14.5772ZM37.3656 2.03801H22.5254L17.4165 7.03169H32.2566L37.3656 2.03801ZM33.7979 22.7935L38.988 17.8779V3.59951L33.7979 8.51512V22.7935Z"
      fill="#C62826" />
    <path
      d="M0.82724 22.8101C0.137717 22.8101 -0.371717 21.4516 0.351877 20.9472L7.87499 13.8283L26.1385 13.7518C26.9318 13.7175 27.391 14.1734 27.3553 14.9229C26.987 20.2789 27.8209 26.1876 27.3536 31.478C27.3212 31.8371 27.2595 32.1822 27.1427 32.5242L19.6537 39.8305C19.2237 40.2599 17.942 39.7992 17.942 39.2761V22.8101H0.82724ZM23.6156 15.788H8.77542L3.66646 20.7817H18.5066L23.6156 15.788ZM20.0479 36.5435L25.238 31.6279V17.3495L20.0479 22.2651V36.5435Z"
      fill="#C62826" />
  </symbol>

</svg>