<svg width="410" height="220" fill="none" xmlns="http://www.w3.org/2000/svg"><g clip-path="url(#clip0_281_33991)"><path d="M200.063 91.83l2.731.837c-.356 1.555-1.068 2.63-2.018 3.347-.95.717-2.138 1.076-3.682 1.076-1.781 0-3.325-.598-4.512-1.913-1.187-1.195-1.781-2.988-1.781-5.14 0-2.27.594-4.064 1.781-5.378 1.187-1.315 2.731-1.913 4.631-1.913 1.663 0 3.088.478 4.038 1.554.593.598 1.068 1.434 1.424 2.51l-2.73.718c-.119-.718-.475-1.315-1.069-1.674s-1.188-.598-1.9-.598c-1.069 0-1.781.36-2.494 1.076-.594.717-.95 1.913-.95 3.586 0 1.793.356 2.989.95 3.705.594.718 1.425 1.077 2.375 1.077.712 0 1.425-.24 1.9-.718.713-.478 1.069-1.195 1.306-2.151zm8.906 5.022V85.376h-4.037v-2.39h10.924v2.39h-4.037v11.475h-2.85zm9.736 0V83.106h4.394c1.662 0 2.731.12 3.325.239.831.239 1.425.597 2.019 1.314.593.718.831 1.555.831 2.63 0 .837-.119 1.555-.475 2.152-.356.597-.713 1.076-1.188 1.315-.475.358-.95.597-1.425.597-.712.12-1.662.24-2.849.24h-1.782v5.26h-2.85zm2.85-11.475v3.945h1.544c1.069 0 1.781-.12 2.137-.24.357-.12.713-.358.831-.717.238-.358.357-.717.357-1.076 0-.478-.119-.956-.475-1.195-.238-.359-.713-.478-1.069-.598s-.95-.12-2.019-.12h-1.306zm21.85 11.475h-2.968l-1.188-3.108h-5.581l-1.188 3.108h-2.968l5.343-13.746h2.969l5.581 13.746zm-5.106-5.499l-1.9-5.14-1.9 5.14h3.8zm6.295 5.499l4.631-7.172-4.275-6.575h3.206l2.732 4.423 2.731-4.422h3.205l-4.273 6.693 4.63 7.053h-3.325l-3.088-4.781-3.087 4.781h-3.087zm14.367-6.814c0-1.435.237-2.63.594-3.586.356-.718.713-1.315 1.306-1.913a5.187 5.187 0 011.782-1.195 7.283 7.283 0 012.968-.598c2.019 0 3.681.598 4.87 1.913 1.187 1.314 1.781 2.988 1.781 5.26 0 2.27-.594 3.944-1.781 5.258-1.189 1.315-2.851 1.913-4.87 1.913s-3.68-.598-4.869-1.913c-1.187-1.195-1.781-2.868-1.781-5.14zm2.851-.12c0 1.554.356 2.75 1.068 3.586.712.837 1.663 1.196 2.731 1.196 1.069 0 2.019-.36 2.731-1.196.713-.837 1.069-2.032 1.069-3.586 0-1.554-.356-2.749-1.069-3.586-.712-.837-1.662-1.195-2.731-1.195-1.188 0-2.019.358-2.731 1.195-.712.837-1.068 2.032-1.068 3.586zm13.774-6.812h5.462c1.068 0 1.9 0 2.375.12.474.119 1.069.238 1.424.597.357.358.713.717 1.069 1.196.357.477.475 1.075.475 1.673 0 .597-.118 1.195-.475 1.793-.356.597-.83.956-1.424 1.195.831.24 1.424.717 1.899 1.195.476.598.713 1.315.713 2.032 0 .598-.118 1.196-.476 1.794-.355.597-.712 1.075-1.187 1.434-.474.358-1.068.597-1.899.597-.476 0-1.544.12-3.325.12h-4.631V83.106zm2.731 2.27v3.228h3.799c.476 0 .832-.239 1.07-.478.237-.24.356-.598.356-1.076 0-.478-.119-.717-.356-1.076-.238-.239-.594-.478-1.07-.478h-3.799v-.12zm0 5.5v3.705h2.612c.95 0 1.663 0 1.9-.12.357-.12.713-.239.95-.598.238-.358.357-.716.357-1.195 0-.358-.119-.717-.357-1.076-.237-.358-.474-.478-.831-.597-.356-.12-1.187-.24-2.494-.24h-2.137v.12zm23.751 5.975h-3.088l-1.187-3.108h-5.462l-1.189 3.108h-2.849l5.343-13.746h2.97l5.462 13.746zm-5.106-5.498l-1.9-5.14-1.9 5.14h3.8zm15.91 5.498v-5.738h-.594c-.831 0-1.544.12-1.9.36-.355.238-.949 1.075-1.781 2.39l-2.019 2.988h-3.324l1.663-2.75c.712-1.075 1.186-1.792 1.542-2.27.357-.479.831-.837 1.426-1.196-1.307-.24-2.256-.598-2.731-1.315-.595-.717-.832-1.554-.832-2.51 0-.837.237-1.554.595-2.27.474-.598.949-1.077 1.661-1.316.712-.239 1.662-.359 3.088-.359h5.819v13.747h-2.613v.24zm0-11.475h-2.138c-1.068 0-1.781 0-2.137.119-.357 0-.594.24-.95.478-.357.24-.357.718-.357 1.076 0 .478.119.837.357 1.195.238.24.593.478.95.478.356 0 1.069.12 2.257.12h2.018v-3.466zm-121.477 39.447h2.731v5.857c.593-.12 1.069-.239 1.306-.478.237-.239.594-.957 1.069-2.152.593-1.434 1.187-2.39 1.781-2.749.594-.359 1.544-.598 2.731-.598h.357v2.032h-.357c-.594 0-.95.12-1.187.24a1.425 1.425 0 00-.594.597c-.119.239-.356.837-.713 1.793-.118.478-.356.837-.594 1.195-.237.359-.593.598-1.068.957.594.119 1.068.478 1.544 1.076.356.477.831 1.314 1.306 2.271l1.9 3.825h-3.206l-1.663-3.586s-.118-.12-.118-.239c0 0-.119-.24-.357-.598-.356-.717-.594-1.076-.831-1.315a2.352 2.352 0 00-1.069-.239v6.096h-2.731v-13.985h-.237zm13.417 7.052c0-1.435.238-2.63.594-3.587.356-.717.713-1.314 1.306-1.912a5.178 5.178 0 011.782-1.195 7.282 7.282 0 012.968-.598c2.019 0 3.682.598 4.869 1.913 1.188 1.314 1.782 2.988 1.782 5.259 0 2.271-.594 3.944-1.782 5.259-1.187 1.315-2.85 1.913-4.869 1.913-2.018 0-3.681-.598-4.869-1.913-1.187-1.315-1.781-2.988-1.781-5.139zm2.85-.12c0 1.554.357 2.749 1.069 3.586.713.837 1.663 1.195 2.731 1.195 1.069 0 2.019-.358 2.732-1.195.712-.837 1.069-2.032 1.069-3.586 0-1.554-.357-2.75-1.069-3.586-.713-.837-1.663-1.195-2.732-1.195-1.068 0-2.018.358-2.731 1.195-.712.836-1.069 2.032-1.069 3.586zm14.963 6.933v-13.747h4.156l2.494 9.443 2.494-9.443h4.156v13.747h-2.613V127.81l-2.731 10.878h-2.612l-2.732-10.878v10.878h-2.612zm18.406-13.866h10.926v13.746h-2.851v-11.475h-5.343v11.475h-2.732v-13.746zm28.501 13.866h-2.97l-1.187-3.108h-5.582l-1.187 3.108h-2.969l5.345-13.747h2.968l5.582 13.747zm-5.108-5.499l-1.9-5.139-1.899 5.139h3.799zm8.906 5.499v-13.747h2.733v5.379h5.462v-5.379h2.731v13.747h-2.731v-5.977h-5.462v5.977h-2.733zm16.268-13.866h2.612v9.204l5.582-9.204h2.731v13.746h-2.612v-8.965l-5.582 8.965h-2.731v-13.746zm24.226 13.867v-5.738h-.595c-.831 0-1.542.119-1.899.358-.356.24-.95 1.076-1.782 2.391l-2.018 2.989h-3.325l1.663-2.75c.712-1.075 1.187-1.793 1.544-2.27.355-.479.829-.838 1.424-1.196-1.306-.239-2.256-.598-2.731-1.315-.594-.717-.832-1.554-.832-2.51 0-.837.238-1.554.595-2.271.474-.598.95-1.076 1.662-1.315.711-.239 1.663-.359 3.087-.359h5.819v13.746h-2.612v.24zm0-11.476h-2.137c-1.07 0-1.783.001-2.139.12-.355 0-.594.239-.949.478-.358.239-.358.717-.358 1.076 0 .478.121.837.358 1.195.237.239.594.478.949.478.356 0 1.069.12 2.257.12h2.019v-3.467z" fill="#2A2626"/><path d="M173.226 69.24h-4.988V151h4.988V69.24z" fill="url(#paint0_linear_281_33991)"/><path d="M160.4 69h-4.988v81.761h4.988V69z" fill="url(#paint1_linear_281_33991)"/><path d="M147.456 69h-4.987v81.761h4.987V69z" fill="url(#paint2_linear_281_33991)"/><path d="M135.462 69h-4.987v81.761h4.987V69z" fill="url(#paint3_linear_281_33991)"/><path d="M122.519 69h-4.988v81.761h4.988V69z" fill="url(#paint4_linear_281_33991)"/><path d="M109.931 69h-4.988v81.761h4.988V69z" fill="url(#paint5_linear_281_33991)"/><path d="M96.987 69.24H92V151h4.987V69.24z" fill="url(#paint6_linear_281_33991)"/><path d="M104.469 104.621v12.91h-4.156v-9.324h-4.038v9.324H92.12v-12.91h12.35zm14.606 13.03h-4.156l4.631-13.03h4.275l4.632 12.91H124.3l-.475-1.674h-4.275l-.475 1.794zm3.919-4.424l-1.306-4.78-1.306 4.78h2.612zm19.712 4.424h-4.156v-13.03h6.175c1.781 0 3.206.359 4.156 1.076.951.837 1.307 1.793 1.307 3.227 0 1.435-.356 2.511-1.188 3.228-.95.956-2.256 1.195-4.156 1.195h-2.138v4.304zm0-7.173h1.781c.595 0 .951-.119 1.188-.358.356-.239.475-.598.475-1.076 0-.597-.237-.956-.831-1.076-.357-.239-.832-.239-1.425-.239h-1.188v2.749zm22.088 1.076l4.393-6.813h3.919v12.91h-4.037v-6.814l-4.394 6.814h-4.038v-13.03h4.038l.119 6.933z" fill="#2A2626"/></g><defs><linearGradient id="paint0_linear_281_33991" x1="170.732" y1="69.239" x2="170.732" y2="151" gradientUnits="userSpaceOnUse"><stop stop-color="#2A2626"/><stop offset=".184" stop-color="#2A2626"/><stop offset=".373" stop-color="#fff"/><stop offset=".67" stop-color="#fff"/><stop offset=".8" stop-color="#2A2626"/><stop offset="1" stop-color="#2A2626"/></linearGradient><linearGradient id="paint1_linear_281_33991" x1="157.906" y1="69" x2="157.906" y2="150.761" gradientUnits="userSpaceOnUse"><stop stop-color="#2A2626"/><stop offset=".184" stop-color="#2A2626"/><stop offset=".373" stop-color="#fff"/><stop offset=".67" stop-color="#fff"/><stop offset=".8" stop-color="#2A2626"/><stop offset="1" stop-color="#2A2626"/></linearGradient><linearGradient id="paint2_linear_281_33991" x1="144.962" y1="69" x2="144.962" y2="150.761" gradientUnits="userSpaceOnUse"><stop stop-color="#2A2626"/><stop offset=".184" stop-color="#2A2626"/><stop offset=".373" stop-color="#fff"/><stop offset=".67" stop-color="#fff"/><stop offset=".8" stop-color="#2A2626"/><stop offset="1" stop-color="#2A2626"/></linearGradient><linearGradient id="paint3_linear_281_33991" x1="132.968" y1="69" x2="132.968" y2="150.761" gradientUnits="userSpaceOnUse"><stop stop-color="#2A2626"/><stop offset=".184" stop-color="#2A2626"/><stop offset=".373" stop-color="#fff"/><stop offset=".67" stop-color="#fff"/><stop offset=".8" stop-color="#2A2626"/><stop offset="1" stop-color="#2A2626"/></linearGradient><linearGradient id="paint4_linear_281_33991" x1="120.025" y1="69" x2="120.025" y2="150.761" gradientUnits="userSpaceOnUse"><stop stop-color="#2A2626"/><stop offset=".184" stop-color="#2A2626"/><stop offset=".373" stop-color="#fff"/><stop offset=".67" stop-color="#fff"/><stop offset=".8" stop-color="#2A2626"/><stop offset="1" stop-color="#2A2626"/></linearGradient><linearGradient id="paint5_linear_281_33991" x1="107.437" y1="69" x2="107.437" y2="150.761" gradientUnits="userSpaceOnUse"><stop stop-color="#2A2626"/><stop offset=".184" stop-color="#2A2626"/><stop offset=".373" stop-color="#fff"/><stop offset=".67" stop-color="#fff"/><stop offset=".8" stop-color="#2A2626"/><stop offset="1" stop-color="#2A2626"/></linearGradient><linearGradient id="paint6_linear_281_33991" x1="94.494" y1="69.239" x2="94.494" y2="151" gradientUnits="userSpaceOnUse"><stop stop-color="#2A2626"/><stop offset=".184" stop-color="#2A2626"/><stop offset=".373" stop-color="#fff"/><stop offset=".67" stop-color="#fff"/><stop offset=".8" stop-color="#2A2626"/><stop offset="1" stop-color="#2A2626"/></linearGradient><clipPath id="clip0_281_33991"><path fill="#fff" transform="translate(92 69)" d="M0 0h226v82H0z"/></clipPath></defs></svg>