<svg width="410" height="220" fill="none" xmlns="http://www.w3.org/2000/svg"><mask id="a" style="mask-type:luminance" maskUnits="userSpaceOnUse" x="135" y="80" width="164" height="65"><path d="M298.811 80H135.193v65h163.618V80z" fill="#fff"/></mask><g mask="url(#a)" fill-rule="evenodd" clip-rule="evenodd" fill="#2A2A2C"><path d="M161.769 142.137a9.173 9.173 0 01-3.617.734 9.16 9.16 0 01-3.623-.728 8.06 8.06 0 01-2.842-2.041l-1.621 1.393a10.148 10.148 0 003.606 2.595c1.414.606 2.939.918 4.48.916a11.272 11.272 0 004.474-.91 10.136 10.136 0 003.605-2.595l-1.62-1.394a7.993 7.993 0 01-2.842 2.041m14.544-14.235a9.296 9.296 0 01-7.246 0 7.922 7.922 0 01-2.836-2.035l-.805-.921-.81.921a7.878 7.878 0 01-2.842 2.035 9.277 9.277 0 01-7.24 0 8.002 8.002 0 01-2.853-2.035l-.811-.921-.804.921a7.922 7.922 0 01-2.836 2.035 9.33 9.33 0 01-7.246 0 7.932 7.932 0 01-2.842-2.035l-1.621 1.4a10.12 10.12 0 003.606 2.589 11.382 11.382 0 008.948 0 10.288 10.288 0 002.801-1.749c.83.73 1.774 1.32 2.795 1.749a11.39 11.39 0 008.949 0 10.208 10.208 0 002.795-1.749c.83.73 1.774 1.32 2.795 1.749a11.398 11.398 0 008.954 0 10.108 10.108 0 003.605-2.589l-1.62-1.4a7.932 7.932 0 01-2.842 2.035m-7.263 7.109a9.295 9.295 0 01-7.246 0 7.977 7.977 0 01-2.842-2.035l-.81-.927-.811.927a7.893 7.893 0 01-2.836 2.035 9.274 9.274 0 01-7.24 0 7.932 7.932 0 01-2.842-2.035l-1.62 1.388a10.095 10.095 0 003.605 2.6 11.401 11.401 0 008.955 0 10.28 10.28 0 002.789-1.749 10.384 10.384 0 002.795 1.749 11.398 11.398 0 008.954 0 9.98 9.98 0 003.605-2.6l-1.62-1.388a7.893 7.893 0 01-2.836 2.035zm10.892-21.755l-1.89-.233V93.575h-39.788v19.459l-1.89.233-1.175.134.253 1.166 1.391 6.251a9.304 9.304 0 002.578 1.75l-1.62-7.33 20.357-2.449v10.642a9.68 9.68 0 003.979-.793 9.615 9.615 0 003.296-2.35 9.59 9.59 0 003.29 2.351 9.649 9.649 0 003.974.792 10.224 10.224 0 004.198-.898h.053a9.595 9.595 0 001.286-.712c.442-.295.855-.63 1.233-1.003l1.391-6.268.253-1.166-1.169-.117zm-29.147-1.738l-10.387 1.248v-4.117h10.387v2.869zm0-11.475h-10.387v-4.345h10.387v4.345zm12.548 6.472H152.95v-4.338h10.399l-.012 4.338zm0-6.472H152.95v-4.345h10.399l-.012 4.345zm12.559 12.723l-10.398-1.248v-2.869h10.398v4.117zm0-6.251h-10.398v-4.338h10.398v4.338zm-28.759-17.174h1.298v-9.278h-1.298l-1.285.957v1.41l1.285-.962v7.873zm3.652-2.705a2.61 2.61 0 00.828 2.006 2.71 2.71 0 001.938.78 2.798 2.798 0 001.972-.786 2.659 2.659 0 00.805-2 2.444 2.444 0 00-1.104-2.094c.272-.236.501-.519.675-.834.176-.317.263-.675.253-1.038a2.74 2.74 0 00-.74-1.918 2.488 2.488 0 00-1.873-.764 2.434 2.434 0 00-1.826.764 2.65 2.65 0 00-.764 1.918c-.009.367.087.729.276 1.044.16.318.381.602.652.834a2.409 2.409 0 00-1.092 2.088zm1.873-4.998a1.402 1.402 0 011.803 0 1.293 1.293 0 01.393 1.003 1.258 1.258 0 01-.393.986 1.336 1.336 0 01-1.803 0 1.255 1.255 0 01-.405-.986 1.261 1.261 0 01.405-1.003zm-.112 3.925a1.487 1.487 0 012.061 0 1.424 1.424 0 01.441 1.061 1.385 1.385 0 01-.441 1.044 1.427 1.427 0 01-1.03.431 1.448 1.448 0 01-1.031-.431 1.412 1.412 0 01-.452-1.044 1.449 1.449 0 01.452-1.061zm7.665.524a5.316 5.316 0 001.761-.292v.88c0 .94-.452 1.412-1.274 1.424a1.172 1.172 0 01-1.174-.781h-1.38c.103.609.429 1.16.916 1.544a2.647 2.647 0 001.603.584 2.6 2.6 0 001.797-.712 2.61 2.61 0 00.775-1.971v-4.082a2.607 2.607 0 00-.775-1.976 2.539 2.539 0 00-1.797-.717 2.49 2.49 0 00-1.762.688 2.497 2.497 0 00-.804 1.977v.833a2.64 2.64 0 00.587 1.96 2.005 2.005 0 001.503.623m-.822-3.353c0-.933.447-1.405 1.275-1.422.827-.018 1.303.507 1.303 1.44v.752c0 .939-.452 1.417-1.28 1.423-.828.006-1.257-.478-1.274-1.423l-.024-.77zm7.228-1.329h2.395l-3.053 7.954h1.444l3.065-7.954v-1.324h-5.143v2.67h1.292v-1.346zm41.319 24.258a5.674 5.674 0 002.663-2.179c.639-.984.954-2.14.901-3.308 0-4.117-3.106-6.555-7.903-6.555h-12.202v26.672h13.2c2.801 0 4.991-.682 6.6-2.053a6.755 6.755 0 001.86-2.443 6.705 6.705 0 00.582-3.009c0-3.924-2.454-6.513-5.713-7.12m-12.331-8.163h7.252c2.801 0 4.451 1.166 4.451 3.428 0 2.263-1.65 3.464-4.451 3.464h-7.228l-.024-6.892zm8.221 18.969h-8.221v-8.409h8.221c3.341 0 5.284 1.487 5.284 4.117s-1.996 4.263-5.284 4.263m27.325-10.817l-8.707-12h-4.299v26.671h4.222v-20.275l7.487 10.059h2.454l7.481-10.059v20.275h4.216V93.62h-4.216l-8.638 12.001zm18.377-8.158h8.861v22.823h4.227V97.463h8.896V93.62h-21.984v3.843zm27.481-3.843v26.666h4.221V97.463h13.388v22.823h4.222V93.62h-21.831z"/></g></svg>