<svg width="410" height="220" fill="none" xmlns="http://www.w3.org/2000/svg"><path d="M212.529 80.84c10.218.902 20.614 3.212 29.655 8.177 10.615 5.83 20.283 16.283 15.615 29.362-4.848 13.582-22.476 20.625-35.572 22.841-3.194.541-6.474.414-9.449 1.701-2.671 1.153-5.267 3.022-6.653 5.625-2.41-3.383-5.552-5.741-9.709-6.476-9.211-1.63-16.224-2.51-24.811-6.789-19.697-9.803-26.197-28.899-6.307-43.213 9.835-7.076 22.49-10.15 34.417-11.228-8.718-8.547 4.68-22.596 13.189-12.594 3.22 3.786 3.432 9.15-.375 12.594zm-2.206-6.838a4.236 4.236 0 00-4.227-4.245c-2.333 0-4.227 1.902-4.227 4.245 0 2.342 1.894 4.245 4.227 4.245 2.332 0 4.227-1.903 4.227-4.245zm9.263 10.382c6.857 1.678 13.338 5.61 18.319 10.605.49.093 4.899-2.563 4.892-2.861-3.77-2.462-8.235-4.316-12.529-5.693-2.993-.959-6.726-2-9.85-2.23-.204-.016-.862-.15-.832.182v-.004zm-27.671.007c-7.838.772-15.671 3.611-22.468 7.55 0 .299 4.398 3.022 4.888 2.876 2.748-3.387 6.548-5.722 10.396-7.666l7.184-2.764v.004zm1.3 1.675c-5.178 1.242-10.296 3.876-14.386 7.278-.628.522-1.905 1.518-2.329 2.137-.107.157-.26.183-.182.467l8.168 2.988c1.296-3.313 3.298-6.842 5.757-9.427.602-.634 2.574-2.052 2.804-2.406.231-.354.197-.657.171-1.037h-.003zm42.714 10.068c-4.435-4.872-10.575-8.296-16.9-10.068l.174 1.22c3.73 3.018 6.72 7.024 8.198 11.627.516.452 7.432-2.424 8.524-2.782l.004.003zm-32.314-7.27h-9.565c-1.727 1.134-3.097 2.794-4.253 4.495-.479.701-3.573 5.969-3.268 6.323 5.155 1.257 10.422 1.846 15.711 2.231l.271-.067 1.107-12.979-.003-.003zm5.014 0l.917 12.978c4.751-.183 9.691-.743 14.315-1.877.331-.082 1.612-.294 1.668-.57-1.701-3.914-3.774-7.472-7.057-10.248l-9.839-.283h-.004zM167.4 110.5c-.033-5.223 2.106-10.266 5.568-14.082l-5.289-3.257c-6.11 3.738-11.663 9.841-12.164 17.339H167.4zm88.957 0c-.196-7.412-5.827-13.38-11.61-17.298l-5.293 3.406c3.027 4.029 5.17 8.766 5.385 13.892h11.518zm-74.1 0l1.412-9.706-8.907-3.51c-3.124 3.674-5.727 8.243-5.687 13.216h13.186-.004zm60.729 0c-.123-3.678-1.556-7.162-3.451-10.244-.3-.488-1.716-2.827-2.18-2.782l-9.215 3.603c1.077 2.999 1.623 6.234 1.66 9.423h13.186zm-40.857 0c.115-1.645.13-3.29.186-4.939.014-.44.453-1.38.011-1.694-5.627-.156-11.158-1.234-16.618-2.518-.958 2.94-1.371 6.051-1.408 9.151h17.829zm24.325-9.139c-5.523 1.477-11.18 2.301-16.897 2.611l.561 6.524 17.643-.182c-.022-3.03-.293-6.096-1.307-8.953zm-59.611 11.377h-11.328c.679 7.178 5.642 12.967 11.417 16.787l-.089-16.787zm15.6 0h-13.371l14.667 9.326c-.586-3.096-1.6-6.114-1.296-9.326zm19.686 0H184.3c-.067 1.179.647 8.517 1.597 8.737 5.178-1.373 10.504-1.988 15.834-2.421l.398-6.316zm25.443 0H210.3l.479 6.178c5.264.365 10.445 1.205 15.571 2.413 1.021-2.723 1.14-5.7 1.222-8.591zm15.228.187l-13-.19c-.156 3.081-.561 6.196-1.485 9.139l14.485-8.949zm13.557-.187h-11.328l-.093 16.787c5.698-3.7 10.913-9.684 11.421-16.787zm-55.157 8.021c-4.877.417-9.727 1.067-14.478 2.245-.394.455 1.931 4.973 2.403 5.689.435.657 1.727 2.507 2.485 2.507 1.044 0 4.052-.977 5.011-1.518 3.138-1.768 4.048-5.607 4.579-8.92v-.003zm24.515 2.428c-2.489-.582-5.018-1.108-7.552-1.462-2.366-.332-4.75-.466-7.116-.776.245 1.873.405 3.797 1.333 5.465 1.668 2.988 4.974 4.786 8.372 4.764 2.552-1.989 3.432-5.268 4.963-7.987v-.004zm7.614 2.791c.148-.221-1.969-.989-2.184-1.071-1.166-.44-2.381-.791-3.566-1.164-1.07 2.484-2.098 5.032-3.907 7.084 3.643-.459 6.63-2.966 9.657-4.849zm-48.676-2.034c-.312-.227-5.022 1.336-5.653 1.657-.175.089-.442.119-.457.377 2.99 2.062 6.006 4.137 9.657 4.849-1.586-2.07-2.733-4.398-3.547-6.883zm2.247 14.161l-7.41-4.588c-2.139-1.571-4.227-3.179-5.894-5.271l-4.524 2.678c5.504 3.331 11.585 5.652 17.825 7.181h.003zm38.257-.19c6.185-1.358 12.484-3.607 17.825-6.995-.007-.235-3.562-2.484-3.907-2.607-.227-.079-.331-.146-.598-.075-.268.071-3.57 3.443-4.216 3.988-1.701 1.436-3.547 2.704-5.449 3.853l-3.651 1.832-.004.004zm-64.863-1.999l1.909 9.277c.435.09.297-.056.416-.242 1.122-1.75 1.995-3.701 3.109-5.458.579-.373 2.589 1.496 3.346 1.601l-6.436 10.613c-.327.097-2.701-1.299-2.898-1.709l-2.091-9.277-3.432 5.89c-.308.201-3.109-1.641-3.127-1.876l6.284-10.729 2.92 1.917v-.007z" fill="#000"/><path d="M193.214 74.129l-3.529.746-1.393-6.901-2.518 4.655-.546-.086-3.714-3.077 1.114 7.087-3.157.56-2.418-12.124c1.025.153 2.213-.59 3.205-.328.992.261 3.332 2.966 4.506 3.488.538-.049 2.247-4.764 2.882-5.297.583-.489 2.533-.366 3.343-.579l2.225 11.856zm-25.071 7.456l-3.153 1.87-2.418-4.022-.245-.06-4.584 2.78 2.596 4.192-3.149 1.959-6.307-10.513 3.142-1.984 2.322 3.906 4.553-2.79-2.243-4.175 2.893-1.787 6.593 10.624zm79.13-11.922l11.481 6.234-6.2 10.717c-.442-.444-2.707-1.44-2.704-1.94l4.257-7.875-.16-.335-4.739-2.705-4.546 8.311-3.146-1.712 5.757-10.695zm8.899 78.511c-.687.093-2.831 1.943-3.313 1.656l-6.515-10.516c2.18-1.186 5.363-4.35 7.852-4.309 2.663.045 4.26 2.477 3.796 5.014-.387 2.111-4.134 3.618-4.216 3.977l2.403 4.174-.007.004zm-5.386-8.946l1.59 2.608c1.055-.545 2.852-1.571 1.842-2.981-1.01-1.41-2.37.004-3.432.373zm-52.929 17.902l-.122 2.757-.186.242c-4.134 1.273-10.392.168-10.998-4.976-.68-5.797 3.64-8.446 8.933-7.293.49.108 2.89.888 3.12 1.157.293.335.208.884.182 1.305-.022.373-.223 2.145-.461 2.142-2.555-3.086-8.724-2.265-8.063 2.506.449 3.25 5.281 3.093 7.595 2.164v-.004zm29.871-10.042l.216 2.578c-.97-.34-5.092-1.153-4.799.798.208 1.38 4.572 1.347 5.805 2.76.94 1.079.966 3.123.264 4.343-1.363 2.368-5.798 2.395-8.119 1.775l-.212-2.771c1.073.41 5.493 1.35 5.17-.799-.174-1.164-3.666-1.455-4.81-2.085-1.69-.933-1.905-2.268-1.645-4.096.416-2.936 5.906-3.41 8.127-2.503h.003zm5.589-82.457l-.36 2.783-4.454-.933-1.876 9.312-3.699-.545 1.857-9.513-4.271-.746.371-2.611 12.432 2.253z" fill="#000"/><path d="M250.785 139.228c1.062-.369 2.455-1.73 3.432-.373.977 1.358-.787 2.436-1.842 2.981l-1.59-2.608z" fill="#fff"/></svg>