<svg width="410" height="220" fill="none" xmlns="http://www.w3.org/2000/svg"><mask id="a" fill="#fff"><path fill-rule="evenodd" clip-rule="evenodd" d="M266 114c12.151-11.901 21.726-16.796 30.655-17.852.792-1.108 3.513-4.921 4.345-6.148-19.296 3.087-29.902 18.102-34.987 24"/></mask><path fill-rule="evenodd" clip-rule="evenodd" d="M266 114c12.151-11.901 21.726-16.796 30.655-17.852.792-1.108 3.513-4.921 4.345-6.148-19.296 3.087-29.902 18.102-34.987 24" fill="#fff"/><path d="M296.655 96.148l.117.993.439-.051.257-.36-.813-.582zM301 90l.828.561 1.298-1.914-2.284.366L301 90zm-34.3 24.714c12.068-11.82 21.449-16.553 30.072-17.573l-.235-1.986c-9.233 1.092-19.003 6.149-31.237 18.131l1.4 1.428zm30.768-17.984c.788-1.102 3.519-4.929 4.36-6.169l-1.656-1.122c-.823 1.214-3.534 5.014-4.331 6.128l1.627 1.163zm3.374-7.717c-19.731 3.156-30.58 18.528-35.586 24.334l1.515 1.306c5.164-5.989 15.525-20.648 34.387-23.666l-.316-1.974z" fill="#2A2626" mask="url(#a)"/><path d="M266 114c12.151-11.901 21.726-16.796 30.655-17.852.792-1.108 3.513-4.921 4.345-6.148-19.296 3.087-29.902 18.102-34.987 24H266z" stroke="#2A2626" stroke-width=".27"/><mask id="b" fill="#fff"><path fill-rule="evenodd" clip-rule="evenodd" d="M313.477 82.3c-1.202.17-3.906.13-6.166 1.654C305.05 85.478 302.333 89.1 301 91c1.241-1.406 2.887-1.81 5.318-2.097 2.417-.3 5.918-.247 8.401-.599 2.391-.338 5.004-.846 8.1-5.326L327 77c-4.338 4.545-9.472 4.74-13.51 5.314"/></mask><path fill-rule="evenodd" clip-rule="evenodd" d="M313.477 82.3c-1.202.17-3.906.13-6.166 1.654C305.05 85.478 302.333 89.1 301 91c1.241-1.406 2.887-1.81 5.318-2.097 2.417-.3 5.918-.247 8.401-.599 2.391-.338 5.004-.846 8.1-5.326L327 77c-4.338 4.545-9.472 4.74-13.51 5.314" fill="#fff"/><path d="M301 91l-.819-.574 1.569 1.236L301 91zm5.318-2.097l.117.993h.006l-.123-.993zm8.401-.599l-.141-.99.141.99zm8.1-5.326l-.819-.573-.004.004.823.569zM327 77l.819.573-1.542-1.263.723.69zm-13.662 4.31c-.999.141-4.075.122-6.586 1.815l1.118 1.659c2.009-1.355 4.342-1.295 5.747-1.493l-.279-1.98zm-6.586 1.815c-1.25.842-2.567 2.216-3.708 3.564a53.315 53.315 0 00-2.863 3.737l1.638 1.148a51.5 51.5 0 012.752-3.592c1.116-1.319 2.287-2.517 3.299-3.198l-1.118-1.659zm-5.002 8.537c.972-1.102 2.269-1.48 4.685-1.766l-.234-1.986c-2.445.288-4.44.717-5.951 2.428l1.5 1.324zm4.691-1.766c1.16-.144 2.594-.205 4.098-.274 1.479-.068 3.023-.144 4.32-.328l-.281-1.98c-1.186.168-2.633.242-4.13.31-1.471.068-2.997.131-4.253.287l.246 1.985zm8.418-.602c1.215-.172 2.617-.402 4.124-1.222 1.508-.821 3.045-2.19 4.659-4.526l-1.646-1.137c-1.482 2.145-2.8 3.27-3.97 3.907-1.172.638-2.271.831-3.448.998l.281 1.98zm8.78-5.743l4.18-5.978-1.638-1.146L322 82.404l1.639 1.147zm2.638-7.241c-4.051 4.243-8.781 4.425-12.927 5.013l.281 1.98c3.928-.557 9.467-.766 14.092-5.613l-1.446-1.38z" fill="#2A2626" mask="url(#b)"/><path d="M313.477 82.3c-1.202.17-3.906.13-6.166 1.654C305.05 85.478 302.333 89.1 301 91c1.241-1.406 2.887-1.81 5.318-2.097 2.417-.3 5.918-.247 8.401-.599 2.391-.338 5.004-.846 8.1-5.326L327 77c-4.338 4.545-9.472 4.74-13.51 5.314l-.013-.013z" stroke="#2A2626" stroke-width=".27"/><mask id="c" fill="#fff"><path fill-rule="evenodd" clip-rule="evenodd" d="M266.456 114.283c11.941-9.412 18.356-13.15 32.544-13.283l-3.057 4.441c-.575 1.325-1.463 1.259-2.404 1.193-10.138-.093-17.219.729-29.539 10.366l2.456-2.731"/></mask><path fill-rule="evenodd" clip-rule="evenodd" d="M266.456 114.283c11.941-9.412 18.356-13.15 32.544-13.283l-3.057 4.441c-.575 1.325-1.463 1.259-2.404 1.193-10.138-.093-17.219.729-29.539 10.366l2.456-2.731" fill="#fff"/><path d="M299 101l.824.567 1.091-1.585-1.924.018.009 1zm-3.057 4.441l-.824-.567-.055.08-.039.089.918.398zm-2.404 1.193l.07-.998-.03-.002h-.031l-.009 1zM264 117l-.743-.669 1.359 1.457L264 117zm3.075-1.932c5.967-4.703 10.469-7.918 15.211-9.99 4.714-2.06 9.724-3.013 16.723-3.078l-.018-2c-7.189.067-12.481 1.05-17.506 3.245-4.998 2.184-9.674 5.544-15.648 10.252l1.238 1.571zm31.101-14.635l-3.057 4.441 1.648 1.134 3.057-4.441-1.648-1.134zm-3.151 4.61c-.2.461-.379.539-.471.57-.184.063-.425.06-.945.023l-.14 1.995c.421.03 1.094.093 1.733-.126.731-.25 1.284-.802 1.658-1.666l-1.835-.796zm-1.477.591c-5.093-.047-9.523.133-14.253 1.578-4.731 1.445-9.69 4.134-15.911 9l1.232 1.576c6.098-4.771 10.84-7.312 15.264-8.663 4.426-1.353 8.605-1.537 13.65-1.491l.018-2zm-28.805 12.035l2.457-2.731-1.487-1.337-2.456 2.73 1.486 1.338z" fill="#2A2626" mask="url(#c)"/><path d="M266.456 114.283c11.941-9.412 18.356-13.15 32.544-13.283l-3.057 4.441c-.575 1.325-1.463 1.259-2.404 1.193-10.138-.093-17.219.729-29.539 10.366l2.456-2.731v.014z" stroke="#2A2626" stroke-width=".27"/><mask id="d" fill="#fff"><path fill-rule="evenodd" clip-rule="evenodd" d="M267.284 113.566c-.231.237-1.053 1.197-1.284 1.434 6.932-5.566 12.734-11.368 27.188-13.5.718-.895 2.824-3.895 3.812-5.5-13.17 1.947-21.796 9.961-29.716 17.579"/></mask><path fill-rule="evenodd" clip-rule="evenodd" d="M267.284 113.566c-.231.237-1.053 1.197-1.284 1.434 6.932-5.566 12.734-11.368 27.188-13.5.718-.895 2.824-3.895 3.812-5.5-13.17 1.947-21.796 9.961-29.716 17.579" fill="#2A2626"/><path d="M266 115l-.716-.698 1.342 1.478L266 115zm27.188-13.5l.146.989.388-.057.245-.306-.779-.626zM297 96l.852.524 1.125-1.827-2.123.314L297 96zm-30.432 16.867c-.139.143-.427.47-.677.756-.276.313-.515.584-.607.679l1.432 1.396c.139-.142.426-.47.677-.755.275-.313.514-.585.606-.679l-1.431-1.397zm.058 2.913c6.947-5.579 12.555-11.204 26.708-13.291l-.292-1.978c-14.756 2.176-20.752 8.156-27.668 13.709l1.252 1.56zm27.341-13.654c.75-.933 2.879-3.968 3.885-5.602l-1.704-1.048c-.971 1.577-3.052 4.542-3.74 5.398l1.559 1.252zm2.887-7.115c-13.521 1.999-22.354 10.239-30.264 17.847l1.387 1.442c7.93-7.629 16.35-15.415 29.169-17.31l-.292-1.98z" fill="#2A2626" mask="url(#d)"/><path d="M295.402 101.832c.87-.285 1.864-.424 2.761-.264-.208.282-.478.648-.774 1.061a66.855 66.855 0 00-1.419 2.047 3.741 3.741 0 00-.648-.579l-.232-.164-.002-.001-.282-.181c-.624-.379-1.135-.567-1.297-.648l.016-.07.048-.159.002-.006c-.004.013.01-.029.103-.122a2.38 2.38 0 01.383-.296 5.969 5.969 0 011.341-.618z" fill="#fff" stroke="#2A2626"/><path d="M295.715 106c.113-.45.385-.778-.906-1.653-1.518-1.022-2.05-.596-1.711-1.63.25-.79 3.512-2.358 5.902-1.434 0 0-2.118 2.796-3.285 4.717z" stroke="#2A2626" stroke-width=".27"/><mask id="e" fill="#fff"><path fill-rule="evenodd" clip-rule="evenodd" d="M306.492 88.76c-2.778.4-4.516 1.133-5.622 2.653L297 97c.843-.813 3.397-1.213 6.161-1.293h.737c.395 0 .803-.04 1.238-.04 3.923-.174 9.544-.734 12.717-4.72l4.581-7.107L323 83c-4.134 5.853-13.573 5.347-16.508 5.773"/></mask><path fill-rule="evenodd" clip-rule="evenodd" d="M306.492 88.76c-2.778.4-4.516 1.133-5.622 2.653L297 97c.843-.813 3.397-1.213 6.161-1.293h.737c.395 0 .803-.04 1.238-.04 3.923-.174 9.544-.734 12.717-4.72l4.581-7.107L323 83c-4.134 5.853-13.573 5.347-16.508 5.773" fill="#2A2626"/><path d="M300.87 91.413l-.808-.588-.007.01-.007.009.822.57zM297 97l-.822-.57 1.517 1.29L297 97zm6.161-1.293v-1h-.029l.029 1zm1.975-.04v1h.022l.022-.001-.044-1zm12.717-4.72l.782.622.031-.039.027-.041-.84-.542zm4.581-7.107l-.829-.559-.006.009-.006.008.841.542zM323 83l.829.559-1.646-1.136L323 83zm-16.651 4.77c-2.865.413-4.941 1.204-6.287 3.055l1.617 1.177c.865-1.19 2.265-1.865 4.955-2.252l-.285-1.98zm-6.301 3.074l-3.87 5.587 1.644 1.139 3.87-5.587-1.644-1.14zm-2.353 6.876c.072-.07.248-.189.591-.32.33-.126.755-.241 1.265-.34 1.018-.198 2.289-.315 3.639-.354l-.058-1.999c-1.415.041-2.802.164-3.963.39a9.755 9.755 0 00-1.596.435c-.46.175-.919.412-1.268.749l1.39 1.438zm5.466-1.013h.382v-2h-.382v2zm.382 0h.355v-2h-.355v2zm.355 0c.227 0 .453-.012.653-.021.208-.01.395-.02.585-.02v-2c-.245 0-.479.012-.682.022-.212.01-.387.019-.556.019v2zm1.282-.041c1.978-.088 4.462-.274 6.872-.968 2.416-.696 4.825-1.92 6.583-4.129l-1.565-1.245c-1.415 1.778-3.402 2.827-5.571 3.452-2.174.626-4.463.806-6.407.892l.088 1.998zm13.513-5.177l4.581-7.107-1.681-1.084-4.581 7.107 1.681 1.084zm4.57-7.09l.566-.84-1.658-1.118-.566.84 1.658 1.118zm-1.08-1.976c-1.847 2.616-4.933 3.879-8.085 4.519-1.563.317-3.1.473-4.446.575-1.3.1-2.526.154-3.304.267l.288 1.979c.689-.1 1.744-.143 3.168-.252 1.379-.105 3.01-.268 4.692-.61 3.334-.676 7.034-2.086 9.321-5.324l-1.634-1.154z" fill="#2A2626" mask="url(#e)"/><mask id="f" fill="#fff"><path fill-rule="evenodd" clip-rule="evenodd" d="M308.335 94.864c-2.855.41-6.114.52-7.049.58-1.604.072-3.726.591-4.307 1.316-1.794 2.27-3.512 4.371-3.979 5.24 1.099-1.026 4.699-.918 9.069-1.123 4.358-.193 8.792-2.113 12.278-6.158L317 91c-1.768 2.318-4.901 3.333-8.665 3.876"/></mask><path fill-rule="evenodd" clip-rule="evenodd" d="M308.335 94.864c-2.855.41-6.114.52-7.049.58-1.604.072-3.726.591-4.307 1.316-1.794 2.27-3.512 4.371-3.979 5.24 1.099-1.026 4.699-.918 9.069-1.123 4.358-.193 8.792-2.113 12.278-6.158L317 91c-1.768 2.318-4.901 3.333-8.665 3.876" fill="#fff"/><path d="M301.286 95.444l.045.998h.02l-.065-.998zm-4.307 1.316l-.78-.626-.005.006.785.62zM293 102l-.881-.474 1.564 1.205L293 102zm9.069-1.123l-.044-.999h-.002l.046.999zm12.278-6.158l.758.653.03-.035.027-.037-.815-.581zM317 91l.814.58-1.609-1.186L317 91zm-8.808 2.874c-2.803.403-5.989.508-6.97.572l.129 1.995c.888-.057 4.22-.17 7.126-.587l-.285-1.98zm-6.951.57c-.878.04-1.887.2-2.767.451a7.44 7.44 0 00-1.247.468c-.359.178-.75.424-1.028.77l1.56 1.252a.652.652 0 01.089-.074 1.97 1.97 0 01.268-.157c.235-.117.544-.232.907-.335a10.61 10.61 0 012.308-.377l-.09-1.997zm-5.047 1.696c-.889 1.125-1.777 2.23-2.492 3.152-.698.899-1.302 1.711-1.583 2.234l1.762.948c.186-.347.675-1.02 1.401-1.956.709-.914 1.577-1.993 2.482-3.138l-1.57-1.24zm-2.511 6.591c.087-.081.317-.216.821-.339.484-.119 1.111-.203 1.884-.265 1.566-.125 3.487-.146 5.728-.251l-.093-1.998c-2.129.1-4.194.128-5.795.256-.811.065-1.563.159-2.2.315-.617.151-1.248.388-1.711.82l1.366 1.462zm8.431-.855c4.631-.205 9.323-2.249 12.991-6.504l-1.515-1.306c-3.305 3.835-7.48 5.631-11.565 5.812l.089 1.998zm13.048-6.576l2.652-3.72-1.628-1.16-2.653 3.718 1.629 1.162zm1.043-4.906c-1.51 1.978-4.278 2.953-8.013 3.492l.286 1.98c3.793-.548 7.29-1.602 9.317-4.26l-1.59-1.212z" fill="#2A2626" mask="url(#f)"/><path d="M308.335 94.864c-2.855.41-6.114.52-7.049.58-1.604.072-3.726.591-4.307 1.316-1.794 2.27-3.512 4.371-3.979 5.24 1.099-1.026 4.699-.918 9.069-1.123 4.358-.193 8.792-2.113 12.278-6.158L317 91c-1.768 2.318-4.901 3.333-8.665 3.876v-.012zM310 98c-5.566 3.749-15.568.502-17 4m20-6c-4.847 5.933-17.57.897-20 6m22-8c-4.459 6.925-18.777 2.058-21 7m22-8c-4.659 6.613-19.671 2.28-22 7m22-8c-4.481 5.775-18.727 1.854-21 6m-17 8c6.841-2.391 13.324-3.047 15-2.997M273 109c8.73-4.706 14.695-5.098 21-4.984M268 113c10.17-7.659 20.25-8.356 27-7.887M265 116c12.758-10.768 24.029-10.274 31-9.806" stroke="#2A2626" stroke-width=".27"/><path d="M219.702 91.5l8.468 16h-5.827l-6.638-12.889-.14-.271h-.729l-.134.289-5.995 12.871h-1.914l7.647-16h5.262zm-102.815 0c3.308 0 6.927.65 9.439 2.435l.24.175.003.002c2.017 1.513 2.931 3.59 2.931 5.388 0 1.684-.803 3.604-2.566 5.096l-.367.293c-2.94 2.22-7.04 2.611-9.759 2.611-2.524 0-4.548-.279-6.759-1.382h-.001c-1.234-.63-2.409-1.465-3.256-2.314l2.157-1.247.173.256v.001c.561.837 1.629 1.773 2.566 2.332v0c1.494.904 2.958 1.132 4.583 1.132 1.043 0 3.342-.101 5.047-1.353l.164-.125.006-.005c.701-.578 2.046-1.951 2.159-4.394l.026-.529-.53.007-9.019.11v-1.455l9.017.135.568.009-.063-.565c-.199-1.761-1.037-2.922-1.696-3.545h.001c-.989-.961-2.689-1.91-5.575-1.91-1.315 0-2.617.151-3.884.671l-.236.102c-.984.404-2.089 1.085-2.773 1.855l-.478.52-2.131-1.205c1.079-.87 2.168-1.518 3.475-2.01l.309-.111.012-.004c2.005-.76 4.01-.976 6.217-.976zm123.12 0c2.807 0 6.61.626 9.236 2.436l.251.178v.001c2.054 1.516 3.006 3.62 3.006 5.385 0 1.657-.826 3.619-2.629 5.095l-.374.288-.004.003c-2.616 1.947-6.588 2.614-9.486 2.614-2.782 0-6.635-.626-9.277-2.437l-.251-.178-.001-.001-.374-.29c-1.798-1.485-2.604-3.446-2.604-5.094 0-1.648.806-3.61 2.604-5.094l.374-.29c2.657-1.95 6.632-2.616 9.529-2.616zm0 .964c-1.645 0-3.624.355-5.143 2.28-1.226 1.529-1.415 3.3-1.415 4.756 0 1.459.19 3.198 1.41 4.75v.001c1.507 1.93 3.49 2.285 5.148 2.285 1.606 0 3.515-.333 5.014-2.106l.144-.177.002-.002c1.22-1.565 1.41-3.289 1.41-4.751 0-1.457-.188-3.227-1.414-4.757h-.001c-1.532-1.924-3.51-2.28-5.155-2.28z" fill="#2A2626" stroke="#2A2626"/><mask id="g" fill="#fff"><path fill-rule="evenodd" clip-rule="evenodd" d="M187.884 95.584a6.545 6.545 0 011.994-.308h.722v8.307h-.722a6.661 6.661 0 01-1.994-.308c-.525-.167-1.011-.385-1.391-.719-.722-.578-1.312-1.554-1.312-3.146 0-1.592.59-2.516 1.312-3.107.38-.334.866-.565 1.391-.732m11.219 10.041c3.451-.231 5.275-1.066 6.246-1.669 1.824-1.143 2.651-2.761 2.651-4.533 0-2.337-1.483-3.724-2.651-4.494-1.64-1.078-3.949-1.515-6.246-1.669-.617-.051-1.233-.051-1.85-.051h-.669V91h-6.194v2.196h-.643c-.617 0-1.233 0-1.85.051-2.323.141-4.632.59-6.246 1.67-1.168.77-2.651 2.17-2.651 4.493 0 1.772.827 3.39 2.651 4.533.945.603 2.769 1.438 6.246 1.669.564.025 1.181.051 1.85.051h.643V108h6.194v-2.337h.669c.669 0 1.286-.026 1.85-.051zm0-10.028c.538.167 1.024.398 1.391.732.722.578 1.312 1.553 1.312 3.107 0 1.554-.59 2.555-1.312 3.146-.38.334-.866.552-1.391.719a6.721 6.721 0 01-2.008.308h-.695v-8.308h.695a6.69 6.69 0 012.008.309"/></mask><path fill-rule="evenodd" clip-rule="evenodd" d="M187.884 95.584a6.545 6.545 0 011.994-.308h.722v8.307h-.722a6.661 6.661 0 01-1.994-.308c-.525-.167-1.011-.385-1.391-.719-.722-.578-1.312-1.554-1.312-3.146 0-1.592.59-2.516 1.312-3.107.38-.334.866-.565 1.391-.732m11.219 10.041c3.451-.231 5.275-1.066 6.246-1.669 1.824-1.143 2.651-2.761 2.651-4.533 0-2.337-1.483-3.724-2.651-4.494-1.64-1.078-3.949-1.515-6.246-1.669-.617-.051-1.233-.051-1.85-.051h-.669V91h-6.194v2.196h-.643c-.617 0-1.233 0-1.85.051-2.323.141-4.632.59-6.246 1.67-1.168.77-2.651 2.17-2.651 4.493 0 1.772.827 3.39 2.651 4.533.945.603 2.769 1.438 6.246 1.669.564.025 1.181.051 1.85.051h.643V108h6.194v-2.337h.669c.669 0 1.286-.026 1.85-.051zm0-10.028c.538.167 1.024.398 1.391.732.722.578 1.312 1.553 1.312 3.107 0 1.554-.59 2.555-1.312 3.146-.38.334-.866.552-1.391.719a6.721 6.721 0 01-2.008.308h-.695v-8.308h.695a6.69 6.69 0 012.008.309" fill="#2A2626"/><path d="M190.6 95.276h1v-1h-1v1zm0 8.307v1h1v-1h-1zm-2.716-.308l.304-.953h-.001l-.303.953zm-1.391-.719l.659-.752-.017-.015-.017-.014-.625.781zm0-6.253l.633.774.013-.011.013-.011-.659-.752zm12.61 9.309l.046.999.01-.001h.011l-.067-.998zm6.246-1.669l.528.849.003-.002-.531-.847zm0-9.027l.551-.835h-.001l-.55.835zm-6.246-1.669l-.083.996.008.001h.008l.067-.997zm-2.519-.051h-1v1h1v-1zm0-2.196h1v-1h-1v1zm-6.194 0v-1h-1v1h1zm0 2.196v1h1v-1h-1zm-2.493.051l.061.998h.011l.011-.002-.083-.996zm-6.246 1.67l.55.834.005-.003-.555-.832zm0 9.026l.538-.843-.007-.005-.531.848zm6.246 1.669l-.066.998h.01l.01.001.046-.999zm2.493.051h1v-1h-1v1zm0 2.337h-1v1h1v-1zm6.194 0v1h1v-1h-1zm0-2.337v-1h-1v1h1zm3.91-9.347l-.672.74.023.02.024.02.625-.78zm0 6.253l-.633-.774-.013.011-.013.011.659.752zm-1.391.719l.298.954.005-.001-.303-.953zm-2.703.308h-1v1h1v-1zm0-8.308v-1h-1v1h1zm-8.206 1.246a5.546 5.546 0 011.684-.258v-2c-.812 0-1.612.131-2.304.357l.62 1.901zm1.684-.258h.722v-2h-.722v2zm-.278-1v8.307h2v-8.307h-2zm1 7.307h-.722v2h.722v-2zm-.722 0a5.67 5.67 0 01-1.69-.261l-.608 1.906a7.679 7.679 0 002.298.355v-2zm-1.691-.261c-.468-.149-.803-.315-1.035-.518l-1.319 1.504c.53.464 1.165.735 1.748.92l.606-1.906zm-1.069-.547c-.467-.374-.937-1.053-.937-2.365h-2c0 1.873.711 3.145 1.687 3.927l1.25-1.562zm-.937-2.365c0-1.294.457-1.934.945-2.333l-1.267-1.548c-.955.782-1.678 1.991-1.678 3.881h2zm.971-2.355c.24-.21.585-.388 1.035-.531l-.606-1.906c-.6.19-1.227.476-1.748.933l1.319 1.504zm12.018 9.555c3.6-.242 5.585-1.121 6.707-1.818l-1.055-1.699c-.82.51-2.483 1.3-5.786 1.521l.134 1.996zm6.71-1.82c2.104-1.318 3.12-3.25 3.12-5.38h-2c0 1.414-.638 2.718-2.182 3.685l1.062 1.695zm3.12-5.38c0-2.832-1.818-4.483-3.1-5.329l-1.101 1.67c1.053.695 2.201 1.818 2.201 3.66h2zm-3.101-5.33c-1.865-1.226-4.392-1.674-6.729-1.83l-.134 1.995c2.257.151 4.348.576 5.764 1.507l1.099-1.671zm-6.713-1.83c-.665-.055-1.323-.054-1.933-.054v2c.624 0 1.199 0 1.767.047l.166-1.993zm-1.933-.054h-.669v2h.669v-2zm.331 1V91h-2v2.196h2zm-1-3.196h-6.194v2h6.194v-2zm-7.194 1v2.196h2V91h-2zm1 1.196h-.643v2h.643v-2zm-.643 0c-.61 0-1.268-.001-1.933.054l.166 1.993a21.34 21.34 0 011.767-.047v-2zm-1.911.053c-2.369.144-4.9.605-6.741 1.836l1.111 1.663c1.387-.927 3.475-1.364 5.752-1.503l-.122-1.996zM181.1 94.08c-1.283.847-3.1 2.51-3.1 5.33h2c0-1.83 1.149-2.966 2.201-3.66l-1.101-1.67zm-3.1 5.33c0 2.129 1.016 4.061 3.12 5.379l1.062-1.695c-1.544-.967-2.182-2.271-2.182-3.685h-2zm3.112 5.374c1.106.706 3.097 1.584 6.719 1.825l.132-1.996c-3.333-.222-4.99-1.013-5.774-1.514l-1.077 1.685zm6.739 1.826c.566.026 1.202.052 1.896.052v-2c-.645 0-1.242-.025-1.805-.05l-.091 1.998zm1.896.052h.643v-2h-.643v2zm-.357-1V108h2v-2.337h-2zm1 3.337h6.194v-2h-6.194v2zm7.194-1v-2.337h-2V108h2zm-1-1.337h.669v-2h-.669v2zm.669 0c.694 0 1.33-.026 1.896-.052l-.091-1.998c-.563.025-1.16.05-1.805.05v2zm1.554-10.124c.463.144.796.318 1.015.517l1.345-1.48c-.517-.47-1.155-.757-1.767-.947l-.593 1.91zm1.062.557c.471.378.937 1.06.937 2.327h2c0-1.84-.715-3.11-1.687-3.888l-1.25 1.561zm.937 2.327c0 1.272-.469 1.983-.945 2.372l1.266 1.548c.968-.792 1.679-2.085 1.679-3.92h-2zm-.971 2.394c-.232.203-.568.369-1.035.518l.606 1.906c.583-.185 1.218-.456 1.748-.921l-1.319-1.503zm-1.03.516a5.693 5.693 0 01-1.71.263v2c.831 0 1.6-.133 2.306-.354l-.596-1.909zm-1.71.263h-.695v2h.695v-2zm.305 1v-8.308h-2v8.308h2zm-1-7.308h.695v-2h-.695v2zm.695 0a5.7 5.7 0 011.71.263l.596-1.909a7.7 7.7 0 00-2.306-.353v2z" fill="#2A2626" mask="url(#g)"/><path d="M165.021 91.5c2.788 0 6.647.626 9.269 2.436l.25.178c2.029 1.514 2.96 3.617 2.96 5.386 0 1.661-.808 3.623-2.589 5.097l-.369.288h-.001c-2.635 1.948-6.643 2.615-9.52 2.615-2.801 0-6.651-.625-9.285-2.436l-.251-.179c-2.054-1.514-2.985-3.629-2.985-5.385 0-1.646.817-3.608 2.612-5.094l.373-.29.001-.002c2.622-1.947 6.656-2.614 9.535-2.614zm0 .964c-1.646 0-3.657.353-5.18 2.28-1.232 1.532-1.391 3.307-1.391 4.756 0 1.362.141 2.98 1.17 4.459l.218.294.001.001c1.523 1.929 3.549 2.282 5.182 2.282 1.582 0 3.519-.332 5.023-2.106l.144-.176.001-.002c1.223-1.565 1.415-3.29 1.415-4.752 0-1.366-.166-3.007-1.2-4.468l-.218-.289c-1.535-1.924-3.531-2.28-5.165-2.28z" fill="#2A2626" stroke="#2A2626"/><mask id="h" fill="#fff"><path fill-rule="evenodd" clip-rule="evenodd" d="M141.867 101.782h1.174c3.031 0 5.127-.355 6.636-1.312 1.882-1.202 2.323-2.87 2.323-4.168s-.427-2.924-2.323-4.086c-1.495-.929-3.511-1.216-6.903-1.216H132v17h6.302v-6.232h3.578l-.013.014zm0-8.158c.761.027 1.748.177 2.456.656.961.642 1.122 1.53 1.122 2.063 0 .533-.134 1.476-1.175 2.16-.708.505-1.576.655-2.403.71h-3.579v-5.616h2.924c.187 0 .401 0 .655.04"/></mask><path fill-rule="evenodd" clip-rule="evenodd" d="M141.867 101.782h1.174c3.031 0 5.127-.355 6.636-1.312 1.882-1.202 2.323-2.87 2.323-4.168s-.427-2.924-2.323-4.086c-1.495-.929-3.511-1.216-6.903-1.216H132v17h6.302v-6.232h3.578l-.013.014zm0-8.158c.761.027 1.748.177 2.456.656.961.642 1.122 1.53 1.122 2.063 0 .533-.134 1.476-1.175 2.16-.708.505-1.576.655-2.403.71h-3.579v-5.616h2.924c.187 0 .401 0 .655.04" fill="#2A2626"/><path d="M141.867 101.782l-.716-.699-1.66 1.699h2.376v-1zm7.81-1.312l.535.845.003-.002-.538-.843zm0-8.254l-.528.85.005.003.523-.853zM132 91v-1h-1v1h1zm0 17h-1v1h1v-1zm6.302 0v1h1v-1h-1zm0-6.232v-1h-1v1h1zm3.578 0l.715.699 1.66-1.699h-2.375v1zm2.443-7.488l-.56.828.005.003.555-.831zm-.053 4.222l-.549-.836-.016.011-.017.012.582.813zm-2.403.711v1h.033l.032-.002-.065-.998zm-3.579 0h-1v1h1v-1zm0-5.616v-1h-1v1h1zm3.579 9.185h1.174v-2h-1.174v2zm1.174 0c3.07 0 5.41-.351 7.171-1.467l-1.071-1.69c-1.256.797-3.107 1.157-6.1 1.157v2zm7.174-1.469c2.242-1.432 2.785-3.466 2.785-5.01h-2c0 1.05-.338 2.351-1.861 3.325l1.076 1.685zm2.785-5.01c0-1.547-.532-3.55-2.801-4.94l-1.045 1.706c1.524.933 1.846 2.183 1.846 3.233h2zm-2.795-4.936c-1.759-1.093-4.036-1.367-7.431-1.367v2c3.389 0 5.143.3 6.375 1.066l1.056-1.7zM142.774 90H132v2h10.774v-2zM131 91v17h2V91h-2zm1 18h6.302v-2H132v2zm7.302-1v-6.232h-2V108h2zm-1-5.232h3.578v-2h-3.578v2zm2.863-1.698l-.014.013 1.431 1.398.013-.014-1.43-1.397zm.666-6.447c.709.026 1.463.168 1.932.485l1.12-1.657c-.946-.64-2.168-.797-2.981-.827l-.071 2zm1.937.488c.589.394.677.901.677 1.232h2c0-.735-.233-2.004-1.566-2.895l-1.111 1.663zm.677 1.232c0 .354-.075.897-.724 1.323l1.097 1.672c1.434-.94 1.627-2.283 1.627-2.995h-2zm-.757 1.346c-.474.339-1.109.475-1.887.526l.131 1.996c.877-.058 1.978-.222 2.919-.895l-1.163-1.627zm-1.821.524h-3.579v2h3.579v-2zm-2.579 1v-5.616h-2v5.616h2zm-1-4.616h2.924v-2h-2.924v2zm2.924 0c.187 0 .329 0 .495.028l.319-1.975c-.341-.055-.626-.053-.814-.053v2z" fill="#2A2626" mask="url(#h)"/><path d="M98.185 91.5l8.961 16h-5.869l-2.547-4.646-.143-.26H89.3l-.139.275-2.339 4.631h-2.007l8.148-16h5.222zm-4.91 3.144l-2.97 5.917-.363.723h7.909l-.399-.737-3.13-5.794-.01-.018-.01-.017-.08-.123-.148-.228h-.66l-.139.277zM270.5 91.5v1.57h-6.499v14.43h-5.027V93.07H252.5V91.5h18zM99.16 126.482a.398.398 0 01-.096-.03l.098-.176.005-.01.424-.81-.432 1.026zm5.217-1.575l.38.794-.035.019.226.447.051.101-.104.05-.629-1.346-.123-.264.112-.055.122.254zm4.523-.975l-.348.124-1.579-.513 1.927.389zm-13.484.098l-.295-.107 1.958-.396-1.663.503zm-3.192-.885l-.064-.03.684-.09-.62.12zm19.681-.07l-.118.059-1.112-.215 1.23.156zm-22.409-.948l-.283-.147 2.723-.166-2.44.313zm25.235-.151l-.224.111-1.985-.247 2.209.136zm-16.84-1.971c.006.056.012.11.02.165l-.335.019-10.812.602-1.148-.786h12.276zm20.479 0l-1.162.786-10.746-.562-.33-.018c.008-.068.015-.137.02-.206h12.218zm-15.358-1.339l-.876.446-.433.221.006.014-.355.174-.566.273-.262-.63 1.778-.857.003-.002.205-.102.5.463zm35.274-1.166l-.089.256-.943 2.701.458.16v.414h-.66l-.117.335-1.093 3.134h-.139l2.432-7h.151zm2.945.028c.085.01.171.022.256.038.316.061.582.168.766.333.196.19.264.421.244.697l-.014.122-.002.009c-.078.584-.436 1.189-.967 1.592.299-.32.545-.732.634-1.149l.021-.116c.083-.572-.117-.928-.272-1.116l-.062-.07-.006-.005-.072-.067a1.492 1.492 0 00-.526-.268z" fill="#2A2626" stroke="#2A2626"/><mask id="i" fill="#fff"><path d="M148.762 119.857c.206.372.289.9.206 1.614-.123 1.043-.645 2.686-1.758 3.658-.659.557-1.469.871-2.238.871-1.181 0-1.621-.657-1.731-.871-.288-.5-.261-1.129-.206-1.572.138-1.1.66-2.728 1.772-3.7a3.45 3.45 0 012.239-.857c.906 0 1.469.4 1.73.857m-1.181 2.329c.165-.543.371-1.386.11-1.857-.137-.258-.481-.458-.934-.458-.494 0-.961.243-1.264.558-.467.457-.741 1.157-.92 1.757l-.178.614c-.151.486-.412 1.329-.11 1.857.11.2.384.457.92.457.494 0 .893-.2 1.209-.457.59-.514.796-1.214.988-1.857l.179-.614z"/></mask><path d="M148.762 119.857c.206.372.289.9.206 1.614-.123 1.043-.645 2.686-1.758 3.658-.659.557-1.469.871-2.238.871-1.181 0-1.621-.657-1.731-.871-.288-.5-.261-1.129-.206-1.572.138-1.1.66-2.728 1.772-3.7a3.45 3.45 0 012.239-.857c.906 0 1.469.4 1.73.857m-1.181 2.329c.165-.543.371-1.386.11-1.857-.137-.258-.481-.458-.934-.458-.494 0-.961.243-1.264.558-.467.457-.741 1.157-.92 1.757l-.178.614c-.151.486-.412 1.329-.11 1.857.11.2.384.457.92.457.494 0 .893-.2 1.209-.457.59-.514.796-1.214.988-1.857l.179-.614z" fill="#2A2626"/><path d="M148.968 121.471l.993.118.001-.003-.994-.115zm-1.758 3.658l.646.763.006-.005.006-.005-.658-.753zm-3.969 0l.89-.457-.011-.022-.013-.021-.866.5zm-.206-1.572l-.992-.124v.001l.992.123zm1.772-3.7l-.655-.756-.003.003.658.753zm2.788 2.329l-.957-.291-.003.012.96.279zm.11-1.857l-.882.471.003.006.004.007.875-.484zm-2.198.1l.7.714.011-.01.01-.011-.721-.693zm-.92 1.757l-.958-.286-.002.007.96.279zm-.178.614l.955.297.002-.009.003-.009-.96-.279zm-.11 1.857l.876-.481-.004-.008-.004-.007-.868.496zm2.129 0l.631.776.013-.011.012-.011-.656-.754zm.988-1.857l.959.287.002-.008-.961-.279zm.472-2.458c.067.12.156.413.087 1.015l1.987.229c.095-.827.02-1.591-.325-2.214l-1.749.97zm.087 1.012c-.109.92-.573 2.28-1.422 3.021l1.315 1.507c1.376-1.201 1.955-3.128 2.093-4.293l-1.986-.235zm-1.41 3.011c-.501.423-1.088.635-1.593.635v2c1.033 0 2.067-.417 2.884-1.108l-1.291-1.527zm-1.593.635c-.392 0-.595-.105-.691-.173a.587.587 0 01-.15-.155l-1.78.913c.233.453.968 1.415 2.621 1.415v-2zm-.865-.371a.953.953 0 01-.101-.388 2.8 2.8 0 01.022-.561l-1.985-.246c-.058.464-.134 1.387.332 2.194l1.732-.999zm-.079-.948c.122-.985.588-2.329 1.437-3.071l-1.316-1.506c-1.376 1.202-1.954 3.114-2.106 4.329l1.985.248zm1.434-3.068a2.45 2.45 0 011.584-.613v-2a4.45 4.45 0 00-2.894 1.101l1.31 1.512zm1.584-.613c.586 0 .797.24.862.353l1.737-.992c-.458-.801-1.373-1.361-2.599-1.361v2zm1.506 2.476c.088-.29.201-.703.251-1.129.045-.388.065-.982-.223-1.503l-1.75.969c-.021-.038-.011-.041-.004.024.006.063.005.154-.01.277a4.666 4.666 0 01-.178.781l1.914.581zm.035-2.619c-.356-.666-1.1-.986-1.816-.986v2c.081 0 .121.018.128.022.003.001-.004-.002-.018-.015a.313.313 0 01-.058-.078l1.764-.943zm-1.816-.986c-.809 0-1.526.387-1.985.865l1.442 1.386a.81.81 0 01.543-.251v-2zm-1.963.843c-.662.648-.994 1.563-1.179 2.186l1.917.571c.171-.577.388-1.061.661-1.328l-1.399-1.429zm-1.181 2.193l-.179.614 1.921.558.178-.614-1.92-.558zm-.173.596c-.073.235-.202.642-.261 1.073-.056.407-.08 1.022.238 1.577l1.736-.992c.015.026-.029-.044.007-.312a4.79 4.79 0 01.19-.752l-1.91-.594zm-.032 2.636c.282.513.889.975 1.797.975v-2a.368.368 0 01-.098-.01c-.014-.003-.015-.005-.009-.002a.19.19 0 01.063.074l-1.753.963zm1.797.975c.786 0 1.4-.323 1.84-.681l-1.263-1.551c-.192.156-.374.232-.577.232v2zm1.865-.703c.842-.732 1.11-1.722 1.291-2.324l-1.917-.574c-.204.684-.347 1.094-.687 1.39l1.313 1.508zm1.293-2.332l.178-.614-1.92-.558-.179.614 1.921.558z" fill="#2A2626" mask="url(#i)"/><path d="M150.695 122.785l-.001.002a5.202 5.202 0 00-.153.945c-.017.308.006.643.129.941v.001l.005.01c.074.169.206.396.452.578.141.104.305.182.495.232-.392-.022-.664-.17-.822-.352l-.066-.087c-.089-.141-.161-.357-.201-.626a3.325 3.325 0 01-.03-.605l.014-.192v-.002a7.439 7.439 0 01.391-1.689l-.213.844zm3.216-3.237c.129.033.246.08.331.136l.063.046.005.005c.136.119.208.265.185.608a1.09 1.09 0 00-.106-.329h.001l-.007-.012-.006-.013h-.002a1.008 1.008 0 00-.464-.441zm3.72 1.267a4.891 4.891 0 00-.332.78l-.09.274-.001.006-.27.888-.001.003a4.403 4.403 0 00-.187.962c-.018.277.001.58.109.859l.052.118.005.01c.094.178.252.399.53.571.152.094.329.163.533.209-.543-.017-.916-.186-1.124-.385l-.083-.09c-.196-.258-.291-.727-.269-1.183l.017-.194v-.003c.064-.544.265-1.282.605-1.981.147-.302.317-.587.506-.844zm2.975-1.286c.268.041.516.124.658.228h.001c.109.083.164.16.194.235a.765.765 0 01.035.362 1.45 1.45 0 01-.104.364l-.086.008a1.153 1.153 0 00-.145-.746h.001l-.013-.019-.002-.006h-.001a1.094 1.094 0 00-.538-.426zm6.134 4.971h-.008l1.19-3.746-1.182 3.746zm-2.469-5l-1.272 4.048.593.341-.558.611h-.352l1.578-5h.011zm4.047 0l-.305.966-.607-.351.561-.615h.351zm5.43 5h-.002l.301-.889-.299.889zm-2.492-4.624l-1.254 3.735.569.347-.528.542h-.348l1.558-4.624h.003zm4.049 0l-.3.887-.57-.35.522-.537h.348zm-2.36-2.175a.88.88 0 00.067.148.285.285 0 01-.045-.058.182.182 0 01-.022-.09zm4.755 5.086a5.202 5.202 0 00-.153.945 2.3 2.3 0 00.088.829l.041.113.004.01c.074.169.206.395.449.577.14.104.305.183.494.233-.396-.023-.66-.169-.817-.351l-.066-.088c-.089-.141-.161-.357-.203-.628a3.53 3.53 0 01-.026-.792 7.81 7.81 0 01.381-1.649l-.192.801zm3.184-3.248c.175.041.331.109.422.189v.001c.147.133.224.292.183.61l-.001.006a1.067 1.067 0 00-.107-.331h.001l-.007-.012-.006-.013h-.002a1.017 1.017 0 00-.483-.45zm5.733 2.976a.416.416 0 01.04.08 1.28 1.28 0 01.079.281l.005.034.218 1.59h-.05l-.182-1.422-.001-.011-.025-.177a2.494 2.494 0 00-.042-.226 1.444 1.444 0 00-.051-.159l.009.01zm.123.383v.002l-.001-.007.001.005zm8.578-3.398l-1.578 5h-.01l1.271-4.035-.599-.345.565-.62h.351zm-4.047 0l-1.272 4.048.591.34-.558.612h-.35l1.578-5h.011zm6.75 2.117l-.001.002-.037.143-.134.524h-.031l-.084.396-.037.171-.01.051v.021a5.324 5.324 0 00-.122.807c-.017.299 0 .653.142.962l.006.011.006.012c.219.421.639.685 1.132.782l-.004.001c-.693 0-1.012-.332-1.157-.58l-.051-.101-.002-.004-.059-.157a2.577 2.577 0 01-.078-.723c.005-.394.068-.848.185-1.314.089-.357.206-.709.345-1.038l-.009.034zm3.044-1.944a.862.862 0 01.253.26l.05.088.002.003c.122.242.155.553.111.963-.042.393-.147.819-.265 1.299h-.426v-.333l.489.052.06-.279c.047-.206.111-.476.136-.746a1.9 1.9 0 00-.073-.782l-.045-.115-.003-.008-.049-.095a1.239 1.239 0 00-.24-.307zm8.48 4.551c-.015.253.005.497.133.74l.069.115.001.002a1.1 1.1 0 00.507.414c-.252-.01-.425-.057-.546-.181-.098-.109-.245-.341-.201-.838.007-.082.02-.166.037-.252zm2.834.88l-.175-.043.025-.128c.089-.083.175-.172.259-.27l-.109.441zm.675-2.704l-.108.43-.354-.085v-.345h.462zm-.024-2.826c.192.061.317.154.38.264a.932.932 0 01.078.303 1.1 1.1 0 00-.209-.355h.001l-.009-.01-.012-.015-.002.001a.926.926 0 00-.227-.188zm4.241-.074l-.037.114-.549 1.745-.024.074v.379h-.1l-.112.348-.602 1.885.463.147v.308h-.629l1.572-5h.018zm2.276 2.859a.422.422 0 01.183.147.619.619 0 01.072.265l-.006.127v.002a1.57 1.57 0 01-.23.635c.058-.147.099-.3.121-.454l-.496-.068.497.068v-.008c.03-.25-.008-.498-.141-.714zm-.437-.387l-.027-.014a.268.268 0 00.027-.007v.021zm.889-2.447c.193.032.311.097.4.216v.001c.058.079.126.217.092.464a1.254 1.254 0 01-.147.431c.009-.045.016-.09.022-.135l.001.001a1.008 1.008 0 00-.368-.978zm5.74 4.975h-.014l1.065-3.328-1.051 3.328zm-2.46-5l-1.269 4.048.584.335-.565.617h-.347l1.579-5h.018zm4.039 0l-.305.966-.602-.35.561-.616h.346zm2.229 4.734c-.014.25.007.49.134.73l.068.115.002.002c.14.207.317.338.506.414-.256-.009-.422-.056-.543-.179-.091-.1-.218-.289-.214-.661l.011-.173.001-.006c.007-.078.019-.159.035-.242zm2.944.457l-.015-.009.026-.033-.011.042zm.541-5.117c.193.062.318.156.38.267a.95.95 0 01.079.34 1.119 1.119 0 00-.217-.404h-.001a.919.919 0 00-.241-.203zm7.305-.074l-1.664 5.826h-.036l1.492-5.19.183-.636h.025zm6.981 0l-1.579 5h-.016l1.28-4.034-.598-.345.567-.621h.346zm-4.051 0l-1.27 4.048.591.339-.559.613h-.347l1.579-5h.006zm11.041 0l-1.661 5h-.063l.69-2.047.223-.659h-.012l.067-.197.701-2.097h.055zm-3.9 0l-.587 1.782-.216.656h.007l-.066.196-.799 2.366h-.055l1.661-5h.055zm10.91 0l-1.579 5h-.016l1.28-4.034-.605-.35.561-.616h.359zm-4.051 0l-1.27 4.048.591.339-.559.613h-.347l1.579-5h.006zm9.472 5h-.003l.733-2.312-.73 2.312zm-2.46-5l-1.269 4.048.584.335-.565.617h-.345l1.589-5h.006zm4.039 0l-.305.964-.602-.348.561-.616h.346z" fill="#2A2626" stroke="#2A2626"/><mask id="j" fill="#fff"><path d="M166.855 137.659c4.066.678 11.845 1.742 21.369 1.968 9.511.253 20.687-.333 31.248-2.008 10.56-1.636 20.477-4.363 27.495-7.315 7.084-2.833 11.046-6.291 11.033-6.304.039.027-4.08 4.016-11.597 7.448-7.425 3.564-17.919 6.969-28.952 9.176-11.032 2.275-22.602 3.299-32.021 3.365-9.406.12-16.726-.784-19.284-1.21-8.855-1.397-15.283-3.87-19.205-6.251-3.962-2.407-5.287-4.562-4.867-4.987.446-.492 2.414.505 6.415 1.835 4.001 1.33 10.088 2.979 18.379 4.296"/></mask><path d="M166.855 137.659c4.066.678 11.845 1.742 21.369 1.968 9.511.253 20.687-.333 31.248-2.008 10.56-1.636 20.477-4.363 27.495-7.315 7.084-2.833 11.046-6.291 11.033-6.304.039.027-4.08 4.016-11.597 7.448-7.425 3.564-17.919 6.969-28.952 9.176-11.032 2.275-22.602 3.299-32.021 3.365-9.406.12-16.726-.784-19.284-1.21-8.855-1.397-15.283-3.87-19.205-6.251-3.962-2.407-5.287-4.562-4.867-4.987.446-.492 2.414.505 6.415 1.835 4.001 1.33 10.088 2.979 18.379 4.296" fill="#2A2626"/><path d="M188.224 139.627l.027-1h-.003l-.024 1zm31.248-2.008l-.154-.988h-.003l.157.988zm27.495-7.315l-.371-.929-.008.004-.008.003.387.922zM258 124l.56-.829-1.272 1.531L258 124zm-11.597 7.448l-.415-.91-.009.004-.009.004.433.902zm-28.952 9.176l-.196-.98-.006.001.202.979zm-32.021 3.365l-.007-1h-.006l.013 1zm-19.284-1.21l.164-.987-.008-.001-.156.988zm-19.205-6.251l-.519.855.519-.855zm-4.867-4.987l.712.702.015-.015.014-.016-.741-.671zm24.616 7.104c4.1.684 11.928 1.754 21.51 1.982l.048-2c-9.465-.224-17.196-1.282-21.229-1.955l-.329 1.973zm21.508 1.982c9.566.254 20.804-.334 31.43-2.021l-.313-1.975c-10.494 1.665-21.609 2.248-31.064 1.996l-.053 2zm31.427-2.02c10.621-1.645 20.621-4.39 27.73-7.381l-.775-1.844c-6.927 2.914-16.763 5.622-27.262 7.249l.307 1.976zm27.714-7.375c3.611-1.444 6.431-3.049 8.351-4.299a34.034 34.034 0 002.198-1.549 18.256 18.256 0 00.733-.595 1.485 1.485 0 00.111-.107c.007-.008.039-.042.074-.091a.932.932 0 00.107-.183c.024-.058.068-.217.083-.318 0-.176-.128-.587-.284-.792l-1.424 1.404c-.156-.205-.285-.616-.284-.791a1.7 1.7 0 01.083-.318c.043-.098.093-.166.105-.183.035-.047.066-.08.071-.086a.318.318 0 01.035-.035l-.007.006-.113.097c-.11.092-.281.231-.511.408-.46.355-1.154.862-2.068 1.457-1.828 1.19-4.531 2.73-8.003 4.118l.743 1.857zm10.101-6.403a1 1 0 01-.401-1.106c.037-.128.092-.217.104-.237.036-.059.069-.099.073-.104.017-.02.026-.029.016-.019a14.825 14.825 0 01-.625.574 33.093 33.093 0 01-2.16 1.702c-1.919 1.396-4.77 3.215-8.459 4.899l.83 1.819c3.828-1.747 6.795-3.638 8.805-5.101a34.777 34.777 0 002.293-1.808c.259-.224.459-.407.597-.539.067-.065.126-.123.172-.171a1.09 1.09 0 00.169-.216c.013-.022.069-.113.106-.242a1 1 0 00-.4-1.109l-1.12 1.658zm-11.47 5.717c-7.333 3.521-17.745 6.903-28.715 9.098l.393 1.961c11.095-2.22 21.672-5.648 29.188-9.256l-.866-1.803zm-28.721 9.099c-10.962 2.26-22.466 3.278-31.826 3.344l.014 2c9.478-.067 21.114-1.096 32.216-3.385l-.404-1.959zm-31.832 3.344c-9.342.119-16.603-.78-19.107-1.196l-.328 1.972c2.612.435 9.991 1.345 19.461 1.224l-.026-2zm-19.115-1.198c-8.759-1.381-15.056-3.82-18.842-6.118l-1.038 1.71c4.059 2.463 10.618 4.972 19.568 6.384l.312-1.976zm-18.842-6.117c-1.916-1.165-3.15-2.242-3.84-3.038-.35-.403-.528-.698-.599-.866-.037-.086-.024-.089-.021-.028a.702.702 0 01-.214.501l-1.424-1.404c-.31.314-.371.704-.361.976.01.27.088.524.179.737.183.431.505.905.929 1.394.858.991 2.268 2.194 4.313 3.437l1.038-1.709zm-4.645-3.462c-.264.292-.553.167-.257.211.211.03.548.123 1.07.3.511.172 1.129.4 1.893.676.758.274 1.64.59 2.653.926l.631-1.898c-.989-.328-1.852-.637-2.603-.908-.744-.269-1.396-.51-1.933-.691-.526-.178-1.015-.325-1.423-.385-.324-.047-1.026-.111-1.513.426l1.482 1.343zm5.359 2.113c4.053 1.348 10.193 3.01 18.537 4.335l.314-1.976c-8.238-1.308-14.272-2.944-18.22-4.257l-.631 1.898z" fill="#2A2626" mask="url(#j)"/></svg>