<svg width="410" height="220" fill="none" xmlns="http://www.w3.org/2000/svg"><g clip-path="url(#clip0_281_33475)"><path d="M133.313 83.15c13.802 1.441 24.564 13.131 24.564 27.333 0 15.191-12.282 27.5-27.439 27.517C115.299 138 103 125.707 103 110.517 103 95.327 115.282 83 130.438 83c.97 0 1.939.05 2.875.15zm1.42 52.924c14.103-2.378 23.612-15.743 21.239-29.878-1.972-11.757-11.53-20.332-22.81-21.504a26.651 26.651 0 00-7.001.217 25.563 25.563 0 00-7.821 2.663c12.433 4.22 19.1 10.652 19.568 17.217.234 4.07-1.654 7.001-4.128 9.396l17.563-1.223c.501-.034.652.553.05.72l-41.909 12.042c4.261 5.895 10.895 9.814 18.247 10.584 2.273.235 4.629.185 7.002-.217v-.017zm-11.53-24.971c2.306-8.659-.318-17.72-6.601-22.526-8.539 5.41-13.468 15.609-11.697 26.227a25.754 25.754 0 003.643 9.563c6.684-1.859 12.549-5.393 14.638-13.264h.017z" fill="#fff"/><path d="M155.956 106.213c2.373 14.118-7.136 27.5-21.239 29.878a25.301 25.301 0 01-7.002.218c-7.352-.771-13.986-4.69-18.248-10.585l41.91-12.042c.602-.167.451-.753-.05-.72l-17.563 1.223c2.473-2.395 4.362-5.326 4.128-9.396-.468-6.582-7.136-12.996-19.568-17.217a26.025 26.025 0 017.82-2.663 25.297 25.297 0 017.002-.217c11.28 1.189 20.838 9.747 22.81 21.504v.017zm-51.05 8.591a25.735 25.735 0 003.642 9.563c6.685-1.859 12.55-5.392 14.639-13.264 2.306-8.659-.318-17.72-6.601-22.526-8.522 5.41-13.452 15.609-11.68 26.227zm194.975-7.57V98.19h-9.057v9.044h-4.963V85.696h4.963v8.575h9.057v-8.575h4.997v21.538h-4.997zM192.867 85.696v13.482c0 1.491.217 2.78.652 3.836.434 1.038 1.053 1.909 1.855 2.562.802.67 1.771 1.172 2.891 1.474 1.119.318 2.406.469 3.776.469 1.37 0 2.64-.151 3.743-.469a7.035 7.035 0 002.758-1.457c.735-.67 1.32-1.524 1.737-2.579.401-1.039.619-2.328.619-3.836V85.696h-4.646v13.348c0 1.357-.334 2.462-1.002 3.266-.686.821-1.755 1.24-3.209 1.24-1.454 0-2.49-.419-3.175-1.24-.685-.804-1.019-1.909-1.019-3.266V85.696h-4.98zm-14.32 21.538V89.716h-5.832v-4.02h16.677v1.926a2.092 2.092 0 01-2.089 2.094h-3.793v17.518h-4.963zm84.771-21.538h-4.963v21.538h4.963V85.696zm-21.507 11.49l.168.217 6.35 8.19a4.2 4.2 0 003.342 1.641h3.96l-9.09-11.59-.134-.167.134-.167 7.469-9.63h-5.163l-6.852 9.278-.167.218V85.68h-4.963v21.537h4.963V97.186h-.017zm-11.446 10.048a4.284 4.284 0 01-3.627-2.043l-3.86-6.398h-2.456v8.441h-4.963V85.696h8.856c2.273 0 4.061.603 5.298 1.776 1.236 1.172 1.854 2.78 1.854 4.756 0 1.005-.267 2.043-.802 3.048-.518.988-1.453 1.809-2.757 2.412l-.284.134 6.033 9.412h-3.292zm-9.926-11.69h2.891c1.036 0 1.838-.285 2.356-.854.518-.553.785-1.29.785-2.16 0-.871-.251-1.625-.769-2.195-.518-.569-1.32-.854-2.372-.854h-2.891v6.063zm46.957 10.769v-4.137c1.588.72 3.61 1.457 5.732 1.457 2.423 0 3.66-.837 3.66-2.428 0-1.876-1.655-2.077-4.947-3.5-2.239-1.005-4.394-2.563-4.394-6.18 0-4.204 3.191-6.18 7.62-6.18 2.356 0 4.361.552 5.481.971v4.02c-1.12-.52-3.125-1.14-5.131-1.14-2.172 0-3.191.805-3.191 2.195 0 1.457 1.236 1.909 3.442 2.746 2.841 1.424 6.15 2.044 6.15 6.9 0 4.204-3.343 6.482-7.804 6.482-2.741 0-4.913-.486-6.601-1.223l-.017.017zm7.754 29.024v-21.538h13.452v1.96c0 1.139-.919 2.06-2.055 2.06h-6.434v4.639h7.219v3.601h-7.219v5.275h8.489v4.02H275.15v-.017zm-49.096 0v-21.538h2.406a2.57 2.57 0 012.557 2.563v15.106h7.921v3.886h-12.901l.017-.017zm-25.784-21.521h-4.963v21.521h4.963v-21.521zm19.452 21.521a4.284 4.284 0 01-3.626-2.043l-3.86-6.398h-2.457v8.441h-4.963v-21.538h8.857c2.273 0 4.061.603 5.297 1.776 1.237 1.172 1.855 2.78 1.855 4.756 0 1.005-.267 2.026-.802 3.048-.518.988-1.454 1.809-2.757 2.412l-.284.134 6.032 9.412h-3.292zm-9.926-11.673h2.891c1.036 0 1.838-.285 2.356-.854.518-.553.786-1.29.786-2.161s-.251-1.624-.769-2.194c-.518-.569-1.32-.854-2.373-.854h-2.891v6.063zm-25.417-9.865h-5.698l-8.105 21.538h3.576c.903 0 1.705-.586 1.989-1.44l.835-2.529h8.723l1.27 3.969h5.381l-7.971-21.538zm-6.133 13.7l1.955-5.443a75.512 75.512 0 001.153-3.467h.067c.251.988.685 2.211 1.12 3.467l1.871 5.443h-6.182.016zm114.35 6.934v-4.137c1.587.72 3.609 1.457 5.731 1.457 2.423 0 3.66-.837 3.66-2.428 0-1.876-1.654-2.077-4.946-3.501-2.24-1.005-4.395-2.562-4.395-6.18 0-4.203 3.192-6.18 7.62-6.18 2.356 0 4.361.553 5.481.972v4.019c-1.12-.519-3.125-1.139-5.13-1.139-2.173 0-3.192.804-3.192 2.194 0 1.457 1.237 1.91 3.442 2.747 2.841 1.424 6.15 2.043 6.15 6.9 0 4.204-3.342 6.482-7.804 6.482-2.74 0-4.913-.486-6.601-1.223l-.016.017zm-40.942-20.634h3.075a4.24 4.24 0 013.593 1.993l5.999 9.647c.685 1.072 1.47 2.496 1.921 3.484h.101a53.711 53.711 0 01-.101-3.283v-11.857h4.345v21.537h-5.447l-7.286-11.656a44.118 44.118 0 01-1.888-3.316h-.067c.033.938.1 2.043.1 3.081v11.891h-4.345v-21.537.016zm-4.545.017h-4.963v21.521h4.963v-21.521z" fill="#2A2626"/></g><defs><clipPath id="clip0_281_33475"><path fill="#fff" transform="translate(103 83)" d="M0 0h204v55H0z"/></clipPath></defs></svg>