<svg width="410" height="220" fill="none" xmlns="http://www.w3.org/2000/svg"><path d="M83.894 91.094c-3.397.463-8.115 3.51-10.456 6.009-1.742 1.856-1.829 3.987-5.13 3.272 3.329-6.362 11.256-10.761 18.333-10.995 2.181-.074 4.43.72 6.502.72 1.938 0 4.178-.761 6.172-.748 7.708.06 14.913 4.474 19.005 10.858-3.388 1.008-3.128-.628-4.787-2.415-2.227-2.402-7.841-6.697-11.142-6.697h-5.993l4.567 2.81c2.309 1.733 4.329 3.887 5.71 6.472-.85-.069-1.966.22-2.743-.165-.274-.138-2.962-3.782-3.945-4.634-1.207-1.05-5.29-3.767-6.79-3.69-2.39.124-6.816 3.782-8.453 5.565-1.636 1.782-1.618 3.579-4.786 2.928.86-2.415 2.884-4.088 4.63-5.83l5.3-3.446c-1.889.183-4.165-.248-5.994 0v-.014zm6.336 38.5l-4.562-2.814c-1.687-1.21-3.342-2.539-4.343-4.4 3.3-.624 2.976.673 4.791 2.232 1.326 1.141 5.386 3.905 7.031 3.974 1.061.045 3.42-1.192 4.385-1.806 2.683-1.701 4.028-5.083 7.424-4.405.412.367-2.528 3.094-2.921 3.424-1.806 1.526-3.859 2.337-5.642 3.79h4.965c2.981 0 7.983-2.892 10.269-4.821 1.883-1.591 1.81-3.25 4.974-2.228-4.983 6.779-12.262 8.718-20.372 8.42-2.67-.101-3.484-.115-6.177 0-8.238.343-15.196-1.948-20.376-8.585 3.173-.55 2.857.413 4.49 1.852 2.377 2.104 7.566 5.362 10.752 5.362h5.308l.005.005zm113.73-27.844l-1.198 1.027-1.198-1.362c2.515-.563 2.721-4.688 5.482-4.13L206.365 99h3.081l-.347-1.54c1.705-1.013 1.563 1.251 2.277 1.499.786.275 4.384-.165 4.585.046v1.031h-5.139v1.031c1.308.055 2.638-.069 3.95 0 .778.041.499.183.508.862l-4.458.174v1.027c1.308.055 2.643-.069 3.95 0 .709.036.622.197.508.861-.069.376-3.31.092-3.946.174-.635.083-.553-.119-.507.688h5.482v1.375h-6.168v1.031h6.853v1.375h-5.138c1.074 1.357 3.227 1.701 4.791 2.237l-.215 1.173c-1.44.413-4.933-2.053-6.286-2.722v3.093h-1.372l-.169-3.093-6.14 3.112-.887-1.389c1.239-.156 2.643-.678 3.763-1.215.484-.233 1.545-.673 1.719-1.196h-5.139v-1.375h6.853v-1.031l-4.796.344v-4.813l-.018-.009zm5.139-1.723h-3.772v1.04h3.772v-1.04zm0 2.062h-3.772v1.041h3.772v-1.041zm82.209-2.745c.16-1.233.576-2.64 2.062-1.884l-.348 1.884h8.22v1.375h-8.736l-.855 1.719h7.877v8.763c0 1.577-4.645 1.989-4.11-.17h2.4v-1.718h-6.51v3.093h-1.714v-7.218c-1.345.843-1.966 2.8-3.42.861 1.806-1.425 3.173-3.231 4.444-5.156l-4.11-.17v-1.375h4.795l.005-.004zm6.51 4.469h-6.51v1.375h6.51v-1.375zm0 2.75h-6.51v1.375h6.51v-1.375zm-72.279-.688l-.348-1.031 1.029-.344-1.367-1.375h3.424v-2.411h-3.772v-1.37h3.772v-2.067h1.715v2.067h3.767l-.151 1.05-3.616.32v2.411h3.428v1.375h-6.51l.343 1.375h6.51v1.375l-1.709.005 1.024 1.022-2.739 1.554 3.767 1.205-.91 1.398c-3.14-.623-5.495-2.512-7.141-5.175-1.307 1.517-2.789.867-2.226 3.433l3.762-.687-.018 1.352-5.582 1.027-.517-.775.636-1.948-2.853.715-.571-1.054c.932-.248 1.933-.413 2.834-.77.649-.257 1.929-.715 2.304-1.297h-5.138v-1.375h6.853v-.005zm6.167 1.38c-.965.041-1.952-.074-2.917 0-.507.036-.992-.266-.85.509l1.477 1.164 2.29-1.673zm-106.651-3.328c1.052 1.086 1.303 3.039 1.111 4.492-.869 6.577-16.426 5.72-13.235-2.975 1.49-4.065 9.541-4.194 12.124-1.521v.004zm-8.023.999c-2.085 3.956.589 6.866 4.709 4.9 2.125-3.859-.7-6.641-4.709-4.9zm-31.712-.999c1.052 1.086 1.304 3.039 1.112 4.492-.869 6.577-16.427 5.72-13.236-2.975 1.49-4.065 9.542-4.194 12.125-1.521v.004zm-7.177.646c-2.098.615-2.13 5.299.279 5.762 1.7.325 3.936.142 4.252-1.902.48-3.08-1.568-4.721-4.53-3.86zM173.126 110l.348-3.438h-1.376v-1.374h1.714l.338-3.094-1.531.687-.48-.811 2.414-4.63 1.312-.059-.343 1.719h7.534v1.375h-8.051c-.164 0-.768 1.082-.855 1.375h8.221l-.325 2.878 1.294.61.059 1.324h-1.376c-.613 2.091.978 1.926 1.033 3.438l-1.326.041c.087 2.484-4.128 3.626-4.155.99l2.167.014.571-1.045h-7.191.004zm3.699-6.797c-1.349-.784-1.765.852-1.646 1.985h2.739c.178-.156-.997-1.926-1.098-1.985h.005zm3.84-.078l-2.738.174c.516.61 1.527 1.022 1.024 1.889h1.714v-2.063zm-4.11 3.442h-1.714v2.063h2.743c-.311-.812-1.582-1.1-1.029-2.063zm4.11-.005l-3.081.17c.516.61 1.527 1.022 1.024 1.888l1.481.019.572-2.077h.004zm-39.737-6.531l.197-2.754h1.517v2.754h5.825v7.907c-1.225.458-1.271-.637-1.861-.715-1.198-.156-2.715.165-3.964.027v5.156h-1.714v-5.156l-4.266-.023-.224 1.004-1.334.05v-8.25h5.824zm.009 1.715h-4.467v3.795h4.467v-3.795zm6.163 0h-4.467v3.795h4.467v-3.795zm170.24-3.777v7.219c-.681.215-3.233-.532-3.086.513.507 3.699 2.834-1.32 4.105 1.031l-2.368 1.765c-.306 1.027 1.847 2.351 2.72 2.539l-1.193 1.288c-1.49-.756-2.917-2.338-3.662-3.809-.622-1.224-.549-3.57-2.336-3.327v5.156l2.738-.344-.018 1.352-4.238 1.036c-1.143-.596-.197-1.471-.197-1.874v-12.55h7.535v.005zm-1.367 1.375h-4.458v1.719l3.891-.051.521-.508.041-1.16h.005zm0 4.469l-.041-1.16-.522-.509-3.89-.05v1.723h4.457l-.004-.004zm-75.704 8.593h-1.714v-4.468l-2.222 2.741-.828-.903 2.707-4.084c.32-1.045-2.14-.243-2.396-.509v-1.37h2.743c-.091-1.178-.146-1.779 1.024-2.232l-.685-1.55c-.823-.614-2.017 3.699-3.416 1.201l2.396-4.299 1.367.348-.343 1.37 3.923-.022.192 1.054 1.6-2.42 1.481.014-.343 1.37h5.139v1.375l-3.424.005 1.028 1.709c-2.226 1.105-1.915-2.346-3.799-1.503l-1.193 1.843-1.518-.688 1.029-1.366h-2.739l.704 1.531c-1.129.316-.649 1.233-.704 2.251l2.4.174v1.201c-.224.238-2.802-.495-2.395.513 1.028 1.297 3.886 2.076 1.371 3.616l-1.376-1.719v4.813l-.009.004zm-142.157-9.968v2.062h-5.65c-.92 0-1.253 1.402-.535 1.911.937.665 4.174-.568 5.87.986 1.97 1.805.256 5.009-1.91 5.009h-7.709v-2.062h5.65c.778 0 1.12-.977.81-1.673-.626-1.009-7.004.967-6.826-3.305.06-1.379 1.692-2.928 2.935-2.928h7.365z" fill="#000"/><path d="M72.077 103.125v2.063h-5.65c-2.35 0-2.268 5.5-.686 5.5h6.336v2.406h-5.993c-.618 0-3.196-.903-3.777-1.366-1.947-1.572-2.057-5.097-.352-6.898.553-.587 2.748-1.7 3.443-1.7h6.68v-.005zm39.052-.687v2.062h-4.965c-.096 0-1.732.697-1.805.765-1.057 1.036-.567 5.079 1.463 5.079h5.307v2.062h-6.336c-.137 0-2.272-.715-2.574-.852-3.26-1.536-2.935-7.054.503-8.443.279-.114 2.29-.669 2.414-.669h5.993v-.004zm139.074 0v9.968c-1.326.546-1.701-.651-2.203-.715-.576-.073-2.533-.087-3.041.037-.128.032-.667 1.247-1.947.678v-9.968h7.191zm-1.71 1.37h-3.771v1.384h3.771v-1.384zm0 2.75h-3.771v1.384h3.771v-1.384zm0 2.406h-3.776v1.733h3.776v-1.733zm19.179-7.214v1.719h-5.824l-1.71 3.781 4.448-.348-1.362-2.232 1.504-.532c.494 1.806 4.247 4.716 1.235 5.518-.037-.366-.211-.843-.494-1.063-.691-.541-6.126.385-7.393.724-.905-2.095 1.481-3.845 2.053-5.844h-3.086v-1.723h10.629zm-67.48 0v1.719h-5.65l-2.227 3.776 4.119-.16c1.006-.628-.813-1.82-.694-2.406.521-2.654 4.233 3.868 3.968 4.299l-1.061.665c-.283-.023-.548-1.009-.855-1.21-.617-.404-6.995.962-7.493.499-.818-2.017 2.213-3.24 2.016-5.463l-2.747-.165c-.704-.486-.16-1.554.178-1.554h10.446zm151.062-3.437V111.2c0 1.412-2.953 1.265-3.899 1.224l-.554-1.737h2.739V99.683h-11.987v-1.375h13.701v.005zm-22.609 4.473l-4.11 6.866 6.506-.344c.256-.944-1.486-1.971-1.367-2.571.096-.481 1.01-.646 1.49-.481.348.119 2.981 3.946 3.329 4.578.631 1.146-.371 1.366-1.395 1.568-.192-1.118-.356-1.591-1.527-1.737-1.513-.188-9.386.999-9.747.669-1.079-.99 1.07-2.507 1.619-3.291a47.765 47.765 0 003.474-5.812l1.724.546.004.009zm-55.834-5.5L272.473 99h2.395v1.375l-2.697.046-1.07 3.735 1.034-.201v-2.205h1.193l.169 2.411h1.376v1.37h-1.376v1.724h1.376v1.37h-1.376v3.786h-1.367v-3.099c-.754-.256-2.368.784-2.739-.174-.548-1.421 1.852-.967 2.41-1.356l.329-2.251-2.396.349c-.877-.715 1.276-4.309 1.029-5.5h-1.376v-1.375h1.714V97.28h1.715l-.005.005zm-107.044 4.464c.471.133.608.917.512 1.375l-3.273.325c-.174.248-.133.578-.165.867-.124 1.008-.32 5.312 1.756 3.822.58-.417.082-1.485.484-1.911l1.171.907c.676 3.122-4.764 3.062-4.764 1.325v-5.326h-1.715c.105 2.535-.836 5.716-3.547 6.476l-.906-1.315c2.364-.335 2.675-2.677 2.99-4.661-.141-.789-2.03-.445-2.651-.5v-1.375h10.108v-.009zm138.214-3.781c.983.174 4.874-.468 5.116.54.142.587-1.317 2.81-1.344 3.796-.041 1.329 1.87 2.864 1.015 5.092-.677 1.778-2.716 1.851-2.734-.147l1.344-.027c.887-1.618-.956-3.511-.969-4.611-.009-.605 1.134-3.167.996-3.268h-2.057v13.058h-1.371V97.964l.004.005z" fill="#000"/><path d="M188.543 102.781v6.362c3.132 3.052 7.786 1.379 11.645 1.549l-.572 1.733c-3.205-.193-6.528.476-9.601-.633-.777-.28-1.49-1.187-2.313-1.118l-2.053 1.728-.846-1.146c.161-.963 2.026-1.462 2.026-1.595v-5.156h-2.058v-1.719h3.772v-.005zm67.484 0v6.362c0 .124 1.701 1.269 2.043 1.384 3.237 1.109 6.643-.069 9.944.165-.251.385-.292 1.091-.512 1.37-.416.528-6.734.459-7.85.312-1.353-.179-3.607-1.7-4.146-1.687-1.317.033-2.195 3.562-3.1.34l2.185-1.953.069-4.579c-.956.014-2.592.344-2.396-1.196.279-.894 2.958-.408 3.767-.518h-.004zm-101.397 0v6.362c0 .124 1.701 1.269 2.044 1.384 3.132 1.077 6.41-.009 9.605.16v1.201c-4.046.789-8.668 1.146-12.161-1.43l-2.564 1.944-.544-1.375 2.185-1.953.068-4.579c-.955.014-2.592.344-2.395-1.196.279-.894 2.958-.408 3.767-.518h-.005zm125.373.688v8.424c-.928.907-2.14.857-2.4-.509 1.499.101 1.477-.793 1.376-2.067h-2.057v3.094h-1.367v-8.938h4.453l-.005-.004zm66.799.687v5.5h-6.511l-.036.977-1.335.055v-6.532h7.882zm-6.511 1.375v2.75h4.796v-2.75h-4.796zm-232.586 9.282c2.83-.564 2.953 1.072 4.448 2.75v-2.75h2.058v5.5c-2.803.632-2.803-1.265-4.449-2.75v2.75h-2.057v-5.5zm-35.629-.001h2.058l.196 2.068 2.204-.005-.005-2.063h2.057v5.5H76.53l-.197-2.067-2.198.005v2.062h-2.058v-5.5zm212.383-12.718l-1.216-.312c-.64.999-4.892.857-6.172.683-.814-.11-.059-1.269-1.851-.032l-.691-1.37c1.427.238 4.814-3.81 5.308-3.81l.526.184c.928 1.806 2.615 2.659 4.293 3.612l-.192 1.036-.005.009zm-2.743-1.036l-1.947-1.668-1.82 1.503 3.767.165zm-181.72 13.754c.316.092 1.084 1.229 1.143 1.623.362 2.315-2.893 2.333-4.398 2.154v1.723h-2.395v-5.5h5.65zm-1.197 1.032H96.74v1.718l1.733-.151.325-1.567zm-29.118-1.032v1.032c-.288.307-3.835-.559-4.448.522.018.931 2.02.44 2.83.592 3.054.572 1.467 3.354.763 3.354h-5.308v-1.031c.27-.288 3.53.537 4.106-.522l-3.022-.738c-2.313-.711-1.477-3.209-.229-3.209h5.308zm53.777 0v1.032c-1.701.211-4.686-.853-4.828 1.549-.114 1.902 1.203 2.04 2.775 1.893v-1.724h2.058v2.75h-5.313c-2.19 0-2.606-5.5.343-5.5h4.965zm-32.367.001c1.22.265 1.81 2.163 1.024 3.08-.786.916-3.154.673-4.28.696v1.724h-2.052v-5.5c1.555.224 3.882-.307 5.308 0zm-3.255 2.75c3.292.458 3.282-2.182 0-1.724v1.724zm135.993-20.282v7.907h-1.372l-.004-2.407-3.242 1.375-.525-1.196 3.716-1.609.055-4.07h1.372zm42.814.688h-8.563v1.719h8.563v-1.72zM190.6 99.688v-1.72h8.051c.644 0 .644 1.72 0 1.72H190.6zm72.619 17.875c1.074-1.1 2.843 3.9 3.762 4.125v-4.125h1.034v5.843c-2.172.019-2.401-3.4-4.106-4.468-.119 1.265.156 2.731 0 3.96-.078.628.114.554-.686.508v-5.843h-.004zm70.571-12.719c-.832-1.678-2.409-2.938-3.443-4.629-.727-1.197-1.842-2.42.133-2.521l5.006 5.954-1.701 1.2.005-.004zm14.039-3.782h-9.934v1.376h9.934v-1.376zm-21.579-3.089c.443.481-3.667 6.71-4.618 6.783-.608.046-1.472-.609-.873-1.471 1.179-1.696 3.383-3.277 3.794-5.656l1.697.344zm-180.262 19.31c4.069-.5 3.923 5.344 1.554 6.05-4.805 1.439-5.5-5.569-1.554-6.05zm-.009.673c-2.442.477-2.323 5.322.928 4.767 2.546-.435 1.746-5.284-.928-4.767zm125.802-.394h4.453c1.367 1.045-3.292.55-3.424.688v1.723c4.334-.325 4.22 1.018 0 .683v1.866l3.429.371c.228.797-.736.49-1.198.513-1.084.046-2.176-.032-3.26 0v-5.844zm-101.297.441c2.83-2.828 7.123 2.259 4 4.876-3.122 2.622-6.597-2.282-4-4.876zm3.593 4.29c.288-.289.403-1.045.43-1.467.302-4.904-5.385-2.8-3.854.77.549 1.279 2.551 1.572 3.424.697zm128.633-4.29c2.853-2.851 7.045 2.246 4.005 4.881-3.04 2.635-6.643-2.241-4.005-4.881zm3.589 4.29c.741-1.27.704-3.717-.933-4.244-3.529-1.142-3.904 6.742.933 4.244zm-64.659-3.017c-.964.129-1.216-1.118-1.961-1.32-2.354-.646-3.292 3.145-1.989 4.428.937.921 3.671.353 3.26-1.38-.265-.256-2.08.587-1.71-.687h2.396l-.005 3.094c-1.056-1.082-1.051-.133-1.897-.01-6.602.977-2.368-10.903 1.902-4.12l.004-.005zm42.814.005c-1.028.165-.649-.926-1.7-1.242-.613-.183-1.13 0-1.674.261v1.284c1.23.49 3.987.462 3.548 2.488-.466 2.141-5.226 1.87-4.622-.724 1.074-.215.626 1.008 1.605 1.311.695.215 1.696.206 2.158-.458.589-1.907-4.536-1.215-3.63-3.617.621-1.957 4.498-1.746 4.315.697zm-92.143-1.719h1.024v2.407h2.889c.658-.097-.526-2.805.882-2.407v5.844c-1.44.385-.196-2.654-.882-2.754h-2.889v2.759h-1.024v-5.849zm35.627.001c1.001-1.018 3.012 3.914 3.598 4.473.356-.014.096-3.392.169-3.965.077-.628-.115-.554.685-.508v5.843c-1.906-.476-2.295-3.341-3.762-4.468-.119 1.265.155 2.731 0 3.96-.078.628.114.554-.686.508v-5.843h-.004zm-39.394 1.718c-.403.472-1.111-1.155-1.966-1.32-1.372-.266-2.693.981-.773 1.838 1.413.633 3.141-.018 2.739 2.393-.348 2.076-5.116 1.64-4.449-.844 1.152-.284.38 1.036 1.239 1.329 1.518.523 3.658-.485 1.98-1.64-1.116-.766-3.493-.074-3.159-2.191.507-3.213 5.436-.793 4.389.435zm153.118 4.125v-5.844l3.767.17c2.707 3.387.375 6.467-3.767 5.674zm.686-.687c3.081.586 4.485-1.76 2.748-4.304l-2.748-.17v4.474zm-184.975-3.438c-.485.523-1.509-2.383-3.269-1.05-2.021 1.531 2.857 1.898 3.209 2.485.17.279.128 1.118.051 1.471-.462 2.053-5.07 1.797-4.44-.839.645.151.641 1.105 1.249 1.32 1.54.541 3.63-.486 1.965-1.627-1.115-.765-3.492-.073-3.159-2.191.371-2.342 4.362-1.998 4.389.436l.005-.005zm7.877-20.968c.138.398-.15 1.374-.512 1.374h-8.05v-1.374h8.562zm118.866 4.812v8.937l-2.743.344v-1.375h1.714v-7.906h1.029zM83.383 114.812h-2.057v5.5h2.058v-5.5zm21.926 0h-2.057v5.5h2.057v-5.5zm34.589 4.469c-.973.207-.635-.728-1.444-1.123-3.342-1.64-4.156 5.72-.165 4.501.978-.298.535-1.531 1.605-1.311-.7 3.731-5.646 2.462-5.121-1.521.572-4.336 6.296-2.058 5.121-.546h.004zm158.601-.004c-1.33.422-1.038-1.059-1.952-1.329-2.368-.692-3.337 3.13-1.82 4.601 2.186 1.297 2.3-1.654 3.772-1.035-1.476 3.231-5.472 2.337-5.358-1.32.101-3.236 4.307-4.153 5.363-.917h-.005zm-132.221 0c-1.33.421-1.038-1.059-1.952-1.329-2.368-.693-3.337 3.13-1.819 4.601 2.185 1.297 2.299-1.654 3.771-1.036-1.454 3.154-5.413 2.443-5.285-1.246.119-3.415 4.106-4.212 5.285-.99zm48.302-1.715c5.569-1.155 6.309 3.777.681 3.438-.301.293.668 2.796-.681 2.406v-5.844zm3.388.72l-2.702-.032c-.736 3.075 3.749 2.727 2.702.032zm-11.613-.72c5.477-1.182 6.159 3.814.682 3.438-.302.293.667 2.796-.682 2.406v-5.844zm3.429.688h-2.743v2.067l2.693-.394.05-1.673zm-38.023-11.687l-1.719 5.5-1.614-.857 2.473-4.969.86.326zm166.476 10.999l-.004.688h-2.053v5.156h-.686v-5.156h-2.053v-.688h4.796zm-86.663 0v5.157c.787.252 3.333-.665 3.082.687h-3.767v-5.844h.685zm75.7 0v5.157c.786.252 3.333-.665 3.081.687h-3.767v-5.844h.686zm-125.029 0h-1.028v5.844h1.028v-5.844zm21.582 0h-1.028v5.844h1.028v-5.844zm35.282 0h-1.029v5.844h1.029v-5.844z" fill="#000"/><path d="M282.06 103.812h-1.029v5.844h1.029v-5.844zm-95.739-5.724c.626.005 3.973 2.232 2.217 2.823h-.663l-2.752-2.085c.279-.316.777-.747 1.198-.742v.004zm70.388 1.604c.261.381-.635 1.43-1.147 1.338l-2.611-2.204 1.129-.811 2.629 1.677zm-105.156-.353l.85-1.283 2.908 2.149-1.129.811-2.629-1.677zm20.878-.664l-.836 1.365c-.439-.27-2.812-1.365-2.574-1.893.649-1.443 2.473.427 3.41.528zm-1.017 4.798l-.851 1.283c-.402-.412-2.798-1.214-2.569-1.801.667-1.719 2.309.321 3.42.518zm48.469-5.413l1.861 1.504-.828 1.15-1.879-1.883.846-.77z" fill="#000"/><path d="M209.098 102.089h-3.772v1.041h3.772v-1.041zm0-2.062h-3.772v1.04h3.772v-1.04zm88.721 6.535h-6.51v1.376h6.51v-1.376zm0-2.75h-6.51v1.376h6.51v-1.376zm-66.113 3.442l-2.29 1.673-1.477-1.164c-.141-.779.339-.472.851-.509.964-.068 1.952.046 2.916 0zm-114.674-2.328c4.009-1.741 6.839 1.036 4.709 4.9-4.124 1.971-6.799-.944-4.709-4.9zm-38.888-.353c2.962-.866 5.01.779 4.53 3.859-.32 2.045-2.555 2.228-4.251 1.902-2.41-.462-2.382-5.147-.28-5.761zm102.523 1.989l-.572 2.077-1.481-.019c.498-.866-.508-1.278-1.024-1.888l3.081-.17h-.004zm-3.84-3.359c.096.055 1.271 1.829 1.097 1.984h-2.739c-.119-1.132.297-2.763 1.646-1.984h-.004zm-.271 3.364c-.558.958.718 1.251 1.029 2.058h-2.743v-2.063h1.714v.005zm4.11-3.442v2.067l-1.714-.004c.503-.867-.508-1.279-1.024-1.889l2.738-.174zm-39.729-1.379h-4.466v3.795h4.466v-3.795zm6.166 0h-4.466v3.795h4.466v-3.795zm168.87 2.066h-4.457v-1.718l3.895.05.521.504.041 1.164zm0-4.468l-.041 1.164-.521.504-3.895.05v-1.718h4.457zm-67.48 9.631l-3.776.004.002 1.728 3.776-.004-.002-1.728zm-.001-5.167h-3.771v1.384h3.771v-1.384zm0 2.75h-3.771v1.384h3.771v-1.384zm96.595-1.027h-4.796v2.75h4.796v-2.75zm-63.371-4.473l-3.767-.165 1.82-1.503 1.947 1.668zM98.8 115.844l-.325 1.567-1.733.151v-1.718H98.8zm-10.964 1.718v-1.723c3.282-.458 3.292 2.177 0 1.723zm58.144.395c2.674-.523 3.474 4.331.928 4.766-3.251.555-3.37-4.29-.928-4.766zm28.097 4.336c-.873.875-2.875.586-3.424-.697-1.532-3.57 4.156-5.674 3.854-.77-.027.422-.142 1.178-.43 1.467zm132.222-.001c-4.837 2.498-4.458-5.385-.933-4.244 1.632.527 1.673 2.979.933 4.244zm36.049.427v-4.473l2.747.169c1.738 2.544.334 4.891-2.747 4.304zm-124.38-4.437c1.047 2.695-3.438 3.039-2.702-.032l2.702.032zm-8.184-.032l-.05 1.668-2.693.394v-2.062h2.743z" fill="#fff"/></svg>