<svg width="82" height="82" viewBox="0 0 82 82" fill="none" xmlns="http://www.w3.org/2000/svg">
<rect width="82" height="82" fill="#C62826"/>
<path d="M42.4374 22.7114H59.0201C59.1589 22.7114 59.6447 23.1922 59.6447 23.3314V39.6466H70.6767C70.9904 39.6466 71.404 40.3368 71.3069 40.6729L71.1944 64.2538C71.1001 64.5141 70.9196 64.7029 70.7503 64.9136C69.8383 66.0474 66.3252 69.5893 65.1982 70.42C64.9983 70.5674 64.8387 70.7424 64.5625 70.7534L40.3914 70.657C40.2887 70.6129 39.9389 70.3318 39.9389 70.2795V58.7832H24.0502C23.6602 58.7832 23.148 58.0792 23.148 57.75V42.1236H11.5608C11.508 42.1236 11.2235 41.7764 11.1804 41.6758L11.1374 17.4723C11.2707 17.0521 11.6996 16.9405 11.9813 16.6568C13.4513 15.1786 15.7637 12.4949 17.3169 11.3501C17.5168 11.2027 17.6764 11.0278 17.9526 11.0168L42.0182 11.0801C42.2514 11.2675 42.5623 11.5926 42.5637 11.9026C42.5637 12.0279 42.4374 12.1368 42.4374 12.1795V22.7114ZM39.2449 12.798H18.3607L14.2674 16.9281H35.1516L39.2449 12.798ZM36.4702 30.0073L40.6329 25.9461V14.1757L36.4702 18.2369V30.0087V30.0073ZM18.5689 18.7177H12.8794V24.3618L18.5689 18.7177ZM27.0345 18.7177H21.1367L12.8808 26.9091V32.7598L27.0345 18.7163V18.7177ZM34.6658 18.7177H29.6009L12.8794 35.3084V40.334L13.64 40.3313L34.5353 19.7592L34.6672 18.7191L34.6658 18.7177ZM23.148 40.4718V34.2077L26.0545 31.3092L31.472 31.1769L34.6658 28.0125V22.1618L16.3494 40.4732H23.1494L23.148 40.4718ZM56.3134 24.501H42.5762C42.5567 25.3482 42.7219 26.2244 42.2222 26.9724L36.0511 32.9651L27.0955 33.0298L26.4779 33.45H47.5009L56.312 24.501H56.3134ZM48.6807 55.4783C48.9861 55.3708 49.0652 55.1545 49.104 54.8652C49.4427 52.3979 48.85 49.1536 49.0902 46.5912C49.1082 46.3914 49.0971 46.1931 49.1984 46.0098L55.3474 39.8574C56.065 39.3339 57.1712 39.9634 57.8389 39.4386V25.7394L48.6807 34.7574V55.4783ZM30.7807 35.2396H25.0912V40.7473L30.7807 35.2396ZM39.2449 35.2396H33.3472L24.9524 43.5687V49.2817L39.2449 35.2382V35.2396ZM46.8776 35.2396H41.8127L24.9524 51.9667V56.7856C24.9524 57.13 26.0226 57.0088 26.2044 56.6506L46.7458 36.2797L46.8776 35.2396ZM28.4211 56.9923H34.18L34.738 56.5831L46.8763 44.533V38.6823L28.4211 56.9937V56.9923ZM68.1075 41.4347H56.3814L52.2882 45.5649H64.0142L68.1075 41.4347ZM65.3328 67.7309L69.4955 63.6696V42.811L65.3328 46.8722V67.7309ZM46.8776 47.0803L36.8866 56.9923L42.6164 56.9661L46.8776 52.7947V47.0803ZM55.7582 47.3558H50.9015L51.0417 52.037L55.7582 47.3558ZM58.3247 47.3558C55.9095 49.8603 53.2126 52.1665 51.0417 54.8625C51.4595 55.8213 49.086 58.1798 48.3906 58.5655C47.8187 58.8838 47.2607 58.6523 46.7985 58.9127L41.742 63.9452V68.9707L42.5026 68.968L63.3979 48.3959L63.5298 47.3558H58.3247ZM45.212 68.9707H51.1097L63.5284 56.6493V50.7985L45.212 68.9721V68.9707ZM46.8776 56.9937L46.8082 55.4796C46.6736 55.6739 45.2897 56.8159 45.4896 56.9923H46.8776V56.9937ZM44.3792 58.7818H41.7433V61.3979L44.3792 58.7818ZM53.6762 68.9707H59.5739L63.5284 65.0473V59.1965L53.6762 68.9721V68.9707ZM63.5298 68.9707L63.527 67.5931L62.1417 68.9019L63.5298 68.9707Z" fill="white"/>
<path d="M18.9853 63.1875H33.6248C34.0814 63.1875 34.713 64.2923 34.1731 64.696C32.1299 66.3904 30.2033 69.1237 28.1477 70.6942C27.9297 70.8609 27.716 71.0138 27.455 71.1074L11.6246 71.1102L11 70.4903V54.6421L17.4654 48.1162C18.0109 47.5445 18.9853 48.1782 18.9853 48.7982V63.1875ZM12.742 68.0064L17.1823 63.6696V51.0726L12.742 55.4094V68.0064ZM31.1971 64.9784H18.5009L14.13 69.384H26.8263L31.1971 64.9784Z" fill="white"/>
<path d="M48.8889 18.9932C48.299 18.9932 47.8631 17.7947 48.4822 17.3497L54.9185 11.0691L70.5435 11.0016C71.2222 10.9713 71.615 11.3736 71.5845 12.0348C71.2694 16.7601 71.9828 21.973 71.5831 26.6404C71.5553 26.9573 71.5026 27.2617 71.4026 27.5634L64.9955 34.0093C64.6277 34.3882 63.5312 33.9818 63.5312 33.5203V18.9932H48.8889ZM68.3851 12.798H55.6888L51.3179 17.2037H64.0142L68.3851 12.798ZM65.3328 31.1094L69.7731 26.7727V14.1757L65.3328 18.5124V31.1094Z" fill="white"/>
</svg>
