<svg width="248" height="61" viewBox="0 0 248 61" fill="none" xmlns="http://www.w3.org/2000/svg">
<path d="M31.4374 11.7114H48.0201C48.1589 11.7114 48.6447 12.1922 48.6447 12.3314V28.6466H59.6767C59.9904 28.6466 60.404 29.3368 60.3069 29.6729L60.1944 53.2538C60.1001 53.5141 59.9196 53.7029 59.7503 53.9136C58.8383 55.0474 55.3252 58.5893 54.1982 59.42C53.9983 59.5674 53.8387 59.7424 53.5625 59.7534L29.3914 59.657C29.2887 59.6129 28.9389 59.3318 28.9389 59.2795V47.7832H13.0502C12.6602 47.7832 12.148 47.0792 12.148 46.75V31.1236H0.560767C0.508022 31.1236 0.223479 30.7764 0.18045 30.6758L0.137421 6.47231C0.270672 6.05214 0.699565 5.94055 0.981334 5.65676C2.45125 4.17856 4.7637 1.49495 6.3169 0.35014C6.51677 0.202734 6.6764 0.027775 6.95262 0.016754L31.0182 0.0801249C31.2514 0.267482 31.5623 0.592602 31.5637 0.902568C31.5637 1.02793 31.4374 1.13676 31.4374 1.17947V11.7114ZM28.2449 1.79803H7.36069L3.26741 5.92815H24.1516L28.2449 1.79803ZM25.4702 19.0073L29.6329 14.9461V3.17565L25.4702 7.23689V19.0087V19.0073ZM7.5689 7.71769H1.87939V13.3618L7.5689 7.71769ZM16.0345 7.71769H10.1367L1.88078 15.9091V21.7598L16.0345 7.71631V7.71769ZM23.6658 7.71769H18.6009L1.87939 24.3084V29.334L2.64002 29.3313L23.5353 8.75917L23.6672 7.71906L23.6658 7.71769ZM12.148 29.4718V23.2077L15.0545 20.3092L20.472 20.1769L23.6658 17.0125V11.1618L5.34945 29.4732H12.1494L12.148 29.4718ZM45.3134 13.501H31.5762C31.5567 14.3482 31.7219 15.2244 31.2222 15.9724L25.0511 21.9651L16.0955 22.0298L15.4779 22.45H36.5009L45.312 13.501H45.3134ZM37.6807 44.4783C37.9861 44.3708 38.0652 44.1545 38.104 43.8652C38.4427 41.3979 37.85 38.1536 38.0902 35.5912C38.1082 35.3914 38.0971 35.1931 38.1984 35.0098L44.3474 28.8574C45.065 28.3339 46.1712 28.9634 46.8389 28.4386V14.7394L37.6807 23.7574V44.4783ZM19.7807 24.2396H14.0912V29.7473L19.7807 24.2396ZM28.2449 24.2396H22.3472L13.9524 32.5687V38.2817L28.2449 24.2382V24.2396ZM35.8776 24.2396H30.8127L13.9524 40.9667V45.7856C13.9524 46.13 15.0226 46.0088 15.2044 45.6506L35.7458 25.2797L35.8776 24.2396ZM17.4211 45.9923H23.18L23.738 45.5831L35.8763 33.533V27.6823L17.4211 45.9937V45.9923ZM57.1075 30.4347H45.3814L41.2882 34.5649H53.0142L57.1075 30.4347ZM54.3328 56.7309L58.4955 52.6696V31.811L54.3328 35.8722V56.7309ZM35.8776 36.0803L25.8866 45.9923L31.6164 45.9661L35.8776 41.7947V36.0803ZM44.7582 36.3558H39.9015L40.0417 41.037L44.7582 36.3558ZM47.3247 36.3558C44.9095 38.8603 42.2126 41.1665 40.0417 43.8625C40.4595 44.8213 38.086 47.1798 37.3906 47.5655C36.8187 47.8838 36.2607 47.6523 35.7985 47.9127L30.742 52.9452V57.9707L31.5026 57.968L52.3979 37.3959L52.5298 36.3558H47.3247ZM34.212 57.9707H40.1097L52.5284 45.6493V39.7985L34.212 57.9721V57.9707ZM35.8776 45.9937L35.8082 44.4796C35.6736 44.6739 34.2897 45.8159 34.4896 45.9923H35.8776V45.9937ZM33.3792 47.7818H30.7433V50.3979L33.3792 47.7818ZM42.6762 57.9707H48.5739L52.5284 54.0473V48.1965L42.6762 57.9721V57.9707ZM52.5298 57.9707L52.527 56.5931L51.1417 57.9019L52.5298 57.9707Z" fill="#C62826"/>
<path d="M7.98531 52.1875H22.6248C23.0814 52.1875 23.713 53.2923 23.1731 53.696C21.1299 55.3904 19.2033 58.1237 17.1477 59.6942C16.9297 59.8609 16.716 60.0138 16.455 60.1074L0.624611 60.1102L0 59.4903V43.6421L6.46542 37.1162C7.01091 36.5445 7.98531 37.1782 7.98531 37.7982V52.1875ZM1.74198 57.0064L6.18226 52.6696V40.0726L1.74198 44.4094V57.0064ZM20.1971 53.9784H7.50089L3.13 58.384H15.8263L20.1971 53.9784Z" fill="#C62826"/>
<path d="M37.8889 7.99321C37.299 7.99321 36.8631 6.79468 37.4822 6.3497L43.9185 0.0691039L59.5435 0.00160015C60.2222 -0.0287076 60.615 0.373559 60.5845 1.03482C60.2694 5.76008 60.9828 10.973 60.5831 15.6404C60.5553 15.9573 60.5026 16.2617 60.4026 16.5634L53.9955 23.0093C53.6277 23.3882 52.5312 22.9818 52.5312 22.5203V7.99321H37.8889ZM57.3851 1.79803H44.6888L40.3179 6.20367H53.0142L57.3851 1.79803ZM54.3328 20.1094L58.7731 15.7727V3.17565L54.3328 7.51242V20.1094Z" fill="#C62826"/>
<path d="M112.721 59.9319C111.907 60.0175 110.061 60.0277 109.257 59.9319C96.3251 58.4005 95.4034 38.5825 108.698 36.2092C125.819 33.1532 128.266 58.2858 112.721 59.9319ZM109.904 41.8473C103.294 42.8671 103.872 54.4684 111.238 54.2939C119.301 54.1039 118.887 40.4596 109.904 41.8473Z" fill="white"/>
<path d="M73.8928 9.93888C74.0453 8.68636 74.877 6.59539 75.5353 5.49002C80.4941 -2.85161 95.5211 -1.62476 96.7564 8.74281H90.8673C89.5955 4.39148 83.0324 4.3624 80.9584 8.10971C79.3783 10.9655 79.9275 15.4538 82.8435 17.2641C85.7595 19.0745 90.2504 18.0581 91.0405 14.3878H96.9297C95.7948 25.8265 78.7095 26.6119 74.7539 16.53C74.4559 15.772 73.976 14.3005 73.8911 13.5339C73.7993 12.6955 73.7906 10.7722 73.8911 9.9423L73.8928 9.93888Z" fill="white"/>
<path d="M124.296 0.192438V23.2786H118.061V13.19L113.308 17.9862C112.187 18.6416 111.298 16.8671 110.617 16.1776C109.664 15.2142 108.696 14.2457 107.668 13.3611V23.2786H101.433V0.192438L103.78 0.353282L112.778 10.1066L121.949 0.353282L124.296 0.192438Z" fill="white"/>
<path d="M150.308 36.3341V59.4203H144.246V49.3316C143.104 50.3326 142.018 51.4106 140.95 52.4903C140.299 53.1491 139.53 54.7866 138.433 54.1279L133.68 49.3316V59.4203H127.618V36.3341L129.869 36.4197L138.939 46.2397L147.957 36.4932L150.308 36.3341Z" fill="white"/>
<path d="M216.995 47.4494V36.5908L217.255 36.3341H222.971L223.231 36.5908V59.3347C222.7 59.7865 221.404 59.6941 220.814 59.3279L209.373 48.3067V59.422H203.137V36.3358L205.485 36.4967L216.473 47.1945L216.995 47.4494Z" fill="white"/>
<path d="M95.9197 50.5277C95.0551 61.6773 78.5762 62.757 74.1199 53.3254C72.7027 50.3241 72.6351 46.1199 73.8912 43.0587C77.9005 33.2883 94.3604 33.8667 95.9197 44.8845H90.1172C89.1313 42.6772 87.5616 41.5513 85.0649 41.5307C76.8194 41.4589 77.3963 55.1083 85.7666 54.2682C88.0866 54.0355 89.4623 52.5639 90.2922 50.5277H95.9214H95.9197Z" fill="white"/>
<path d="M162.26 53.606V59.4203H156.197V36.5908L156.457 36.3341H166.85L168.366 36.548C176.067 37.9905 177.185 49.4925 170.465 52.7299C169.939 52.9831 168.048 53.606 167.543 53.606H162.26ZM162.26 48.3033H166.85C166.91 48.3033 167.678 47.9525 167.796 47.8686C169.362 46.7752 169.419 43.158 167.796 42.068C167.667 41.9825 166.919 41.6334 166.851 41.6334H162.262V48.3033H162.26Z" fill="white"/>
<path d="M176.464 59.4186L176.505 58.5186L186.839 36.2674H189.646L199.979 58.5186L200.02 59.4186H194.131C193.812 58.83 193.296 57.1702 192.931 56.7578C192.679 56.4738 192.473 56.5337 192.149 56.5029C189.559 56.2479 186.499 56.6843 183.859 56.5457C183.432 56.6723 182.587 58.8762 182.353 59.4203H176.464V59.4186ZM185.643 51.5527H190.839L188.325 45.5672C188.036 45.4748 187.792 46.2602 187.691 46.4792C186.941 48.1202 186.239 49.8775 185.643 51.5527Z" fill="white"/>
<path d="M234.316 49.9288L226.484 37.484L226.424 36.4932L232.758 36.4179L237.346 44.0306L241.678 36.3341H248L247.865 37.6551L240.205 49.7577V59.4186H234.316V49.9288Z" fill="white"/>
<path d="M136.076 0.363548V17.9759H144.563V23.2769H130.187V0.363548H136.076Z" fill="white"/>
</svg>
