<svg width="124" height="31" viewBox="0 0 124 31" fill="none" xmlns="http://www.w3.org/2000/svg">
<path d="M15.7187 5.85572H24.0101C24.0795 5.85572 24.3224 6.09612 24.3224 6.16569V14.3233H29.8384C29.9953 14.3233 30.2021 14.6684 30.1535 14.8365L30.0973 26.6269C30.0501 26.7571 29.9599 26.8515 29.8752 26.9569C29.4192 27.5238 27.6627 29.2947 27.0991 29.7101C26.9992 29.7838 26.9194 29.8712 26.7813 29.8768L14.6957 29.8285C14.6444 29.8065 14.4695 29.666 14.4695 29.6398V23.8916H6.52511C6.3301 23.8916 6.07401 23.5397 6.07401 23.375V15.5618H0.280384C0.254012 15.5618 0.11174 15.3882 0.0902251 15.3379L0.0687109 3.23616C0.135336 3.02607 0.349783 2.97028 0.490668 2.82838C1.22563 2.08929 2.38185 0.747475 3.15845 0.17507C3.25839 0.101367 3.33821 0.0138876 3.47631 0.00837703L15.5091 0.0400625C15.6257 0.133741 15.7812 0.296302 15.7819 0.451285C15.7819 0.513967 15.7187 0.568383 15.7187 0.589737V5.85572ZM14.1225 0.899014H3.68035L1.63371 2.96408H12.0758L14.1225 0.899014ZM12.7351 9.50369L14.8165 7.47306V1.58783L12.7351 3.61845V9.50437V9.50369ZM3.78446 3.85885H0.939697V6.68092L3.78446 3.85885ZM8.01724 3.85885H5.06838L0.940391 7.95454V10.8799L8.01724 3.85816V3.85885ZM11.8329 3.85885H9.30047L0.939697 12.1542V14.667L1.32001 14.6657L11.7677 4.37959L11.8336 3.85954L11.8329 3.85885ZM6.07401 14.7359V11.6039L7.52727 10.1546L10.236 10.0885L11.8329 8.50628V5.58089L2.67473 14.7366H6.0747L6.07401 14.7359ZM22.6568 6.75049H15.7881C15.7784 7.17412 15.861 7.6122 15.6111 7.98623L12.5256 10.9826L8.04778 11.0149L7.73894 11.225H18.2505L22.6561 6.75049H22.6568ZM18.8404 22.2392C18.9931 22.1855 19.0326 22.0773 19.0521 21.9327C19.2214 20.699 18.9251 19.0768 19.0451 17.7956C19.0541 17.6958 19.0486 17.5966 19.0992 17.505L22.1737 14.4287C22.5325 14.167 23.0857 14.4817 23.4195 14.2193V7.36974L18.8404 11.8787V22.2392ZM9.89038 12.1198H7.04562V14.8737L9.89038 12.1198ZM14.1225 12.1198H11.1736L6.97622 16.2844V19.1409L14.1225 12.1191V12.1198ZM17.9389 12.1198H15.4064L6.97622 20.4834V22.8929C6.97622 23.0651 7.51131 23.0044 7.60222 22.8254L17.8729 12.6399L17.9389 12.1198ZM8.71056 22.9962H11.59L11.869 22.7916L17.9382 16.7665V13.8412L8.71056 22.9969V22.9962ZM28.5538 15.2174H22.6908L20.6441 17.2825H26.5071L28.5538 15.2174ZM27.1665 28.3655L29.2478 26.3349V15.9055L27.1665 17.9362V28.3655ZM17.9389 18.0402L12.9433 22.9962L15.8082 22.9831L17.9389 20.8974V18.0402ZM22.3792 18.1779H19.9508L20.0209 20.5185L22.3792 18.1779ZM23.6624 18.1779C22.4548 19.4302 21.1063 20.5833 20.0209 21.9313C20.2298 22.4107 19.043 23.5899 18.6953 23.7828C18.4094 23.9419 18.1304 23.8262 17.8993 23.9564L15.371 26.4726V28.9854L15.7513 28.9841L26.199 18.698L26.2649 18.1779H23.6624ZM17.106 28.9854H20.0549L26.2642 22.8247V19.8993L17.106 28.9861V28.9854ZM17.9389 22.9969L17.9042 22.2399C17.8368 22.337 17.1449 22.908 17.2448 22.9962H17.9389V22.9969ZM16.6896 23.891H15.3717V25.199L16.6896 23.891ZM21.3381 28.9854H24.287L26.2642 27.0237V24.0983L21.3381 28.9861V28.9854ZM26.2649 28.9854L26.2635 28.2966L25.5709 28.951L26.2649 28.9854Z" fill="white"/>
<path d="M3.99266 26.0938H11.3124C11.5407 26.0938 11.8565 26.6462 11.5866 26.848C10.565 27.6953 9.60168 29.0619 8.57384 29.8471C8.46488 29.9305 8.358 30.0069 8.22753 30.0538L0.312306 30.0552L0 29.7452V21.8211L3.23271 18.5582C3.50546 18.2723 3.99266 18.5891 3.99266 18.8991V26.0938ZM0.87099 28.5033L3.09114 26.3349V20.0364L0.87099 22.2047V28.5033ZM10.0986 26.9892H3.75045L1.565 29.1921H7.91314L10.0986 26.9892Z" fill="white"/>
<path d="M18.9445 3.99661C18.6495 3.99661 18.4316 3.39734 18.7411 3.17486L21.9593 0.034552L29.7718 0.000800076C30.1112 -0.0143538 30.3076 0.18678 30.2923 0.517411C30.1348 2.88004 30.4915 5.48652 30.2916 7.82022C30.2777 7.97865 30.2513 8.13088 30.2014 8.28173L26.9978 11.5047C26.8139 11.6941 26.2656 11.4909 26.2656 11.2602V3.99661H18.9445ZM28.6926 0.899014H22.3445L20.159 3.10184H26.5071L28.6926 0.899014ZM27.1665 10.0547L29.3866 7.88635V1.58783L27.1665 3.75622V10.0547Z" fill="white"/>
<path d="M56.3605 29.966C55.9533 30.0088 55.0307 30.0139 54.6287 29.966C48.1626 29.2003 47.7017 19.2913 54.3489 18.1046C62.9098 16.5766 64.133 29.143 56.3605 29.966ZM54.9519 20.9237C51.6469 21.4336 51.9362 27.2342 55.6189 27.147C59.6507 27.052 59.4437 20.2298 54.9519 20.9237Z" fill="white"/>
<path d="M36.9464 4.96945C37.0227 4.34319 37.4385 3.2977 37.7677 2.74501C40.2471 -1.42581 47.7606 -0.812382 48.3782 4.37141H45.4336C44.7978 2.19574 41.5162 2.1812 40.4792 4.05486C39.6892 5.48278 39.9638 7.7269 41.4218 8.63207C42.8798 9.53725 45.1252 9.02905 45.5203 7.19389H48.4649C47.8974 12.9133 39.3548 13.306 37.377 8.26504C37.228 7.88603 36.988 7.15025 36.9455 6.76696C36.8996 6.34774 36.8953 5.3861 36.9455 4.97116L36.9464 4.96945Z" fill="white"/>
<path d="M62.1482 0.0962193V11.6393H59.0304V6.595L56.6541 8.99312C56.0936 9.32079 55.6492 8.43358 55.3087 8.08879C54.8322 7.60712 54.348 7.12288 53.8342 6.68056V11.6393H50.7164V0.0962193L51.8902 0.176641L56.389 5.05329L60.9744 0.176641L62.1482 0.0962193Z" fill="white"/>
<path d="M75.1542 18.1671V29.7102H72.123V24.6659C71.5521 25.1664 71.0089 25.7054 70.4753 26.2452C70.1495 26.5746 69.7649 27.3934 69.2165 27.064L66.8402 24.6659V29.7102H63.809V18.1671L64.9343 18.2099L69.4695 23.1199L73.9786 18.2467L75.1542 18.1671Z" fill="white"/>
<path d="M108.498 23.7248V18.2954L108.628 18.1671H111.485L111.615 18.2954V29.6674C111.35 29.8933 110.702 29.8471 110.407 29.664L104.687 24.1534V29.7111H101.569V18.1679L102.743 18.2484L108.237 23.5973L108.498 23.7248Z" fill="white"/>
<path d="M47.9599 25.2639C47.5276 30.8387 39.2881 31.3785 37.06 26.6627C36.3513 25.1621 36.3175 23.06 36.9456 21.5294C38.9503 16.6442 47.1802 16.9334 47.9599 22.4423H45.0586C44.5657 21.3386 43.7808 20.7757 42.5324 20.7654C38.4097 20.7295 38.6982 27.5542 42.8833 27.1341C44.0433 27.0178 44.7311 26.282 45.1461 25.2639H47.9607H47.9599Z" fill="white"/>
<path d="M81.13 26.803V29.7102H78.0988V18.2954L78.2287 18.1671H83.4248L84.1829 18.274C88.0336 18.9953 88.5924 24.7463 85.2328 26.365C84.9695 26.4916 84.0243 26.803 83.7714 26.803H81.13ZM81.13 24.1517H83.4248C83.4552 24.1517 83.8389 23.9763 83.8978 23.9344C84.681 23.3877 84.7096 21.579 83.8978 21.034C83.8337 20.9913 83.4595 20.8167 83.4257 20.8167H81.1309V24.1517H81.13Z" fill="white"/>
<path d="M88.232 29.7094L88.2528 29.2593L93.4194 18.1337H94.8229L99.9895 29.2593L100.01 29.7094H97.0657C96.9063 29.415 96.6482 28.5852 96.4654 28.379C96.3398 28.2369 96.2367 28.2669 96.0747 28.2515C94.7796 28.124 93.2496 28.3422 91.9294 28.2729C91.7163 28.3362 91.2935 29.4381 91.1766 29.7102H88.232V29.7094ZM92.8217 25.7764H95.4197L94.1627 22.7837C94.0181 22.7375 93.8959 23.1301 93.8457 23.2397C93.4706 24.0601 93.1197 24.9388 92.8217 25.7764Z" fill="white"/>
<path d="M117.158 24.9645L113.242 18.742L113.212 18.2467L116.379 18.209L118.673 22.0154L120.839 18.1671H124L123.933 18.8276L120.103 24.8789V29.7094H117.158V24.9645Z" fill="white"/>
<path d="M68.0383 0.181774V8.98798H72.2814V11.6385H65.0937V0.181774H68.0383Z" fill="white"/>
</svg>
