<svg width="1656" height="516" fill="none" xmlns="http://www.w3.org/2000/svg"><path d="M758.713 483.165c2.08 1.32 3.44 3.48 3.44 6.32 0 4.96-4.04 8.2-9.04 8.2h-11.76v-28h10.96c4.88 0 8.84 3.16 8.84 8 0 2.32-.92 4.16-2.44 5.48zm-6.4-7.48h-4.56v4.96h4.56c1.44 0 2.44-1.04 2.44-2.48s-.96-2.48-2.44-2.48zm.8 16c1.6 0 2.64-1.12 2.64-2.68s-1.04-2.68-2.64-2.68h-5.36v5.36h5.36zm22.025-13.2c5.52 0 9.8 4.28 9.8 9.6 0 5.32-4.28 9.6-9.8 9.6h-10.6v-28h6.4v8.8h4.2zm0 13.2c1.96 0 3.4-1.56 3.4-3.6s-1.44-3.6-3.4-3.6h-4.2v7.2h4.2zm18.593-.16h11.2v6.16h-17.6v-28h17.4v6.16h-11v4.64h10v6.08h-10v4.96zm32.811-21.84v6.16h-7.2v21.84h-6.4v-21.84h-7.2v-6.16h20.8zm17.202 0h6.4v28h-6.4v-11.12h-8.8v11.12h-6.4v-28h6.4v10.72h8.8v-10.72zm28.206 28l-1.4-4.4h-10.4l-1.4 4.4h-7l9.52-28h8.16l9.52 28h-7zm-9.88-10.4h6.56l-3.28-10.28-3.28 10.28zm46.467-17.6v28h-6.4v-16.28l-7.24 11.88h-.72l-7.24-11.88v16.28h-6.4v-28h6.4l7.6 12.44 7.6-12.44h6.4zM73.055 366.51v-15.2l-10.8 15.2h-4.8v-28h6.4v15.2l10.8-15.2h4.8v28h-6.4zm25.597-28h6.4v28h-6.4v-11.12h-8.8v11.12h-6.4v-28h6.4v10.72h8.8v-10.72zm32.406 21.84h3v11.52h-6.4v-5.36h-14v5.36h-6.4v-11.52h2.84c1.28-1.84 2.2-4.52 2.2-9.28v-12.56h18.76v21.84zm-14.16 0h7.76v-15.84h-5.96v6.64c0 4.6-.8 7.4-1.8 9.2zm35.358 6.16v-15.2l-10.8 15.2h-4.8v-28h6.4v15.2l10.8-15.2h4.8v28h-6.4zm30.597-28v28h-6.4v-9.2h-2.04l-5.96 9.2h-7.2l6.56-10c-3.4-1.44-5.76-4.76-5.76-8.4 0-5.32 4.28-9.6 9.6-9.6h11.2zm-11.2 13.2h4.8v-7.2h-4.8c-1.76 0-3.2 1.56-3.2 3.6s1.44 3.6 3.2 3.6zM1319.11 154.347v-15.2l-10.8 15.2h-4.8v-28h6.4v15.2l10.8-15.2h4.8v28h-6.4zm25.6-28h6.4v28h-6.4v-11.12h-8.8v11.12h-6.4v-28h6.4v10.72h8.8v-10.72zm32.4 21.84h3v11.52h-6.4v-5.36h-14v5.36h-6.4v-11.52h2.84c1.28-1.84 2.2-4.52 2.2-9.28v-12.56h18.76v21.84zm-14.16 0h7.76v-15.84h-5.96v6.64c0 4.6-.8 7.4-1.8 9.2zm32.73 6.72c-8.04 0-14.56-6.32-14.56-14.56s6.52-14.56 14.56-14.56c8.04 0 14.56 6.32 14.56 14.56s-6.52 14.56-14.56 14.56zm0-6.24c4.56 0 8.16-3.32 8.16-8.32s-3.6-8.32-8.16-8.32c-4.56 0-8.16 3.32-8.16 8.32s3.6 8.32 8.16 8.32zm32.56-22.32h6.4v28h-6.4v-11.12h-8.8v11.12h-6.4v-28h6.4v10.72h8.8v-10.72zm16.81 21.84h11.2v6.16h-17.6v-28h17.4v6.16h-11v4.64h10v6.08h-10v4.96zm29.41-8.32c2.36 1.32 3.8 3.56 3.8 6.56 0 5.24-4.48 8.48-10.36 8.48-5.76 0-9-2.68-10.64-6.64l5.52-3.16c.72 2.16 2.12 3.8 5.12 3.8 2.68 0 3.96-1.12 3.96-2.96 0-1.84-1.32-2.96-4-2.96h-3.56v-5.68h2.76c2.52 0 3.8-1.04 3.8-2.76 0-1.72-.96-2.76-3.24-2.76-2.48 0-3.72 1.48-4.44 3.2l-5.48-3.16c1.72-3.44 4.72-6.04 9.92-6.04 5.56 0 9.64 3.16 9.64 8.28 0 2.52-1.04 4.44-2.8 5.8zm21.78 14.48v-15.2l-10.8 15.2h-4.8v-28h6.4v15.2l10.8-15.2h4.8v28h-6.4zm30.6-28v28h-6.4v-9.2h-2.04l-5.96 9.2h-7.2l6.56-10c-3.4-1.44-5.76-4.76-5.76-8.4 0-5.32 4.28-9.6 9.6-9.6h11.2zm-11.2 13.2h4.8v-7.2h-4.8c-1.76 0-3.2 1.56-3.2 3.6s1.44 3.6 3.2 3.6zM496.149 279.82h-7.28l-8.96-12.96v12.96h-6.4v-28h6.4v12.16l8.56-12.16h7.28l-9.44 13.64 9.84 14.36zm17.199 0v-15.2l-10.8 15.2h-4.8v-28h6.4v15.2l10.8-15.2h4.8v28h-6.4zm29.197-28v6.16h-7.2v21.84h-6.4v-21.84h-7.2v-6.16h20.8zm17.81 28l-1.4-4.4h-10.4l-1.4 4.4h-7l9.52-28h8.16l9.52 28h-7zm-9.88-10.4h6.56l-3.28-10.28-3.28 10.28zm23.467-19.96v-5.2h12v5.2h-12zm10.6 30.36v-15.2l-10.8 15.2h-4.8v-28h6.4v15.2l10.8-15.2h4.8v28h-6.4zm656.908 217.865h-7.28l-8.96-12.96v12.96h-6.4v-28h6.4v12.16l8.56-12.16h7.28l-9.44 13.64 9.84 14.36zm12.58.56c-8.04 0-14.56-6.32-14.56-14.56s6.52-14.56 14.56-14.56c8.04 0 14.56 6.32 14.56 14.56s-6.52 14.56-14.56 14.56zm0-6.24c4.56 0 8.16-3.32 8.16-8.32s-3.6-8.32-8.16-8.32c-4.56 0-8.16 3.32-8.16 8.32s3.6 8.32 8.16 8.32zm27.96-22.32c5.52 0 9.8 4.28 9.8 9.6 0 5.32-4.28 9.6-9.8 9.6h-4.2v8.8h-6.4v-28h10.6zm0 13.2c1.96 0 3.4-1.56 3.4-3.6s-1.44-3.6-3.4-3.6h-4.2v7.2h4.2zm18.6 8.64h11.2v6.16h-17.6v-28h17.4v6.16h-11v4.64h10v6.08h-10v4.96zm34.21-21.84v28h-6.4v-9.2h-2.04l-5.96 9.2h-7.2l6.56-10c-3.4-1.44-5.76-4.76-5.76-8.4 0-5.32 4.28-9.6 9.6-9.6h11.2zm-11.2 13.2h4.8v-7.2h-4.8c-1.76 0-3.2 1.56-3.2 3.6s1.44 3.6 3.2 3.6zM728.678 327.103v28h-6.4v-21.84h-8.4v21.84h-6.4v-28h21.2zm17.376 28.56c-8.04 0-14.56-6.32-14.56-14.56s6.52-14.56 14.56-14.56c8.04 0 14.56 6.32 14.56 14.56s-6.52 14.56-14.56 14.56zm0-6.24c4.56 0 8.16-3.32 8.16-8.32s-3.6-8.32-8.16-8.32c-4.56 0-8.16 3.32-8.16 8.32s3.6 8.32 8.16 8.32zm13.762 5.68v-6c2.88.44 4.64-.44 4.64-5.12v-16.88h19.36v28h-6.4v-21.84h-6.56v10.48c0 10-5.88 11.92-11.04 11.36zm38.596-19.2c5.52 0 9.801 4.28 9.801 9.6 0 5.32-4.281 9.6-9.801 9.6h-10.6v-28h6.4v8.8h4.2zm0 13.2c1.96 0 3.4-1.56 3.4-3.6s-1.44-3.6-3.4-3.6h-4.2v7.2h4.2zm38.594-22h6.4v28h-32.8v-28h6.4v21.84h6.8v-21.84h6.4v21.84h6.8v-21.84zm28.217 28l-1.4-4.4h-10.4l-1.4 4.4h-7l9.52-28h8.16l9.52 28h-7zm-9.88-10.4h6.56l-3.28-10.28-3.28 10.28zM701.244 137.754v6.16h-9.6v21.84h-6.4v-28h16zm13.747 28.56c-8.04 0-14.56-6.32-14.56-14.56s6.52-14.56 14.56-14.56c8.04 0 14.56 6.32 14.56 14.56s-6.52 14.56-14.56 14.56zm0-6.24c4.56 0 8.16-3.32 8.16-8.32s-3.6-8.32-8.16-8.32c-4.56 0-8.16 3.32-8.16 8.32s3.6 8.32 8.16 8.32zm32.564-22.32h6.4v28h-6.4v-11.12h-8.8v11.12h-6.4v-28h6.4v10.72h8.8v-10.72zm33.046 28h-7.28l-8.96-12.96v12.96h-6.4v-28h6.4v12.16l8.56-12.16h7.28l-9.44 13.64 9.84 14.36zm12.576.56c-8.04 0-14.56-6.32-14.56-14.56s6.52-14.56 14.56-14.56c8.04 0 14.56 6.32 14.56 14.56s-6.52 14.56-14.56 14.56zm0-6.24c4.56 0 8.16-3.32 8.16-8.32s-3.6-8.32-8.16-8.32c-4.56 0-8.16 3.32-8.16 8.32s3.6 8.32 8.16 8.32zm32.564-22.32h6.4v28h-6.4v-11.12h-8.8v11.12h-6.4v-28h6.4v10.72h8.8v-10.72zm26.406 0v6.16h-9.6v21.84h-6.4v-28h16zM648.997 13.422v6.16h-7.2v21.84h-6.4v-21.84h-7.2v-6.16h20.8zm17.201 0h6.4l-8.08 19.76c-2.48 6.04-6.52 8.52-11.76 8.24v-6c2.92.28 4.52-.8 5.6-2.76l-8.96-19.24h6.4l5.48 12.24 4.92-12.24zm19.015 0c5.52 0 9.8 4.28 9.8 9.6 0 5.32-4.28 9.6-9.8 9.6h-4.2v8.8h-6.4v-28h10.6zm0 13.2c1.96 0 3.4-1.56 3.4-3.6s-1.44-3.6-3.4-3.6h-4.2v7.2h4.2zm33.393 8.64h3v11.52h-6.4v-5.36h-17.8v-28h6.4v21.84h8.4v-21.84h6.4v21.84zm21.217 6.16v-15.2l-10.8 15.2h-4.8v-28h6.4v15.2l10.8-15.2h4.8v28h-6.4zm30.597-28v28h-6.4v-9.2h-2.04l-5.96 9.2h-7.2l6.56-10c-3.4-1.44-5.76-4.76-5.76-8.4 0-5.32 4.28-9.6 9.6-9.6h11.2zm-11.2 13.2h4.8v-7.2h-4.8c-1.76 0-3.2 1.56-3.2 3.6s1.44 3.6 3.2 3.6zM393.139 137.754v28h-6.4v-9.2h-2.04l-5.96 9.2h-7.2l6.56-10c-3.4-1.44-5.76-4.76-5.76-8.4 0-5.32 4.28-9.6 9.6-9.6h11.2zm-11.2 13.2h4.8v-7.2h-4.8c-1.76 0-3.2 1.56-3.2 3.6s1.44 3.6 3.2 3.6zm36.4-13.2v28h-6.4v-21.84h-8.4v21.84h-6.4v-28h21.2zm17.376 28.56c-8.04 0-14.56-6.32-14.56-14.56s6.52-14.56 14.56-14.56c8.04 0 14.56 6.32 14.56 14.56s-6.52 14.56-14.56 14.56zm0-6.24c4.56 0 8.16-3.32 8.16-8.32s-3.6-8.32-8.16-8.32c-4.56 0-8.16 3.32-8.16 8.32s3.6 8.32 8.16 8.32zm32.563-22.32h6.4v28h-6.4v-11.12h-8.8v11.12h-6.4v-28h6.4v10.72h8.8v-10.72zm26.006 28v-15.2l-10.8 15.2h-4.8v-28h6.4v15.2l10.8-15.2h4.8v28h-6.4zm30.597-28v28h-6.4v-9.2h-2.04l-5.96 9.2h-7.2l6.56-10c-3.4-1.44-5.76-4.76-5.76-8.4 0-5.32 4.28-9.6 9.6-9.6h11.2zm-11.2 13.2h4.8v-7.2h-4.8c-1.76 0-3.2 1.56-3.2 3.6s1.44 3.6 3.2 3.6zM111.76 55.56c-8.04 0-14.56-6.32-14.56-14.56s6.52-14.56 14.56-14.56c8.04 0 14.56 6.32 14.56 14.56s-6.52 14.56-14.56 14.56zm0-6.24c4.56 0 8.16-3.32 8.16-8.32s-3.6-8.32-8.16-8.32c-4.56 0-8.16 3.32-8.16 8.32s3.6 8.32 8.16 8.32zM145.908 55l-1.4-4.4h-10.4l-1.4 4.4h-7l9.52-28h8.16l9.52 28h-7zm-9.88-10.4h6.56l-3.28-10.28-3.28 10.28zm28.677-18.16c8.44 0 14.56 6.32 14.56 14.56s-6.12 14.56-14.56 14.56c-5.12 0-9.6-2.52-12-6.48l5.52-3.2c1.2 2.16 3.64 3.44 6.48 3.44 3.88 0 6.68-2.04 7.72-5.32h-11.44v-6h11.44c-1.04-3.28-3.84-5.32-7.72-5.32-2.84 0-5.24 1.28-6.48 3.44l-5.52-3.2c2.44-3.96 6.92-6.48 12-6.48zM1386.89 393.261v6.16h-7.2v21.84h-6.4v-21.84h-7.2v-6.16h20.8zm17.81 28l-1.4-4.4h-10.4l-1.4 4.4h-7l9.52-28h8.16l9.52 28h-7zm-9.88-10.4h6.56l-3.28-10.28-3.28 10.28zm34.06 10.4v-15.2l-10.8 15.2h-4.8v-28h6.4v15.2l10.8-15.2h4.8v28h-6.4zm8.4 0v-6c2.88.44 4.64-.44 4.64-5.12v-16.88h19.36v28h-6.4v-21.84h-6.56v10.48c0 10-5.88 11.92-11.04 11.36zm45.8 0l-1.4-4.4h-10.4l-1.4 4.4h-7l9.52-28h8.16l9.52 28h-7zm-9.88-10.4h6.56l-3.28-10.28-3.28 10.28zm33.67-17.6h6.4v28h-6.4v-11.12h-8.8v11.12h-6.4v-28h6.4v10.72h8.8v-10.72zm32.4 21.84h3v11.52h-6.4v-5.36h-14v5.36h-6.4v-11.52h2.84c1.28-1.84 2.2-4.52 2.2-9.28v-12.56h18.76v21.84zm-14.16 0h7.76v-15.84h-5.96v6.64c0 4.6-.8 7.4-1.8 9.2zm-500.62-261.378v28h-6.4v-16.28l-7.24 11.88h-.72l-7.24-11.88v16.28h-6.396v-28h6.396l7.6 12.44 7.6-12.44h6.4zm21.82 28l-1.4-4.4h-10.4l-1.4 4.4h-7l9.52-28h8.16l9.52 28h-7zm-9.88-10.4h6.56l-3.28-10.28-3.28 10.28zm16.85 10.4v-6c2.88.44 4.64-.44 4.64-5.12v-16.88h19.36v28h-6.4v-21.84h-6.56v10.48c0 10-5.88 11.92-11.04 11.36zm45.8 0l-1.4-4.4h-10.4l-1.4 4.4h-7l9.52-28h8.16l9.52 28h-7zm-9.88-10.4h6.56l-3.28-10.28-3.28 10.28zm23.47-19.96v-5.2h12v5.2h-12zm10.6 30.36v-15.2l-10.8 15.2h-4.8v-28h6.4v15.2l10.8-15.2h4.8v28h-6.4zm25.41-14.48c2.36 1.32 3.8 3.56 3.8 6.56 0 5.24-4.48 8.48-10.36 8.48-5.76 0-9-2.68-10.64-6.64l5.52-3.16c.72 2.16 2.12 3.8 5.12 3.8 2.68 0 3.96-1.12 3.96-2.96 0-1.84-1.32-2.96-4-2.96h-3.56v-5.68h2.76c2.52 0 3.8-1.04 3.8-2.76 0-1.72-.96-2.76-3.24-2.76-2.48 0-3.72 1.48-4.44 3.2l-5.48-3.16c1.72-3.44 4.72-6.04 9.92-6.04 5.56 0 9.64 3.16 9.64 8.28 0 2.52-1.04 4.44-2.8 5.8zm21.78 14.48v-15.2l-10.8 15.2h-4.8v-28h6.4v15.2l10.8-15.2h4.8v28h-6.4zm30.59-28v28h-6.4v-9.2h-2.04l-5.96 9.2h-7.2l6.56-10c-3.4-1.44-5.76-4.76-5.76-8.4 0-5.32 4.28-9.6 9.6-9.6h11.2zm-11.2 13.2h4.8v-7.2h-4.8c-1.76 0-3.2 1.56-3.2 3.6s1.44 3.6 3.2 3.6zM18 193.129v-15.2l-10.8 15.2H2.4v-28h6.4v15.2l10.8-15.2h4.8v28H18zm25.406-14.48c2.36 1.32 3.8 3.56 3.8 6.56 0 5.24-4.48 8.48-10.36 8.48-5.76 0-9-2.68-10.64-6.64l5.52-3.16c.72 2.16 2.12 3.8 5.12 3.8 2.68 0 3.96-1.12 3.96-2.96 0-1.84-1.32-2.96-4-2.96h-3.56v-5.68h2.76c2.52 0 3.8-1.04 3.8-2.76 0-1.72-.96-2.76-3.24-2.76-2.48 0-3.72 1.48-4.44 3.2l-5.48-3.16c1.72-3.44 4.72-6.04 9.92-6.04 5.56 0 9.64 3.16 9.64 8.28 0 2.52-1.04 4.44-2.8 5.8zm16.783-13.52c5.52 0 9.8 4.28 9.8 9.6 0 5.32-4.28 9.6-9.8 9.6h-4.2v8.8h-6.4v-28h10.6zm0 13.2c1.96 0 3.4-1.56 3.4-3.6s-1.44-3.6-3.4-3.6h-4.2v7.2h4.2zm27.181 14.8l-1.4-4.4h-10.4l-1.4 4.4h-7l9.52-28h8.16l9.52 28h-7zm-9.88-10.4h6.56l-3.28-10.28-3.28 10.28zm34.068 10.4v-15.2l-10.8 15.2h-4.8v-28h6.4v15.2l10.8-15.2h4.8v28h-6.4zm8.397 0v-6c2.88.44 4.64-.44 4.64-5.12v-16.88h19.36v28h-6.4v-21.84h-6.56v10.48c0 10-5.88 11.92-11.04 11.36zm38.597-19.2c5.52 0 9.8 4.28 9.8 9.6 0 5.32-4.28 9.6-9.8 9.6h-10.6v-28h6.4v8.8h4.2zm0 13.2c1.96 0 3.4-1.56 3.4-3.6s-1.44-3.6-3.4-3.6h-4.2v7.2h4.2zM1349.81 68.798v-15.2l-10.8 15.2h-4.8v-28h6.4v15.2l10.8-15.2h4.8v28h-6.4zm21-28c5.52 0 9.8 4.28 9.8 9.6 0 5.32-4.28 9.6-9.8 9.6h-4.2v8.8h-6.4v-28h10.6zm0 13.2c1.96 0 3.4-1.56 3.4-3.6s-1.44-3.6-3.4-3.6h-4.2v7.2h4.2zm27.18 14.8l-1.4-4.4h-10.4l-1.4 4.4h-7l9.52-28h8.16l9.52 28h-7zm-9.88-10.4h6.56l-3.28-10.28-3.28 10.28zm33.67-17.6h6.4v28h-6.4v-11.12h-8.8v11.12h-6.4v-28h6.4v10.72h8.8v-10.72zM343.187 381.294c8.04 0 14.56 6.32 14.56 14.56 0 8.16-6.52 14.56-14.56 14.56-7.16 0-12.96-5-14.16-11.88h-3.68v11.32h-6.4v-28h6.4v10.52h3.84c1.48-6.48 7.12-11.08 14-11.08zm0 22.88c4.56 0 8.16-3.32 8.16-8.32s-3.6-8.32-8.16-8.32c-4.56 0-8.16 3.16-8.16 8.32 0 5 3.6 8.32 8.16 8.32zm34.127 5.68l-1.4-4.4h-10.4l-1.4 4.4h-7l9.52-28h8.16l9.52 28h-7zm-9.88-10.4h6.56l-3.28-10.28-3.28 10.28zm29.068-17.6c5.52 0 9.8 4.28 9.8 9.6 0 5.32-4.28 9.6-9.8 9.6h-4.2v8.8h-6.4v-28h10.6zm0 13.2c1.96 0 3.4-1.56 3.4-3.6s-1.44-3.6-3.4-3.6h-4.2v7.2h4.2zm536.517-46.111h11.2v6.16h-17.6v-28h17.4v6.16h-11v4.64h10v6.08h-10v4.96zm30.011-21.84v6.16h-9.6v21.84h-6.4v-28h16zm17.589 28v-15.2l-10.8 15.2h-4.8v-28h6.4v15.2l10.8-15.2h4.8v28h-6.4zm31.601-28v28h-6.4v-21.84h-8.404v21.84h-6.4v-28h21.204zm10.41 21.84h11.2v6.16h-17.6v-28h17.4v6.16h-11v4.64h10v6.08h-10v4.96zm32.81-21.84v6.16h-7.2v21.84h-6.4v-21.84h-7.2v-6.16h20.8z" fill="#2A2626"/><path d="M336.382 89.596h-5.46l-6.72-9.72v9.72h-4.8v-21h4.8v9.12l6.42-9.12h5.46l-7.08 10.23 7.38 10.77zm15.135 0l-1.05-3.3h-7.8l-1.05 3.3h-5.25l7.14-21h6.12l7.14 21h-5.25zm-7.41-7.8h4.92l-2.46-7.71-2.46 7.71zm34.85-13.2v21h-4.8v-12.21l-5.43 8.91h-.54l-5.43-8.91v12.21h-4.8v-21h4.8l5.7 9.33 5.7-9.33h4.8zm11.11 7.8c4.29 0 7.2 2.61 7.2 6.6 0 3.99-2.91 6.6-7.2 6.6h-8.1v-21h13.5v4.62h-8.7v3.18h3.3zm0 8.7c1.32 0 2.4-.57 2.4-2.1 0-1.53-1.08-2.1-2.4-2.1h-3.3v4.2h3.3zm18.722 4.92c-6.03 0-10.92-4.74-10.92-10.92s4.89-10.92 10.92-10.92 10.92 4.74 10.92 10.92-4.89 10.92-10.92 10.92zm0-4.68c3.42 0 6.12-2.49 6.12-6.24s-2.7-6.24-6.12-6.24-6.12 2.49-6.12 6.24 2.7 6.24 6.12 6.24zm28.615-.36h2.25v8.64h-4.8v-4.02h-10.5v4.02h-4.8v-8.64h2.13c.96-1.38 1.65-3.39 1.65-6.96v-9.42h14.07v16.38zm-10.62 0h5.82v-11.88h-4.47v4.98c0 3.45-.6 5.55-1.35 6.9zm40.378 4.62h-5.31l-5.82-9.3v9.3h-4.8v-9.3l-5.82 9.3h-5.31l6.78-10.68-6.48-10.32h5.31l5.52 9.24v-9.24h4.8v9.24l5.52-9.24h5.31l-6.48 10.32 6.78 10.68zm15.433 0l-1.05-3.3h-7.8l-1.05 3.3h-5.25l7.14-21h6.12l7.14 21h-5.25zm-7.41-7.8h4.92l-2.46-7.71-2.46 7.71zm584.065-54.264v21h-4.8v-12.21l-5.43 8.91h-.54l-5.43-8.91v12.21h-4.8v-21h4.8l5.7 9.33 5.7-9.33h4.8zm10.95 6.6c4.14 0 7.35 3.21 7.35 7.2s-3.21 7.2-7.35 7.2h-7.95v-21h4.8v6.6h3.15zm0 9.9c1.47 0 2.55-1.17 2.55-2.7 0-1.53-1.08-2.7-2.55-2.7h-3.15v5.4h3.15zm23.71-16.5v21h-4.8v-6.9h-1.53l-4.47 6.9h-5.4l4.92-7.5c-2.55-1.08-4.32-3.57-4.32-6.3 0-3.99 3.21-7.2 7.2-7.2h8.4zm-8.4 9.9h3.6v-5.4h-3.6c-1.32 0-2.4 1.17-2.4 2.7 0 1.53 1.08 2.7 2.4 2.7zm22.8-9.9h4.8v21h-4.8v-8.34h-6.6v8.34h-4.8v-21h4.8v8.04h6.6v-8.04zm28.81 0v21h-4.8v-12.21l-5.43 8.91h-.54l-5.43-8.91v12.21h-4.8v-21h4.8l5.7 9.33 5.7-9.33h4.8zm16.36 21l-1.05-3.3h-7.8l-1.05 3.3h-5.25l7.14-21h6.12l7.14 21h-5.25zm-7.41-7.8h4.92l-2.46-7.71-2.46 7.71zm-121.1 236.352c-6.03 0-10.92-4.74-10.92-10.92s4.89-10.92 10.92-10.92 10.92 4.74 10.92 10.92-4.89 10.92-10.92 10.92zm0-4.68c3.42 0 6.12-2.49 6.12-6.24s-2.7-6.24-6.12-6.24-6.12 2.49-6.12 6.24 2.7 6.24 6.12 6.24zm34.02-16.74v21h-4.8v-12.21l-5.43 8.91h-.54l-5.43-8.91v12.21h-4.8v-21h4.8l5.7 9.33 5.7-9.33h4.8zm16.36 21l-1.05-3.3h-7.8l-1.05 3.3h-5.25l7.14-21h6.12l7.14 21h-5.25zm-7.41-7.8h4.92l-2.46-7.71-2.46 7.71zm25.25-13.2h4.8v21h-4.8v-8.34h-6.6v8.34h-4.8v-21h4.8v8.04h6.6v-8.04zm163.48 110.644v4.62h-5.4v16.38h-4.8v-16.38h-5.4v-4.62h15.6zm12.9 0h4.8l-6.06 14.82c-1.86 4.53-4.89 6.39-8.82 6.18v-4.5c2.19.21 3.39-.6 4.2-2.07l-6.72-14.43h4.8l4.11 9.18 3.69-9.18zm17.71 0h4.8v21h-4.8v-8.34h-6.6v8.34h-4.8v-21h4.8v8.04h6.6v-8.04zm19.5 21v-11.4l-8.1 11.4h-3.6v-21h4.8v11.4l8.1-11.4h3.6v21h-4.8zm17.82.42c-6.33 0-10.92-4.74-10.92-10.92s4.59-10.92 10.92-10.92c3.81 0 7.17 1.89 9 4.86l-4.14 2.4c-.93-1.62-2.73-2.58-4.86-2.58-3.72 0-6.12 2.49-6.12 6.24s2.4 6.24 6.12 6.24c2.13 0 3.96-.96 4.86-2.58l4.14 2.4c-1.8 2.97-5.16 4.86-9 4.86zm-26.63-136.627v4.62h-7.2v16.38h-4.8v-21h12zm6.29 16.38h8.4v4.62h-13.2v-21h13.05v4.62h-8.25v3.48h7.5v4.56h-7.5v3.72zm18.46-16.38c4.14 0 7.35 3.21 7.35 7.2s-3.21 7.2-7.35 7.2h-3.15v6.6h-4.8v-21h7.95zm0 9.9c1.47 0 2.55-1.17 2.55-2.7 0-1.53-1.08-2.7-2.55-2.7h-3.15v5.4h3.15zm30.15-9.9v21h-4.8v-12.21l-5.43 8.91h-.54l-5.43-8.91v12.21h-4.8v-21h4.8l5.7 9.33 5.7-9.33h4.8zm16.36 21l-1.05-3.3h-7.8l-1.05 3.3h-5.25l7.14-21h6.12l7.14 21h-5.25zm-7.41-7.8h4.92l-2.46-7.71-2.46 7.71zm25.25-13.2h4.8v21h-4.8v-8.34h-6.6v8.34h-4.8v-21h4.8v8.04h6.6v-8.04zm19.5 21v-11.4l-8.1 11.4h-3.6v-21h4.8v11.4l8.1-11.4h3.6v21h-4.8zm22.95-21v21h-4.8v-6.9h-1.53l-4.47 6.9h-5.4l4.92-7.5c-2.55-1.08-4.32-3.57-4.32-6.3 0-3.99 3.21-7.2 7.2-7.2h8.4zm-8.4 9.9h3.6v-5.4h-3.6c-1.32 0-2.4 1.17-2.4 2.7 0 1.53 1.08 2.7 2.4 2.7zm-239.9-157.718v-11.4l-8.1 11.4h-3.6v-21h4.8v11.4l8.1-11.4h3.6v21h-4.8zm17.82.42c-6.33 0-10.92-4.74-10.92-10.92s4.59-10.92 10.92-10.92c3.81 0 7.17 1.89 9 4.86l-4.14 2.4c-.93-1.62-2.73-2.58-4.86-2.58-3.72 0-6.12 2.49-6.12 6.24s2.4 6.24 6.12 6.24c2.13 0 3.96-.96 4.86-2.58l4.14 2.4c-1.8 2.97-5.16 4.86-9 4.86zm26.55-21.42v21h-4.8v-16.38h-6.3v16.38h-4.8v-21h15.9zm16.36 21l-1.05-3.3h-7.8l-1.05 3.3h-5.25l7.14-21h6.12l7.14 21h-5.25zm-7.41-7.8h4.92l-2.46-7.71-2.46 7.71zm25.25-13.2h4.8v21h-4.8v-8.34h-6.6v8.34h-4.8v-21h4.8v8.04h6.6v-8.04zm19.5 21v-11.4l-8.1 11.4h-3.6v-21h4.8v11.4l8.1-11.4h3.6v21h-4.8zm22.95-21v21h-4.8v-6.9h-1.53l-4.47 6.9h-5.4l4.92-7.5c-2.55-1.08-4.32-3.57-4.32-6.3 0-3.99 3.21-7.2 7.2-7.2h8.4zm-8.4 9.9h3.6v-5.4h-3.6c-1.32 0-2.4 1.17-2.4 2.7 0 1.53 1.08 2.7 2.4 2.7zm176.39 225.544v-11.4l-8.1 11.4h-3.6v-21h4.8v11.4l8.1-11.4h3.6v21h-4.8zm21.9-21v4.62h-5.4v16.38h-4.8v-16.38h-5.4v-4.62h15.6zm13.36 21l-1.05-3.3h-7.8l-1.05 3.3h-5.25l7.14-21h6.12l7.14 21h-5.25zm-7.41-7.8h4.92l-2.46-7.71-2.46 7.71zm12.64 7.8v-4.5c2.16.33 3.48-.33 3.48-3.84v-12.66h14.52v21h-4.8v-16.38H1519v7.86c0 7.5-4.41 8.94-8.28 8.52zm32.7 0v-11.4l-8.1 11.4h-3.6v-21h4.8v11.4l8.1-11.4h3.6v21h-4.8zm22.95-21v21h-4.8v-6.9h-1.53l-4.47 6.9h-5.4l4.92-7.5c-2.55-1.08-4.32-3.57-4.32-6.3 0-3.99 3.21-7.2 7.2-7.2h8.4zm-8.4 9.9h3.6v-5.4h-3.6c-1.32 0-2.4 1.17-2.4 2.7 0 1.53 1.08 2.7 2.4 2.7zM528.581 355.369v-4.5c2.16.33 3.48-.33 3.48-3.84v-12.66h14.52v21h-4.8v-16.38h-4.92v7.86c0 7.5-4.41 8.94-8.28 8.52zm34.348 0l-1.05-3.3h-7.8l-1.05 3.3h-5.25l7.14-21h6.12l7.14 21h-5.25zm-7.41-7.8h4.92l-2.46-7.71-2.46 7.71zm26.456-13.2v4.62h-5.4v16.38h-4.8v-16.38h-5.4v-4.62h15.6zm14.522 10.11c1.56.99 2.58 2.61 2.58 4.74 0 3.72-3.03 6.15-6.78 6.15h-8.82v-21h8.22c3.66 0 6.63 2.37 6.63 6 0 1.74-.69 3.12-1.83 4.11zm-4.8-5.61h-3.42v3.72h3.42c1.08 0 1.83-.78 1.83-1.86s-.72-1.86-1.83-1.86zm.6 12c1.2 0 1.98-.84 1.98-2.01s-.78-2.01-1.98-2.01h-4.02v4.02h4.02zm20.268 4.5v-11.4l-8.1 11.4h-3.6v-21h4.8v11.4l8.1-11.4h3.6v21h-4.8zm22.947-21v21h-4.799v-6.9h-1.53l-4.47 6.9h-5.4l4.92-7.5c-2.55-1.08-4.32-3.57-4.32-6.3 0-3.99 3.21-7.2 7.2-7.2h8.399zm-8.399 9.9h3.6v-5.4h-3.6c-1.32 0-2.4 1.17-2.4 2.7 0 1.53 1.08 2.7 2.4 2.7zM270.77 197.49h4.8v21h-4.8v-7.32a9.66 9.66 0 01-3.57.66c-4.17 0-7.53-2.43-7.53-6.84v-7.5h4.8v6.78c0 1.95 1.2 2.94 2.85 2.94 1.29 0 2.37-.21 3.45-.69v-9.03zm12.593 16.38h8.4v4.62h-13.2v-21h13.05v4.62h-8.25v3.48h7.5v4.56h-7.5v3.72zm27.008 4.62h-5.46l-3.54-6.06-3.54 6.06h-5.46l6.27-10.77-5.97-10.23h5.46l3.24 5.55 3.24-5.55h5.46l-5.97 10.23 6.27 10.77zm13.204 0v-11.4l-8.1 11.4h-3.6v-21h4.8v11.4l8.1-11.4h3.6v21h-4.8zm22.948-21v21h-4.8v-6.9h-1.53l-4.47 6.9h-5.4l4.92-7.5c-2.55-1.08-4.32-3.57-4.32-6.3 0-3.99 3.21-7.2 7.2-7.2h8.4zm-8.4 9.9h3.6v-5.4h-3.6c-1.32 0-2.4 1.17-2.4 2.7 0 1.53 1.08 2.7 2.4 2.7zm96.158 277.126c6.33 0 10.92 4.74 10.92 10.92s-4.59 10.92-10.92 10.92c-3.84 0-7.2-1.89-9-4.86l4.14-2.4c.9 1.62 2.73 2.58 4.86 2.58 2.91 0 5.01-1.53 5.79-3.99h-8.58v-4.5h8.58c-.78-2.46-2.88-3.99-5.79-3.99-2.13 0-3.93.96-4.86 2.58l-4.14-2.4c1.83-2.97 5.19-4.86 9-4.86zm23.033 21.84c-6.33 0-10.92-4.74-10.92-10.92s4.59-10.92 10.92-10.92c3.81 0 7.17 1.89 9 4.86l-4.14 2.4c-.93-1.62-2.73-2.58-4.86-2.58-3.72 0-6.12 2.49-6.12 6.24s2.4 6.24 6.12 6.24c2.13 0 3.96-.96 4.86-2.58l4.14 2.4c-1.8 2.97-5.16 4.86-9 4.86zm24.749-21.42v4.62h-5.4v16.38h-4.8v-16.38h-5.4v-4.62h15.6zm10.32 21.42c-6.03 0-10.92-4.74-10.92-10.92s4.89-10.92 10.92-10.92 10.92 4.74 10.92 10.92-4.89 10.92-10.92 10.92zm0-4.68c3.42 0 6.12-2.49 6.12-6.24s-2.7-6.24-6.12-6.24-6.12 2.49-6.12 6.24 2.7 6.24 6.12 6.24zm24.423-16.74h4.8v21h-4.8v-8.34h-6.6v8.34h-4.8v-21h4.8v8.04h6.6v-8.04zm19.505 21v-11.4l-8.1 11.4h-3.6v-21h4.8v11.4l8.1-11.4h3.6v21h-4.8zm22.947-21v21h-4.8v-6.9h-1.53l-4.47 6.9h-5.4l4.92-7.5c-2.55-1.08-4.32-3.57-4.32-6.3 0-3.99 3.21-7.2 7.2-7.2h8.4zm-8.4 9.9h3.6v-5.4h-3.6c-1.32 0-2.4 1.17-2.4 2.7 0 1.53 1.08 2.7 2.4 2.7zm-317.121-172.78c0 4.77-3.72 7.95-9.42 8.64v2.46h-4.68v-2.46c-5.7-.69-9.42-3.87-9.42-8.64 0-4.77 3.72-7.95 9.42-8.64v-2.46h4.68v2.46c5.7.69 9.42 3.87 9.42 8.64zm-18.72 0c0 2.4 1.5 3.81 4.62 4.23v-8.46c-3.12.42-4.62 1.83-4.62 4.23zm9.3 4.23c3.12-.42 4.62-1.83 4.62-4.23 0-2.4-1.5-3.81-4.62-4.23v8.46zm19.177-14.73c4.14 0 7.35 3.21 7.35 7.2s-3.21 7.2-7.35 7.2h-3.15v6.6h-4.8v-21h7.95zm0 9.9c1.47 0 2.55-1.17 2.55-2.7 0-1.53-1.08-2.7-2.55-2.7h-3.15v5.4h3.15zm20.386 11.1l-1.05-3.3h-7.8l-1.05 3.3h-5.25l7.14-21h6.12l7.14 21h-5.25zm-7.41-7.8h4.92l-2.46-7.71-2.46 7.71zm25.25-13.2h4.8v21h-4.8v-8.34h-6.6v8.34h-4.8v-21h4.8v8.04h6.6v-8.04zm23.705 16.38h2.25v8.64h-4.8v-4.02h-13.35v-21h4.8v16.38h6.3v-16.38h4.8v16.38zm15.913 4.62v-11.4l-8.1 11.4h-3.6v-21h4.8v11.4l8.1-11.4h3.6v21h-4.8zm22.948-21v21h-4.8v-6.9h-1.53l-4.47 6.9h-5.4l4.92-7.5c-2.55-1.08-4.32-3.57-4.32-6.3 0-3.99 3.21-7.2 7.2-7.2h8.4zm-8.4 9.9h3.6v-5.4h-3.6c-1.32 0-2.4 1.17-2.4 2.7 0 1.53 1.08 2.7 2.4 2.7zM400.82 39.42c-6.33 0-10.92-4.74-10.92-10.92s4.59-10.92 10.92-10.92c3.81 0 7.17 1.89 9 4.86l-4.14 2.4c-.93-1.62-2.73-2.58-4.86-2.58-3.72 0-6.12 2.49-6.12 6.24s2.4 6.24 6.12 6.24c2.13 0 3.96-.96 4.86-2.58l4.14 2.4c-1.8 2.97-5.16 4.86-9 4.86zm15.45-5.04h8.4V39h-13.2V18h13.05v4.62h-8.25v3.48h7.5v4.56h-7.5v3.72zM434.728 18c4.14 0 7.35 3.21 7.35 7.2s-3.21 7.2-7.35 7.2h-3.15V39h-4.8V18h7.95zm0 9.9c1.47 0 2.55-1.17 2.55-2.7 0-1.53-1.08-2.7-2.55-2.7h-3.15v5.4h3.15zm17.245-2.1c4.29 0 7.2 2.61 7.2 6.6 0 3.99-2.91 6.6-7.2 6.6h-8.1V18h13.5v4.62h-8.7v3.18h3.3zm0 8.7c1.32 0 2.4-.57 2.4-2.1 0-1.53-1.08-2.1-2.4-2.1h-3.3v4.2h3.3zm20.549 4.5V27.6l-8.1 11.4h-3.6V18h4.8v11.4l8.1-11.4h3.6v21h-4.8zm22.948-21v21h-4.8v-6.9h-1.53l-4.47 6.9h-5.4l4.92-7.5c-2.55-1.08-4.32-3.57-4.32-6.3 0-3.99 3.21-7.2 7.2-7.2h8.4zm-8.4 9.9h3.6v-5.4h-3.6c-1.32 0-2.4 1.17-2.4 2.7 0 1.53 1.08 2.7 2.4 2.7zm422.328 403.269c1.56.99 2.58 2.61 2.58 4.74 0 3.72-3.03 6.15-6.78 6.15h-8.82v-21h8.22c3.66 0 6.63 2.37 6.63 6 0 1.74-.69 3.12-1.83 4.11zm-4.8-5.61h-3.42v3.72h3.42c1.08 0 1.83-.78 1.83-1.86s-.72-1.86-1.83-1.86zm.6 12c1.2 0 1.98-.84 1.98-2.01s-.78-2.01-1.98-2.01h-4.02v4.02h4.02zm13.368-.12h8.4v4.62h-13.2v-21h13.05v4.62h-8.25v3.48h7.5v4.56h-7.5v3.72zm9.009 4.62v-4.5c2.16.33 3.48-.33 3.48-3.84v-12.66h14.52v21h-4.8v-16.38h-4.92v7.86c0 7.5-4.41 8.94-8.28 8.52zm32.697 0v-11.4l-8.1 11.4h-3.6v-21h4.8v11.4l8.1-11.4h3.6v21h-4.8zm24.778 0h-5.46l-6.72-9.72v9.72h-4.8v-21h4.8v9.12l6.42-9.12h5.46l-7.08 10.23 7.38 10.77zm9.432.42c-6.03 0-10.92-4.74-10.92-10.92s4.89-10.92 10.92-10.92c6.028 0 10.918 4.74 10.918 10.92s-4.89 10.92-10.918 10.92zm0-4.68c3.42 0 6.118-2.49 6.118-6.24s-2.698-6.24-6.118-6.24c-3.42 0-6.12 2.49-6.12 6.24s2.7 6.24 6.12 6.24zm21.118-8.94c4.29 0 7.2 2.61 7.2 6.6 0 3.99-2.91 6.6-7.2 6.6h-8.1v-21h13.5v4.62h-8.7v3.18h3.3zm0 8.7c1.32 0 2.4-.57 2.4-2.1 0-1.53-1.08-2.1-2.4-2.1h-3.3v4.2h3.3zm16.8-16.5c4.14 0 7.35 3.21 7.35 7.2s-3.21 7.2-7.35 7.2h-3.15v6.6h-4.8v-21h7.95zm0 9.9c1.47 0 2.55-1.17 2.55-2.7 0-1.53-1.08-2.7-2.55-2.7h-3.15v5.4h3.15zm20.85 11.1v-11.4l-8.1 11.4h-3.6v-21h4.8v11.4l8.1-11.4h3.6v21h-4.8zm21.9-21v4.62h-5.4v16.38h-4.8v-16.38h-5.4v-4.62h15.6zm13.35 21l-1.05-3.3h-7.8l-1.05 3.3h-5.25l7.14-21h6.12l7.14 21h-5.25zm-7.41-7.8h4.92l-2.46-7.71-2.46 7.71zm25.25-13.2h4.8v21h-4.8v-8.34h-6.6v8.34h-4.8v-21h4.8v8.04h6.6v-8.04zm19.51 21v-11.4l-8.1 11.4h-3.6v-21h4.8v11.4l8.1-11.4h3.6v21h-4.8zm22.95-21v21h-4.8v-6.9h-1.53l-4.47 6.9h-5.4l4.92-7.5c-2.55-1.08-4.32-3.57-4.32-6.3 0-3.99 3.21-7.2 7.2-7.2h8.4zm-8.4 9.9h3.6v-5.4h-3.6c-1.32 0-2.4 1.17-2.4 2.7 0 1.53 1.08 2.7 2.4 2.7zm211.7-212.049c-6.33 0-10.92-4.74-10.92-10.92s4.59-10.92 10.92-10.92c3.81 0 7.17 1.89 9 4.86l-4.14 2.4c-.93-1.62-2.73-2.58-4.86-2.58-3.72 0-6.12 2.49-6.12 6.24s2.4 6.24 6.12 6.24c2.13 0 3.96-.96 4.86-2.58l4.14 2.4c-1.8 2.97-5.16 4.86-9 4.86zm30.45-21.42h4.8v21h-24.6v-21h4.8v16.38h5.1v-16.38h4.8v16.38h5.1v-16.38zm21.16 21l-1.05-3.3h-7.8l-1.05 3.3h-5.25l7.14-21h6.12l7.14 21h-5.25zm-7.41-7.8h4.92l-2.46-7.71-2.46 7.71zM630.694 101.002h-5.46l-6.72-9.72v9.72h-4.8v-21h4.8v9.12l6.42-9.12h5.46l-7.08 10.23 7.38 10.77zm15.135 0l-1.05-3.3h-7.8l-1.05 3.3h-5.25l7.14-21h6.12l7.14 21h-5.25zm-7.41-7.8h4.92l-2.46-7.71-2.46 7.71zm25.251-13.2h4.8v21h-4.8v-8.34h-6.6v8.34h-4.8v-21h4.8v8.04h6.6v-8.04zm21.155 21l-1.05-3.3h-7.8l-1.05 3.3h-5.25l7.14-21h6.12l7.14 21h-5.25zm-7.41-7.8h4.92l-2.46-7.71-2.46 7.71zm30.497 3.18h2.25v8.64h-4.8v-4.02h-10.5v4.02h-4.8v-8.64h2.13c.96-1.38 1.65-3.39 1.65-6.96v-9.42h14.07v16.38zm-10.62 0h5.82v-11.88h-4.47v4.98c0 3.45-.6 5.55-1.35 6.9zm28.315 4.62l-1.05-3.3h-7.8l-1.05 3.3h-5.25l7.14-21h6.12l7.14 21h-5.25zm-7.41-7.8h4.92l-2.46-7.71-2.46 7.71zM176.8 79v21H172V87.79l-5.43 8.91h-.54l-5.43-8.91V100h-4.8V79h4.8l5.7 9.33L172 79h4.8zm7.809 16.38h8.4V100h-13.2V79h13.05v4.62h-8.25v3.48h7.5v4.56h-7.5v3.72zm27.489 4.62h-5.46l-6.72-9.72V100h-4.8V79h4.8v9.12l6.42-9.12h5.46l-7.08 10.23 7.38 10.77zm9.432.42c-6.33 0-10.92-4.74-10.92-10.92s4.59-10.92 10.92-10.92c3.81 0 7.17 1.89 9 4.86l-4.14 2.4c-.93-1.62-2.73-2.58-4.86-2.58-3.72 0-6.12 2.49-6.12 6.24s2.4 6.24 6.12 6.24c2.13 0 3.96-.96 4.86-2.58l4.14 2.4c-1.8 2.97-5.16 4.86-9 4.86zm22.349-.42V88.6l-8.1 11.4h-3.6V79h4.8v11.4l8.1-11.4h3.6v21h-4.8zm24.778 0h-5.46l-6.72-9.72V100h-4.8V79h4.8v9.12l6.42-9.12h5.46l-7.08 10.23 7.38 10.77zm15.135 0l-1.05-3.3h-7.8l-1.05 3.3h-5.25l7.14-21h6.12l7.14 21h-5.25zm-7.41-7.8h4.92l-2.46-7.71-2.46 7.71zm335.832 381.797v-4.5c2.16.33 3.48-.33 3.48-3.84v-12.66h14.52v21h-4.8v-16.38h-4.92v7.86c0 7.5-4.41 8.94-8.28 8.52zm32.698 0v-11.4l-8.1 11.4h-3.6v-21h4.8v11.4l8.1-11.4h3.6v21h-4.8zm21.897-21v4.62h-5.4v16.38h-4.8v-16.38h-5.4v-4.62h15.6zm14.522 10.11c1.56.99 2.58 2.61 2.58 4.74 0 3.72-3.03 6.15-6.78 6.15h-8.82v-21h8.22c3.66 0 6.63 2.37 6.63 6 0 1.74-.69 3.12-1.83 4.11zm-4.8-5.61h-3.42v3.72h3.42c1.08 0 1.83-.78 1.83-1.86s-.72-1.86-1.83-1.86zm.6 12c1.2 0 1.98-.84 1.98-2.01s-.78-2.01-1.98-2.01h-4.02v4.02h4.02zm21.918 4.5l-1.05-3.3h-7.8l-1.05 3.3h-5.25l7.14-21h6.12l7.14 21h-5.25zm-7.41-7.8h4.92l-2.46-7.71-2.46 7.71z" fill="#434146" fill-opacity=".8"/><path d="M1533.2 88.92h1.5v5.76h-3.2V92h-7v2.68h-3.2v-5.76h1.42c.64-.92 1.1-2.26 1.1-4.64V78h9.38v10.92zm-7.08 0h3.88V81h-2.98v3.32c0 2.3-.4 3.7-.9 4.6zM1545 92l-.7-2.2h-5.2l-.7 2.2h-3.5l4.76-14h4.08l4.76 14h-3.5zm-4.94-5.2h3.28l-1.64-5.14-1.64 5.14zm16.83-8.8h3.2v14h-3.2v-5.56h-4.4V92h-3.2V78h3.2v5.36h4.4V78zm13 14v-7.6l-5.4 7.6h-2.4V78h3.2v7.6l5.4-7.6h2.4v14h-3.2zm15.3-14v14h-3.2v-4.6h-1.02l-2.98 4.6h-3.6l3.28-5c-1.7-.72-2.88-2.38-2.88-4.2 0-2.66 2.14-4.8 4.8-4.8h5.6zm-5.6 6.6h2.4V81h-2.4c-.88 0-1.6.78-1.6 1.8s.72 1.8 1.6 1.8zm-86.23-61.209h3.2v14h-16.4v-14h3.2v10.92h3.4v-10.92h3.2v10.92h3.4v-10.92zm13.89 6.74c1.04.66 1.72 1.74 1.72 3.16 0 2.48-2.02 4.1-4.52 4.1h-5.88v-14h5.48c2.44 0 4.42 1.58 4.42 4 0 1.16-.46 2.08-1.22 2.74zm-3.2-3.74h-2.28v2.48h2.28c.72 0 1.22-.52 1.22-1.24s-.48-1.24-1.22-1.24zm.4 8c.8 0 1.32-.56 1.32-1.34s-.52-1.34-1.32-1.34h-2.68v2.68h2.68zm8.91-.08h5.6v3.08h-8.8v-14h8.7v3.08h-5.5v2.32h5v3.04h-5v2.48zm17.61 0h1.5v5.76h-3.2v-2.68h-8.9v-14h3.2v10.92h4.2v-10.92h3.2v10.92zm10.61 3.08v-7.6l-5.4 7.6h-2.4v-14h3.2v7.6l5.4-7.6h2.4v14h-3.2zm15.29-14v14h-3.2v-4.6h-1.02l-2.98 4.6h-3.6l3.28-5c-1.7-.72-2.88-2.38-2.88-4.2 0-2.66 2.14-4.8 4.8-4.8h5.6zm-5.6 6.6h2.4v-3.6h-2.4c-.88 0-1.6.78-1.6 1.8s.72 1.8 1.6 1.8zM909.967 64.767l-.7-2.2h-5.2l-.7 2.2h-3.5l4.76-14h4.08l4.76 14h-3.5zm-4.94-5.2h3.28l-1.64-5.14-1.64 5.14zm17.914-2.06c1.04.66 1.72 1.74 1.72 3.16 0 2.48-2.02 4.1-4.52 4.1h-5.88v-14h5.48c2.44 0 4.42 1.58 4.42 4 0 1.16-.46 2.08-1.22 2.74zm-3.2-3.74h-2.28v2.48h2.28c.72 0 1.22-.52 1.22-1.24s-.48-1.24-1.22-1.24zm.4 8c.8 0 1.32-.56 1.32-1.34s-.52-1.34-1.32-1.34h-2.68v2.68h2.68zm12.392 3.28c-4.22 0-7.28-3.16-7.28-7.28s3.06-7.28 7.28-7.28c2.54 0 4.78 1.26 6 3.24l-2.76 1.6c-.62-1.08-1.82-1.72-3.24-1.72-2.48 0-4.08 1.66-4.08 4.16s1.6 4.16 4.08 4.16c1.42 0 2.64-.64 3.24-1.72l2.76 1.6c-1.2 1.98-3.44 3.24-6 3.24zm16.5-14.28v3.08h-3.6v10.92h-3.2v-10.92h-3.6v-3.08h10.4zm6.301 0c2.76 0 4.9 2.14 4.9 4.8 0 2.66-2.14 4.8-4.9 4.8h-2.1v4.4h-3.2v-14h5.3zm0 6.6c.98 0 1.7-.78 1.7-1.8s-.72-1.8-1.7-1.8h-2.1v3.6h2.1zm13.896 7.4v-7.6l-5.4 7.6h-2.4v-14h3.2v7.6l5.4-7.6h2.4v14h-3.2zm15.299-14v14h-3.2v-4.6h-1.02l-2.98 4.6h-3.6l3.28-5c-1.7-.72-2.88-2.38-2.88-4.2 0-2.66 2.14-4.8 4.8-4.8h5.6zm-5.6 6.6h2.4v-3.6h-2.4c-.88 0-1.6.78-1.6 1.8s.72 1.8 1.6 1.8zm-51.182 228.272c1.04.66 1.72 1.74 1.72 3.16 0 2.48-2.02 4.1-4.52 4.1h-5.88v-14h5.48c2.44 0 4.42 1.58 4.42 4 0 1.16-.46 2.08-1.22 2.74zm-3.2-3.74h-2.28v2.48h2.28c.72 0 1.22-.52 1.22-1.24s-.48-1.24-1.22-1.24zm.4 8c.8 0 1.32-.56 1.32-1.34s-.52-1.34-1.32-1.34h-2.68v2.68h2.68zm8.912-.08h5.6v3.08h-8.8v-14h8.7v3.08h-5.5v2.32h5v3.04h-5v2.48zm14.606-10.92h3.2v14h-3.2v-5.56h-4.4v5.56h-3.2v-14h3.2v5.36h4.4v-5.36zm13.203 0v3.08h-4.8v10.92h-3.2v-14h8zm6.295 0c2.76 0 4.9 2.14 4.9 4.8 0 2.66-2.14 4.8-4.9 4.8h-2.1v4.4h-3.2v-14h5.3zm0 6.6c.98 0 1.7-.78 1.7-1.8s-.72-1.8-1.7-1.8h-2.1v3.6h2.1zm13.896 7.4v-7.6l-5.4 7.6h-2.4v-14h3.2v7.6l5.4-7.6h2.4v14h-3.2zm15.299-14v14h-3.2v-4.6h-1.02l-2.98 4.6h-3.6l3.28-5c-1.7-.72-2.88-2.38-2.88-4.2 0-2.66 2.14-4.8 4.8-4.8h5.6zm-5.6 6.6h2.4v-3.6h-2.4c-.88 0-1.6.78-1.6 1.8s.72 1.8 1.6 1.8zm-360.438 4.806v14h-3.2v-10.92h-4.2v10.92h-3.2v-14h10.6zm8.688 14.28c-4.02 0-7.28-3.16-7.28-7.28s3.26-7.28 7.28-7.28c4.02 0 7.28 3.16 7.28 7.28s-3.26 7.28-7.28 7.28zm0-3.12c2.28 0 4.08-1.66 4.08-4.16s-1.8-4.16-4.08-4.16c-2.28 0-4.08 1.66-4.08 4.16s1.8 4.16 4.08 4.16zm13.982-11.16c2.76 0 4.9 2.14 4.9 4.8 0 2.66-2.14 4.8-4.9 4.8h-2.1v4.4h-3.2v-14h5.3zm0 6.6c.98 0 1.7-.78 1.7-1.8s-.72-1.8-1.7-1.8h-2.1v3.6h2.1zm15.301-6.6v3.08h-3.6v10.92h-3.2v-10.92h-3.6v-3.08h10.4zm8.601 0h3.2l-4.04 9.88c-1.24 3.02-3.26 4.26-5.88 4.12v-3c1.46.14 2.26-.4 2.8-1.38l-4.48-9.62h3.2l2.74 6.12 2.46-6.12zm12.207 0v3.08h-4.8v10.92h-3.2v-14h8zm8.293 14l-.7-2.2h-5.2l-.7 2.2h-3.5l4.76-14h4.08l4.76 14h-3.5zm-4.94-5.2h3.28l-1.64-5.14-1.64 5.14zm8.429 5.2v-3c1.44.22 2.32-.22 2.32-2.56v-8.44h9.68v14h-3.2v-10.92h-3.28v5.24c0 5-2.94 5.96-5.52 5.68zm21.799 0v-7.6l-5.4 7.6h-2.4v-14h3.2v7.6l5.4-7.6h2.4v14h-3.2zm15.298-14v14h-3.2v-4.6h-1.02l-2.98 4.6h-3.6l3.28-5c-1.7-.72-2.88-2.38-2.88-4.2 0-2.66 2.14-4.8 4.8-4.8h5.6zm-5.6 6.6h2.4v-3.6h-2.4c-.88 0-1.6.78-1.6 1.8s.72 1.8 1.6 1.8zm813.122-46.523h3.2v14h-16.4v-14h3.2v10.92h3.4v-10.92h3.2v10.92h3.4v-10.92zm13.89 6.74c1.04.66 1.72 1.74 1.72 3.16 0 2.48-2.02 4.1-4.52 4.1h-5.88v-14h5.48c2.44 0 4.42 1.58 4.42 4 0 1.16-.46 2.08-1.22 2.74zm-3.2-3.74h-2.28v2.48h2.28c.72 0 1.22-.52 1.22-1.24s-.48-1.24-1.22-1.24zm.4 8c.8 0 1.32-.56 1.32-1.34s-.52-1.34-1.32-1.34h-2.68v2.68h2.68zm8.91-.08h5.6v3.08h-8.8v-14h8.7v3.08h-5.5v2.32h5v3.04h-5v2.48zm9.5-12.1v-2.6h6v2.6h-6zm5.3 15.18v-7.6l-5.4 7.6h-2.4v-14h3.2v7.6l5.4-7.6h2.4v14h-3.2zm15.8-3.08h1.5v5.76h-3.2v-2.68h-8.9v-14h3.2v10.92h4.2v-10.92h3.2v10.92zm11.81 3.08l-.7-2.2h-5.2l-.7 2.2h-3.5l4.76-14h4.08l4.76 14h-3.5zm-4.94-5.2h3.28l-1.64-5.14-1.64 5.14zm14.53-8.8c2.76 0 4.9 2.14 4.9 4.8 0 2.66-2.14 4.8-4.9 4.8h-2.1v4.4h-3.2v-14h5.3zm0 6.6c.98 0 1.7-.78 1.7-1.8s-.72-1.8-1.7-1.8h-2.1v3.6h2.1zm13.9 7.4v-7.6l-5.4 7.6h-2.4v-14h3.2v7.6l5.4-7.6h2.4v14h-3.2zm15.3-14v14h-3.2v-4.6h-1.02l-2.98 4.6h-3.6l3.28-5c-1.7-.72-2.88-2.38-2.88-4.2 0-2.66 2.14-4.8 4.8-4.8h5.6zm-5.6 6.6h2.4v-3.6h-2.4c-.88 0-1.6.78-1.6 1.8s.72 1.8 1.6 1.8zM1475.48 365.28c-4.22 0-7.28-3.16-7.28-7.28s3.06-7.28 7.28-7.28c2.54 0 4.78 1.26 6 3.24l-2.76 1.6c-.62-1.08-1.82-1.72-3.24-1.72-2.48 0-4.08 1.66-4.08 4.16s1.6 4.16 4.08 4.16c1.42 0 2.64-.64 3.24-1.72l2.76 1.6c-1.2 1.98-3.44 3.24-6 3.24zm6.1-.28v-3c1.44.22 2.32-.22 2.32-2.56V351h9.68v14h-3.2v-10.92h-3.28v5.24c0 5-2.94 5.96-5.52 5.68zm20.68.28c-4.02 0-7.28-3.16-7.28-7.28s3.26-7.28 7.28-7.28c4.02 0 7.28 3.16 7.28 7.28s-3.26 7.28-7.28 7.28zm0-3.12c2.28 0 4.08-1.66 4.08-4.16s-1.8-4.16-4.08-4.16c-2.28 0-4.08 1.66-4.08 4.16s1.8 4.16 4.08 4.16zm17.36-4.42c1.04.66 1.72 1.74 1.72 3.16 0 2.48-2.02 4.1-4.52 4.1h-5.88v-14h5.48c2.44 0 4.42 1.58 4.42 4 0 1.16-.46 2.08-1.22 2.74zm-3.2-3.74h-2.28v2.48h2.28c.72 0 1.22-.52 1.22-1.24s-.48-1.24-1.22-1.24zm.4 8c.8 0 1.32-.56 1.32-1.34s-.52-1.34-1.32-1.34h-2.68V362h2.68zm14.61 3l-.7-2.2h-5.2l-.7 2.2h-3.5l4.76-14h4.08l4.76 14h-3.5zm-4.94-5.2h3.28l-1.64-5.14-1.64 5.14zm20.56 5.2h-3.64l-4.48-6.48V365h-3.2v-14h3.2v6.08l4.28-6.08h3.64l-4.72 6.82 4.92 7.18zm8.6 0v-7.6l-5.4 7.6h-2.4v-14h3.2v7.6l5.4-7.6h2.4v14h-3.2zm15.29-14v14h-3.2v-4.6h-1.02l-2.98 4.6h-3.6l3.28-5c-1.7-.72-2.88-2.38-2.88-4.2 0-2.66 2.14-4.8 4.8-4.8h5.6zm-5.6 6.6h2.4V354h-2.4c-.88 0-1.6.78-1.6 1.8s.72 1.8 1.6 1.8zm-335.76 80.442c-4.22 0-7.28-3.16-7.28-7.28s3.06-7.28 7.28-7.28c2.54 0 4.78 1.26 6 3.24l-2.76 1.6c-.62-1.08-1.82-1.72-3.24-1.72-2.48 0-4.08 1.66-4.08 4.16s1.6 4.16 4.08 4.16c1.42 0 2.64-.64 3.24-1.72l2.76 1.6c-1.2 1.98-3.44 3.24-6 3.24zm6.1-.28v-3c1.44.22 2.32-.22 2.32-2.56v-8.44h9.68v14h-3.2v-10.92h-3.28v5.24c0 5-2.94 5.96-5.52 5.68zm20.68.28c-4.02 0-7.28-3.16-7.28-7.28s3.26-7.28 7.28-7.28c4.02 0 7.28 3.16 7.28 7.28s-3.26 7.28-7.28 7.28zm0-3.12c2.28 0 4.08-1.66 4.08-4.16s-1.8-4.16-4.08-4.16c-2.28 0-4.08 1.66-4.08 4.16s1.8 4.16 4.08 4.16zm17.36-4.42c1.04.66 1.72 1.74 1.72 3.16 0 2.48-2.02 4.1-4.52 4.1h-5.88v-14h5.48c2.44 0 4.42 1.58 4.42 4 0 1.16-.46 2.08-1.22 2.74zm-3.2-3.74h-2.28v2.48h2.28c.72 0 1.22-.52 1.22-1.24s-.48-1.24-1.22-1.24zm.4 8c.8 0 1.32-.56 1.32-1.34s-.52-1.34-1.32-1.34h-2.68v2.68h2.68zm8.92-.08h5.6v3.08h-8.8v-14h8.7v3.08h-5.5v2.32h5v3.04h-5v2.48zm14.6-10.92h3.2v14h-3.2v-5.56h-4.4v5.56h-3.2v-14h3.2v5.36h4.4v-5.36zm13 14v-7.6l-5.4 7.6h-2.4v-14h3.2v7.6l5.4-7.6h2.4v14h-3.2zm15.3-14v14h-3.2v-4.6h-1.02l-2.98 4.6h-3.6l3.28-5c-1.7-.72-2.88-2.38-2.88-4.2 0-2.66 2.14-4.8 4.8-4.8h5.6zm-5.6 6.6h2.4v-3.6h-2.4c-.88 0-1.6.78-1.6 1.8s.72 1.8 1.6 1.8zm-95.19-216.984c2.86 0 4.8 1.74 4.8 4.4s-1.94 4.4-4.8 4.4h-5.4v-14h9v3.08h-5.8v2.12h2.2zm0 5.8c.88 0 1.6-.38 1.6-1.4s-.72-1.4-1.6-1.4h-2.2v2.8h2.2zm9.1-.08h5.6v3.08h-8.8v-14h8.7v3.08h-5.5v2.32h5v3.04h-5v2.48zm6.01 3.08v-3c1.44.22 2.32-.22 2.32-2.56v-8.44h9.68v14h-3.2v-10.92h-3.28v5.24c0 5-2.94 5.96-5.52 5.68zm19.29-9.6c2.76 0 4.9 2.14 4.9 4.8 0 2.66-2.14 4.8-4.9 4.8h-5.3v-14h3.2v4.4h2.1zm0 6.6c.98 0 1.7-.78 1.7-1.8s-.72-1.8-1.7-1.8h-2.1v3.6h2.1zm14.1-11v3.08h-4.8v10.92h-3.2v-14h8zm8.8 14v-7.6l-5.4 7.6h-2.4v-14h3.2v7.6l5.4-7.6h2.4v14h-3.2zm15.29-14v14h-3.2v-4.6h-1.02l-2.98 4.6h-3.6l3.28-5c-1.7-.72-2.88-2.38-2.88-4.2 0-2.66 2.14-4.8 4.8-4.8h5.6zm-5.6 6.6h2.4v-3.6h-2.4c-.88 0-1.6.78-1.6 1.8s.72 1.8 1.6 1.8zM724.373 423.259c2.86 0 4.8 1.74 4.8 4.4s-1.94 4.4-4.8 4.4h-5.4v-14h9v3.08h-5.8v2.12h2.2zm0 5.8c.88 0 1.6-.38 1.6-1.4s-.72-1.4-1.6-1.4h-2.2v2.8h2.2zm12.482 3.28c-4.02 0-7.28-3.16-7.28-7.28s3.26-7.28 7.28-7.28c4.02 0 7.28 3.16 7.28 7.28s-3.26 7.28-7.28 7.28zm0-3.12c2.28 0 4.08-1.66 4.08-4.16s-1.8-4.16-4.08-4.16c-2.28 0-4.08 1.66-4.08 4.16s1.8 4.16 4.08 4.16zm6.881 2.84v-3c1.44.22 2.32-.22 2.32-2.56v-8.44h9.68v14h-3.2v-10.92h-3.28v5.24c0 5-2.94 5.96-5.52 5.68zm21.998-14v3.08h-4.8v10.92h-3.2v-14h8zm8.293 14l-.7-2.2h-5.2l-.7 2.2h-3.5l4.76-14h4.08l4.76 14h-3.5zm-4.94-5.2h3.28l-1.64-5.14-1.64 5.14zm14.534-8.8c2.76 0 4.9 2.14 4.9 4.8 0 2.66-2.14 4.8-4.9 4.8h-2.1v4.4h-3.2v-14h5.3zm0 6.6c.98 0 1.7-.78 1.7-1.8s-.72-1.8-1.7-1.8h-2.1v3.6h2.1zm13.897 7.4v-7.6l-5.4 7.6h-2.4v-14h3.2v7.6l5.4-7.6h2.4v14h-3.2zm15.298-14v14h-3.2v-4.6h-1.02l-2.98 4.6h-3.6l3.28-5c-1.7-.72-2.88-2.38-2.88-4.2 0-2.66 2.14-4.8 4.8-4.8h5.6zm-5.6 6.6h2.4v-3.6h-2.4c-.88 0-1.6.78-1.6 1.8s.72 1.8 1.6 1.8zm-252.805-14.585v3.08h-4.8v10.92h-3.2v-14h8zm6.294 0c2.76 0 4.9 2.14 4.9 4.8 0 2.66-2.14 4.8-4.9 4.8h-2.1v4.4h-3.2v-14h5.3zm0 6.6c.98 0 1.7-.78 1.7-1.8s-.72-1.8-1.7-1.8h-2.1v3.6h2.1zm9.297 4.32h5.6v3.08h-8.8v-14h8.7v3.08h-5.5v2.32h5v3.04h-5v2.48zm17.606 0h1.5v5.76h-3.2v-2.68h-8.9v-14h3.2v10.92h4.2v-10.92h3.2v10.92zm10.608 3.08v-7.6l-5.4 7.6h-2.4v-14h3.2v7.6l5.4-7.6h2.4v14h-3.2zm15.299-14v14h-3.2v-4.6h-1.02l-2.98 4.6h-3.6l3.28-5c-1.7-.72-2.88-2.38-2.88-4.2 0-2.66 2.14-4.8 4.8-4.8h5.6zm-5.6 6.6h2.4v-3.6h-2.4c-.88 0-1.6.78-1.6 1.8s.72 1.8 1.6 1.8zm499.925-79.009c-4.22 0-7.28-3.16-7.28-7.28s3.06-7.28 7.28-7.28c2.54 0 4.78 1.26 6 3.24l-2.76 1.6c-.62-1.08-1.82-1.72-3.24-1.72-2.48 0-4.08 1.66-4.08 4.16s1.6 4.16 4.08 4.16c1.42 0 2.64-.64 3.24-1.72l2.76 1.6c-1.2 1.98-3.44 3.24-6 3.24zm14.9-.28v-7.6l-5.4 7.6h-2.4v-14h3.2v7.6l5.4-7.6h2.4v14h-3.2zm12.8-14h3.2v14h-3.2v-5.56h-4.4v5.56h-3.2v-14h3.2v5.36h4.4v-5.36zm13.2 0v3.08h-4.8v10.92h-3.2v-14h8zm8.3 14l-.7-2.2h-5.2l-.7 2.2h-3.5l4.76-14h4.08l4.76 14h-3.5zm-4.94-5.2h3.28l-1.64-5.14-1.64 5.14zm19.83-8.8v14h-3.2v-10.92h-4.2v10.92h-3.2v-14h10.6zm9.61 0h3.2l-4.04 9.88c-1.24 3.02-3.26 4.26-5.88 4.12v-3c1.46.14 2.26-.4 2.8-1.38l-4.48-9.62h3.2l2.74 6.12 2.46-6.12zm9.5 0c2.76 0 4.9 2.14 4.9 4.8 0 2.66-2.14 4.8-4.9 4.8h-2.1v4.4h-3.2v-14h5.3zm0 6.6c.98 0 1.7-.78 1.7-1.8s-.72-1.8-1.7-1.8h-2.1v3.6h2.1zM1005.31 90.69h3.2v14h-16.396v-14h3.2v10.92h3.4V90.69h3.196v10.92h3.4V90.69zm10.51 0c2.76 0 4.9 2.14 4.9 4.8 0 2.66-2.14 4.8-4.9 4.8h-2.1v4.4h-3.2v-14h5.3zm0 6.6c.98 0 1.7-.78 1.7-1.8s-.72-1.8-1.7-1.8h-2.1v3.6h2.1zm13.9 7.4v-7.6l-5.4 7.6h-2.4v-14h3.2v7.6l5.4-7.6h2.4v14h-3.2zm5.2-4.54v-2.88h7.6v2.88h-7.6zm7.8 4.54v-3c1.44.22 2.32-.22 2.32-2.56v-8.44h9.68v14h-3.2V93.77h-3.28v5.24c0 5-2.94 5.96-5.52 5.68zm22.9 0l-.7-2.2h-5.2l-.7 2.2h-3.5l4.76-14h4.08l4.76 14h-3.5zm-4.94-5.2h3.28l-1.64-5.14-1.64 5.14zm16.83-8.8h3.2v14h-3.2v-5.56h-4.4v5.56h-3.2v-14h3.2v5.36h4.4v-5.36zm16.52 14h-3.64l-4.48-6.48v6.48h-3.2v-14h3.2v6.08l4.28-6.08h3.64l-4.72 6.82 4.92 7.18zm10.09 0l-.7-2.2h-5.2l-.7 2.2h-3.5l4.76-14h4.08l4.76 14h-3.5zm-4.94-5.2h3.28l-1.64-5.14-1.64 5.14zm371.88 114.704l-.7-2.2h-5.2l-.7 2.2h-3.5l4.76-14h4.08l4.76 14h-3.5zm-4.94-5.2h3.28l-1.64-5.14-1.64 5.14zm17.92-2.06c1.04.66 1.72 1.74 1.72 3.16 0 2.48-2.02 4.1-4.52 4.1h-5.88v-14h5.48c2.44 0 4.42 1.58 4.42 4 0 1.16-.46 2.08-1.22 2.74zm-3.2-3.74h-2.28v2.48h2.28c.72 0 1.22-.52 1.22-1.24s-.48-1.24-1.22-1.24zm.4 8c.8 0 1.32-.56 1.32-1.34s-.52-1.34-1.32-1.34h-2.68v2.68h2.68zm12.39 3.28c-4.22 0-7.28-3.16-7.28-7.28s3.06-7.28 7.28-7.28c2.54 0 4.78 1.26 6 3.24l-2.76 1.6c-.62-1.08-1.82-1.72-3.24-1.72-2.48 0-4.08 1.66-4.08 4.16s1.6 4.16 4.08 4.16c1.42 0 2.64-.64 3.24-1.72l2.76 1.6c-1.2 1.98-3.44 3.24-6 3.24zm16.5-14.28v3.08h-3.6v10.92h-3.2v-10.92h-3.6v-3.08h10.4zm6.3 0c2.76 0 4.9 2.14 4.9 4.8 0 2.66-2.14 4.8-4.9 4.8h-2.1v4.4h-3.2v-14h5.3zm0 6.6c.98 0 1.7-.78 1.7-1.8s-.72-1.8-1.7-1.8h-2.1v3.6h2.1zm13.59 7.4l-.7-2.2h-5.2l-.7 2.2h-3.5l4.76-14h4.08l4.76 14h-3.5zm-4.94-5.2h3.28l-1.64-5.14-1.64 5.14zm8.43 5.2v-3c1.44.22 2.32-.22 2.32-2.56v-8.44h9.68v14h-3.2v-10.92h-3.28v5.24c0 5-2.94 5.96-5.52 5.68zm21.8 0v-7.6l-5.4 7.6h-2.4v-14h3.2v7.6l5.4-7.6h2.4v14h-3.2zm15.3-14v14h-3.2v-4.6h-1.02l-2.98 4.6h-3.6l3.28-5c-1.7-.72-2.88-2.38-2.88-4.2 0-2.66 2.14-4.8 4.8-4.8h5.6zm-5.6 6.6h2.4v-3.6h-2.4c-.88 0-1.6.78-1.6 1.8s.72 1.8 1.6 1.8zm-435.08 40.166h3.2v14h-3.2v-5.56h-4.4v5.56h-3.2v-14h3.2v5.36h4.4v-5.36zm13.01 14v-7.6l-5.4 7.6h-2.4v-14h3.2v7.6l5.4-7.6h2.4v14h-3.2zm16.19-3.08h1.5v5.76h-3.2v-2.68h-7v2.68h-3.2v-5.76h1.42c.64-.92 1.1-2.26 1.1-4.64v-6.28h9.38v10.92zm-7.08 0h3.88v-7.92h-2.98v3.32c0 2.3-.4 3.7-.9 4.6zm13.08 0h5.6v3.08h-8.8v-14h8.7v3.08h-5.5v2.32h5v3.04h-5v2.48zm12.31-10.92c2.76 0 4.9 2.14 4.9 4.8 0 2.66-2.14 4.8-4.9 4.8h-2.1v4.4h-3.2v-14h5.3zm0 6.6c.98 0 1.7-.78 1.7-1.8s-.72-1.8-1.7-1.8h-2.1v3.6h2.1zm4.1 7.4v-3c1.44.22 2.32-.22 2.32-2.56v-8.44h9.68v14h-3.2v-10.92h-3.28v5.24c0 5-2.94 5.96-5.52 5.68zm22.9 0l-.7-2.2h-5.2l-.7 2.2h-3.5l4.76-14h4.08l4.76 14h-3.5zm-4.94-5.2h3.28l-1.64-5.14-1.64 5.14zm16.83-8.8h3.2v14h-3.2v-5.56h-4.4v5.56h-3.2v-14h3.2v5.36h4.4v-5.36zm16.21 10.92h1.5v5.76h-3.2v-2.68h-7v2.68h-3.2v-5.76h1.42c.64-.92 1.1-2.26 1.1-4.64v-6.28h9.38v10.92zm-7.08 0h3.88v-7.92h-2.98v3.32c0 2.3-.4 3.7-.9 4.6zm9.87 3.08v-14h3.2v4.4h2.1c2.76 0 4.9 2.14 4.9 4.8 0 2.66-2.14 4.8-4.9 4.8h-5.3zm11.4 0v-14h3.2v14h-3.2zm-8.2-3h2.1c.98 0 1.7-.78 1.7-1.8s-.72-1.8-1.7-1.8h-2.1v3.6zm-675.805-65.439l-.7-2.2h-5.2l-.7 2.2h-3.5l4.76-14h4.08l4.76 14h-3.5zm-4.94-5.2h3.28l-1.64-5.14-1.64 5.14zm14.534-8.8c2.76 0 4.9 2.14 4.9 4.8 0 2.66-2.14 4.8-4.9 4.8h-2.1v4.4h-3.2v-14h5.3zm0 6.6c.98 0 1.7-.78 1.7-1.8s-.72-1.8-1.7-1.8h-2.1v3.6h2.1zm14.097-6.6v3.08h-4.8v10.92h-3.2v-14h8zm4.194 10.92h5.6v3.08h-8.8v-14h8.7v3.08h-5.5v2.32h5v3.04h-5v2.48zm14.606-10.92h3.2v14h-3.2v-5.56h-4.4v5.56h-3.2v-14h3.2v5.36h4.4v-5.36zm14.603 0v3.08h-3.6v10.92h-3.2v-10.92h-3.6v-3.08h10.4zm8.801 14v-7.6l-5.4 7.6h-2.4v-14h3.2v7.6l5.4-7.6h2.4v14h-3.2zm12.798-14h3.2v14h-3.2v-5.56h-4.4v5.56h-3.2v-14h3.2v5.36h4.4v-5.36zm14.103 14l-.7-2.2h-5.2l-.7 2.2h-3.5l4.76-14h4.08l4.76 14h-3.5zm-4.94-5.2h3.28l-1.64-5.14-1.64 5.14zm-256.512 31.76c2.86 0 4.8 1.74 4.8 4.4s-1.94 4.4-4.8 4.4h-5.4v-14h9v3.08h-5.8v2.12h2.2zm0 5.8c.88 0 1.6-.38 1.6-1.4s-.72-1.4-1.6-1.4h-2.2v2.8h2.2zm14.506 3l-.7-2.2h-5.2l-.7 2.2h-3.5l4.76-14h4.08l4.76 14h-3.5zm-4.94-5.2h3.28l-1.64-5.14-1.64 5.14zm16.834-8.8h3.2v14h-3.2v-5.56h-4.4v5.56h-3.2v-14h3.2v5.36h4.4v-5.36zm13.203 0v3.08h-4.8v10.92h-3.2v-14h8zm-1.002 14v-3c1.44.22 2.32-.22 2.32-2.56v-8.44h9.68v14h-3.2v-10.92h-3.28v5.24c0 5-2.94 5.96-5.52 5.68zm22.899 0l-.7-2.2h-5.2l-.7 2.2h-3.5l4.76-14h4.08l4.76 14h-3.5zm-4.94-5.2h3.28l-1.64-5.14-1.64 5.14zm20.331 2.12h1.5v5.76h-3.2v-2.68h-7v2.68h-3.2v-5.76h1.42c.64-.92 1.1-2.26 1.1-4.64v-6.28h9.38v10.92zm-7.08 0h3.88v-7.92h-2.98v3.32c0 2.3-.4 3.7-.9 4.6zm13.079 0h5.6v3.08h-8.8v-14h8.7v3.08h-5.5v2.32h5v3.04h-5v2.48zm20.206-10.92h3.2v14h-16.4v-14h3.2v10.92h3.4v-10.92h3.2v10.92h3.4v-10.92zM394.069 350.257c2.86 0 4.8 1.74 4.8 4.4s-1.94 4.4-4.8 4.4h-5.4v-14h9v3.08h-5.8v2.12h2.2zm0 5.8c.88 0 1.6-.38 1.6-1.4s-.72-1.4-1.6-1.4h-2.2v2.8h2.2zm11.199-11c2.76 0 4.9 2.14 4.9 4.8 0 2.66-2.14 4.8-4.9 4.8h-2.1v4.4h-3.2v-14h5.3zm0 6.6c.98 0 1.7-.78 1.7-1.8s-.72-1.8-1.7-1.8h-2.1v3.6h2.1zm13.591 7.4l-.7-2.2h-5.2l-.7 2.2h-3.5l4.76-14h4.08l4.76 14h-3.5zm-4.94-5.2h3.28l-1.64-5.14-1.64 5.14zm16.933-2.04c1.18.66 1.9 1.78 1.9 3.28 0 2.62-2.24 4.24-5.18 4.24-2.88 0-4.5-1.34-5.32-3.32l2.76-1.58c.36 1.08 1.06 1.9 2.56 1.9 1.34 0 1.98-.56 1.98-1.48 0-.92-.66-1.48-2-1.48h-1.78v-2.84h1.38c1.26 0 1.9-.52 1.9-1.38 0-.86-.48-1.38-1.62-1.38-1.24 0-1.86.74-2.22 1.6l-2.74-1.58c.86-1.72 2.36-3.02 4.96-3.02 2.78 0 4.82 1.58 4.82 4.14 0 1.26-.52 2.22-1.4 2.9zm10.892 7.24v-7.6l-5.4 7.6h-2.4v-14h3.2v7.6l5.4-7.6h2.4v14h-3.2zm4.198 0v-3c1.44.22 2.32-.22 2.32-2.56v-8.44h9.68v14h-3.2v-10.92h-3.28v5.24c0 5-2.94 5.96-5.52 5.68zm21.799 0v-7.6l-5.4 7.6h-2.4v-14h3.2v7.6l5.4-7.6h2.4v14h-3.2zm15.298-14v14h-3.2v-4.6h-1.02l-2.98 4.6h-3.6l3.28-5c-1.7-.72-2.88-2.38-2.88-4.2 0-2.66 2.14-4.8 4.8-4.8h5.6zm-5.6 6.6h2.4v-3.6h-2.4c-.88 0-1.6.78-1.6 1.8s.72 1.8 1.6 1.8zM64.719 248.962c4.22 0 7.28 3.16 7.28 7.28s-3.06 7.28-7.28 7.28c-2.56 0-4.8-1.26-6-3.24l2.76-1.6c.6 1.08 1.82 1.72 3.24 1.72 1.94 0 3.34-1.02 3.86-2.66h-5.72v-3h5.72c-.52-1.64-1.92-2.66-3.86-2.66-1.42 0-2.62.64-3.24 1.72l-2.76-1.6c1.22-1.98 3.46-3.24 6-3.24zm19.995 14.28h-3.64l-4.48-6.48v6.48h-3.2v-14h3.2v6.08l4.28-6.08h3.64l-4.72 6.82 4.92 7.18zm9.48-7.26c1.04.66 1.72 1.74 1.72 3.16 0 2.48-2.02 4.1-4.52 4.1h-5.88v-14h5.48c2.44 0 4.42 1.58 4.42 4 0 1.16-.46 2.08-1.22 2.74zm-3.2-3.74h-2.28v2.48h2.28c.72 0 1.22-.52 1.22-1.24s-.48-1.24-1.22-1.24zm.4 8c.8 0 1.32-.56 1.32-1.34s-.52-1.34-1.32-1.34h-2.68v2.68h2.68zm14.611 3l-.7-2.2h-5.2l-.7 2.2h-3.5l4.76-14h4.08l4.76 14h-3.5zm-4.94-5.2h3.28l-1.64-5.14-1.64 5.14zm20.332 2.12h1.5v5.76h-3.2v-2.68h-7v2.68h-3.2v-5.76h1.42c.64-.92 1.1-2.26 1.1-4.64v-6.28h9.38v10.92zm-7.08 0h3.88v-7.92h-2.98v3.32c0 2.3-.4 3.7-.9 4.6zm16.364 3.36c-4.02 0-7.28-3.16-7.28-7.28s3.26-7.28 7.28-7.28c4.02 0 7.28 3.16 7.28 7.28s-3.26 7.28-7.28 7.28zm0-3.12c2.28 0 4.08-1.66 4.08-4.16s-1.8-4.16-4.08-4.16c-2.28 0-4.08 1.66-4.08 4.16s1.8 4.16 4.08 4.16zm13.981-11.16c2.76 0 4.9 2.14 4.9 4.8 0 2.66-2.14 4.8-4.9 4.8h-2.1v4.4h-3.2v-14h5.3zm0 6.6c.98 0 1.7-.78 1.7-1.8s-.72-1.8-1.7-1.8h-2.1v3.6h2.1zm18.89-37.438v-2.6h6v2.6h-6zm5.3 15.18v-7.6l-5.4 7.6h-2.4v-14h3.2v7.6l5.4-7.6h2.4v14h-3.2zm8.398-3.08h5.6v3.08h-8.8v-14h8.7v3.08h-5.5v2.32h5v3.04h-5v2.48zm21.005-10.92v14h-3.2v-8.14l-3.62 5.94h-.36l-3.62-5.94v8.14h-3.2v-14h3.2l3.8 6.22 3.8-6.22h3.2zm5.207 10.92h5.6v3.08h-8.8v-14h8.7v3.08h-5.5v2.32h5v3.04h-5v2.48zm14.605-10.92h3.2v14h-3.2v-5.56h-4.4v5.56h-3.2v-14h3.2v5.36h4.4v-5.36zM70.739 98.987h-3.64l-4.48-6.48v6.48h-3.2v-14h3.2v6.08l4.28-6.08h3.64l-4.72 6.82 4.92 7.18zm4-3.08h5.6v3.08h-8.8v-14h8.7v3.08h-5.5v2.32h5v3.04h-5v2.48zm14.605-10.92h3.2v14h-3.2v-5.56h-4.4v5.56h-3.2v-14h3.2v5.36h4.4v-5.36zm13.003 14v-7.6l-5.4 7.6h-2.4v-14h3.2v7.6l5.4-7.6h2.4v14h-3.2zm15.298-14v14h-3.2v-4.6h-1.02l-2.98 4.6h-3.6l3.28-5c-1.7-.72-2.88-2.38-2.88-4.2 0-2.66 2.14-4.8 4.8-4.8h5.6zm-5.6 6.6h2.4v-3.6h-2.4c-.88 0-1.6.78-1.6 1.8s.72 1.8 1.6 1.8zm106.913 71.277h-3.64l-4.48-6.48v6.48h-3.2v-14h3.2v6.08l4.28-6.08h3.64l-4.72 6.82 4.92 7.18zm6.288.28c-4.02 0-7.28-3.16-7.28-7.28s3.26-7.28 7.28-7.28c4.02 0 7.28 3.16 7.28 7.28s-3.26 7.28-7.28 7.28zm0-3.12c2.28 0 4.08-1.66 4.08-4.16s-1.8-4.16-4.08-4.16c-2.28 0-4.08 1.66-4.08 4.16s1.8 4.16 4.08 4.16zm17.281-11.16v3.08h-3.6v10.92h-3.2v-10.92h-3.6v-3.08h10.4zm.004 9.46v-2.88h7.6v2.88h-7.6zm19.995 1.46h1.5v5.76h-3.2v-2.68h-7v2.68h-3.2v-5.76h1.42c.64-.92 1.1-2.26 1.1-4.64v-6.28h9.38v10.92zm-7.08 0h3.88v-7.92h-2.98v3.32c0 2.3-.4 3.7-.9 4.6zm13.188-10.92l-1.6 5.9h-2.4l.8-5.9h3.2zm9.501 14v-7.6l-5.4 7.6h-2.4v-14h3.2v7.6l5.4-7.6h2.4v14h-3.2zm13.879-7.26c1.04.66 1.72 1.74 1.72 3.16 0 2.48-2.02 4.1-4.52 4.1h-5.88v-14h5.48c2.44 0 4.42 1.58 4.42 4 0 1.16-.46 2.08-1.22 2.74zm-3.2-3.74h-2.28v2.48h2.28c.72 0 1.22-.52 1.22-1.24s-.48-1.24-1.22-1.24zm.4 8c.8 0 1.32-.56 1.32-1.34s-.52-1.34-1.32-1.34h-2.68v2.68h2.68zm12.316-11h3.2l-4.04 9.88c-1.24 3.02-3.26 4.26-5.88 4.12v-3c1.46.14 2.26-.4 2.8-1.38l-4.48-9.62h3.2l2.74 6.12 2.46-6.12zm11.915 14l-.7-2.2h-5.2l-.7 2.2h-3.5l4.76-14h4.08l4.76 14h-3.5zm-4.94-5.2h3.28l-1.64-5.14-1.64 5.14zm14.534-8.8c2.76 0 4.9 2.14 4.9 4.8 0 2.66-2.14 4.8-4.9 4.8h-2.1v4.4h-3.2v-14h5.3zm0 6.6c.98 0 1.7-.78 1.7-1.8s-.72-1.8-1.7-1.8h-2.1v3.6h2.1zm-9.863 121.465h-3.64l-4.48-6.48v6.48h-3.2v-14h3.2v6.08l4.28-6.08h3.64l-4.72 6.82 4.92 7.18zm10.09 0l-.7-2.2h-5.2l-.7 2.2h-3.5l4.76-14h4.08l4.76 14h-3.5zm-4.94-5.2h3.28l-1.64-5.14-1.64 5.14zm17.638-8.8v3.08h-3.6v10.92h-3.2v-10.92h-3.6v-3.08h10.4zm8.905 14l-.7-2.2h-5.2l-.7 2.2h-3.5l4.76-14h4.08l4.76 14h-3.5zm-4.94-5.2h3.28l-1.64-5.14-1.64 5.14zm14.534-8.8c2.76 0 4.9 2.14 4.9 4.8 0 2.66-2.14 4.8-4.9 4.8h-2.1v4.4h-3.2v-14h5.3zm0 6.6c.98 0 1.7-.78 1.7-1.8s-.72-1.8-1.7-1.8h-2.1v3.6h2.1zM198.435 465.418c-4.22 0-7.28-3.16-7.28-7.28s3.06-7.28 7.28-7.28c2.54 0 4.78 1.26 6 3.24l-2.76 1.6c-.62-1.08-1.82-1.72-3.24-1.72-2.48 0-4.08 1.66-4.08 4.16s1.6 4.16 4.08 4.16c1.42 0 2.64-.64 3.24-1.72l2.76 1.6c-1.2 1.98-3.44 3.24-6 3.24zm15.999-.28l-.7-2.2h-5.2l-.7 2.2h-3.5l4.76-14h4.08l4.76 14h-3.5zm-4.94-5.2h3.28l-1.64-5.14-1.64 5.14zm16.033-8.8h3.2l-4.04 9.88c-1.24 3.02-3.26 4.26-5.88 4.12v-3c1.46.14 2.26-.4 2.8-1.38l-4.48-9.62h3.2l2.74 6.12 2.46-6.12zm13.801 10.92h1.5v5.76h-3.2v-2.68h-7v2.68h-3.2v-5.76h1.42c.64-.92 1.1-2.26 1.1-4.64v-6.28h9.38v10.92zm-7.08 0h3.88v-7.92h-2.98v3.32c0 2.3-.4 3.7-.9 4.6zm16.364 3.36c-4.02 0-7.28-3.16-7.28-7.28s3.26-7.28 7.28-7.28c4.02 0 7.28 3.16 7.28 7.28s-3.26 7.28-7.28 7.28zm0-3.12c2.28 0 4.08-1.66 4.08-4.16s-1.8-4.16-4.08-4.16c-2.28 0-4.08 1.66-4.08 4.16s1.8 4.16 4.08 4.16zm17.362-4.42c1.04.66 1.72 1.74 1.72 3.16 0 2.48-2.02 4.1-4.52 4.1h-5.88v-14h5.48c2.44 0 4.42 1.58 4.42 4 0 1.16-.46 2.08-1.22 2.74zm-3.2-3.74h-2.28v2.48h2.28c.72 0 1.22-.52 1.22-1.24s-.48-1.24-1.22-1.24zm.4 8c.8 0 1.32-.56 1.32-1.34s-.52-1.34-1.32-1.34h-2.68v2.68h2.68zm12.392 3.28c-4.22 0-7.28-3.16-7.28-7.28s3.06-7.28 7.28-7.28c2.54 0 4.78 1.26 6 3.24l-2.76 1.6c-.62-1.08-1.82-1.72-3.24-1.72-2.48 0-4.08 1.66-4.08 4.16s1.6 4.16 4.08 4.16c1.42 0 2.64-.64 3.24-1.72l2.76 1.6c-1.2 1.98-3.44 3.24-6 3.24zm18.42-.28h-3.64l-4.48-6.48v6.48h-3.2v-14h3.2v6.08l4.28-6.08h3.64l-4.72 6.82 4.92 7.18zm10.09 0l-.7-2.2h-5.2l-.7 2.2h-3.5l4.76-14h4.08l4.76 14h-3.5zm-4.94-5.2h3.28l-1.64-5.14-1.64 5.14zm19.529-8.8v14h-3.2v-4.6h-1.02l-2.98 4.6h-3.6l3.28-5c-1.7-.72-2.88-2.38-2.88-4.2 0-2.66 2.14-4.8 4.8-4.8h5.6zm-5.6 6.6h2.4v-3.6h-2.4c-.88 0-1.6.78-1.6 1.8s.72 1.8 1.6 1.8zm21.1 7.4l-.7-2.2h-5.2l-.7 2.2h-3.5l4.76-14h4.08l4.76 14h-3.5zm-4.94-5.2h3.28l-1.64-5.14-1.64 5.14zm14.534-8.8c2.76 0 4.9 2.14 4.9 4.8 0 2.66-2.14 4.8-4.9 4.8h-2.1v4.4h-3.2v-14h5.3zm0 6.6c.98 0 1.7-.78 1.7-1.8s-.72-1.8-1.7-1.8h-2.1v3.6h2.1zm13.59 7.4l-.7-2.2h-5.2l-.7 2.2h-3.5l4.76-14h4.08l4.76 14h-3.5zm-4.94-5.2h3.28l-1.64-5.14-1.64 5.14zm17.914-2.06c1.04.66 1.72 1.74 1.72 3.16 0 2.48-2.02 4.1-4.52 4.1h-5.88v-14h5.48c2.44 0 4.42 1.58 4.42 4 0 1.16-.46 2.08-1.22 2.74zm-3.2-3.74h-2.28v2.48h2.28c.72 0 1.22-.52 1.22-1.24s-.48-1.24-1.22-1.24zm.4 8c.8 0 1.32-.56 1.32-1.34s-.52-1.34-1.32-1.34h-2.68v2.68h2.68zm13.512 3v-7.6l-5.4 7.6h-2.4v-14h3.2v7.6l5.4-7.6h2.4v14h-3.2zm15.299-14v14h-3.2v-4.6h-1.02l-2.98 4.6h-3.6l3.28-5c-1.7-.72-2.88-2.38-2.88-4.2 0-2.66 2.14-4.8 4.8-4.8h5.6zm-5.6 6.6h2.4v-3.6h-2.4c-.88 0-1.6.78-1.6 1.8s.72 1.8 1.6 1.8zM22.606 284.602v14h-3.2v-8.14l-3.62 5.94h-.36l-3.62-5.94v8.14h-3.2v-14h3.2l3.8 6.22 3.8-6.22h3.2zm10.907 14l-.7-2.2h-5.2l-.7 2.2h-3.5l4.76-14h4.08l4.76 14h-3.5zm-4.94-5.2h3.28l-1.64-5.14-1.64 5.14zm14.533-8.8c2.76 0 4.9 2.14 4.9 4.8 0 2.66-2.14 4.8-4.9 4.8h-2.1v4.4h-3.2v-14h5.3zm0 6.6c.98 0 1.7-.78 1.7-1.8s-.72-1.8-1.7-1.8h-2.1v3.6h2.1zm12.68 7.68c-4.02 0-7.28-3.16-7.28-7.28s3.26-7.28 7.28-7.28c4.02 0 7.28 3.16 7.28 7.28s-3.26 7.28-7.28 7.28zm0-3.12c2.28 0 4.08-1.66 4.08-4.16s-1.8-4.16-4.08-4.16c-2.28 0-4.08 1.66-4.08 4.16s1.8 4.16 4.08 4.16zm20.001 2.84h-3.64l-4.48-6.48v6.48h-3.2v-14h3.2v6.08l4.28-6.08h3.64l-4.72 6.82 4.92 7.18zm12.12 0h-3.64l-4.48-6.48v6.48h-3.2v-14h3.2v6.08l4.28-6.08h3.64l-4.72 6.82 4.92 7.18zm6.288.28c-4.02 0-7.28-3.16-7.28-7.28s3.26-7.28 7.28-7.28c4.02 0 7.28 3.16 7.28 7.28s-3.26 7.28-7.28 7.28zm0-3.12c2.28 0 4.08-1.66 4.08-4.16s-1.8-4.16-4.08-4.16c-2.28 0-4.08 1.66-4.08 4.16s1.8 4.16 4.08 4.16zm9.561 120.015v3.08h-3.6v10.92h-3.2v-10.92h-3.6v-3.08h10.4zm8.601 0h3.2l-4.04 9.88c-1.24 3.02-3.26 4.26-5.88 4.12v-3c1.46.14 2.26-.4 2.8-1.38l-4.48-9.62h3.2l2.74 6.12 2.46-6.12zm11.807 0h3.2v14h-3.2v-5.56h-4.4v5.56h-3.2v-14h3.2v5.36h4.4v-5.36zm13.003 14v-7.6l-5.4 7.6h-2.4v-14h3.2v7.6l5.4-7.6h2.4v14h-3.2zm11.879.28c-4.22 0-7.28-3.16-7.28-7.28s3.06-7.28 7.28-7.28c2.54 0 4.78 1.26 6 3.24l-2.76 1.6c-.62-1.08-1.82-1.72-3.24-1.72-2.48 0-4.08 1.66-4.08 4.16s1.6 4.16 4.08 4.16c1.42 0 2.64-.64 3.24-1.72l2.76 1.6c-1.2 1.98-3.44 3.24-6 3.24z" fill="#434146" fill-opacity=".7"/><path d="M1567.07 161l-.49-1.54h-3.64l-.49 1.54H1560l3.33-9.8h2.86l3.33 9.8h-2.45zm-3.46-3.64h2.3l-1.15-3.598-1.15 3.598zm11.79-6.16h2.24v9.8h-2.24v-3.892h-3.08V161h-2.24v-9.8h2.24v3.752h3.08V151.2zm9.24 0v2.156h-3.36V161h-2.24v-9.8h5.6zm4.81 9.996c-2.81 0-5.1-2.212-5.1-5.096s2.29-5.096 5.1-5.096c2.81 0 5.1 2.212 5.1 5.096s-2.29 5.096-5.1 5.096zm0-2.184c1.6 0 2.86-1.162 2.86-2.912s-1.26-2.912-2.86-2.912c-1.6 0-2.86 1.162-2.86 2.912s1.26 2.912 2.86 2.912zm4.82 1.988v-2.1c1 .154 1.62-.154 1.62-1.792V151.2h6.78v9.8h-2.24v-7.644h-2.3v3.668c0 3.5-2.06 4.172-3.86 3.976zm16.02 0l-.49-1.54h-3.64l-.49 1.54h-2.45l3.34-9.8h2.85l3.33 9.8h-2.45zm-3.45-3.64h2.29l-1.15-3.598-1.14 3.598zM780.668 88.108c2.002 0 3.36 1.218 3.36 3.08s-1.358 3.08-3.36 3.08h-3.78v-9.8h6.3v2.156h-4.06v1.484h1.54zm0 4.06c.616 0 1.12-.266 1.12-.98s-.504-.98-1.12-.98h-1.54v1.96h1.54zm10.154 2.1l-.49-1.54h-3.64l-.49 1.54h-2.45l3.332-9.8h2.857l3.331 9.8h-2.45zm-3.458-3.64h2.296l-1.148-3.598-1.148 3.598zm14.164 3.64h-2.548l-1.652-2.828-1.652 2.828h-2.548l2.926-5.026-2.786-4.774h2.548l1.512 2.59 1.512-2.59h2.548l-2.786 4.774 2.926 5.026zm4.412-9.8c1.932 0 3.43 1.498 3.43 3.36 0 1.862-1.498 3.36-3.43 3.36h-1.47v3.08h-2.24v-9.8h3.71zm0 4.62c.686 0 1.19-.546 1.19-1.26s-.504-1.26-1.19-1.26h-1.47v2.52h1.47zm6.508 3.024h3.92v2.156h-6.16v-9.8h6.09v2.156h-3.85v1.624h3.5v2.128h-3.5v1.736zm6.653-8.47v-1.82h4.2v1.82h-4.2zm3.71 10.626v-5.32l-3.78 5.32h-1.68v-9.8h2.24v5.32l3.78-5.32h1.68v9.8h-2.24zm8.959-9.8h2.24v9.8h-2.24v-3.892h-3.08v3.892h-2.24v-9.8h2.24v3.752h3.08v-3.752zm78.014 66.376c2.002 0 3.36 1.218 3.36 3.08s-1.358 3.08-3.36 3.08h-3.78v-9.8h6.3v2.156h-4.06v1.484h1.54zm0 4.06c.616 0 1.12-.266 1.12-.98s-.504-.98-1.12-.98h-1.54v1.96h1.54zm7.84-7.7c1.932 0 3.43 1.498 3.43 3.36 0 1.862-1.498 3.36-3.43 3.36h-1.47v3.08h-2.24v-9.8h3.71zm0 4.62c.686 0 1.19-.546 1.19-1.26s-.504-1.26-1.19-1.26h-1.47v2.52h1.47zm9.163-4.62h2.24l-2.827 6.916c-.869 2.114-2.283 2.982-4.117 2.884v-2.1c1.022.098 1.582-.28 1.96-.966l-3.136-6.734h2.24l1.918 4.284 1.722-4.284zm8.265 0h2.24v9.8h-2.24v-3.892h-3.08v3.892h-2.24v-9.8h2.24v3.752h3.08v-3.752zm5.883 7.644h3.92v2.156h-6.16v-9.8h6.09v2.156h-3.85v1.624h3.5v2.128h-3.5v1.736zm6.653-8.47v-1.82h4.2v1.82h-4.2zm3.71 10.626v-5.32l-3.78 5.32h-1.68v-9.8h2.24v5.32l3.78-5.32h1.68v9.8h-2.24zM791.393 279.676c.728.462 1.204 1.218 1.204 2.212 0 1.736-1.414 2.87-3.164 2.87h-4.116v-9.8h3.836c1.708 0 3.094 1.106 3.094 2.8 0 .812-.322 1.456-.854 1.918zm-2.24-2.618h-1.596v1.736h1.596c.504 0 .854-.364.854-.868s-.336-.868-.854-.868zm.28 5.6c.56 0 .924-.392.924-.938 0-.546-.364-.938-.924-.938h-1.876v1.876h1.876zm6.238-.056h3.92v2.156h-6.16v-9.8h6.09v2.156h-3.85v1.624h3.5v2.128h-3.5v1.736zm10.224-7.644h2.24v9.8h-2.24v-3.892h-3.08v3.892h-2.24v-9.8h2.24v3.752h3.08v-3.752zm5.882 7.644h3.92v2.156h-6.16v-9.8h6.09v2.156h-3.85v1.624h3.5v2.128h-3.5v1.736zm9.512 2.352c-2.954 0-5.096-2.212-5.096-5.096s2.142-5.096 5.096-5.096c1.778 0 3.346.882 4.2 2.268l-1.932 1.12c-.434-.756-1.274-1.204-2.268-1.204-1.736 0-2.856 1.162-2.856 2.912s1.12 2.912 2.856 2.912c.994 0 1.848-.448 2.268-1.204l1.932 1.12c-.84 1.386-2.408 2.268-4.2 2.268zm10.153-9.996h2.24l-2.828 6.916c-.868 2.114-2.282 2.982-4.116 2.884v-2.1c1.022.098 1.582-.28 1.96-.966l-3.136-6.734h2.24l1.918 4.284 1.722-4.284zm6.231-.196c2.954 0 5.096 2.212 5.096 5.096s-2.142 5.096-5.096 5.096c-1.792 0-3.36-.882-4.2-2.268l1.932-1.12c.42.756 1.274 1.204 2.268 1.204 1.358 0 2.338-.714 2.702-1.862h-4.004v-2.1h4.004c-.364-1.148-1.344-1.862-2.702-1.862-.994 0-1.834.448-2.268 1.204l-1.932-1.12c.854-1.386 2.422-2.268 4.2-2.268zm4.812 9.996v-2.1c1.008.154 1.624-.154 1.624-1.792v-5.908h6.776v9.8h-2.24v-7.644h-2.296v3.668c0 3.5-2.058 4.172-3.864 3.976zm16.029 0l-.49-1.54h-3.64l-.49 1.54h-2.45l3.332-9.8h2.856l3.332 9.8h-2.45zm-3.458-3.64h2.296l-1.148-3.598-1.148 3.598zm9.327 1.47l-1.12 4.13h-1.68l.56-4.13h2.24zm-304.255-70.366v2.156h-3.36v7.644h-2.24v-9.8h5.6zm5.805 9.8l-.49-1.54h-3.64l-.49 1.54h-2.45l3.332-9.8h2.856l3.332 9.8h-2.45zm-3.458-3.64h2.296l-1.148-3.598-1.148 3.598zm11.783-6.16h2.24v9.8h-2.24v-3.892h-3.08v3.892h-2.24v-9.8h2.24v3.752h3.08v-3.752zm9.872 9.8l-.49-1.54H580l-.49 1.54h-2.45l3.332-9.8h2.856l3.332 9.8h-2.45zm-3.458-3.64h2.296l-1.148-3.598-1.148 3.598zm75.791 168.36v2.156h-3.36v7.644h-2.24v-9.8h5.6zm6.773 4.718c.728.462 1.204 1.218 1.204 2.212 0 1.736-1.414 2.87-3.164 2.87h-4.116v-9.8h3.836c1.708 0 3.094 1.106 3.094 2.8 0 .812-.322 1.456-.854 1.918zm-2.24-2.618H659.4v1.736h1.596c.504 0 .854-.364.854-.868s-.336-.868-.854-.868zm.28 5.6c.56 0 .924-.392.924-.938 0-.546-.364-.938-.924-.938H659.4v1.876h1.876zm10.228 2.1l-.49-1.54h-3.64l-.49 1.54h-2.45l3.332-9.8h2.856l3.332 9.8h-2.45zm-3.458-3.64h2.296l-1.148-3.598-1.148 3.598zm12.347-6.16v2.156h-2.52v7.644h-2.24v-7.644h-2.521v-2.156h7.281zm2.94 7.644h3.92v2.156h-6.16v-9.8h6.09v2.156h-3.85v1.624h3.5v2.128h-3.5v1.736zm14.704-7.644v9.8h-2.24v-5.698l-2.534 4.158h-.252l-2.534-4.158v5.698h-2.24v-9.8h2.24l2.66 4.354 2.66-4.354h2.24zm7.634 9.8l-.49-1.54h-3.64l-.49 1.54h-2.45l3.332-9.8h2.856l3.332 9.8h-2.45zm-3.458-3.64h2.296l-1.148-3.598-1.148 3.598zm5.901 3.64v-2.1c1.008.154 1.624-.154 1.624-1.792v-5.908h6.776v9.8h-2.24v-7.644h-2.296v3.668c0 3.5-2.058 4.172-3.864 3.976zm16.029 0l-.49-1.54h-3.64l-.49 1.54h-2.45l3.332-9.8h2.856l3.332 9.8h-2.45zm-3.458-3.64h2.296l-1.148-3.598-1.148 3.598zm385.715-22.129v2.156h-3.36v7.644h-2.24v-9.8h5.6zm6.77 4.718c.73.462 1.21 1.218 1.21 2.212 0 1.736-1.42 2.87-3.17 2.87h-4.11v-9.8h3.83c1.71 0 3.1 1.106 3.1 2.8 0 .812-.32 1.456-.86 1.918zm-2.24-2.618h-1.59v1.736h1.59c.51 0 .86-.364.86-.868s-.34-.868-.86-.868zm.28 5.6c.56 0 .93-.392.93-.938 0-.546-.37-.938-.93-.938h-1.87v1.876h1.87zm9.46 2.1v-5.32l-3.78 5.32h-1.68v-9.8h2.24v5.32l3.78-5.32h1.68v9.8h-2.24zm8.96-9.8h2.24v9.8h-2.24v-3.892h-3.08v3.892h-2.24v-9.8h2.24v3.752h3.08v-3.752zm5.88 7.644h3.92v2.156h-6.16v-9.8h6.09v2.156h-3.85v1.624h3.5v2.128h-3.5v1.736zm11.98-7.644v9.8h-2.24v-3.22h-.72l-2.08 3.22h-2.52l2.29-3.5c-1.19-.504-2.01-1.666-2.01-2.94 0-1.862 1.49-3.36 3.36-3.36h3.92zm-3.92 4.62h1.68v-2.52h-1.68c-.62 0-1.12.546-1.12 1.26s.5 1.26 1.12 1.26zM994.165 224.428h1.05v4.032h-2.24v-1.876h-4.9v1.876h-2.24v-4.032h.994c.448-.644.77-1.582.77-3.248v-4.396h6.566v7.644zm-4.956 0h2.716v-5.544h-2.086v2.324c0 1.61-.28 2.59-.63 3.22zm11.451 2.352c-2.81 0-5.092-2.212-5.092-5.096s2.282-5.096 5.092-5.096c2.82 0 5.1 2.212 5.1 5.096s-2.28 5.096-5.1 5.096zm0-2.184c1.6 0 2.86-1.162 2.86-2.912s-1.26-2.912-2.86-2.912c-1.592 0-2.852 1.162-2.852 2.912s1.26 2.912 2.852 2.912zm15.88-7.812v9.8h-2.24v-5.698l-2.53 4.158h-.26l-2.53-4.158v5.698h-2.24v-9.8h2.24l2.66 4.354 2.66-4.354h2.24zm6.87 9.8v-5.32l-3.78 5.32h-1.68v-9.8h2.24v5.32l3.78-5.32h1.68v9.8h-2.24zm8.95-9.8h2.24v9.8h-2.24v-3.892h-3.08v3.892h-2.24v-9.8h2.24v3.752h3.08v-3.752zm9.11 9.8v-5.32l-3.78 5.32h-1.68v-9.8h2.24v5.32l3.78-5.32h1.68v9.8h-2.24zm11.56 0h-2.55l-3.13-4.536v4.536h-2.24v-9.8h2.24v4.256l2.99-4.256h2.55l-3.3 4.774 3.44 5.026zm7.06 0l-.49-1.54h-3.64l-.49 1.54h-2.45l3.33-9.8h2.86l3.33 9.8h-2.45zm-3.46-3.64h2.3l-1.15-3.598-1.15 3.598zm11.79-6.16h2.24v9.8h-2.24v-3.892h-3.08v3.892h-2.24v-9.8h2.24v3.752h3.08v-3.752zm11.56 9.8h-2.54l-3.14-4.536v4.536h-2.24v-9.8h2.24v4.256l3-4.256h2.54l-3.3 4.774 3.44 5.026zm7.07 0l-.49-1.54h-3.64l-.49 1.54h-2.45l3.33-9.8h2.86l3.33 9.8h-2.45zm-3.46-3.64h2.3l-1.15-3.598-1.15 3.598zm198.76 84.627h-2.55l-3.13-4.536v4.536h-2.24v-9.8h2.24v4.256l2.99-4.256h2.55l-3.3 4.774 3.44 5.026zm6.02 0v-5.32l-3.78 5.32h-1.68v-9.8h2.24v5.32l3.78-5.32h1.68v9.8h-2.24zm11.06-9.8v9.8h-2.24v-7.644h-2.94v7.644h-2.24v-9.8h7.42zm5.11 0c1.94 0 3.43 1.498 3.43 3.36 0 1.862-1.49 3.36-3.43 3.36h-1.47v3.08h-2.24v-9.8h3.71zm0 4.62c.69 0 1.19-.546 1.19-1.26s-.5-1.26-1.19-1.26h-1.47v2.52h1.47zm12.95 5.18v-5.32l-3.78 5.32h-1.68v-9.8h2.24v5.32l3.78-5.32h1.68v9.8h-2.24zm8.32.196c-2.82 0-5.1-2.212-5.1-5.096s2.28-5.096 5.1-5.096c2.81 0 5.09 2.212 5.09 5.096s-2.28 5.096-5.09 5.096zm0-2.184c1.59 0 2.85-1.162 2.85-2.912s-1.26-2.912-2.85-2.912c-1.6 0-2.86 1.162-2.86 2.912s1.26 2.912 2.86 2.912zm9.78-7.812c1.94 0 3.43 1.498 3.43 3.36 0 1.862-1.49 3.36-3.43 3.36h-1.47v3.08h-2.24v-9.8h3.71zm0 4.62c.69 0 1.19-.546 1.19-1.26s-.5-1.26-1.19-1.26h-1.47v2.52h1.47zm11.27 3.024h1.05v4.032h-2.24v-1.876h-4.9v1.876h-2.24v-4.032h1c.45-.644.77-1.582.77-3.248v-4.396h6.56v7.644zm-4.95 0h2.71v-5.544h-2.08v2.324c0 1.61-.28 2.59-.63 3.22zm13.21 2.156l-.49-1.54h-3.64l-.49 1.54h-2.45l3.33-9.8h2.86l3.33 9.8h-2.45zm-3.46-3.64h2.3l-1.15-3.598-1.15 3.598zm11.79-6.16h2.24v9.8h-2.24v-3.892h-3.08v3.892h-2.24v-9.8h2.24v3.752h3.08v-3.752zm9.1 9.8v-5.32l-3.78 5.32h-1.68v-9.8h2.24v5.32l3.78-5.32h1.68v9.8h-2.24zm10.71-9.8v9.8h-2.24v-3.22h-.72l-2.08 3.22h-2.52l2.29-3.5c-1.19-.504-2.01-1.666-2.01-2.94 0-1.862 1.5-3.36 3.36-3.36h3.92zm-3.92 4.62h1.68v-2.52h-1.68c-.62 0-1.12.546-1.12 1.26s.5 1.26 1.12 1.26zm-387.415 94.151v-5.32l-3.78 5.32h-1.68v-9.8h2.24v5.32l3.78-5.32h1.68v9.8h-2.24zm7.349-9.8c1.936 0 3.426 1.498 3.426 3.36 0 1.862-1.49 3.36-3.426 3.36h-1.47v3.08h-2.24v-9.8h3.71zm0 4.62c.686 0 1.186-.546 1.186-1.26s-.5-1.26-1.186-1.26h-1.47v2.52h1.47zm2.866 5.18v-2.1c1.01.154 1.63-.154 1.63-1.792v-5.908h6.77v9.8h-2.24v-7.644h-2.29v3.668c0 3.5-2.06 4.172-3.87 3.976zm16.03 0l-.49-1.54h-3.64l-.49 1.54h-2.45l3.34-9.8h2.85l3.33 9.8h-2.45zm-3.45-3.64h2.29l-1.15-3.598-1.14 3.598zm11.78-6.16h2.24v9.8h-2.24v-3.892h-3.08v3.892h-2.24v-9.8h2.24v3.752h3.08v-3.752zm11.34 7.644h1.05v4.032h-2.24v-1.876h-4.9v1.876h-2.24v-4.032h1c.44-.644.77-1.582.77-3.248v-4.396h6.56v7.644zm-4.95 0h2.71v-5.544h-2.08v2.324c0 1.61-.28 2.59-.63 3.22zm12.37 2.156v-5.32l-3.78 5.32h-1.68v-9.8h2.24v5.32l3.78-5.32h1.68v9.8h-2.24zm10.71-9.8v9.8h-2.24v-3.22h-.71l-2.09 3.22h-2.52l2.3-3.5c-1.19-.504-2.02-1.666-2.02-2.94 0-1.862 1.5-3.36 3.36-3.36h3.92zm-3.92 4.62h1.68v-2.52h-1.68c-.62 0-1.12.546-1.12 1.26s.5 1.26 1.12 1.26zm-68.247 110.121h-2.548l-3.136-4.536v4.536h-2.24v-9.8h2.24v4.256l2.996-4.256h2.548l-3.304 4.774 3.444 5.026zm7.063 0l-.49-1.54h-3.64l-.49 1.54h-2.45l3.332-9.8h2.856l3.332 9.8h-2.45zm-3.458-3.64h2.296l-1.148-3.598-1.148 3.598zm16.262-6.16v9.8h-2.24v-5.698l-2.532 4.158h-.252l-2.534-4.158v5.698h-2.24v-9.8h2.24l2.66 4.354 2.658-4.354h2.24zm3.65 7.644h3.92v2.156h-6.16v-9.8h6.09v2.156h-3.85v1.624h3.5v2.128h-3.5v1.736zm8.61-7.644c1.93 0 3.43 1.498 3.43 3.36 0 1.862-1.5 3.36-3.43 3.36h-1.47v3.08h-2.24v-9.8h3.71zm0 4.62c.69 0 1.19-.546 1.19-1.26s-.5-1.26-1.19-1.26h-1.47v2.52h1.47zm9.16-4.62h2.24l-2.82 6.916c-.87 2.114-2.29 2.982-4.12 2.884v-2.1c1.02.098 1.58-.28 1.96-.966l-3.14-6.734h2.24l1.92 4.284 1.72-4.284zm8.27 0h2.24v9.8h-2.24v-3.892h-3.08v3.892h-2.24v-9.8h2.24v3.752h3.08v-3.752zm71.13-5.029h-2.55l-3.13-4.536v4.536h-2.24v-9.8h2.24v4.256l2.99-4.256h2.55l-3.3 4.774 3.44 5.026zm5.61-9.8h2.24l-2.83 6.916c-.87 2.114-2.28 2.982-4.12 2.884v-2.1c1.02.098 1.58-.28 1.96-.966l-3.13-6.734h2.24l1.91 4.284 1.73-4.284zm9.02 4.718c.73.462 1.2 1.218 1.2 2.212 0 1.736-1.41 2.87-3.16 2.87h-4.12v-9.8h3.84c1.71 0 3.09 1.106 3.09 2.8 0 .812-.32 1.456-.85 1.918zm-2.24-2.618h-1.6v1.736h1.6c.5 0 .85-.364.85-.868s-.33-.868-.85-.868zm.28 5.6c.56 0 .92-.392.92-.938 0-.546-.36-.938-.92-.938h-1.88v1.876h1.88zm6.24-.056h3.92v2.156h-6.16v-9.8h6.09v2.156h-3.85v1.624h3.5v2.128h-3.5v1.736zm6.65-8.47v-1.82h4.2v1.82h-4.2zm3.71 10.626v-5.32l-3.78 5.32h-1.68v-9.8h2.24v5.32l3.78-5.32h1.68v9.8h-2.24zm10.22-9.8v2.156h-2.52v7.644h-2.24v-7.644h-2.52v-2.156h7.28zm-677.979-81.452v-2.1c1.008.154 1.624-.154 1.624-1.792v-5.908h6.776v9.8h-2.24v-7.644h-2.296v3.668c0 3.5-2.058 4.172-3.864 3.976zm16.029 0l-.49-1.54h-3.64l-.49 1.54h-2.45l3.332-9.8h2.856l3.332 9.8h-2.45zm-3.458-3.64h2.296l-1.148-3.598-1.148 3.598zm10.784 3.836c-2.814 0-5.096-2.212-5.096-5.096s2.282-5.096 5.096-5.096 5.096 2.212 5.096 5.096-2.282 5.096-5.096 5.096zm0-2.184c1.596 0 2.856-1.162 2.856-2.912s-1.26-2.912-2.856-2.912c-1.596 0-2.856 1.162-2.856 2.912s1.26 2.912 2.856 2.912zm10.753 2.184c-2.954 0-5.096-2.212-5.096-5.096s2.142-5.096 5.096-5.096c1.778 0 3.346.882 4.2 2.268l-1.932 1.12c-.434-.756-1.274-1.204-2.268-1.204-1.736 0-2.856 1.162-2.856 2.912s1.12 2.912 2.856 2.912c.994 0 1.848-.448 2.268-1.204l1.932 1.12c-.84 1.386-2.408 2.268-4.2 2.268zm-74.383-78.901v-2.1c1.008.154 1.624-.154 1.624-1.792v-5.908h6.776v9.8h-2.24v-7.644h-2.296v3.668c0 3.5-2.058 4.172-3.864 3.976zm15.259 0v-5.32l-3.78 5.32h-1.68v-9.8h2.24v5.32l3.78-5.32h1.68v9.8h-2.24zm9.715-5.082c.728.462 1.204 1.218 1.204 2.212 0 1.736-1.414 2.87-3.164 2.87h-4.116v-9.8h3.836c1.708 0 3.094 1.106 3.094 2.8 0 .812-.322 1.456-.854 1.918zm-2.24-2.618h-1.596v1.736h1.596c.504 0 .854-.364.854-.868s-.336-.868-.854-.868zm.28 5.6c.56 0 .924-.392.924-.938 0-.546-.364-.938-.924-.938h-1.876v1.876h1.876zm10.228 2.1l-.49-1.54h-3.64l-.49 1.54h-2.45l3.332-9.8h2.856l3.332 9.8h-2.45zm-3.458-3.64h2.296l-1.148-3.598-1.148 3.598zm11.784-6.16h2.24v9.8h-2.24v-3.892h-3.08v3.892h-2.24v-9.8h2.24v3.752h3.08v-3.752zm-74.388-26.701v-2.1c1.008.154 1.624-.154 1.624-1.792v-5.908h6.776v9.8h-2.24v-7.644h-2.296v3.668c0 3.5-2.058 4.172-3.864 3.976zm15.259 0v-5.32l-3.78 5.32h-1.68v-9.8h2.24v5.32l3.78-5.32h1.68v9.8h-2.24zm9.714-5.082c.728.462 1.204 1.218 1.204 2.212 0 1.736-1.414 2.87-3.164 2.87h-4.116v-9.8h3.836c1.708 0 3.094 1.106 3.094 2.8 0 .812-.322 1.456-.854 1.918zm-2.24-2.618h-1.596v1.736h1.596c.504 0 .854-.364.854-.868s-.336-.868-.854-.868zm.28 5.6c.56 0 .924-.392.924-.938 0-.546-.364-.938-.924-.938h-1.876v1.876h1.876zm9.459 2.1v-5.32l-3.78 5.32h-1.68v-9.8h2.24v5.32l3.78-5.32h1.68v9.8h-2.24zm10.709-9.8v9.8h-2.24v-3.22h-.714l-2.086 3.22h-2.52l2.296-3.5c-1.19-.504-2.016-1.666-2.016-2.94a3.352 3.352 0 013.36-3.36h3.92zm-3.92 4.62h1.68v-2.52h-1.68c-.616 0-1.12.546-1.12 1.26s.504 1.26 1.12 1.26zM150.468 501.483v-2.1c1.008.154 1.624-.154 1.624-1.792v-5.908h6.776v9.8h-2.24v-7.644h-2.296v3.668c0 3.5-2.058 4.172-3.864 3.976zm15.259 0v-5.32l-3.78 5.32h-1.68v-9.8h2.24v5.32l3.78-5.32h1.68v9.8h-2.24zm9.715-5.082c.728.462 1.204 1.218 1.204 2.212 0 1.736-1.414 2.87-3.164 2.87h-4.116v-9.8h3.836c1.708 0 3.094 1.106 3.094 2.8 0 .812-.322 1.456-.854 1.918zm-2.24-2.618h-1.596v1.736h1.596c.504 0 .854-.364.854-.868s-.336-.868-.854-.868zm.28 5.6c.56 0 .924-.392.924-.938 0-.546-.364-.938-.924-.938h-1.876v1.876h1.876zm9.458 2.1v-5.32l-3.78 5.32h-1.68v-9.8h2.24v5.32l3.78-5.32h1.68v9.8h-2.24zm10.709-9.8v9.8h-2.24v-3.22h-.714l-2.086 3.22h-2.52l2.296-3.5c-1.19-.504-2.016-1.666-2.016-2.94a3.352 3.352 0 013.36-3.36h3.92zm-3.92 4.62h1.68v-2.52h-1.68c-.616 0-1.12.546-1.12 1.26s.504 1.26 1.12 1.26zM123.962 123.25v9.8h-2.24v-5.698l-2.534 4.158h-.252l-2.534-4.158v5.698h-2.24v-9.8h2.24l2.66 4.354 2.66-4.354h2.24zm7.634 9.8l-.49-1.54h-3.64l-.49 1.54h-2.45l3.332-9.8h2.856l3.332 9.8h-2.45zm-3.458-3.64h2.296l-1.148-3.598-1.148 3.598zm12.54-1.442c.728.462 1.204 1.218 1.204 2.212 0 1.736-1.414 2.87-3.164 2.87h-4.116v-9.8h3.836c1.708 0 3.094 1.106 3.094 2.8 0 .812-.322 1.456-.854 1.918zm-2.24-2.618h-1.596v1.736h1.596c.504 0 .854-.364.854-.868s-.336-.868-.854-.868zm.28 5.6c.56 0 .924-.392.924-.938 0-.546-.364-.938-.924-.938h-1.876v1.876h1.876zm7.708-7.7c1.932 0 3.43 1.498 3.43 3.36 0 1.862-1.498 3.36-3.43 3.36h-1.47v3.08h-2.24v-9.8h3.71zm0 4.62c.686 0 1.19-.546 1.19-1.26s-.504-1.26-1.19-1.26h-1.47v2.52h1.47zm9.728 5.18v-5.32l-3.78 5.32h-1.68v-9.8h2.24v5.32l3.78-5.32h1.68v9.8h-2.24zm11.563 0h-2.548l-3.136-4.536v4.536h-2.24v-9.8h2.24v4.256l2.996-4.256h2.548l-3.304 4.774 3.444 5.026zm6.019 0v-5.32l-3.78 5.32h-1.68v-9.8h2.24v5.32l3.78-5.32h1.68v9.8h-2.24zm5.389-10.626v-1.82h4.2v1.82h-4.2zm3.71 10.626v-5.32l-3.78 5.32h-1.68v-9.8h2.24v5.32l3.78-5.32h1.68v9.8h-2.24zm.368 137.346v9.8h-2.24v-5.698l-2.534 4.158h-.252l-2.534-4.158v5.698h-2.24v-9.8h2.24l2.66 4.354 2.66-4.354h2.24zm7.634 9.8l-.49-1.54h-3.64l-.49 1.54h-2.45l3.332-9.8h2.856l3.332 9.8h-2.45zm-3.458-3.64h2.296l-1.148-3.598-1.148 3.598zm14.232 1.484h1.05v4.032h-2.24v-1.876h-4.9v1.876h-2.24v-4.032h.994c.448-.644.77-1.582.77-3.248v-4.396h6.566v7.644zm-4.956 0h2.716v-5.544h-2.086v2.324c0 1.61-.28 2.59-.63 3.22zm13.214 2.156l-.49-1.54h-3.64l-.49 1.54h-2.45l3.332-9.8h2.856l3.332 9.8h-2.45zm-3.458-3.64h2.296l-1.148-3.598-1.148 3.598zm12.063-6.16v2.156h-3.36v7.644h-2.24v-9.8h5.6zm5.805 9.8l-.49-1.54h-3.64l-.49 1.54h-2.45l3.332-9.8h2.856l3.332 9.8h-2.45zm-3.458-3.64h2.296l-1.148-3.598-1.148 3.598zm10.785 3.836c-2.954 0-5.096-2.212-5.096-5.096s2.142-5.096 5.096-5.096c1.778 0 3.346.882 4.2 2.268l-1.932 1.12c-.434-.756-1.274-1.204-2.268-1.204-1.736 0-2.856 1.162-2.856 2.912s1.12 2.912 2.856 2.912c.994 0 1.848-.448 2.268-1.204l1.932 1.12c-.84 1.386-2.408 2.268-4.2 2.268zm12.893-.196h-2.548l-3.136-4.536v4.536h-2.24v-9.8h2.24v4.256l2.996-4.256h2.548l-3.304 4.774 3.444 5.026zm7.063 0l-.49-1.54h-3.64l-.49 1.54h-2.45l3.332-9.8h2.856l3.332 9.8h-2.45zm-3.458-3.64h2.296l-1.148-3.598-1.148 3.598zm10.174-6.16c1.932 0 3.43 1.498 3.43 3.36 0 1.862-1.498 3.36-3.43 3.36h-1.47v3.08h-2.24v-9.8h3.71zm0 4.62c.686 0 1.19-.546 1.19-1.26s-.504-1.26-1.19-1.26h-1.47v2.52h1.47zM271.64 119.2v9.8h-2.24v-5.698l-2.534 4.158h-.252l-2.534-4.158V129h-2.24v-9.8h2.24l2.66 4.354 2.66-4.354h2.24zm7.634 9.8l-.49-1.54h-3.64l-.49 1.54h-2.45l3.332-9.8h2.856l3.332 9.8h-2.45zm-3.458-3.64h2.296l-1.148-3.598-1.148 3.598zm5.901 3.64v-2.1c1.008.154 1.624-.154 1.624-1.792V119.2h6.776v9.8h-2.24v-7.644h-2.296v3.668c0 3.5-2.058 4.172-3.864 3.976zm13.509-6.72c1.932 0 3.43 1.498 3.43 3.36 0 1.862-1.498 3.36-3.43 3.36h-3.71v-9.8h2.24v3.08h1.47zm0 4.62c.686 0 1.19-.546 1.19-1.26s-.504-1.26-1.19-1.26h-1.47v2.52h1.47zm9.726-7.7v2.156h-2.52V129h-2.24v-7.644h-2.52V119.2h7.28zm6.234 9.8l-.49-1.54h-3.64l-.49 1.54h-2.45l3.332-9.8h2.856l3.332 9.8h-2.45zm-3.458-3.64h2.296l-1.148-3.598-1.148 3.598zm284.94 11.578h2.24v9.8h-2.24v-3.892h-3.08v3.892h-2.24v-9.8h2.24v3.752h3.08v-3.752zm5.882 7.644h3.92v2.156h-6.16v-9.8h6.09v2.156h-3.85v1.624h3.5v2.128h-3.5v1.736zm12.324-7.644v9.8h-2.24v-7.644h-2.94v7.644h-2.24v-9.8h7.42zm7.635 9.8l-.49-1.54h-3.64l-.49 1.54h-2.45l3.332-9.8h2.856l3.332 9.8h-2.45zm-3.458-3.64h2.296l-1.148-3.598-1.148 3.598zm5.901 3.64v-2.1c1.008.154 1.624-.154 1.624-1.792v-5.908h6.776v9.8h-2.24v-7.644h-2.296v3.668c0 3.5-2.058 4.172-3.864 3.976zm276.614-53.145h2.24v9.8h-2.24v-3.892h-3.08v3.892h-2.24v-9.8h2.24v3.752h3.08v-3.752zm9.102 9.8v-5.32l-3.78 5.32h-1.68v-9.8h2.24v5.32l3.78-5.32h1.68v9.8h-2.24zm9.239-9.8v2.156h-3.36v7.644h-2.24v-9.8h5.6zm2.937 7.644h3.92v2.156h-6.16v-9.8h6.09v2.156h-3.85v1.624h3.5v2.128h-3.5v1.736zm8.613-7.644c1.932 0 3.43 1.498 3.43 3.36 0 1.862-1.498 3.36-3.43 3.36h-1.47v3.08h-2.24v-9.8h3.71zm0 4.62c.686 0 1.19-.546 1.19-1.26s-.504-1.26-1.19-1.26h-1.47v2.52h1.47zM242.246 25.154h2.24v9.8h-2.24v-3.892h-3.08v3.892h-2.24v-9.8h2.24v3.752h3.08v-3.752zm9.102 9.8v-5.32l-3.78 5.32h-1.68v-9.8h2.24v5.32l3.78-5.32h1.68v9.8h-2.24zm9.239-9.8v2.156h-3.36v7.644h-2.24v-9.8h5.6zm2.936 7.644h3.92v2.156h-6.16v-9.8h6.09v2.156h-3.85v1.624h3.5v2.128h-3.5v1.736zm8.614-7.644c1.932 0 3.43 1.498 3.43 3.36 0 1.862-1.498 3.36-3.43 3.36h-1.47v3.08h-2.24v-9.8h3.71zm0 4.62c.686 0 1.19-.546 1.19-1.26s-.504-1.26-1.19-1.26h-1.47v2.52h1.47zm9.728 5.18v-5.32l-3.78 5.32h-1.68v-9.8h2.24v5.32l3.78-5.32h1.68v9.8h-2.24zm10.709-9.8v9.8h-2.24v-3.22h-.714l-2.086 3.22h-2.52l2.296-3.5c-1.19-.504-2.016-1.666-2.016-2.94a3.352 3.352 0 013.36-3.36h3.92zm-3.92 4.62h1.68v-2.52h-1.68c-.616 0-1.12.546-1.12 1.26s.504 1.26 1.12 1.26zM836.16 16.2h2.24V26h-2.24v-3.892h-3.08V26h-2.24v-9.8h2.24v3.752h3.08V16.2zm8.318 9.996c-2.814 0-5.096-2.212-5.096-5.096s2.282-5.096 5.096-5.096 5.096 2.212 5.096 5.096-2.282 5.096-5.096 5.096zm0-2.184c1.596 0 2.856-1.162 2.856-2.912s-1.26-2.912-2.856-2.912c-1.596 0-2.856 1.162-2.856 2.912s1.26 2.912 2.856 2.912zm12.153-3.094c.728.462 1.204 1.218 1.204 2.212 0 1.736-1.414 2.87-3.164 2.87h-4.116v-9.8h3.836c1.708 0 3.094 1.106 3.094 2.8 0 .812-.322 1.456-.854 1.918zm-2.24-2.618h-1.596v1.736h1.596c.504 0 .854-.364.854-.868s-.336-.868-.854-.868zm.28 5.6c.56 0 .924-.392.924-.938 0-.546-.364-.938-.924-.938h-1.876V23.9h1.876zM864.9 26l-.49-1.54h-3.64l-.49 1.54h-2.45l3.332-9.8h2.856l3.332 9.8h-2.45zm-3.458-3.64h2.296l-1.148-3.598-1.148 3.598zm13.67-6.16V26h-2.24v-3.22h-.714L870.072 26h-2.52l2.296-3.5c-1.19-.504-2.016-1.666-2.016-2.94a3.352 3.352 0 013.36-3.36h3.92zm-3.92 4.62h1.68V18.3h-1.68c-.616 0-1.12.546-1.12 1.26s.504 1.26 1.12 1.26zm13.93.112c.826.462 1.33 1.246 1.33 2.296 0 1.834-1.568 2.968-3.626 2.968-2.016 0-3.15-.938-3.724-2.324l1.932-1.106c.252.756.742 1.33 1.792 1.33.938 0 1.386-.392 1.386-1.036s-.462-1.036-1.4-1.036h-1.246v-1.988h.966c.882 0 1.33-.364 1.33-.966s-.336-.966-1.134-.966c-.868 0-1.302.518-1.554 1.12l-1.918-1.106c.602-1.204 1.652-2.114 3.472-2.114 1.946 0 3.374 1.106 3.374 2.898 0 .882-.364 1.554-.98 2.03zm4.404 2.912h3.92V26h-6.16v-9.8h6.09v2.156h-3.85v1.624h3.5v2.128h-3.5v1.736zM893.73 26v-2.1c1.008.154 1.624-.154 1.624-1.792V16.2h6.776V26h-2.24v-7.644h-2.296v3.668c0 3.5-2.058 4.172-3.864 3.976zm16.029 0l-.49-1.54h-3.64l-.49 1.54h-2.45l3.332-9.8h2.856l3.332 9.8h-2.45zm-3.458-3.64h2.296l-1.148-3.598-1.148 3.598zm11.784-6.16h2.24V26h-2.24v-3.892h-3.08V26h-2.24v-9.8h2.24v3.752h3.08V16.2zm11.342 7.644h1.05v4.032h-2.24V26h-4.9v1.876h-2.24v-4.032h.994c.448-.644.77-1.582.77-3.248V16.2h6.566v7.644zm-4.956 0h2.716V18.3h-2.086v2.324c0 1.61-.28 2.59-.63 3.22zM936.846 26v-5.32l-3.78 5.32h-1.68v-9.8h2.24v5.32l3.78-5.32h1.68V26h-2.24zm10.709-9.8V26h-2.24v-3.22h-.714L942.515 26h-2.52l2.296-3.5c-1.19-.504-2.016-1.666-2.016-2.94a3.352 3.352 0 013.36-3.36h3.92zm-3.92 4.62h1.68V18.3h-1.68c-.616 0-1.12.546-1.12 1.26s.504 1.26 1.12 1.26zM276.42 492.2v2.156h-2.52V502h-2.24v-7.644h-2.52V492.2h7.28zm6.233 9.8l-.49-1.54h-3.64l-.49 1.54h-2.45l3.332-9.8h2.856l3.332 9.8h-2.45zm-3.458-3.64h2.296l-1.148-3.598-1.148 3.598zm11.784-6.16h2.24v9.8h-2.24v-3.892h-3.08V502h-2.24v-9.8h2.24v3.752h3.08V492.2zm8.895 4.732c.826.462 1.33 1.246 1.33 2.296 0 1.834-1.568 2.968-3.626 2.968-2.016 0-3.15-.938-3.724-2.324l1.932-1.106c.252.756.742 1.33 1.792 1.33.938 0 1.386-.392 1.386-1.036s-.462-1.036-1.4-1.036h-1.246v-1.988h.966c.882 0 1.33-.364 1.33-.966s-.336-.966-1.134-.966c-.868 0-1.302.518-1.554 1.12l-1.918-1.106c.602-1.204 1.652-2.114 3.472-2.114 1.946 0 3.374 1.106 3.374 2.898 0 .882-.364 1.554-.98 2.03zm8.394 5.068l-.49-1.54h-3.64l-.49 1.54h-2.45l3.332-9.8h2.856l3.332 9.8h-2.45zm-3.458-3.64h2.296l-1.148-3.598-1.148 3.598zm11.784-6.16h2.24v9.8h-2.24v-3.892h-3.08V502h-2.24v-9.8h2.24v3.752h3.08V492.2zm9.102 9.8v-5.32l-3.78 5.32h-1.68v-9.8h2.24v5.32l3.78-5.32h1.68v9.8h-2.24zm10.709-9.8v9.8h-2.24v-3.22h-.714l-2.086 3.22h-2.52l2.296-3.5c-1.19-.504-2.016-1.666-2.016-2.94a3.352 3.352 0 013.36-3.36h3.92zm-3.92 4.62h1.68v-2.52h-1.68c-.616 0-1.12.546-1.12 1.26s.504 1.26 1.12 1.26zm543.902-110.078h2.24l-2.828 6.916c-.868 2.114-2.282 2.982-4.116 2.884v-2.1c1.022.098 1.582-.28 1.96-.966l-3.136-6.734h2.24l1.918 4.284 1.722-4.284zm6.654 0c1.932 0 3.43 1.498 3.43 3.36 0 1.862-1.498 3.36-3.43 3.36h-1.47v3.08h-2.24v-9.8h3.71zm0 4.62c.686 0 1.19-.546 1.19-1.26s-.504-1.26-1.19-1.26h-1.47v2.52h1.47zm9.164-4.62h2.24l-2.828 6.916c-.868 2.114-2.282 2.982-4.116 2.884v-2.1c1.022.098 1.582-.28 1.96-.966l-3.136-6.734h2.24l1.918 4.284 1.722-4.284zm8.545 0v2.156h-3.36v7.644h-2.24v-9.8h5.6zm6.773 4.718c.728.462 1.204 1.218 1.204 2.212 0 1.736-1.414 2.87-3.164 2.87h-4.116v-9.8h3.836c1.708 0 3.094 1.106 3.094 2.8 0 .812-.322 1.456-.854 1.918zm-2.24-2.618h-1.596v1.736h1.596c.504 0 .854-.364.854-.868s-.336-.868-.854-.868zm.28 5.6c.56 0 .924-.392.924-.938 0-.546-.364-.938-.924-.938h-1.876v1.876h1.876zm10.228 2.1l-.49-1.54h-3.64l-.49 1.54h-2.45l3.332-9.8h2.856l3.332 9.8h-2.45zm-3.458-3.64h2.296l-1.148-3.598-1.148 3.598zm8.214-6.986v-1.82h4.2v1.82h-4.2zm3.71 10.626v-5.32l-3.78 5.32h-1.68v-9.8h2.24v5.32l3.78-5.32h1.68v9.8h-2.24zm314.003-60.792c0 2.226-1.74 3.71-4.4 4.032v1.148h-2.18v-1.148c-2.66-.322-4.4-1.806-4.4-4.032s1.74-3.71 4.4-4.032v-1.148h2.18v1.148c2.66.322 4.4 1.806 4.4 4.032zm-8.74 0c0 1.12.7 1.778 2.16 1.974v-3.948c-1.46.196-2.16.854-2.16 1.974zm4.34 1.974c1.46-.196 2.16-.854 2.16-1.974s-.7-1.778-2.16-1.974v3.948zm10.7 2.926v-5.32l-3.78 5.32h-1.68v-9.8h2.24v5.32l3.78-5.32h1.68v9.8h-2.24zm2.94 0v-2.1c1.01.154 1.62-.154 1.62-1.792v-5.908h6.78v9.8h-2.24v-7.644h-2.3v3.668c0 3.5-2.06 4.172-3.86 3.976zm15.26 0v-5.32l-3.78 5.32h-1.68v-9.8h2.24v5.32l3.78-5.32h1.68v9.8h-2.24zm11.06-9.8v9.8h-2.24v-7.644h-2.94v7.644h-2.24v-9.8h7.42zm8.82 0v9.8h-2.24v-7.644h-2.94v7.644h-2.24v-9.8h7.42zm6.87 9.8v-5.32l-3.78 5.32h-1.68v-9.8h2.24v5.32l3.78-5.32h1.68v9.8h-2.24zm8.96-9.8h2.24v9.8h-2.24v-3.892h-3.08v3.892h-2.24v-9.8h2.24v3.752h3.08v-3.752zm3.64 9.8v-9.8h2.24v3.08h1.47c1.93 0 3.43 1.498 3.43 3.36 0 1.862-1.5 3.36-3.43 3.36h-3.71zm7.98 0v-9.8h2.24v9.8h-2.24zm-5.74-2.1h1.47c.68 0 1.19-.546 1.19-1.26s-.51-1.26-1.19-1.26h-1.47v2.52zM556.318 39.982h2.24v9.8h-2.24v-3.416a4.508 4.508 0 01-1.666.308c-1.946 0-3.514-1.134-3.514-3.192v-3.5h2.24v3.164c0 .91.56 1.372 1.33 1.372.602 0 1.106-.098 1.61-.322v-4.214zm9.097 9.8v-5.32l-3.78 5.32h-1.68v-9.8h2.24v5.32l3.78-5.32h1.68v9.8h-2.24zm2.938 0v-2.1c1.008.154 1.624-.154 1.624-1.792v-5.908h6.776v9.8h-2.24v-7.644h-2.296v3.668c0 3.5-2.058 4.172-3.864 3.976zm15.259 0v-5.32l-3.78 5.32h-1.68v-9.8h2.24v5.32l3.78-5.32h1.68v9.8h-2.24zM230.05 376.28c2.954 0 5.096 2.212 5.096 5.096s-2.142 5.096-5.096 5.096c-1.792 0-3.36-.882-4.2-2.268l1.932-1.12c.42.756 1.274 1.204 2.268 1.204 1.358 0 2.338-.714 2.702-1.862h-4.004v-2.1h4.004c-.364-1.148-1.344-1.862-2.702-1.862-.994 0-1.834.448-2.268 1.204l-1.932-1.12c.854-1.386 2.422-2.268 4.2-2.268zm16.489 5.096c0 2.226-1.736 3.71-4.396 4.032v1.148h-2.184v-1.148c-2.66-.322-4.396-1.806-4.396-4.032s1.736-3.71 4.396-4.032v-1.148h2.184v1.148c2.66.322 4.396 1.806 4.396 4.032zm-8.736 0c0 1.12.7 1.778 2.156 1.974v-3.948c-1.456.196-2.156.854-2.156 1.974zm4.34 1.974c1.456-.196 2.156-.854 2.156-1.974s-.7-1.778-2.156-1.974v3.948zm10.699 2.926v-5.32l-3.78 5.32h-1.68v-9.8h2.24v5.32l3.78-5.32h1.68v9.8h-2.24zm8.314.196c-2.814 0-5.096-2.212-5.096-5.096s2.282-5.096 5.096-5.096 5.096 2.212 5.096 5.096-2.282 5.096-5.096 5.096zm0-2.184c1.596 0 2.856-1.162 2.856-2.912s-1.26-2.912-2.856-2.912c-1.596 0-2.856 1.162-2.856 2.912s1.26 2.912 2.856 2.912zm13.498-7.812v9.8h-2.24v-7.644h-2.94v7.644h-2.24v-9.8h7.42zm6.865 9.8v-5.32l-3.78 5.32h-1.68v-9.8h2.24v5.32l3.78-5.32h1.68v9.8h-2.24zm10.709-9.8v9.8h-2.24v-3.22h-.714l-2.086 3.22h-2.52l2.296-3.5c-1.19-.504-2.016-1.666-2.016-2.94a3.352 3.352 0 013.36-3.36h3.92zm-3.92 4.62h1.68v-2.52h-1.68c-.616 0-1.12.546-1.12 1.26s.504 1.26 1.12 1.26zM1397.16 93.2h2.24v9.8h-2.24v-3.892h-3.08V103h-2.24v-9.8h2.24v3.752h3.08V93.2zm8.32 9.996c-2.82 0-5.1-2.212-5.1-5.096s2.28-5.096 5.1-5.096c2.81 0 5.09 2.212 5.09 5.096s-2.28 5.096-5.09 5.096zm0-2.184c1.59 0 2.85-1.162 2.85-2.912s-1.26-2.912-2.85-2.912c-1.6 0-2.86 1.162-2.86 2.912s1.26 2.912 2.86 2.912zm9.79-7.812c1.93 0 3.43 1.498 3.43 3.36 0 1.862-1.5 3.36-3.43 3.36h-1.47V103h-2.24v-9.8h3.71zm0 4.62c.68 0 1.19-.546 1.19-1.26s-.51-1.26-1.19-1.26h-1.47v2.52h1.47zm10.34.098c.73.462 1.2 1.218 1.2 2.212 0 1.736-1.41 2.87-3.16 2.87h-4.12v-9.8h3.84c1.71 0 3.09 1.106 3.09 2.8 0 .812-.32 1.456-.85 1.918zm-2.24-2.618h-1.6v1.736h1.6c.5 0 .85-.364.85-.868s-.33-.868-.85-.868zm.28 5.6c.56 0 .92-.392.92-.938 0-.546-.36-.938-.92-.938h-1.88v1.876h1.88zm6.24-.056h3.92V103h-6.16v-9.8h6.09v2.156h-3.85v1.624h3.5v2.128h-3.5v1.736zm10.5-7.644v2.156h-3.36V103h-2.24v-9.8h5.6zm6.16 9.8v-5.32l-3.78 5.32h-1.68v-9.8h2.24v5.32l3.78-5.32h1.68v9.8h-2.24zm10.71-9.8v9.8h-2.24v-3.22h-.72l-2.08 3.22h-2.52l2.29-3.5c-1.19-.504-2.01-1.666-2.01-2.94 0-1.862 1.49-3.36 3.36-3.36h3.92zm-3.92 4.62h1.68V95.3h-1.68c-.62 0-1.12.546-1.12 1.26s.5 1.26 1.12 1.26zm-84.68 243.296v9.8h-2.24v-7.644h-2.94v7.644h-2.24v-9.8h7.42zm7.63 9.8l-.49-1.54h-3.64l-.49 1.54h-2.45l3.34-9.8h2.85l3.33 9.8h-2.45zm-3.45-3.64h2.29l-1.15-3.598-1.14 3.598zm11.78-6.16h2.24v9.8h-2.24v-3.892h-3.08v3.892h-2.24v-9.8h2.24v3.752h3.08v-3.752zm9.87 9.8l-.49-1.54h-3.64l-.49 1.54h-2.45l3.33-9.8h2.86l3.33 9.8h-2.45zm-3.46-3.64h2.3l-1.15-3.598-1.15 3.598zm16.27-6.16v9.8h-2.24v-5.698l-2.54 4.158h-.25l-2.53-4.158v5.698h-2.24v-9.8h2.24l2.66 4.354 2.66-4.354h2.24zm7.63 9.8l-.49-1.54h-3.64l-.49 1.54h-2.45l3.33-9.8h2.86l3.33 9.8h-2.45zm-3.46-3.64h2.3l-1.15-3.598-1.15 3.598zM1201.26 16.2V26h-2.24v-7.644h-2.94V26h-2.24v-9.8h7.42zm7.64 9.8l-.49-1.54h-3.64l-.49 1.54h-2.45l3.33-9.8h2.85l3.34 9.8h-2.45zm-3.46-3.64h2.29l-1.14-3.598-1.15 3.598zm13.88-6.16V26h-2.24v-7.644h-2.94V26h-2.24v-9.8h7.42zm6.73 0h2.24l-2.83 6.916c-.87 2.114-2.28 2.982-4.12 2.884v-2.1c1.02.098 1.58-.28 1.96-.966l-3.13-6.734h2.24l1.91 4.284 1.73-4.284zm8.34 9.8l-.49-1.54h-3.64l-.49 1.54h-2.45l3.33-9.8h2.86l3.33 9.8h-2.45zm-3.46-3.64h2.3l-1.15-3.598-1.15 3.598zm9.68.462v-2.016h8.68v2.016h-8.68zm18.63-6.622h2.24V26h-2.24v-3.892h-3.08V26h-2.24v-9.8h2.24v3.752h3.08V16.2zm8.31 9.996c-2.81 0-5.09-2.212-5.09-5.096s2.28-5.096 5.09-5.096c2.82 0 5.1 2.212 5.1 5.096s-2.28 5.096-5.1 5.096zm0-2.184c1.6 0 2.86-1.162 2.86-2.912s-1.26-2.912-2.86-2.912c-1.59 0-2.85 1.162-2.85 2.912s1.26 2.912 2.85 2.912zm12.16-3.094c.73.462 1.2 1.218 1.2 2.212 0 1.736-1.41 2.87-3.16 2.87h-4.12v-9.8h3.84c1.71 0 3.09 1.106 3.09 2.8 0 .812-.32 1.456-.85 1.918zm-2.24-2.618h-1.6v1.736h1.6c.5 0 .85-.364.85-.868s-.33-.868-.85-.868zm.28 5.6c.56 0 .92-.392.92-.938 0-.546-.36-.938-.92-.938h-1.88V23.9h1.88zm10.23 2.1l-.49-1.54h-3.64l-.49 1.54h-2.45l3.33-9.8h2.85l3.34 9.8h-2.45zm-3.46-3.64h2.29l-1.14-3.598-1.15 3.598zm13.67-6.16V26h-2.24v-3.22h-.72l-2.08 3.22h-2.52l2.29-3.5c-1.19-.504-2.01-1.666-2.01-2.94 0-1.862 1.5-3.36 3.36-3.36h3.92zm-3.92 4.62h1.68V18.3h-1.68c-.62 0-1.12.546-1.12 1.26s.5 1.26 1.12 1.26zm14.14-4.62v2.156h-3.36V26h-2.24v-9.8h5.6zm6.77 4.718c.73.462 1.2 1.218 1.2 2.212 0 1.736-1.41 2.87-3.16 2.87h-4.12v-9.8h3.84c1.71 0 3.09 1.106 3.09 2.8 0 .812-.32 1.456-.85 1.918zm-2.24-2.618h-1.6v1.736h1.6c.5 0 .85-.364.85-.868s-.33-.868-.85-.868zm.28 5.6c.56 0 .92-.392.92-.938 0-.546-.36-.938-.92-.938h-1.88V23.9h1.88zm9.46 2.1v-5.32L1318.9 26h-1.68v-9.8h2.24v5.32l3.78-5.32h1.68V26h-2.24zm8.96-9.8h2.24V26h-2.24v-3.892h-3.08V26h-2.24v-9.8h2.24v3.752h3.08V16.2zm5.88 7.644h3.92V26h-6.16v-9.8h6.09v2.156h-3.85v1.624h3.5v2.128h-3.5v1.736zm11.97-7.644V26h-2.24v-3.22h-.71l-2.09 3.22h-2.52l2.3-3.5c-1.19-.504-2.02-1.666-2.02-2.94 0-1.862 1.5-3.36 3.36-3.36h3.92zm-3.92 4.62h1.68V18.3h-1.68c-.61 0-1.12.546-1.12 1.26s.51 1.26 1.12 1.26zm-978.419 91.024v9.8h-2.24V114h-2.94v7.644h-2.24v-9.8h7.42zm3.645 7.644h3.92v2.156h-6.16v-9.8h6.09V114h-3.85v1.624h3.5v2.128h-3.5v1.736zm8.614-7.644c1.932 0 3.43 1.498 3.43 3.36 0 1.862-1.498 3.36-3.43 3.36h-1.47v3.08h-2.24v-9.8h3.71zm0 4.62c.686 0 1.19-.546 1.19-1.26s-.504-1.26-1.19-1.26h-1.47v2.52h1.47zm9.164-4.62h2.24l-2.828 6.916c-.868 2.114-2.282 2.982-4.116 2.884v-2.1c1.022.098 1.582-.28 1.96-.966l-3.136-6.734h2.24l1.918 4.284 1.722-4.284zm242.622 126.343c-2.954 0-5.096-2.212-5.096-5.096s2.142-5.096 5.096-5.096c1.778 0 3.346.882 4.2 2.268l-1.932 1.12c-.434-.756-1.274-1.204-2.268-1.204-1.736 0-2.856 1.162-2.856 2.912s1.12 2.912 2.856 2.912c.994 0 1.848-.448 2.268-1.204l1.932 1.12c-.84 1.386-2.408 2.268-4.2 2.268zm10.429-.196v-5.32l-3.78 5.32h-1.68v-9.8h2.24v5.32l3.78-5.32h1.68v9.8h-2.24zm7.349-9.8c1.932 0 3.43 1.498 3.43 3.36 0 1.862-1.498 3.36-3.43 3.36h-1.47v3.08h-2.24v-9.8h3.71zm0 4.62c.686 0 1.19-.546 1.19-1.26s-.504-1.26-1.19-1.26h-1.47v2.52h1.47zm9.728 5.18v-5.32l-3.78 5.32h-1.68v-9.8h2.24v5.32l3.78-5.32h1.68v9.8h-2.24zm10.709-9.8v9.8h-2.24v-3.22h-.714l-2.086 3.22h-2.52l2.296-3.5c-1.19-.504-2.016-1.666-2.016-2.94a3.352 3.352 0 013.36-3.36h3.92zm-3.92 4.62h1.68v-2.52h-1.68c-.616 0-1.12.546-1.12 1.26s.504 1.26 1.12 1.26zM478.743 118.418c-2.954 0-5.096-2.212-5.096-5.096s2.142-5.096 5.096-5.096c1.778 0 3.346.882 4.2 2.268l-1.932 1.12c-.434-.756-1.274-1.204-2.268-1.204-1.736 0-2.856 1.162-2.856 2.912s1.12 2.912 2.856 2.912c.994 0 1.848-.448 2.268-1.204l1.932 1.12c-.84 1.386-2.408 2.268-4.2 2.268zm8.679-6.916c1.932 0 3.43 1.498 3.43 3.36 0 1.862-1.498 3.36-3.43 3.36h-3.71v-9.8h2.24v3.08h1.47zm0 4.62c.686 0 1.19-.546 1.19-1.26s-.504-1.26-1.19-1.26h-1.47v2.52h1.47zm6.508-.056h3.92v2.156h-6.16v-9.8h6.09v2.156h-3.85v1.624h3.5v2.128h-3.5v1.736zm8.614-7.644c1.932 0 3.43 1.498 3.43 3.36 0 1.862-1.498 3.36-3.43 3.36h-1.47v3.08h-2.24v-9.8h3.71zm0 4.62c.686 0 1.19-.546 1.19-1.26s-.504-1.26-1.19-1.26h-1.47v2.52h1.47zm7.978-4.62c1.932 0 3.43 1.498 3.43 3.36 0 1.862-1.498 3.36-3.43 3.36h-1.47v3.08h-2.24v-9.8h3.71zm0 4.62c.686 0 1.19-.546 1.19-1.26s-.504-1.26-1.19-1.26h-1.47v2.52h1.47zm9.513 5.18l-.49-1.54h-3.64l-.49 1.54h-2.45l3.332-9.8h2.856l3.332 9.8h-2.45zm-3.458-3.64h2.296l-1.148-3.598-1.148 3.598zm6.04.462v-2.016h5.32v2.016h-5.32zm5.459 3.178v-2.1c1.008.154 1.624-.154 1.624-1.792v-5.908h6.776v9.8h-2.24v-7.644h-2.296v3.668c0 3.5-2.058 4.172-3.864 3.976zm12.039-2.156h3.92v2.156h-6.16v-9.8h6.09v2.156h-3.85v1.624h3.5v2.128h-3.5v1.736zm9.512 2.352c-2.814 0-5.096-2.212-5.096-5.096s2.282-5.096 5.096-5.096 5.096 2.212 5.096 5.096-2.282 5.096-5.096 5.096zm0-2.184c1.596 0 2.856-1.162 2.856-2.912s-1.26-2.912-2.856-2.912c-1.596 0-2.856 1.162-2.856 2.912s1.26 2.912 2.856 2.912zm11.397-7.812h2.24v9.8h-2.24v-3.892h-3.08v3.892h-2.24v-9.8h2.24v3.752h3.08v-3.752zm5.882 7.644h3.92v2.156h-6.16v-9.8h6.09v2.156h-3.85v1.624h3.5v2.128h-3.5v1.736z" fill="#434146" fill-opacity=".5"/><path d="M722.461 208.631c8.28 0 14.7 6.42 14.7 14.4s-6.42 14.4-14.7 14.4h-6.3v13.2h-9.6v-42h15.9zm0 19.8c2.94 0 5.1-2.34 5.1-5.4 0-3.06-2.16-5.4-5.1-5.4h-6.3v10.8h6.3zm38.038 23.04c-12.06 0-21.84-9.48-21.84-21.84s9.78-21.84 21.84-21.84 21.84 9.48 21.84 21.84-9.78 21.84-21.84 21.84zm0-9.36c6.84 0 12.24-4.98 12.24-12.48s-5.4-12.48-12.24-12.48-12.24 4.98-12.24 12.48 5.4 12.48 12.24 12.48zm46.085 9.36c-12.66 0-21.84-9.48-21.84-21.84s9.18-21.84 21.84-21.84c7.62 0 14.34 3.78 18 9.72l-8.28 4.8c-1.86-3.24-5.46-5.16-9.72-5.16-7.44 0-12.24 4.98-12.24 12.48s4.8 12.48 12.24 12.48c4.26 0 7.92-1.92 9.72-5.16l8.28 4.8c-3.6 5.94-10.32 9.72-18 9.72zm40.753 0c-12.66 0-21.84-9.48-21.84-21.84s9.18-21.84 21.84-21.84c7.62 0 14.34 3.78 18 9.72l-8.28 4.8c-1.86-3.24-5.46-5.16-9.72-5.16-7.44 0-12.24 4.98-12.24 12.48s4.8 12.48 12.24 12.48c4.26 0 7.92-1.92 9.72-5.16l8.28 4.8c-3.6 5.94-10.32 9.72-18 9.72zm44.699-.84v-22.8l-16.2 22.8h-7.2v-42h9.6v22.8l16.2-22.8h7.2v42h-9.6zm45.895-42v42h-9.6v-13.8h-3.06l-8.94 13.8h-10.8l9.84-15c-5.1-2.16-8.64-7.14-8.64-12.6 0-7.98 6.42-14.4 14.4-14.4h16.8zm-16.8 19.8h7.2v-10.8h-7.2c-2.64 0-4.8 2.34-4.8 5.4 0 3.06 2.16 5.4 4.8 5.4z" fill="#C62826"/></svg>